<svg width="320" height="150" viewBox="0 0 320 150" fill="none" xmlns="http://www.w3.org/2000/svg">
<path d="M105.341 57.2563C112.82 57.2563 117.522 61.3578 117.522 67.8812H109.95C109.95 65.4592 108.116 63.9671 105.245 63.9671C102.14 63.9671 100.164 65.3643 100.164 67.6487C100.164 69.7457 101.247 70.7705 103.691 71.2829L108.913 72.3551C115.121 73.6124 118.085 76.5491 118.085 82.0003C118.085 88.6638 112.818 92.9977 104.821 92.9977C96.8244 92.9977 92.0264 88.8512 92.0264 82.3728H99.5993C99.5993 84.8896 101.481 86.2869 104.867 86.2869C108.252 86.2869 110.464 84.9347 110.464 82.7452C110.464 80.8356 109.571 79.8559 107.266 79.391L101.95 78.3187C95.7422 77.0615 92.5435 73.5649 92.5435 67.9263C92.5435 61.6827 97.8587 57.2539 105.338 57.2539L105.341 57.2563Z" fill="#0C5FF2"/>
<path d="M120.532 57.9082H128.15V78.9256C128.15 83.2595 130.549 85.6365 134.83 85.6365C139.111 85.6365 141.603 83.167 141.603 78.9256V57.9082H149.222V79.438C149.222 87.6409 143.579 92.9522 134.83 92.9522C126.082 92.9522 120.532 87.686 120.532 79.438V57.9082Z" fill="#0C5FF2"/>
<path d="M153.881 92.3948V57.9082H161.406L176.08 79.8579V57.9082H183.605V92.3924H176.08L161.406 70.4902V92.3924H153.881V92.3948Z" fill="#0C5FF2"/>
<path d="M188.501 92.3948V57.9082H201.672C211.879 57.9082 218.98 64.9915 218.98 75.244C218.98 85.4965 212.065 92.3924 202.141 92.3924H188.501V92.3948ZM196.12 64.899V85.404H201.387C207.409 85.404 210.935 81.6299 210.935 75.2464C210.935 68.8629 207.219 64.9014 200.918 64.9014H196.12V64.899Z" fill="#0C5FF2"/>
<path d="M221.944 92.3948V57.9082H244.05V64.899H229.562V71.6549H242.402V78.2733H229.562V85.404H244.05V92.3948H221.944Z" fill="#0C5FF2"/>
<path d="M247.955 92.3948V57.9082H261.405C269.871 57.9082 274.669 61.9622 274.669 69.093C274.669 73.5669 272.742 76.7361 268.885 78.6931L275 92.3948H266.675L261.453 80.3252H255.573V92.3948H247.952H247.955ZM255.573 73.7068H261.357C264.697 73.7068 266.625 72.0297 266.625 69.093C266.625 66.1562 264.791 64.6191 261.403 64.6191H255.571V73.7068H255.573Z" fill="#0C5FF2"/>
<path d="M82.0761 57H46V92.7438H82.0761V57Z" fill="#0C5FF2"/>
<path d="M55.7423 74.3522H54.7798L54.7846 74.2621C55.0982 69.4371 59.166 65.6582 64.0478 65.6582C68.9296 65.6582 72.9974 69.4371 73.3111 74.2621L73.3182 74.3522H72.3534L72.3462 74.2739C72.0421 69.9779 68.3957 66.6118 64.0478 66.6118C59.6999 66.6118 56.0535 69.9779 55.7471 74.2739L55.7423 74.3522Z" fill="white"/>
<path d="M55.8237 79.1797H72.2505L72.181 79.3054C72.0278 79.5806 71.8554 79.8605 71.6615 80.1309L71.6352 80.1665H56.4367L56.4127 80.1309C56.2212 79.8581 56.0464 79.5806 55.8932 79.3054L55.8237 79.1797Z" fill="white"/>
<path d="M59.9229 83.1406H68.1518L67.7807 83.3019C66.5955 83.8191 65.3362 84.0824 64.0385 84.0824C62.7408 84.0824 61.4815 83.8191 60.2963 83.3019L59.9252 83.1406H59.9229Z" fill="white"/>
<path d="M55.0502 77.1992H73.0237L72.9949 77.306C72.9159 77.5883 72.8273 77.8658 72.7244 78.1315L72.7028 78.186H55.3687L55.3471 78.1315C55.2442 77.8658 55.1556 77.5883 55.0766 77.306L55.0479 77.1992H55.0502Z" fill="white"/>
<path d="M57.2484 81.1602H70.8261L70.6848 81.3049C70.3975 81.5966 70.0839 81.8742 69.7535 82.1304L69.7295 82.1493H58.3402L58.3163 82.1304C57.9859 81.8742 57.6746 81.5966 57.3849 81.3049L57.2437 81.1602H57.2484Z" fill="white"/>
<path d="M54.7583 75.2188H73.3159L73.3111 75.3065C73.2991 75.5722 73.2728 75.8497 73.2345 76.132L73.2249 76.2056H54.8493L54.8397 76.132C54.8014 75.8497 54.7751 75.5722 54.7631 75.3065L54.7583 75.2188Z" fill="white"/>
</svg>
