<svg width="73" height="73" viewBox="0 0 73 73" fill="none" xmlns="http://www.w3.org/2000/svg">
<g clip-path="url(#clip0_1357_2)">
<path d="M73 0H0V73H73V0Z" fill="#F7F7F7"/>
<path d="M19.7122 35.4418H17.7627L17.7748 35.2582C18.409 25.4044 26.641 17.6852 36.519 17.6852C46.3956 17.6852 54.6306 25.4029 55.2632 35.2582L55.2754 35.4418H53.3243L53.3122 35.281C52.6963 26.5044 45.3184 19.6317 36.519 19.6317C27.7181 19.6317 20.3418 26.5059 19.7228 35.281L19.7107 35.4418H19.7122Z" fill="#0C5FF2"/>
<path d="M19.8776 45.2986H53.1165L52.9739 45.555C52.6659 46.1194 52.3124 46.6868 51.9255 47.2421L51.8739 47.3164H21.1186L21.0685 47.2421C20.6801 46.6868 20.3282 46.1194 20.0171 45.555L19.8776 45.2986Z" fill="#0C5FF2"/>
<path d="M28.1732 53.3895H44.8238L44.0728 53.7202C41.6757 54.7777 39.1269 55.3148 36.4977 55.3148C33.8701 55.3148 31.3228 54.7777 28.9242 53.7202L28.1732 53.3895Z" fill="#0C5FF2"/>
<path d="M18.3134 41.2539H54.6821L54.623 41.4724C54.4652 42.0489 54.2816 42.6163 54.0783 43.1595L54.0343 43.2717H18.9597L18.9187 43.1595C18.7124 42.6163 18.5288 42.0489 18.374 41.4724L18.3149 41.2539H18.3134Z" fill="#0C5FF2"/>
<path d="M22.7601 49.3448H50.2355L49.9502 49.6392C49.3661 50.2369 48.7335 50.8043 48.0675 51.3247L48.0204 51.3626H24.9767L24.9296 51.3247C24.2636 50.8043 23.6295 50.2354 23.0469 49.6392L22.7616 49.3448H22.7601Z" fill="#0C5FF2"/>
<path d="M17.7232 37.2093H55.2723L55.2632 37.3898C55.2389 37.9314 55.1873 38.4988 55.1069 39.0769L55.0872 39.227H17.9068L17.8855 39.0769C17.8082 38.5003 17.7551 37.9329 17.7308 37.3898L17.7217 37.2093H17.7232Z" fill="#0C5FF2"/>
</g>
<defs>
<clipPath id="clip0_1357_2">
<rect width="73" height="73" fill="white"/>
</clipPath>
</defs>
</svg>
