<svg width="24" height="24" viewBox="0 0 24 24" fill="none" xmlns="http://www.w3.org/2000/svg">
<g clip-path="url(#clip0_1592_366)">
<path fill-rule="evenodd" clip-rule="evenodd" d="M4 0C1.79077 0 0 1.79089 0 4V20C0 22.2091 1.79077 24 4 24H20C22.2092 24 24 22.2091 24 20V4C24 1.79089 22.2092 0 20 0H4ZM19 10.5837V7.82727C16.8804 7.82727 15.1624 6.11401 15.1624 4H12.3984V14.9292C12.3984 16.2073 11.3628 17.2435 10.0811 17.2435C8.80298 17.2435 7.76392 16.2073 7.76392 14.9292C7.76392 13.6511 8.79956 12.6149 10.0811 12.6149C10.3235 12.6149 10.5591 12.6528 10.7773 12.7219V9.90674C10.6609 9.89087 10.5437 9.87866 10.4255 9.87048C10.3115 9.86255 10.1965 9.8584 10.0811 9.8584C7.27905 9.8584 5 12.1312 5 14.9292C5 17.7272 7.27905 20 10.0811 20C10.9158 20 11.7021 19.7961 12.3984 19.4404C14.0366 18.5975 15.1624 16.8912 15.1624 14.9292V9.354C16.2463 10.1278 17.5696 10.5837 19 10.5837Z" fill="black"/>
</g>
<defs>
<clipPath id="clip0_1592_366">
<rect width="24" height="24" fill="white"/>
</clipPath>
</defs>
</svg>
