<svg width="24" height="24" viewBox="0 0 24 24" fill="none" xmlns="http://www.w3.org/2000/svg">
<g clip-path="url(#clip0_1592_358)">
<path d="M20.6263 7.87252C20.4777 7.33494 20.0049 6.61335 19.0364 6.35719C17.763 6.0469 14.5183 6.03247 12.0057 6C10.7475 6.01804 9.30629 6.02886 8.02521 6.07577C6.74031 6.12267 5.61173 6.20565 4.97501 6.35719C3.99513 6.61335 3.52616 7.33494 3.37746 7.87252C3.12582 8.65183 3 10.7336 3 12C3 13.2664 3.12582 15.3482 3.37746 16.1275C3.52616 16.6687 3.99894 17.3867 4.96738 17.6428C6.24084 17.9531 9.48549 17.9675 11.9981 18C13.2563 17.982 14.6937 17.9711 15.9786 17.9242C17.2635 17.8773 18.3921 17.7943 19.0288 17.6428C20.0011 17.3867 20.4738 16.6687 20.6187 16.1275C20.8704 15.3482 20.9962 13.2664 20.9962 12C20.9962 10.7336 20.8704 8.65183 20.6187 7.87252H20.6263ZM10.1603 14.5328V9.46723L14.8653 12L10.1603 14.5328Z" fill="black"/>
</g>
<defs>
<clipPath id="clip0_1592_358">
<rect width="18" height="12" fill="white" transform="translate(3 6)"/>
</clipPath>
</defs>
</svg>
