<svg width="24" height="24" viewBox="0 0 24 24" fill="none" xmlns="http://www.w3.org/2000/svg">
<g clip-path="url(#clip0_1592_360)">
<path d="M19 7.82729V10.5838C17.5695 10.5838 16.2464 10.1278 15.1623 9.35406V14.9292C15.1623 16.8912 14.0366 18.5976 12.3983 19.4404C11.7021 19.7962 10.9159 20 10.0811 20C7.27907 20 5 17.7271 5 14.9292C5 12.1313 7.27907 9.85838 10.0811 9.85838C10.3167 9.85838 10.5487 9.87565 10.7773 9.90674V12.7219C10.5591 12.6528 10.3236 12.6149 10.0811 12.6149C8.7996 12.6149 7.76398 13.6511 7.76398 14.9292C7.76398 16.2073 8.80307 17.2435 10.0811 17.2435C11.3627 17.2435 12.3983 16.2073 12.3983 14.9292V4H15.1623C15.1623 6.11399 16.8803 7.82729 19 7.82729Z" fill="black"/>
</g>
<defs>
<clipPath id="clip0_1592_360">
<rect width="14" height="16" fill="white" transform="translate(5 4)"/>
</clipPath>
</defs>
</svg>
