<svg width="24" height="24" viewBox="0 0 24 24" fill="none" xmlns="http://www.w3.org/2000/svg">
<g clip-path="url(#clip0_1592_363)">
<path fill-rule="evenodd" clip-rule="evenodd" d="M4 0C1.79077 0 0 1.79089 0 4V20C0 22.2091 1.79077 24 4 24H20C22.2092 24 24 22.2091 24 20V4C24 1.79089 22.2092 0 20 0H4ZM19.0364 6.35718C20.0049 6.6134 20.4775 7.33496 20.6265 7.87256H20.6187C20.8704 8.65186 20.9961 10.7336 20.9961 12C20.9961 13.2664 20.8704 15.3481 20.6187 16.1274C20.4739 16.6687 20.001 17.3866 19.0288 17.6428C18.3921 17.7943 17.2634 17.8773 15.9785 17.9242C14.6936 17.9712 13.2563 17.9819 11.998 18C9.4856 17.9675 6.24072 17.9531 4.96729 17.6428C3.99902 17.3866 3.52612 16.6687 3.37744 16.1274C3.12573 15.3481 3 13.2664 3 12C3 10.7336 3.12573 8.65186 3.37744 7.87256C3.52612 7.33496 3.99512 6.6134 4.9751 6.35718C5.61182 6.20569 6.74023 6.12268 8.02515 6.07581C9.3064 6.02881 10.7476 6.01807 12.0056 6L12.6028 6.00745C15.0103 6.0365 17.8618 6.07092 19.0364 6.35718ZM14.8652 12L10.1604 9.46729V14.5327L14.8652 12Z" fill="black"/>
</g>
<defs>
<clipPath id="clip0_1592_363">
<rect width="24" height="24" fill="white"/>
</clipPath>
</defs>
</svg>
