<svg width="229" height="37" viewBox="0 0 229 37" fill="none" xmlns="http://www.w3.org/2000/svg">
<g clip-path="url(#clip0_1357_37)">
<path d="M59.3407 0.26331C66.8203 0.26331 71.5225 4.47872 71.5225 11.1834H63.9496C63.9496 8.69412 62.1156 7.16058 59.245 7.16058C56.1397 7.16058 54.1644 8.5966 54.1644 10.9445C54.1644 13.0997 55.2466 14.1529 57.6911 14.6796L62.9129 15.7816C69.1211 17.0737 72.0852 20.0921 72.0852 25.6947C72.0852 32.5432 66.8179 36.9976 58.8212 36.9976C50.8245 36.9976 46.0265 32.7358 46.0265 26.0775H53.5994C53.5994 28.6643 55.4813 30.1003 58.8667 30.1003C62.2521 30.1003 64.4644 28.7106 64.4644 26.4603C64.4644 24.4976 63.5713 23.4907 61.2657 23.0129L55.9505 21.9108C49.7423 20.6187 46.5436 17.025 46.5436 11.2297C46.5436 4.81273 51.8588 0.260872 59.3384 0.260872L59.3407 0.26331Z" fill="#F7F7F7"/>
<path d="M74.5321 0.933777H82.1505V22.535C82.1505 26.9893 84.5495 29.4323 88.8304 29.4323C93.1113 29.4323 95.6036 26.8942 95.6036 22.535V0.933777H103.222V23.0616C103.222 31.4924 97.5789 36.9512 88.8304 36.9512C80.0819 36.9512 74.5321 31.5387 74.5321 23.0616V0.933777Z" fill="#F7F7F7"/>
<path d="M107.881 36.3783V0.933777H115.406L130.08 23.4931V0.933777H137.605V36.3759H130.08L115.406 13.8652V36.3759H107.881V36.3783Z" fill="#F7F7F7"/>
<path d="M142.502 36.3783V0.933777H155.672C165.879 0.933777 172.98 8.21382 172.98 18.7511C172.98 29.2884 166.065 36.3759 156.141 36.3759H142.502V36.3783ZM150.12 8.11874V29.1933H155.387C161.409 29.1933 164.935 25.3144 164.935 18.7536C164.935 12.1927 161.22 8.12118 154.918 8.12118H150.12V8.11874Z" fill="#F7F7F7"/>
<path d="M175.944 36.3783V0.933777H198.05V8.11874H183.563V15.0623H196.403V21.8645H183.563V29.1933H198.05V36.3783H175.944Z" fill="#F7F7F7"/>
<path d="M201.955 36.3783V0.933777H215.406C223.872 0.933777 228.67 5.10042 228.67 12.4292C228.67 17.0274 226.742 20.2847 222.885 22.2961L229 36.3783H220.675L215.454 23.9734H209.573V36.3783H201.953H201.955ZM209.573 17.1713H215.358C218.698 17.1713 220.625 15.4475 220.625 12.4292C220.625 9.41091 218.791 7.83105 215.403 7.83105H209.571V17.1713H209.573Z" fill="#F7F7F7"/>
<path d="M36.0761 0H0V36.7367H36.0761V0Z" fill="#F7F7F7"/>
<path d="M9.74214 17.8344H8.77966L8.78445 17.7418C9.09809 12.7827 13.1659 8.89892 18.0477 8.89892C22.9295 8.89892 26.9973 12.7827 27.3109 17.7418L27.3181 17.8344H26.3532L26.3461 17.754C26.042 13.3386 22.3956 9.87902 18.0477 9.87902C13.6998 9.87902 10.0534 13.3386 9.74693 17.754L9.74214 17.8344Z" fill="#0C5FF2"/>
<path d="M9.82349 22.7959H26.2502L26.1808 22.9251C26.0276 23.2079 25.8552 23.4956 25.6613 23.7735L25.6349 23.8101H10.4364L10.4125 23.7735C10.2209 23.4931 10.0461 23.2079 9.89292 22.9251L9.82349 22.7959Z" fill="#0C5FF2"/>
<path d="M13.9224 26.8674H22.1513L21.7802 27.0332C20.5951 27.5647 19.3357 27.8353 18.038 27.8353C16.7404 27.8353 15.481 27.5647 14.2959 27.0332L13.9248 26.8674H13.9224Z" fill="#0C5FF2"/>
<path d="M9.05012 20.7601H27.0235L26.9948 20.8698C26.9158 21.1599 26.8272 21.4452 26.7243 21.7182L26.7027 21.7743H9.36856L9.34701 21.7182C9.24406 21.4452 9.15547 21.1599 9.07646 20.8698L9.04773 20.7601H9.05012Z" fill="#0C5FF2"/>
<path d="M11.2481 24.8316H24.8257L24.6844 24.9804C24.3971 25.2802 24.0835 25.5655 23.7531 25.8288L23.7291 25.8483H12.3398L12.3159 25.8288C11.9855 25.5655 11.6742 25.2802 11.3845 24.9804L11.2433 24.8316H11.2481Z" fill="#0C5FF2"/>
<path d="M8.75806 18.7243H27.3157L27.3109 18.8145C27.2989 19.0876 27.2726 19.3728 27.2343 19.663L27.2247 19.7385H8.84904L8.83946 19.663C8.80115 19.3728 8.77482 19.0876 8.76284 18.8145L8.75806 18.7243Z" fill="#0C5FF2"/>
</g>
<defs>
<clipPath id="clip0_1357_37">
<rect width="229" height="37" fill="white"/>
</clipPath>
</defs>
</svg>
