<svg width="229" height="36" viewBox="0 0 229 36" fill="none" xmlns="http://www.w3.org/2000/svg">
<g clip-path="url(#clip0_1357_20)">
<path d="M59.3407 0.256187C66.8203 0.256187 71.5225 4.35766 71.5225 10.8811H63.9496C63.9496 8.45914 62.1156 6.96705 59.245 6.96705C56.1397 6.96705 54.1644 8.36425 54.1644 10.6486C54.1644 12.7456 55.2466 13.7704 57.6911 14.2828L62.9129 15.355C69.1211 16.6123 72.0852 19.549 72.0852 25.0003C72.0852 31.6637 66.8179 35.9976 58.8212 35.9976C50.8245 35.9976 46.0265 31.8511 46.0265 25.3727H53.5994C53.5994 27.8896 55.4813 29.2868 58.8667 29.2868C62.2521 29.2868 64.4644 27.9346 64.4644 25.7451C64.4644 23.8355 63.5713 22.8558 61.2657 22.3909L55.9505 21.3187C49.7423 20.0614 46.5436 16.5648 46.5436 10.9262C46.5436 4.68265 51.8588 0.253815 59.3384 0.253815L59.3407 0.256187Z" fill="#0C5FF2"/>
<path d="M74.5321 0.908539H82.1505V21.9259C82.1505 26.2599 84.5495 28.6368 88.8304 28.6368C93.1113 28.6368 95.6036 26.1674 95.6036 21.9259V0.908539H103.222V22.4383C103.222 30.6413 97.5789 35.9526 88.8304 35.9526C80.0819 35.9526 74.5321 30.6863 74.5321 22.4383V0.908539Z" fill="#0C5FF2"/>
<path d="M107.881 35.3951V0.908539H115.406L130.08 22.8582V0.908539H137.605V35.3927H130.08L115.406 13.4905V35.3927H107.881V35.3951Z" fill="#0C5FF2"/>
<path d="M142.502 35.3951V0.908539H155.672C165.879 0.908539 172.98 7.99183 172.98 18.2443C172.98 28.4968 166.065 35.3927 156.141 35.3927H142.502V35.3951ZM150.12 7.89931V28.4043H155.387C161.409 28.4043 164.935 24.6302 164.935 18.2467C164.935 11.8632 161.22 7.90169 154.918 7.90169H150.12V7.89931Z" fill="#0C5FF2"/>
<path d="M175.944 35.3951V0.908539H198.05V7.89931H183.563V14.6552H196.403V21.2736H183.563V28.4043H198.05V35.3951H175.944Z" fill="#0C5FF2"/>
<path d="M201.955 35.3951V0.908539H215.406C223.872 0.908539 228.67 4.96257 228.67 12.0933C228.67 16.5672 226.742 19.7364 222.885 21.6935L229 35.3951H220.675L215.454 23.3255H209.573V35.3951H201.953H201.955ZM209.573 16.7072H215.358C218.698 16.7072 220.625 15.03 220.625 12.0933C220.625 9.15656 218.791 7.6194 215.403 7.6194H209.571V16.7072H209.573Z" fill="#0C5FF2"/>
<path d="M36.0761 0H0V35.7438H36.0761V0Z" fill="#0C5FF2"/>
<path d="M9.74214 17.3524H8.77966L8.78445 17.2623C9.09809 12.4373 13.1659 8.65841 18.0477 8.65841C22.9295 8.65841 26.9973 12.4373 27.3109 17.2623L27.3181 17.3524H26.3532L26.3461 17.2741C26.042 12.9781 22.3956 9.61202 18.0477 9.61202C13.6998 9.61202 10.0534 12.9781 9.74693 17.2741L9.74214 17.3524Z" fill="white"/>
<path d="M9.82349 22.1798H26.2502L26.1808 22.3055C26.0276 22.5807 25.8552 22.8606 25.6613 23.131L25.6349 23.1666H10.4364L10.4125 23.131C10.2209 22.8582 10.0461 22.5807 9.89292 22.3055L9.82349 22.1798Z" fill="white"/>
<path d="M13.9224 26.1413H22.1513L21.7802 26.3026C20.5951 26.8197 19.3357 27.083 18.038 27.083C16.7404 27.083 15.481 26.8197 14.2959 26.3026L13.9248 26.1413H13.9224Z" fill="white"/>
<path d="M9.05012 20.199H27.0235L26.9948 20.3057C26.9158 20.588 26.8272 20.8656 26.7243 21.1313L26.7027 21.1858H9.36856L9.34701 21.1313C9.24406 20.8656 9.15547 20.588 9.07646 20.3057L9.04773 20.199H9.05012Z" fill="white"/>
<path d="M11.2481 24.1605H24.8257L24.6844 24.3052C24.3971 24.597 24.0835 24.8745 23.7531 25.1307L23.7291 25.1497H12.3398L12.3159 25.1307C11.9855 24.8745 11.6742 24.597 11.3845 24.3052L11.2433 24.1605H11.2481Z" fill="white"/>
<path d="M8.75806 18.2182H27.3157L27.3109 18.306C27.2989 18.5717 27.2726 18.8492 27.2343 19.1315L27.2247 19.2051H8.84904L8.83946 19.1315C8.80115 18.8492 8.77482 18.5717 8.76284 18.306L8.75806 18.2182Z" fill="white"/>
</g>
<defs>
<clipPath id="clip0_1357_20">
<rect width="229" height="36" fill="white"/>
</clipPath>
</defs>
</svg>
