<?xml version="1.0" encoding="UTF-8"?>
<svg id="Layer_1" data-name="Layer 1" xmlns="http://www.w3.org/2000/svg" viewBox="0 0 900 500">
  <defs>
    <style>
      .cls-1 {
        fill: #0058f5;
      }
    </style>
  </defs>
  <path class="cls-1" d="M196.17,279.26h-5.63c-.31-1.68-.54-4.17-.66-8.44-3.08,6.69-8.82,9.29-17.17,9.29-15.29,0-22.71-13.1-22.71-29.83s8.81-30.37,25.18-30.37c12.41,0,19.4,6.66,21.13,16.95h-7.16c-1.75-6.34-5.71-10.8-14.3-10.8-12.08,0-17.32,10.73-17.32,24.25,0,12.55,4.91,23.68,16.45,23.68,12.54,0,15.03-8.69,15.03-19.49v-.36h-15.17v-6.42h22.33v31.55Z"/>
  <path class="cls-1" d="M206.29,252.62v26.63h-7.21v-58.54h20.72c10.34,0,17.6,5.13,17.6,15.09,0,8.46-5.03,12.22-9.61,13.68,6.12,1.96,8.73,6.78,8.73,14.75v1.06c0,5.42.12,10.52.82,13.96h-7.18c-.79-2.35-.99-7.77-.99-13.89v-1.17c0-8.3-3-11.57-12.64-11.57h-10.22ZM206.29,246.61h10.8c7.64,0,12.9-2.18,12.9-10.39,0-6.27-4.2-9.5-11.18-9.5h-12.52v19.88Z"/>
  <path class="cls-1" d="M272.89,251.68h-26.33v21.39h28.95l-.98,6.19h-35.1v-58.54h34.69v6.22h-27.56v18.47h26.33v6.27Z"/>
  <path class="cls-1" d="M308.33,251.68h-26.33v21.39h28.95l-.98,6.19h-35.1v-58.54h34.69v6.22h-27.56v18.47h26.33v6.27Z"/>
  <path class="cls-1" d="M310.31,279.26v-58.54h9.63c23.36,41.55,26.51,47.16,27.58,49.74h.11c-.54-7.79-.62-17.23-.62-26.73v-23.01h6.88v58.54h-8.93c-24.98-45.01-26.83-48.69-28.08-51.14h-.08c.42,7.57.34,17.38.34,27.89v23.25h-6.83Z"/>
  <path class="cls-1" d="M368.48,220.71h7.25v52.35h28.17l-1.03,6.19h-34.39v-58.54Z"/>
  <path class="cls-1" d="M409.13,220.71v58.54h-7.25v-58.54h7.25Z"/>
  <path class="cls-1" d="M456.8,279.26h-5.63c-.31-1.68-.54-4.17-.66-8.44-3.08,6.69-8.82,9.29-17.17,9.29-15.29,0-22.71-13.1-22.71-29.83s8.81-30.37,25.18-30.37c12.41,0,19.4,6.66,21.14,16.95h-7.16c-1.75-6.34-5.71-10.8-14.3-10.8-12.07,0-17.32,10.73-17.32,24.25,0,12.55,4.91,23.68,16.45,23.68,12.54,0,15.03-8.69,15.03-19.49v-.36h-15.17v-6.42h22.33v31.55Z"/>
  <path class="cls-1" d="M459.7,220.71h7.25v24.63h27.34v-24.63h7.3v58.54h-7.3v-27.64h-27.34v27.64h-7.25v-58.54Z"/>
  <path class="cls-1" d="M516.66,226.99h-17.13v-6.27h41.64v6.27h-17.18v52.27h-7.33v-52.27Z"/>
  <path class="cls-1" d="M554.4,262.73c1.15,7.6,6.28,11.26,13.23,11.26s11.65-3.59,11.65-10.11-3.06-9.23-13.33-12.42c-12.26-3.73-16.94-7.8-16.94-16.2,0-9.3,7.02-15.31,17.9-15.31,12.6,0,17.96,7.43,18.59,15.69h-7.21c-.9-5.98-4.32-9.78-11.57-9.78-6.86,0-10.27,3.35-10.27,8.73s3.05,7.66,12.44,10.5c14.43,4.38,17.92,9.91,17.92,17.97,0,9.74-6.74,16.84-19.5,16.84s-19.31-6.52-20.15-17.18h7.24Z"/>
  <path class="cls-1" d="M633.69,249.62c0,16.81-7.81,30.48-24.96,30.48-16.18,0-24.33-12.89-24.33-30.43,0-15.33,7.96-29.77,25.01-29.77,16.14,0,24.27,12.85,24.27,29.72ZM591.97,249.54c0,13.74,5.56,24.45,17.16,24.45s17.13-10.55,17.13-24.31-5.25-23.66-17.12-23.66-17.18,10.56-17.18,23.52Z"/>
  <path class="cls-1" d="M635.21,220.71h7.25v52.35h28.17l-1.03,6.19h-34.39v-58.54Z"/>
  <path class="cls-1" d="M678.33,261.44l-5.7,17.82h-7.27c4.11-12.21,14.45-44.69,19.05-58.54h9.2l19.88,58.54h-7.79l-5.88-17.82h-21.5ZM698.09,255.17c-4.95-15.07-8.09-23.79-9.23-28.46h-.14c-1.63,6.91-4.67,15.92-8.72,28.46h18.09Z"/>
  <path class="cls-1" d="M718.89,252.62v26.63h-7.21v-58.54h20.72c10.34,0,17.6,5.13,17.6,15.09,0,8.46-5.03,12.22-9.61,13.68,6.12,1.96,8.73,6.78,8.73,14.75v1.06c0,5.42.12,10.52.82,13.96h-7.18c-.79-2.35-.99-7.77-.99-13.89v-1.17c0-8.3-3-11.57-12.64-11.57h-10.22ZM718.89,246.61h10.8c7.64,0,12.9-2.18,12.9-10.39,0-6.27-4.2-9.5-11.18-9.5h-12.52v19.88Z"/>
</svg>