<?xml version="1.0" encoding="UTF-8"?>
<svg id="Layer_1" data-name="Layer 1" xmlns="http://www.w3.org/2000/svg" viewBox="0 0 900 500">
  <defs>
    <style>
      .cls-1 {
        fill: #0c5ff2;
      }
    </style>
  </defs>
  <g id="_0rRoLP.tif" data-name="0rRoLP.tif">
    <g>
      <path class="cls-1" d="M633.36,214.47c3.1.58,6.17,1.21,9.1,2.43,4,1.67,7.52,4.05,10.7,6.96.74.68.86,1.19.06,1.94-1.88,1.77-3.71,3.6-5.53,5.43-.69.69-1.22.77-2,.04-4.56-4.26-10.05-6.36-16.25-6.55-14.51-.44-24.58,11.17-25.76,22.06-1.38,12.73,5.99,22.14,14.31,25.93,8.11,3.7,16.16,3.22,23.93-1.26.91-.53,1.31-1.17,1.3-2.25-.06-4.17-.06-8.35,0-12.52.02-1.22-.36-1.63-1.61-1.62-4.99.06-9.98-.02-14.96.05-1.39.02-1.81-.47-1.77-1.79.07-2.39.04-4.78.02-7.17,0-.98.33-1.43,1.4-1.42,8.66.03,17.32.03,25.97,0,1.1,0,1.49.38,1.49,1.47-.03,9.38-.02,18.76,0,28.14,0,.77-.27,1.34-.83,1.85-6.27,5.73-13.61,8.91-22.15,9.28-7.53.33-14.65-1.07-20.97-5.29-10.15-6.78-15.95-16.06-16.71-28.46-1.13-18.66,12.47-32.85,26.39-36.28,1.59-.39,3.22-.66,4.83-.98,3.01,0,6.02,0,9.04,0Z"/>
      <path class="cls-1" d="M178.96,216.44c14.16,0,28.32,0,42.47.01q2.16,0,2.16,2.2c0,3.47-.05,6.94.02,10.41.03,1.35-.44,1.78-1.79,1.77-8.89-.04-17.78-.02-26.67-.02q-2.02,0-2.03,2.03c0,2.72,0,5.44,0,8.16,0,1.76.09,1.85,1.83,1.85,6.82,0,13.64,0,20.46,0,1.96,0,1.99.04,2,1.94,0,3.47-.06,6.94.03,10.41.04,1.44-.49,1.84-1.88,1.83-6.82-.06-13.64-.03-20.46-.02-1.92,0-1.97.05-1.97,1.99,0,7.5,0,15,0,22.5,0,1.85-.06,1.91-1.89,1.91-4.09,0-8.18,0-12.28,0v-66.98Z"/>
      <path class="cls-1" d="M314.52,214.47c1.48.25,2.96.46,4.43.75,14.46,2.85,25.99,15.25,27.83,29.86.24,1.92.2,3.83.24,5.75.03,1.1-.37,1.64-1.55,1.63-3.86-.03-7.72-.02-11.58,0-.99,0-1.29-.38-1.19-1.38,1.04-11.34-8.8-21.97-20.22-22.3-10.32-.3-18.13,6.36-20.92,14.02-.93,2.56-1.2,5.21-1.05,7.89.08,1.35-.4,1.82-1.76,1.8-3.67-.06-7.34-.05-11.01,0-1.2.02-1.64-.41-1.68-1.63-.59-17.96,12.55-33.56,30.44-36.08.69-.1,1.42.05,2.07-.33,1.98,0,3.95,0,5.93,0Z"/>
      <path class="cls-1" d="M418.77,237.73v1.66c0,13.98,0,27.95,0,41.93q0,2.19-2.15,2.2c-2.35,0-4.71-.03-7.06,0-.96.01-1.4-.36-1.34-1.32.02-.33,0-.66,0-.98,0-20.87,0-41.74,0-62.61,0-2.24.04-1.97,2.23-2.3,4.19-.63,6.68,1.14,9.14,4.45,9.76,13.1,19.85,25.96,29.81,38.9.37.48.76.94,1.21,1.51.39-.6.24-1.16.24-1.68.01-13.65,0-27.29,0-40.94q0-2.19,2.16-2.2c2.21,0,4.43.07,6.63-.02,1.37-.06,1.78.45,1.78,1.78-.04,9.61-.02,19.23-.02,28.84,0,11.49,0,22.98,0,34.47,0,2.08-.04,1.84-2.12,2.14-3.62.52-5.74-1.01-7.88-3.85-10.41-13.85-21.06-27.51-31.63-41.24-.22-.29-.47-.57-.71-.85-.11.03-.21.07-.32.1Z"/>
      <path class="cls-1" d="M532.17,249.94c0-10.51,0-21.01,0-31.52q0-2.06,2.12-2.06c7.95,0,15.91-.02,23.86,0,13.68.05,24.91,11.31,25.05,24.95.09,8.89-3.5,15.87-10.55,21.15-.9.68-.89,1.18-.44,2.07,2.96,5.81,5.88,11.65,8.8,17.48.7,1.39.63,1.49-.88,1.49-2.87.01-5.74-.04-8.61.02-1.05.02-1.61-.38-2.07-1.29-2.28-4.63-4.63-9.23-6.91-13.86-.42-.86-.92-1.31-1.95-1.22-5.35.47-10.72.13-16.08.22-1.75.03-1.82.08-1.83,1.84,0,4.17-.04,8.35.02,12.52.02,1.31-.37,1.85-1.77,1.79-2.35-.1-4.71-.1-7.06,0-1.4.06-1.74-.49-1.73-1.79.04-10.6.02-21.2.02-31.8ZM542.68,241.85c0,4.46.03,8.91-.02,13.37-.02,1.27.39,1.72,1.7,1.7,4.42-.07,8.85-.01,13.27-.03,8.45-.04,15.01-6.6,15.03-15.02.02-8.44-6.34-14.9-14.81-15-4.47-.05-8.94.03-13.41-.04-1.36-.02-1.8.46-1.78,1.79.06,4.41.02,8.82.02,13.23Z"/>
      <path class="cls-1" d="M353.41,249.99c0-10.55,0-21.11,0-31.66,0-1.96,0-1.97,1.94-1.97,13.08,0,26.17.02,39.25-.03,1.43,0,1.92.43,1.86,1.85-.09,2.25-.02,4.5-.03,6.75,0,1.8-.11,1.92-1.92,1.92-9.41,0-18.83,0-28.24,0q-2.33,0-2.33,2.31c0,4.64.04,9.29-.02,13.93-.02,1.28.38,1.7,1.69,1.69,6.92-.06,13.84-.03,20.76-.02,1.87,0,1.9.03,1.9,1.88,0,2.16,0,4.32,0,6.47,0,1.97-.02,1.98-1.94,1.98-6.87,0-13.74.03-20.61-.02-1.32-.01-1.82.34-1.8,1.73.07,4.78.02,9.57.03,14.35,0,1.82.04,1.85,1.94,1.85,9.46,0,18.92,0,28.38,0,2.11,0,2.16.06,2.17,2.1,0,2.3-.03,4.6.01,6.89.02,1.04-.3,1.52-1.45,1.52-13.37-.03-26.73-.03-40.1,0-1.37,0-1.51-.65-1.5-1.74.02-10.6.01-21.2.01-31.8Z"/>
      <path class="cls-1" d="M477.36,249.8c0-10.46,0-20.92,0-31.38,0-2.06,0-2.07,1.98-2.07,12.99,0,25.98,0,38.97,0,1.89,0,1.89,0,1.9,1.86,0,2.3-.07,4.6.03,6.89.06,1.39-.47,1.77-1.79,1.76-9.55-.04-19.11-.02-28.66-.02q-2.05,0-2.05,1.99c0,4.78.04,9.57-.03,14.35-.02,1.25.39,1.6,1.62,1.59,7.01-.05,14.02,0,21.04-.05,1.4-.01,1.95.38,1.89,1.82-.09,2.29-.07,4.6,0,6.89.04,1.29-.46,1.69-1.74,1.68-7.01-.05-14.02,0-21.04-.05-1.35-.01-1.78.36-1.76,1.74.08,4.83.08,9.66,0,14.49-.02,1.4.49,1.74,1.8,1.73,9.55-.04,19.11-.02,28.66-.02,2.05,0,2.05,0,2.05,2.02,0,2.25-.07,4.51.03,6.75.06,1.37-.42,1.76-1.77,1.75-12-.04-24-.02-36-.02-1.13,0-2.27-.08-3.39.02-1.4.12-1.75-.48-1.73-1.79.05-6.24.02-12.48.02-18.71,0-4.41,0-8.82,0-13.23Z"/>
      <path class="cls-1" d="M233.48,249.88c0-10.41,0-20.82,0-31.23,0-2.15.05-2.19,2.23-2.19,3.39,0,6.78,0,10.16,0,2,0,2.01.01,2.01,2.07,0,16.09,0,32.17,0,48.26q0,2.27,2.22,2.27c8.05,0,16.09,0,24.14,0,1.86,0,1.9.05,1.91,1.89,0,3.61-.03,7.22.02,10.83.02,1.2-.38,1.66-1.62,1.66-13.13-.03-26.26-.03-39.39,0-1.45,0-1.71-.67-1.7-1.91.03-10.55.02-21.1.01-31.66Z"/>
      <path class="cls-1" d="M691.22,247.64c1.79-3.1,3.57-6.17,5.35-9.25,4.01-6.95,8.03-13.89,12.01-20.85.47-.83,1.03-1.21,2.01-1.19,3.06.05,6.12,0,9.17.02,1.48,0,1.56.18.78,1.52-5.52,9.54-11.05,19.08-16.58,28.62-2.28,3.94-4.54,7.89-6.85,11.81-.54.92-.77,1.87-.77,2.93.03,6.8.02,13.6.01,20.39,0,1.83-.05,1.87-1.91,1.87-2.26,0-4.52,0-6.77,0-1.84,0-1.85-.01-1.85-1.92,0-6.75-.01-13.5.01-20.25,0-1.06-.22-1.99-.76-2.92-7.74-13.3-15.44-26.62-23.15-39.93-1.2-2.07-1.17-2.12,1.23-2.12,2.59,0,5.18.09,7.76-.04,1.49-.07,2.27.5,2.98,1.75,5.39,9.4,10.84,18.77,16.27,28.14.28.47.44,1.04,1.07,1.43Z"/>
      <path class="cls-1" d="M311.28,252.17c-3.53,0-7.06-.04-10.59.02-1.39.02-1.78-.56-1.74-1.86.2-5.88,5.65-11.07,11.55-11.45,6.6-.43,12.04,4.66,12.9,9.89.03.18.08.37.11.55.36,2.56.11,2.84-2.49,2.84-3.25,0-6.49,0-9.74,0h0Z"/>
      <path class="cls-1" d="M311.42,265.43c9.97,0,19.94,0,29.91,0,.7,0,1.41.07,2.1.18.45.07.75.4.7.9-.04.5-.37.75-.83.81-.37.05-.75.05-1.13.05-16.79-.01-33.58.04-50.37-.08-3.71-.03-7.42-.11-11.14-.17-.67-.01-1.62.16-1.62-.86,0-1.02.94-.87,1.61-.87,10.25-.01,20.51,0,30.76,0v.04Z"/>
      <path class="cls-1" d="M311.21,271.03c8.6,0,17.21,0,25.81.01.89,0,2.21-.28,2.23,1.04.03,1.42-1.34,1.19-2.27,1.18-17.25-.27-34.5-.21-51.75-.24-.42,0-.85-.02-1.25-.14-.49-.14-.78-.53-.72-1.07.06-.49.41-.73.87-.77.47-.04.94-.05,1.41-.05,8.56,0,17.11,0,25.67,0v.04Z"/>
      <path class="cls-1" d="M311.75,262.01c-10.68,0-21.36,0-32.03,0-.52,0-1.04.01-1.55-.04-.52-.05-1.11-.13-1.13-.81-.01-.7.57-.76,1.1-.8.28-.02.56-.02.85-.02,12.32,0,24.65-.15,36.97.08,9.5.18,19,.05,28.5.17.24,0,.47,0,.71.01.52.04,1.14.06,1.11.77-.03.61-.59.64-1.07.66-.42.02-.85.01-1.27.01-10.72,0-21.45,0-32.17,0v-.05Z"/>
      <path class="cls-1" d="M311.4,257.82c-11.05,0-22.11,0-33.16-.02-.66,0-1.8.4-1.79-.7.01-.9,1.1-.66,1.75-.66,22.2-.01,44.4-.01,66.6,0,.65,0,1.71-.27,1.73.67.02.98-1.06.69-1.7.69-11.15.02-22.3.01-33.44.01Z"/>
      <path class="cls-1" d="M311.55,278.65c-6.11,0-12.23,0-18.34,0-.47,0-.94,0-1.41-.03-.75-.07-1.26-.44-1.26-1.23,0-.74.52-1.12,1.18-1.16,1.17-.08,2.36-.16,3.52-.07,4.84.38,9.68.15,14.52.19,6.77.06,13.54.02,20.31.03.33,0,.66,0,.99,0,.84.01,1.74.09,1.72,1.18-.02,1.09-.94,1.12-1.77,1.12-6.49,0-12.98,0-19.47,0v-.02Z"/>
      <path class="cls-1" d="M311.63,284.57c-2.86,0-5.73,0-8.59,0-.38,0-.75,0-1.13-.02-.85-.04-1.49-.38-1.47-1.33.02-.86.62-1.19,1.42-1.24.23-.01.47-.01.7-.01,6.05,0,12.11,0,18.16.01.23,0,.47,0,.7.01.88.02,1.47.44,1.48,1.34,0,.88-.63,1.18-1.42,1.22-.37.02-.75.02-1.13.02-2.91,0-5.82,0-8.73,0h0Z"/>
    </g>
  </g>
</svg>