<?xml version="1.0" encoding="UTF-8"?>
<svg id="Layer_1" data-name="Layer 1" xmlns="http://www.w3.org/2000/svg" viewBox="0 0 978.61 289.4">
  <defs>
    <style>
      .cls-1 {
        fill: #fff;
      }
    </style>
  </defs>
  <g>
    <path class="cls-1" d="M368.44,174.75v-63.29c0-19.43,5.58-33.41,16.73-41.92,11.15-8.5,29.21-12.76,54.18-12.76,23.63,0,40.7,4.09,51.19,12.26,10.49,8.17,15.74,22.31,15.74,42.41v35.46h-107.69v24.19c0,11.05,3.86,19,11.6,23.86,7.73,4.86,19.66,7.29,35.79,7.29,15.24,0,33.24-2.65,54.01-7.95v22.86c-20.33,4.42-39.65,6.63-57.99,6.63-49.04,0-73.56-16.34-73.56-49.04ZM476.46,127.37v-25.18c0-9.72-2.93-16.4-8.78-20.05-5.86-3.65-15.85-5.47-29.99-5.47s-23.64,1.82-29.82,5.47c-6.19,3.64-9.28,10.33-9.28,20.05v25.18h77.87Z"/>
    <path class="cls-1" d="M531.79,60.11h29.82v19.55c3.09-15.24,20.65-22.86,52.69-22.86,20.54,0,34.96,3.7,43.24,11.1,8.28,7.4,12.42,19.05,12.42,34.96v117.63h-29.82v-115.97c0-4.19-.33-7.62-.99-10.27s-1.99-5.3-3.98-7.95c-4.42-5.52-14.25-8.28-29.49-8.28-11.71,0-20.71.83-27,2.49-6.3,1.66-10.72,4.36-13.25,8.12-2.54,3.76-3.81,9.06-3.81,15.91v115.97h-29.82V60.11Z"/>
    <path class="cls-1" d="M689.18,200.27l90.13-119.95h-86.81v-20.21h120.61v20.21l-90.13,119.95h92.12v20.21h-125.91v-20.21Z"/>
    <path class="cls-1" d="M892.13,222.8l-61.96-162.69h32.47l44.73,130.88h.66l40.43-130.88h30.15l-80.52,229.29h-31.15l25.18-66.6Z"/>
  </g>
  <g>
    <g>
      <path class="cls-1" d="M28.61,49.16c-6.98,0-13.45-3.68-17.02-9.68L2.1,23.53C-3.87,13.19,3.58.26,15.52.24L136.72,0c5.56-.01,10.7,2.95,13.48,7.76l11.21,19.85c5.44,9.63-1.52,21.55-12.58,21.55H28.61Z"/>
      <path class="cls-1" d="M110.45,85.46c5.98-10.35-1.49-23.29-13.45-23.29h-22.85s-22.85,0-22.85,0c-11.95,0-19.42,12.94-13.45,23.29l11.43,19.79,11.43,19.79c5.98,10.35,20.91,10.35,26.89,0l11.43-19.79,11.43-19.79Z"/>
    </g>
    <g>
      <path class="cls-1" d="M265.86,10.14c3.49-6.05,9.91-9.81,16.89-9.9L301.31,0C313.25,0,320.72,12.91,314.77,23.26l-60.4,105.09c-2.77,4.82-7.9,7.79-13.46,7.79l-22.8-.22c-11.06-.11-17.9-12.09-12.37-21.67l60.11-104.11Z"/>
      <path class="cls-1" d="M193.51,62.87c5.98,10.35,20.91,10.35,26.89,0l11.43-19.79,11.43-19.79C249.22,12.94,241.76,0,229.8,0h-22.85s-22.85,0-22.85,0C172.15,0,164.68,12.94,170.66,23.29l11.43,19.79,11.43,19.79Z"/>
    </g>
    <g>
      <path class="cls-1" d="M180.94,235.12c3.49,6.05,3.54,13.49.13,19.58l-9.07,16.19c-5.97,10.34-20.89,10.35-26.88.03l-60.81-104.85c-2.79-4.81-2.79-10.74-.02-15.55l11.59-19.63c5.62-9.52,19.42-9.46,24.95.12l60.11,104.11Z"/>
      <path class="cls-1" d="M171.45,146.09c-11.95,0-19.42,12.94-13.45,23.29l11.43,19.79,11.43,19.79c5.98,10.35,20.91,10.35,26.89,0l11.43-19.79,11.43-19.79c5.98-10.35-1.49-23.29-13.45-23.29h-22.85s-22.85,0-22.85,0Z"/>
    </g>
  </g>
</svg>