<?xml version="1.0" encoding="UTF-8"?>
<svg id="Layer_1" data-name="Layer 1" xmlns="http://www.w3.org/2000/svg" viewBox="0 0 900 500">
  <defs>
    <style>
      .cls-1 {
        fill: #0058f5;
      }
    </style>
  </defs>
  <g id="beBHc3">
    <g>
      <path class="cls-1" d="M575.52,321.26c-11.28-1.85-11.08-16.65-10.15-25.66.95-9.2,4.43-12.93,13.69-13.8,10.91-1.02,38.32-1.25,48.79.33,8.64,1.31,9.98,7.4,10.46,15.23l-13.71.09-.65-3.66h-44.25v14.33h47.24c.38,0,6.29,2.09,7.03,2.53,7.05,4.15,6.35,24.18,4,31.19-2.09,6.24-7.37,7.61-13.38,8.13-11.1.98-40.8,1.39-51.19-.33-9.72-1.62-10.77-8.93-10.46-17.63l12.41.16c2.62.9,1.67,4.63,1.94,4.63h47.84v-15.53c-14.99-1.75-35.32,2.35-49.63,0Z"/>
      <path class="cls-1" d="M397.32,321.26c-10.44-2.07-9.97-19.77-8.87-27.96,1.16-8.59,5.39-10.78,13.6-11.5,10.2-.89,39.44-1.36,48.8.33,8.35,1.51,9.23,8.03,10.44,15.24l-13.7.09-.65-3.66h-44.25v14.33h47.24c.99,0,7.42,2.57,8.43,3.52,4.05,3.83,4.11,28.31,1.59,32.77-2.21,3.92-8.15,5.19-12.37,5.56-11.08.98-40.81,1.39-51.19-.34-9.67-1.61-11.17-8.89-10.46-17.63h13.17s0,4.78,0,4.78h49.03v-15.53h-50.83Z"/>
      <polygon class="cls-1" points="326.16 328.42 326.16 281.84 340.51 281.84 340.51 349.92 328.6 349.28 273.54 303.34 273.54 349.92 260.38 349.92 260.38 281.84 269.3 281.9 326.16 328.42"/>
      <path class="cls-1" d="M501.97,211.97c-1.73-12.17-13.82-28.03-24.29-34.27-41.55-24.78-88.97,11.56-79.77,57.56l-6.64-2.31-.51-7.26-70.58-2.98,70.05-4.1,2.88-15.53-26.28-13.2,29.1,7.23,9.08-14.84-40.58-44.94,45.01,40.51,13.44-8.99-9.41-29.14,14.49,26.13,18.47-3.37,1.73-52.02,2.37-18.52,2.4,71.66,15.56,1.87,14.33-26.95-8.22,29.13,14.82,9.97,46.62-42.7,4.19-2.37-45.26,49.73,8.76,13.18,29.32-9.16-26.9,15.45,3.99,19.54-8.18,8c-.54-5.44.75-12.06,0-17.32Z"/>
      <path class="cls-1" d="M421.24,255.57c-1.11-.06-7.03-3.39-7.77-.01,11.05,2.78,21.21,6.47,32.94,6.03,31.4-1.19,60.51-26.06,76.49-51.41-.22,6.71-5.94,15.53-9.66,21.42-19.15,30.28-49.27,45.04-85.48,37.78-20.42-4.09-38.91-17.59-47.76-36.49,28.25,17.82,68.67-14.94,90.89,17.31.02.96-15.72,5.39-17.35,5.39-10.54,0-21.87.58-32.29,0Z"/>
      <rect class="cls-1" x="504.36" y="281.84" width="16.74" height="68.08"/>
      <path class="cls-1" d="M362.82,307.28c10.32-.54,12.18,14.74,3.35,16.36-14.49,2.66-14.41-15.78-3.35-16.36Z"/>
      <path class="cls-1" d="M542.21,307.28c9.89-.52,11.41,13.99,4.37,16.13-14.96,4.55-16.08-15.51-4.37-16.13Z"/>
      <path class="cls-1" d="M482.42,307.28c11.59-.61,12.52,19.18-2.53,16.36-7.86-1.47-7.16-15.85,2.53-16.36Z"/>
      <path class="cls-1" d="M578.5,222.14c.28,2.08-2.71,1.12-4.17,1.18-5.98.24-12.03-.29-18-.05-2.83.11-5.44,1.19-8.27,1.29-8.09.29-16.93-1.24-24.55,1.14l1.98-6.01,53.01,2.44Z"/>
      <path class="cls-1" d="M448.15,206.59l-.53,10.83c-1.53,2.19-8.66.74-11.44,1.12v-11.96s11.97,0,11.97,0Z"/>
      <path class="cls-1" d="M463.7,206.59c1.07,10.42-.18,14.91-11.44,10.83l-.53-10.83h11.97Z"/>
      <path class="cls-1" d="M463.7,222.12v11.95s-11.8-1.37-11.8-1.37c-.21-2.46-.97-8.72.95-10.06l10.85-.53Z"/>
      <rect class="cls-1" x="436.18" y="191.06" width="11.97" height="10.76"/>
      <rect class="cls-1" x="451.73" y="191.06" width="11.97" height="10.76"/>
      <rect class="cls-1" x="420.63" y="206.59" width="10.78" height="11.96"/>
      <rect class="cls-1" x="468.47" y="206.59" width="10.78" height="11.96"/>
      <rect class="cls-1" x="468.47" y="222.12" width="10.78" height="11.96"/>
      <polygon class="cls-1" points="448.15 231.68 437.31 231.16 436.18 222.12 447.03 222.65 448.15 231.68"/>
      <polygon class="cls-1" points="431.41 222.12 431.41 231.68 420.65 232.87 420.63 222.12 431.41 222.12"/>
      <path class="cls-1" d="M415.86,218.55h-10.76c-1.69-1.52,9.06-10.35,10.17-11.94l.6,11.94Z"/>
      <path class="cls-1" d="M494.78,218.54h-10.76s.02-11.94.02-11.94c1.69.96,12.27,10.58,10.75,11.94Z"/>
      <path class="cls-1" d="M415.86,222.12l-.6,11.94c-1.11-1.59-11.86-10.43-10.17-11.93h10.76Z"/>
      <path class="cls-1" d="M448.14,175.55c-.3,2.59,1,8.75-1.11,10.22l-10.84.51c.96-1.69,10.6-12.26,11.95-10.73Z"/>
      <path class="cls-1" d="M462.49,186.29h-10.76s.01-10.74.01-10.74c1.27-1.43,12.18,9.47,10.75,10.74Z"/>
      <polygon class="cls-1" points="431.41 201.83 420.65 201.23 431.39 191.07 431.41 201.83"/>
      <polygon class="cls-1" points="479.24 201.81 468.47 201.83 468.49 191.07 479.24 201.81"/>
      <polygon class="cls-1" points="494.79 222.14 484.04 232.87 484.02 222.12 494.79 222.14"/>
    </g>
  </g>
</svg>