<?xml version="1.0" encoding="UTF-8"?>
<svg id="Layer_1" data-name="Layer 1" xmlns="http://www.w3.org/2000/svg" viewBox="0 0 900 500">
  <defs>
    <style>
      .cls-1 {
        fill: #0c5ff2;
      }
    </style>
  </defs>
  <g id="a1j5Cw.tif">
    <g>
      <path class="cls-1" d="M433.34,194.82c6.99,2.42,9.27,7.56,9.02,14.58-.27,7.58-.04,15.18-.07,22.77-.03,8.37-3.36,12.35-11.62,13.15-9.35.9-18.74.21-28.12.33-3.9.05-7.81.17-11.7-.37-6.8-.95-10.44-4.89-10.5-11.78-.07-8.07.22-16.16-.1-24.22-.29-7.08,2.01-12.15,9.08-14.45h44.02ZM411.25,204.2c-4.59,0-9.18-.07-13.76.02-3.34.07-4.95,1.56-5,4.8-.11,7.39-.1,14.77,0,22.16.04,3.19,1.75,4.89,4.97,4.92,9.17.09,18.35.1,27.53,0,3.34-.04,4.81-1.6,4.85-4.92.07-7.39.07-14.77,0-22.16-.03-3.52-1.25-4.72-4.81-4.8-4.59-.1-9.17-.02-13.76-.02Z"/>
      <path class="cls-1" d="M509.06,194.82c-.48,5.94-3.89,9.15-10.23,9.31-5.77.14-11.54.04-17.31.05-4.6,0-9.19-.05-13.79.04-3.31.06-4.4,1.15-4.44,4.46-.07,7.21-.04,14.41-.03,21.62,0,4.89.95,5.85,5.8,5.86,11.93.02,23.86,0,35.8.03,1.3,0,3.03-.65,3.79.75.82,1.5-.25,2.99-1.04,4.33-1.71,2.85-4.44,4.22-7.6,4.26-13.1.13-26.21.69-39.29-.28-6.53-.48-9.81-4.3-9.88-10.82-.1-8.86.15-17.73-.1-26.59-.18-6.44,2-10.99,8.42-13.01h49.89Z"/>
      <path class="cls-1" d="M580.51,283.06c0-6.03-.04-12.07.01-18.1.06-6.36,3.28-10.04,9.63-10.69,9.35-.96,18.74-.29,28.12-.38,4.97-.05,9.97-.4,14.93.35,5.78.87,8.69,3.67,9.41,9.45.67,5.42.21,10.88.26,16.33.07,7.2-.04,14.4.04,21.6.02,2.31-.7,3.46-3.2,3.27-2.04-.15-4.11-.14-6.15,0-2.5.17-3.24-.96-3.16-3.29.12-3.69-.03-7.39.05-11.09.04-1.83-.6-2.63-2.54-2.62-10.94.05-21.89.05-32.83,0-1.85,0-2.29.67-2.22,2.43.15,3.89.03,7.78.07,11.67.02,2.08-.86,3.01-3.01,2.89-2.14-.12-4.3-.12-6.45,0-2.37.14-3.02-.96-2.99-3.14.09-6.23.03-12.45.03-18.68ZM611.33,279.97c5.46,0,10.93-.06,16.39.03,2.04.03,2.79-.73,2.72-2.73-.11-3.2-.03-6.41-.04-9.62,0-2.61-1.5-4.15-3.93-4.18-9.85-.13-19.71-.1-29.57-.02-2.48.02-3.97,1.41-3.95,4.07.01,3.11.22,6.24-.1,9.32-.29,2.77.81,3.25,3.25,3.17,5.07-.16,10.15-.05,15.22-.05Z"/>
      <path class="cls-1" d="M651.45,279.57c0-7.49.07-14.99-.04-22.48-.04-2.41.83-3.27,3.22-3.26,14.66.06,29.32,0,43.98.06,2.24,0,4.49.29,6.65.97,4.74,1.5,7.45,4.95,7.64,9.92.11,3.11.08,6.23.04,9.34-.09,6.38-3.27,10.25-9.55,11.35-2,.35-2.07.74-.85,2.22,3.91,4.73,7.72,9.55,11.55,14.35.52.65,1.51,1.25,1,2.23-.49.94-1.57.56-2.4.58q-10.21.26-16.6-7.85c-2.36-2.98-4.78-5.91-7.09-8.93-1.1-1.45-2.4-2.09-4.24-2.06-6.06.07-12.12.1-18.18,0-2.29-.04-3.13.78-3.06,3.06.13,4.18-.06,8.37.07,12.55.07,2.34-.68,3.27-3.16,3.3-8.98.12-8.98.2-8.98-8.7,0-5.55,0-11.09,0-16.64ZM681.02,277.71c3.52,0,7.04,0,10.55,0,9.01,0,9.74-.76,9.28-9.61-.16-3.14-1.56-4.73-4.71-4.76-10.06-.09-20.13-.03-30.19-.07-1.77,0-2.44.77-2.4,2.48.06,3.02.13,6.04-.03,9.05-.12,2.39.94,3,3.13,2.95,4.79-.11,9.58-.03,14.36-.03Z"/>
      <path class="cls-1" d="M479.02,304.87c-5.97,0-11.93.03-17.9,0-8.63-.05-13.17-4.6-13.21-13.25-.03-8.18-.03-16.36,0-24.54.03-7.94,3.53-12.09,11.37-12.83,9.94-.94,19.94-.21,29.91-.37,3.42-.05,6.84-.09,10.25.39,6.68.93,10.35,4.87,10.41,11.54.07,8.96.06,17.92,0,26.88-.04,7.56-4.4,12-12.05,12.15-6.26.12-12.52.02-18.78.02h0ZM478.9,295.33s0,0,0-.01c4.69,0,9.38.08,14.06-.03,3.17-.07,4.71-1.57,4.75-4.7.09-7.39.09-14.78,0-22.17-.04-3.34-1.55-4.96-4.82-4.99-9.28-.1-18.56-.1-27.83.01-3.17.04-4.62,1.65-4.65,4.79-.07,7.39-.07,14.78,0,22.17.03,3.63,1.29,4.84,5.02,4.91,4.49.08,8.99.02,13.48.02Z"/>
      <path class="cls-1" d="M405.47,304.86c-7.33,0-14.66.03-21.99,0-3.07-.01-3.66-.92-2.41-3.74,1.91-4.31,5.51-5.77,9.97-5.77,9.68.01,19.35,0,29.03,0,6.13,0,7.22-1.08,7.23-7.08,0-.68,0-1.36,0-2.04-.06-4.52-1.44-5.98-5.94-6-8.99-.04-17.99.02-26.98-.04-2.04-.01-4.11-.18-6.11-.56-5.06-.97-7.78-4.27-7.92-9.4-.06-2.04-.05-4.09,0-6.13.12-5.42,2.96-8.78,8.3-9.67,2.02-.33,4.08-.52,6.12-.53,13-.05,26-.03,39-.02,3.98,0,4.66,1.21,2.67,4.75-1.91,3.4-4.94,4.77-8.78,4.76-10.26-.03-20.53-.03-30.79,0-3.55.01-4.48.96-4.52,4.23-.03,3.47.68,4.26,4.33,4.28,8.89.05,17.79.01,26.68.03,1.37,0,2.75,0,4.09.18,8.69,1.17,11.89,4.84,11.91,13.56,0,2.24.02,4.48,0,6.72-.08,7.64-4.73,12.35-12.49,12.46-7.13.1-14.27.02-21.41.02Z"/>
      <path class="cls-1" d="M184.78,286.06c1.15-29.92,12.38-55.04,37.4-72.79,29.74-21.09,69.06-22.17,98.57-2.95,27.54,17.93,40.94,43.67,41.24,76.3-2.22-24.04-11.94-44.43-30.2-60.48-18.37-16.14-40.16-24.23-64.33-21.55-48.65,5.39-74.92,34.38-82.67,81.46Z"/>
      <path class="cls-1" d="M518.45,279.41c0-7.39.06-14.79-.04-22.18-.03-2.54.97-3.37,3.47-3.41,9.03-.15,9.03-.21,9.03,8.85,0,9.73.08,19.46-.05,29.19-.04,2.65.79,3.57,3.5,3.55,11.23-.12,22.47-.06,33.71-.04,4.02,0,4.71,1.19,2.69,4.74-1.7,3-4.28,4.76-7.84,4.76-13.78.01-27.55-.04-41.33.05-2.53.02-3.18-1.05-3.16-3.32.07-7.39.03-14.79.03-22.18Z"/>
      <path class="cls-1" d="M338.19,247.94c1.94.18,5.13-1.01,5.69.45.72,1.9-2.26,3.18-3.69,4.63-16.59,16.63-33.28,33.16-49.88,49.78-1.51,1.51-3.01,2.23-5.14,2.1-2.53-.15-5.08-.03-7.62-.05-.57,0-1.26.11-1.59-.47-.46-.8.3-1.23.73-1.71.52-.58,1.09-1.11,1.65-1.66,16.3-16.23,32.67-32.39,48.84-48.75,3.17-3.21,6.26-5.51,11.02-4.32Z"/>
      <path class="cls-1" d="M210.1,304.84c-2.47,0-4.13.04-5.79-.01-1.41-.05-1.79-.69-.8-1.81.58-.66,1.22-1.26,1.84-1.88,16.92-16.85,33.88-33.67,50.73-50.59,1.95-1.96,3.9-2.99,6.68-2.74,2.13.2,4.29.01,6.44.06.73.02,1.73-.33,2.12.52.42.92-.6,1.32-1.1,1.83-3.92,3.94-7.87,7.85-11.81,11.77-12.92,12.86-25.9,25.66-38.7,38.63-2.99,3.03-5.87,5.43-9.61,4.23Z"/>
      <path class="cls-1" d="M245.8,304.87c-1.17,0-2.35.05-3.52-.02-.93-.06-2.2.45-2.69-.54-.55-1.1.79-1.59,1.37-2.3.49-.6,1.09-1.11,1.65-1.66,16.52-16.45,33.09-32.87,49.53-49.41,2.25-2.27,4.52-3.47,7.71-3.12,1.74.19,3.52-.01,5.28.05.91.04,2.18-.48,2.62.62.38.94-.85,1.38-1.4,2.01-.64.73-1.37,1.39-2.06,2.07-16.11,16.04-32.28,32.03-48.29,48.17-2.93,2.95-5.73,5.32-10.19,4.14Z"/>
    </g>
  </g>
</svg>