<?xml version="1.0" encoding="UTF-8"?>
<svg id="Layer_1" data-name="Layer 1" xmlns="http://www.w3.org/2000/svg" viewBox="0 0 900 500">
  <defs>
    <style>
      .cls-1 {
        fill: #0058f5;
      }
    </style>
  </defs>
  <g id="WeLKQF">
    <g>
      <path class="cls-1" d="M687.27,214.16v61.33c-4.23-.37-9.27.49-13.41,0-1.27-.15-1.97-.91-1.96-2.2-.76-14.06,1.05-29.24.02-43.16-.5-6.8-4.72-13.72-12.1-14.16-9.94-.6-13.28,6.92-14.46,15.46l-.13,43.27-1.28.8c-4.2-.39-9.19.48-13.29,0-1.21-.14-1.71-.7-1.7-1.94-.73-13.73,1.01-28.52.02-42.12-.62-8.58-4.87-16.05-14.46-15.46-8.16.5-11.68,8.25-12.1,15.46-.8,13.76.61,28.28.02,42.12.04,1.43-.66,1.8-1.96,1.94-3.9.41-8.64-.19-12.61-.13l-.85-.97c-.28-19.02-.44-38.17.1-57.2,2.18-19,29.6-22.49,43.3-15.24,2.17,1.15,3.8,3.4,5.6,4.54,2.02,1.28,3.85-1.6,5.47-2.82,7.9-5.99,21.66-5.92,30.88-3.34,5.63,1.58,10.45,5.7,13.03,10.89.51,1.03.52,2.73,1.86,2.95Z"/>
      <path class="cls-1" d="M687.27,287.18v2.34c-.83-.18-1.45.52-2.21.53-.84.01-5.19-2.11-5.05.38.11,2.01,3.06,1.59,4.4,2.08.96.35,1.69,1.51,2.86,1.43v5.98c-1.73.81-2.51,1.63-4.56,1.81s-9.07-.17-7.01-3.62c1.43-2.4,2.4-.25,3.49.13,1.35.47,5.36.61,4.3-1.7-.73-1.59-5.69-.63-7.26-3.4-2.09-3.66,1.14-7.3,4.91-7.53,1.06-.06,2.58,0,3.58.34s1.49,1.23,2.54,1.23Z"/>
      <path class="cls-1" d="M483.49,198.64c2.77-.37,9.33-.35,12.15-.07.67.07,1.95.25,2.16.96l.04,49.86c.04,5.49,3.41,9.34,8.98,9.74,13.31-.77,27.69.99,40.87,0,4.94-.37,8.17-2.9,8.72-7.93l.04-51.67c.31-.66.95-.89,1.63-.97,2.86-.33,10.68-.33,13.54,0,.99.11,1.8.56,1.7,1.68v62.13c-1.16,7.38-5.97,12.57-13.67,13.12h-65.07c-6.97-.55-12.4-5.99-13.14-12.86v-62.65c-.03-1.16,1.15-1.22,2.04-1.34Z"/>
      <path class="cls-1" d="M418.69,198.63c2.32-.43,10.67-.32,13.2-.06.78.08,1.87.19,2.1,1.02.37,16.33-.1,32.68.13,49.01.05,3.59-.4,6.76,3.19,9,4.88,3.05,21.06.9,27.64,1.5,2.6.23,1.67,1.59,1.67,3.25,0,3.12-.05,6.26,0,9.38.02,1.45.81,2.53-.77,3.62l-34.7.1c-7.29-.71-12.8-6.06-13.7-13.34-.2-20.18.29-40.39.02-60.57-.02-1.35-.9-2.52,1.22-2.92Z"/>
      <path class="cls-1" d="M388.51,198.63c1.98-.35,11.44-.36,13.45-.05,2.63.41,1.47,3.09,1.43,4.78-.52,23.25.24,46.7.3,69.92,0,.96-.49,1.91-1.46,2.2h-13.77c-.8-.1-1.33-.63-1.43-1.44l.22-74.85c.21-.28.9-.5,1.26-.56Z"/>
      <path class="cls-1" d="M282.61,179.65c2.19-.46,4.69,2.16,6.49,3.27,5.2,3.21,10.43,6.4,15.67,9.55l.76.82c.14.52-1.08,3.22-1.4,3.97-1.09,2.54-2.51,4.99-3.69,7.48-.87,1.84-4.26,10.49-5.73,10.92-2.13.07-4.17-.86-6.26-1.18-3.17-.48-7.13-.53-10.31-.04-1.7.26-5.38,1.87-6.77.99-.22-.14-2-3.4-2.28-3.96-2.82-5.54-5.11-11.73-7.91-17.32-.33-.84.08-1.2.69-1.68l20.73-12.82Z"/>
      <path class="cls-1" d="M293.81,284.37c.22-.02.43-.09.65,0,1.52.4,5.12,9.59,5.99,11.45,1.24,2.65,2.88,5.29,3.95,8,.35.89,1.29,2.75.65,3.5-.13.16-2.37,1.65-2.77,1.91-4.3,2.73-8.83,5.22-13.18,7.89-4.14,2.53-4.61,4.98-9.63,1.72s-10.59-6.54-15.87-9.88c-3.93-2.48-2.55-2.52-1.09-5.93,1.87-4.36,3.83-8.79,5.89-13.09.34-.71,2.52-5.09,2.82-5.23,1.35-.64,6.52,1.02,8.46,1.17,2.77.2,6.82.12,9.56-.32,1.43-.23,3.2-1.04,4.56-1.19Z"/>
      <path class="cls-1" d="M259.2,194.47l8.08,22.35-.75,1.35c-5.56,3.01-10.06,7.17-13.62,12.38-.98,1.43-1.29,3.99-3.61,3.3-5.02-1.59-9.87-3.7-14.76-5.52-.95-.35-6.65-1.94-6.89-2.22-.33-.38-.41-1.36-.34-1.88.33-2.41,1.64-5.72,2.21-8.2s.93-4.92,1.5-7.34c.36-1.54,1.44-7.17,2.07-8.06.58-.81,3.19-1.45,4.26-1.72,6.78-1.72,13.69-3.05,20.51-4.74l1.33.31Z"/>
      <path class="cls-1" d="M316.18,266.17c.87-.15,1.33.43,2.08.68,4.68,1.53,9.16,3.31,13.72,5.01,1.99.74,4.32,1.37,6.38,1.95,1.95.98-.31,5.74-.7,7.34-1.33,5.46-2.06,12.06-3.79,17.27-.97,2.92-4.89,2.58-7.43,3.23-5.47,1.41-11.26,3.4-16.89,4.19-3.15.44-2.68-1.16-3.44-3.2-1.17-3.15-2.15-6.32-3.27-9.47-.88-2.48-3-6.4-3.45-8.77-.53-2.82,2.66-3.52,4.6-4.9,3.64-2.59,7.39-6.44,9.87-10.15.62-.93.95-2.93,2.31-3.17Z"/>
      <path class="cls-1" d="M308.1,194.46c.42-.09.8-.08,1.22-.04,4.9.54,11.25,2.69,16.12,3.92,1.76.45,7.02,1.03,8.1,2.31.45.53,1.8,7.03,2.1,8.3.77,3.34,1.31,6.77,2.11,10.1.41,1.69,2.45,5.91.89,7.21l-22.47,7.86-.98-.6c-2.19-4.47-5.95-8.92-9.9-11.94-1.42-1.08-5.99-3.17-5.98-4.95,0-1.17,1.55-4.04,2.01-5.29,1.89-5.18,3.62-10.42,5.42-15.64.22-.6.73-1.1,1.36-1.24Z"/>
      <path class="cls-1" d="M249.3,266.19c.59-.12,1.27-.19,1.78.18.29.21,2.06,3.66,2.6,4.42,1.6,2.28,4.48,5.41,6.64,7.14,1.72,1.37,4.29,2.52,5.84,3.79.87.71,1.08,1.58.85,2.67-.35,1.66-1.88,4.23-2.47,5.85-1.38,3.8-2.38,8.02-3.86,11.74-.38.95-1.43,3.76-2.35,3.91l-14.18-2.98c-3.12-1.59-7-1.44-10.14-2.61-.86-.32-1.21-1.07-1.48-1.9-1.3-3.88-1.87-8.99-2.8-13.06-.51-2.24-2.74-8.71-2.46-10.5.05-.34.2-.87.51-1.06l6.76-2.08c4.01-2.1,8.66-3.33,13.01-4.68.59-.18,1.16-.73,1.75-.85Z"/>
      <path class="cls-1" d="M339.08,227.98c.32-.03.51-.05.84.05.58.18,2.99,3.96,3.54,4.8,2.25,3.45,4.44,7.05,6.61,10.55.81,1.31,2.97,4.48,3.43,5.67.37.96.29,1.83-.26,2.71-3.44,5.03-6.35,10.44-9.67,15.55-.68,1.04-2.31,3.84-3.02,4.52-.83.8-2.47.29-3.42-.18-.62-.31-1.03-.95-1.79-1.33-2.44-1.19-5.34-2.17-7.82-3.36-3.31-1.58-6.62-3.31-9.85-4.98-.46-.94.61-2.77.84-3.85.93-4.39.94-11.57,0-15.96-.33-1.51-1.99-3.58.01-4.56,5.82-2.8,11.9-5.2,17.68-8.07,1.05-.52,1.26-1.42,2.89-1.56Z"/>
      <path class="cls-1" d="M212.73,251.8v-3.57s1.27-.68,1.27-.68c3.95-5.87,7.34-13.31,11.59-18.83.98-1.28,2.3-.88,3.59-.24.95.47,1.6.96,2.69,1.48,5.29,2.53,10.57,5.09,15.93,7.48,1.02.56.86,1.53.77,2.54-.42,4.77-1.64,7.93-1.28,13.29.09,1.4,1.66,7.94,1.45,8.42-.52,1.18-4.26,2.21-5.52,2.82-4.1,2-8.28,3.84-12.37,5.83-1.61.78-3.16,2.89-5.15,1.11-2.49-3.65-4.56-7.56-6.91-11.29-1.42-2.26-3.3-5.7-4.78-7.69-.35-.47-.73-.59-1.27-.68Z"/>
      <path class="cls-1" d="M502.2,220.19l14.38.08.8,1.28c-.37,5.04.44,10.65,0,15.62-.05.58-.06,1.13-.53,1.55l-14.15.3c-.92-.19-1.35-.37-1.48-1.33-.66-4.84.53-11.14,0-16.14l.98-1.36Z"/>
      <path class="cls-1" d="M537.73,220.46c.4-.29.88-.29,1.36-.33,3.23-.26,9.31-.29,12.51,0,1.48.13,1.81.45,1.95,1.95.46,5.02-.25,10.92-.15,15.99l-1.28.8c-4.28-.33-9.09.39-13.3,0-.44-.04-.86.02-1.18-.38l.09-18.02Z"/>
      <path class="cls-1" d="M502.73,198.63c3.19.1,6.38.26,9.58.21,2.02-.03,4.8-1.31,5.07,1.66.46,5.01-.26,10.92-.15,15.99l-1.28.8c-4.14-.43-9.28.53-13.3,0-.81-.11-1.38-.57-1.43-1.43.52-4.92-.64-11.11,0-15.88.13-.99.58-1.13,1.5-1.35Z"/>
      <path class="cls-1" d="M538.63,198.62c3.37.12,6.73.28,10.1.22,1.78-.03,4.21-1.13,4.81,1.4-.36,4.87.44,10.3,0,15.1-.13,1.47-.45,1.81-1.95,1.95-2.87.26-10.28.36-13.03,0-.86-.11-1.06-.32-1.17-1.17-.64-4.87.51-11.12,0-16.14-.02-.76.57-1.16,1.24-1.36Z"/>
      <path class="cls-1" d="M520.68,220.19l13.08.08.8,1.28c-.4,5.09.49,10.87,0,15.88-.09.97-.12,1.29-1.17,1.43-2.56.33-9.32.24-11.99,0-.47-.04-1.29-.09-1.55-.53-.12-.2-.37-3.87-.4-4.54-.14-3.1-.39-9.08,0-11.98.11-.79.58-1.22,1.24-1.62Z"/>
      <path class="cls-1" d="M521.21,198.62c2.75.18,5.51.26,8.27.21,1.63-.03,3.57-.9,4.93.5,0,2.09.51,16.91-.13,17.55-.26.27-.8.35-1.17.39-2.75.3-8.94.26-11.73,0-1.48-.14-1.81-.46-1.95-1.95-.32-3.44-.38-11.46,0-14.83.13-1.14.64-1.67,1.76-1.88Z"/>
      <path class="cls-1" d="M502.46,241.5c4.08.25,8.98-.52,12.96-.06,1.2.14,1.81.75,1.95,1.95.26,2.27.3,9.23,0,11.45-.13,1-.73,1.31-1.7,1.42-1.76.2-8.56.18-9.95-.47-2.93-1.38-4.28-4.06-4.51-7.19-.11-1.54-.46-6.61,1.23-7.1Z"/>
      <path class="cls-1" d="M538.63,241.5c4.08.24,8.97-.52,12.96-.06,1.4.16,1.8.9,1.95,2.21.51,4.58-.08,10.01-4.76,12.14-1.45.66-8.15.67-9.95.47-.88-.1-1.33-.22-1.44-1.16-.29-2.48-.28-9.48,0-11.97.1-.84.35-1.41,1.23-1.63Z"/>
      <path class="cls-1" d="M521.2,241.5c3.6.26,8.19-.53,11.67-.07.72.1.96.39,1.43.91v13.53c-.36.27-.75.34-1.18.39-2.69.29-8.73.26-11.47,0-1.05-.1-1.79-.26-1.95-1.43-.27-1.98-.27-9.76.03-11.69.13-.82.68-1.42,1.47-1.65Z"/>
      <path class="cls-1" d="M421.04,301.41c-.66.63-3.72.69-4.63.46-2.71-.7-4.25-8.06-7.42-8.98-.46,0-.57.27-.64.65-.2,1.09-.03,3.44-.01,4.69.01.63.31,1.21.29,1.8-.08,2.02-3.64,3.17-3.93.02-.3-3.24-.27-9.5,0-12.76.04-.47.04-.95.33-1.36.51-.51,4.61-.46,5.29-.08.45.26,1.75,2.21,2.15,2.79.88,1.28,2.58,4.89,3.42,5.68.2.19.37.38.68.39.31.03.56-.06.79-.25,1-.81-.18-6.66.49-8.08.47-.98,2.64-1.04,3.27-.15l-.08,15.16Z"/>
      <path class="cls-1" d="M656.34,292.4c-.43.29-.31,5.41-.3,6.35s.6,1.46-.13,2.45c-1,1.36-3.3.79-3.42-.94.3-3.79.18-7.61.19-11.41,0-1.04-.65-2.46.77-3.1.86-.39,3.98-.22,4.82.38l5.58,8.2c.48.59,1.15.58,1.31-.27.36-2.03-.47-5.65.06-7.48.4-1.4,3.61-1.74,3.86.97.27,2.91.32,9.64,0,12.49-.18,1.53-1.06,1.86-2.47,1.95-3.22.22-3.92-1.23-5.56-3.56-1.29-1.83-2.42-3.86-3.55-5.81-.22-.28-.92-.39-1.15-.23Z"/>
      <path class="cls-1" d="M446.26,285.67c1.21-.27,7.16-.21,8.47,0,2.09.35,4.34,3.35,4.04,5.46-.09.61-.56,1.45-.88,2-.98,1.65-2.53,1.87-1.73,4.11.39,1.09,4.17,5.25-.05,4.74-2.97-.35-3.79-6.36-5.77-6.49-3.59-.22.51,6.78-3.62,6.51-1.33-.09-1.6-.75-1.71-1.95-.26-2.83-.36-10.31,0-13.02.1-.75.47-1.19,1.24-1.36ZM449.91,289.31c-.87.19-1.08.84-1.21,1.65.1,1.77,5.81,1.55,6.19.19.64-2.29-3.65-2.13-4.98-1.84Z"/>
      <path class="cls-1" d="M635.43,285.69c3.83-.56,6.79.38,9.3,3.31,2.26,2.64,2.61,5.17.95,8.23-4.85,8.93-20.04,3.66-17.09-5.63.77-2.41,4.36-5.55,6.83-5.91ZM637.01,289.06c-4.65.26-6.36,6.06-2.42,8.78,1.56,1.07,4.36.99,5.86-.13,4.54-3.36,1.65-8.94-3.44-8.65Z"/>
      <path class="cls-1" d="M545.93,285.69c3.21-.41,5.73.25,8.13,2.39,1.95,1.74,2.57,4.24,2.34,6.78-.89,9.72-19.09,9.64-17.7-2.61.36-3.18,4.25-6.17,7.23-6.55ZM547.47,289.1c-3.25.05-6.09,3.31-4.55,6.48,2.06,4.25,7.64,3.95,9.64-.17,1.57-3.24-1.83-6.37-5.08-6.32Z"/>
      <path class="cls-1" d="M472.82,285.69c1.44-.18,7.4-.53,7.83,1.15.06.89-.76,1.65-1.45,2.11-3.06-.25-7.67-.97-9.22,2.47-1.61,3.56.62,6.83,4.37,7.16,1.47.13,4.06.31,3.75-1.9-.21-1.52-2.22-.89-2.84-1.86-.73-1.14-.25-2.54,1.13-2.72,1.45-.19,4.85-.42,5.1,1.43.14,1.03.1,3.86-.08,4.89-.27,1.62-1.6,2.8-3.21,3.03-4.8.67-12.49.05-13.11-6.09-.24-2.34.1-5.02,1.81-6.76,1.06-1.09,4.42-2.71,5.94-2.9Z"/>
      <path class="cls-1" d="M397.03,292.12c.95.2,1.36,1.38.98,2.27-1.15,2.64-7.43-.66-7.27,2.75.14,3.2,7.48-.14,7.98,2.39.38,1.91-.53,2.32-2.2,2.47-1.46.13-7.49.17-8.54-.33-.28-.14-.52-.33-.73-.57l-.19-14.26c.17-.73.67-1.09,1.39-1.21,1.3-.21,8.1-.22,9.29.04,2.03.45.99,3.58-.2,3.58h-5.98c-.87,0-.87,2.86,0,2.86,1.4,0,4.3-.25,5.46,0Z"/>
      <path class="cls-1" d="M428.57,285.67c1.28-.29,7.59-.23,9.06-.06,1.68.2,2.21,1.72,1.17,3-1.29,1.59-6.62-.3-7.57,1.27-2.62,4.37,8.44-.1,6.99,4.64-.69,2.26-7.77-.62-7.43,2.61.28,2.64,6.15.84,7.74,1.59.98.47,1.01,2.25-.01,2.85s-7.55.56-8.96.4c-.68-.08-1.8-.36-2.19-.94-.5-.75-.02-1.27-.01-2.04.03-3.47,0-6.95,0-10.42,0-1.22-.74-2.48,1.21-2.92Z"/>
      <path class="cls-1" d="M581.56,285.68c1.04-.24,2.15-.15,2.62.91.51,2.99-.52,7.48.11,10.28.53,2.38,5.64,2.22,6.13,0,.54-2.42-.59-8.7.19-10.46.49-1.12,2.87-1.13,3.37,0-.08,3.55.58,8.09.11,11.54-.57,4.21-5.31,4.36-8.69,4.05-3.35-.31-4.86-1.67-4.98-5.11-.08-2.52.21-5.4.17-8.02-.02-1.14-.88-2.75.95-3.18Z"/>
      <path class="cls-1" d="M525.11,285.69c3.14-.46,9.76.88,5.34,4.58-1.72-.52-3.22-1.34-5.11-.97-.65.22-.58,2.16-.18,2.44.43.3,3.2.47,4.27.93,5.3,2.27,3.82,8.53-1.8,9.06-1.85.17-8.78-.08-7.28-3.37,1.02-2.23,3.3-.12,4.67,0,1.09.1,4.45.04,3.28-1.71-1.33-2-4.84-.48-6.89-3.26-2.26-3.07.19-7.2,3.69-7.71Z"/>
      <path class="cls-1" d="M488.41,285.67c.53-.16,2.43-.14,2.93.08,1.31.59,3.33,5.37,4.83,5.32.74-.02,3.12-4.84,4.29-5.32s4.27-.35,3.08,1.52c-1.26,2.17-5.18,6.32-5.43,8.61-.13,1.18.39,5.01-.41,5.57-.28.2-2.43.54-2.79.49-2.22-.31-1.19-3.39-1.21-4.77-.04-2.78-1.75-4.9-3.29-7.11-.48-.68-2.8-3.26-2.68-3.74.07-.27.41-.57.68-.65Z"/>
      <path class="cls-1" d="M601.08,285.67c2.12.26,9.7-.66,11.11.23,1.06.67.77,2.53-.22,3.11-1.07.62-3.07-.28-3.68,1.27-.61,3.07.43,7.36-.12,10.27-.33,1.76-3.21,1.92-3.59-.06-.14-.73.22-1.31.23-2.01.03-2.03.28-6.84-.33-8.53-.52-1.45-2.96-.06-3.96-1.24-.71-.82-.59-2.72.57-3.05Z"/>
      <path class="cls-1" d="M563.35,285.67c.82-.24,2.6-.05,2.89.91l.18,11.26c.82,1.35,5.86.01,7.68.91.81.4.67,2.44,0,2.85-1.03.63-9.43.54-10.73.07-.26-.09-.45-.21-.58-.46v-15.08c.13-.22.32-.39.57-.46Z"/>
      <path class="cls-1" d="M619.55,285.68c1.21-.35,2.77,0,2.95,1.36.55,4.05-.43,9.33-.02,13.52-.63,1.91-3.64,1.87-3.91-.24-.52-4.02.43-9.13,0-13.28-.02-.54.47-1.21.98-1.36Z"/>
    </g>
  </g>
</svg>