<?xml version="1.0" encoding="UTF-8"?>
<svg id="Layer_1" data-name="Layer 1" xmlns="http://www.w3.org/2000/svg" viewBox="0 0 900 500">
  <defs>
    <style>
      .cls-1 {
        fill: #0058f5;
      }
    </style>
  </defs>
  <path class="cls-1" d="M630.14,332.12l-2.58-2.91c-2.37,1.82-4.59,2.62-7.35,2.62-3.31,0-6.66-1.53-8.95-4.08-1.93-2.15-2.91-4.99-2.91-8.37,0-7.28,5.09-12.7,11.97-12.7s11.86,5.35,11.86,12.48c0,3.24-.8,5.68-2.62,8.12l2.69,2.91-2.11,1.93ZM627.52,325.06c1.06-1.93,1.49-3.53,1.49-5.75,0-5.64-3.71-9.79-8.73-9.79-2.66,0-5.24,1.27-6.88,3.42-1.24,1.6-1.93,3.82-1.93,6.3,0,5.68,3.68,9.75,8.7,9.75,2.11,0,3.6-.55,5.31-2l-1.78-2,2.07-1.82,1.75,1.89ZM655.11,327.69c-2.5,2.26-4.96,3.27-8.18,3.27-6.35,0-10.87-4.81-10.87-11.55s4.57-11.69,11.07-11.69c3.18,0,5.77,1.06,8.08,3.32l-2.36,2.36c-1.68-1.54-3.56-2.31-5.63-2.31-4.38,0-7.41,3.37-7.41,8.18s3.03,8.32,7.36,8.32c2.17,0,3.9-.72,5.68-2.41l2.26,2.5ZM661.12,320.52c.19,1.88.53,2.84,1.44,4.04,1.44,1.97,3.56,3.03,5.97,3.03,2.74,0,5.34-1.49,6.64-3.8l3.22,1.2c-1.83,3.7-5.63,5.97-9.86,5.97-6.59,0-11.31-4.81-11.31-11.55s4.67-11.69,11.16-11.69,11.26,4.86,11.26,11.35c0,.29,0,.91-.05,1.44h-18.48ZM675.75,317.83c-.14-1.73-.48-2.69-1.25-3.8-1.4-1.88-3.66-3.03-6.11-3.03s-4.67,1.15-5.97,3.08c-.67,1.06-.96,1.97-1.25,3.75h14.58ZM684.65,330.43v-27.14h3.66v27.14h-3.66ZM695.67,330.43v-27.14h3.66v27.14h-3.66ZM716.93,314.31v-.24c0-2.07-1.68-3.37-4.23-3.37s-3.99,1.25-3.99,3.18.96,2.65,4.96,3.75c2.84.77,4.33,1.49,5.39,2.55s1.78,2.69,1.78,4.33c0,3.85-3.18,6.45-7.89,6.45-5.05,0-7.89-2.36-8.28-6.83h3.61c.24,2.5,1.88,3.85,4.67,3.85,2.5,0,4.14-1.3,4.14-3.27s-1.25-2.89-5.05-3.85c-4.81-1.3-6.98-3.32-6.98-6.69,0-3.85,3.13-6.45,7.79-6.45s7.55,2.41,7.75,6.59h-3.66ZM571.1,328.96h-2.59v-22.75h2.59v9.72c1.57-2.15,3.24-3.07,5.53-3.07,4.4,0,7.47,3.41,7.47,8.29s-3.04,8.19-7.33,8.19c-2.42,0-4.13-.92-5.66-3.07v2.69ZM571.07,321.12c0,3.58,2.05,5.97,5.12,5.97s5.18-2.35,5.18-5.87-2.11-6.04-5.08-6.04-5.22,2.49-5.22,5.93ZM596.96,313.24h2.83l-9.38,23.29h-2.83l3.27-8.05-5.59-15.25h2.76l4.23,11.66,4.71-11.66ZM430.43,271.82v16.6h-69.21v-89.38h67.55v16.6h-46.99v19.41h41.5v16.09h-41.5v20.69h48.65ZM515.73,249.09v39.33h-19.92v-36.26c0-11.11-5.11-16.22-13.92-16.22-9.58,0-16.47,5.87-16.47,18.51v33.96h-19.92v-68.7h19.03v8.04c5.36-5.87,13.41-9.07,22.73-9.07,16.22,0,28.47,9.45,28.47,30.39ZM555.82,215.64v23.62h41.37v16.6h-41.37v32.56h-20.69v-89.38h67.55v16.6h-46.86ZM612.23,208.68c0-5.65,4.3-10.03,10.68-10.03s10.68,4.15,10.68,9.68c0,5.99-4.3,10.37-10.68,10.37s-10.68-4.38-10.68-10.03ZM614.04,226.05h19.92v62.38h-19.92v-62.38ZM722.7,249.09v39.33h-19.92v-36.26c0-11.11-5.11-16.22-13.92-16.22-9.58,0-16.47,5.87-16.47,18.51v33.96h-19.92v-68.7h19.03v8.04c5.36-5.87,13.41-9.07,22.73-9.07,16.22,0,28.47,9.45,28.47,30.39ZM231.41,237.06l-29.95,48.56h34.69l15.25-20.96,3.23,4.44-23.22-32.05ZM286.04,233.62l.29.41.33-.04-.63-.38ZM292.26,241.07l-.43.74h0s.57.81.57.81l-.15-1.54ZM231.41,237.06l-29.95,48.56h34.69l15.25-20.96,3.23,4.44-23.22-32.05ZM237.77,199.61c-1.65-2.86-5.78-2.86-7.43,0l-53.04,86.01h15.74l50.4-78.01-5.67-8ZM322.9,285.62l-27.15-38.3-.38,25.46-2.95-30.16h0s-.57-.81-.57-.81l-10.79,18.86-4.51,7.88,3.82-8.86,8.32-19.3-15.64,8.98-9.81,5.64,9.08-6.67,15.31-11.25-23.14.21-7.29.07,6.78-.78,22.34-2.57-.29-.41-24.83-14.88,20.22,8.37-19.49-27.5c-1.65-2.86-5.78-2.86-7.43,0l-7.78,12.62-15.31,24.82,23.22,32.05,12.01,16.51,1.17,1.61h56.23l-1.14-1.61ZM231.41,237.06l-29.95,48.56h34.69l15.25-20.96-19.99-27.6"/>
</svg>