<?xml version="1.0" encoding="UTF-8"?>
<svg id="Layer_1" data-name="Layer 1" xmlns="http://www.w3.org/2000/svg" viewBox="0 0 900 500">
  <defs>
    <style>
      .cls-1 {
        fill: #0058f5;
      }
    </style>
  </defs>
  <g>
    <path class="cls-1" d="M344.77,286.2c1.42,2.91,4.16,4.99,8.19,4.99,3.44,0,6.11-1.64,6.11-4.25s-2.37-3.59-6.75-4.99c-5.65-1.82-10.1-3.7-10.05-8.96.04-5.43,5.17-8.28,10.12-8.28,5.5,0,9,2.96,10.67,6.13l-3.57,2.5c-1.27-2.3-3.68-4.45-7.1-4.45-2.83,0-5.5,1.45-5.5,4.07s2.43,3.33,6.64,4.75c5.54,1.88,10.16,3.42,10.16,9.18s-5.54,8.43-10.65,8.43c-5.83,0-10.01-2.98-11.72-6.75l3.44-2.39Z"/>
    <path class="cls-1" d="M392.69,280.07c0-8.92,6.59-15.36,15.36-15.36s15.38,6.44,15.38,15.36-6.55,15.27-15.38,15.27-15.36-6.29-15.36-15.27ZM408.05,290.97c6.37,0,10.56-4.4,10.56-10.95s-4.18-10.95-10.56-10.95-10.54,4.56-10.54,10.95,4.25,10.95,10.54,10.95Z"/>
    <path class="cls-1" d="M475.89,294.9h-21.55v-29.75h4.62v25.56h16.93v4.18Z"/>
    <path class="cls-1" d="M501.95,294.9l12.29-29.75h4.99l12.29,29.75h-4.91l-2.37-6.2h-15.03l-2.37,6.2h-4.91ZM522.87,284.86l-6.13-14.57-6.13,14.57h12.27Z"/>
    <path class="cls-1" d="M573.52,265.17c6.13,0,10.12,3.46,10.12,9.03,0,4.07-2.34,7.1-6.02,8.39l7.21,12.31h-5.34l-6.72-11.68h-7.43v11.68h-4.6v-29.73h12.79ZM565.32,269.31v9.81h7.97c3.66,0,5.54-2.04,5.54-4.93s-1.88-4.88-5.54-4.88h-7.97Z"/>
  </g>
  <g>
    <rect class="cls-1" x="209.92" y="199.99" width="115.23" height="23.95" rx="6.27" ry="6.27"/>
    <path class="cls-1" d="M318.88,276.06h-85.01v-14.54h57.34c3.46,0,6.27-2.81,6.27-6.27v-11.41c0-3.46-2.81-6.27-6.27-6.27h-75.02c-3.46,0-6.27,2.81-6.27,6.27v49.89c0,3.46,2.81,6.27,6.27,6.27h102.69c3.46,0,6.27-2.81,6.27-6.27v-11.41c0-3.46-2.81-6.27-6.27-6.27Z"/>
  </g>
  <g>
    <rect class="cls-1" x="344.9" y="203.48" width="55.91" height="11.62" rx="3.04" ry="3.04"/>
    <path class="cls-1" d="M397.77,240.83h-41.25v-7.05h27.82c1.68,0,3.04-1.36,3.04-3.04v-5.53c0-1.68-1.36-3.04-3.04-3.04h-36.4c-1.68,0-3.04,1.36-3.04,3.04v24.21c0,1.68,1.36,3.04,3.04,3.04h49.82c1.68,0,3.04-1.36,3.04-3.04v-5.53c0-1.68-1.36-3.04-3.04-3.04Z"/>
    <path class="cls-1" d="M543.05,218.63c0,1.16-.13,2.32-.38,3.44-.25,1.13-.62,2.23-1.11,3.28-.21.45-.44.88-.69,1.3-1.18,1.98-2.79,3.63-4.69,4.84-2.3,1.46-5,2.28-7.83,2.28h-31.77v15.63c0,1.68-1.36,3.04-3.04,3.04h-5.53c-1.68,0-3.04-1.36-3.04-3.04v-24.21c0-1.68,1.36-3.04,3.04-3.04h41.02c3.97-.36,3.97-6.7,0-7.05h-41.02c-1.68,0-3.04-1.36-3.04-3.04v-5.53c0-1.68,1.36-3.04,3.04-3.04h40.34c5.17,0,9.92,2.74,12.52,7.12.25.42.48.85.69,1.3.98,2.11,1.49,4.4,1.49,6.72Z"/>
    <path class="cls-1" d="M690.08,218.63c0,1.16-.13,2.32-.38,3.44-.25,1.13-.62,2.23-1.11,3.28-.21.45-.44.88-.69,1.3-1.18,1.98-2.79,3.63-4.69,4.84-1.48.94-3.13,1.62-4.88,1.98l8.68,14.98c1.03,1.78-.25,4-2.3,4h-7.88c-.57,0-1.1-.3-1.39-.8l-10.36-17.87h-21.47v15.63c0,1.68-1.36,3.04-3.04,3.04h-5.53c-1.68,0-3.04-1.36-3.04-3.04v-24.21c0-1.68,1.36-3.04,3.04-3.04h41.02c3.97-.36,3.97-6.7,0-7.05h-41.02c-1.68,0-3.04-1.36-3.04-3.04v-5.53c0-1.68,1.36-3.04,3.04-3.04h40.34c5.17,0,9.92,2.74,12.52,7.12.25.42.48.85.69,1.3.98,2.11,1.49,4.4,1.49,6.72Z"/>
    <path class="cls-1" d="M625.59,203.48c1.83,0,3.05,1.9,2.29,3.57l-19.72,43.89c-.41.92-1.32,1.51-2.33,1.51h-9.49c-.81,0-1.53-.5-1.81-1.26l-8.4-22.5-8.4,22.5c-.28.76-1.01,1.26-1.81,1.26h-9.49c-1.01,0-1.92-.59-2.33-1.51l-19.72-43.89c-.76-1.67.46-3.57,2.29-3.57h7.23c.99,0,1.88.58,2.29,1.47l14.43,31.61,9.27-24.01.55-1.41c.91-2.35,3.16-3.9,5.68-3.9h0c2.52,0,4.77,1.55,5.68,3.9l.55,1.41,9.27,24.01,14.43-31.61c.41-.9,1.31-1.47,2.29-1.47h7.23Z"/>
    <path class="cls-1" d="M476.96,206.52v42.88c0,1.68-1.36,3.04-3.04,3.04h-5.53c-1.68,0-3.04-1.36-3.04-3.04v-30.21l-16.97,22.59h0c-1.13,1.5-2.9,2.38-4.77,2.38h-.48c-1.88,0-3.65-.88-4.77-2.38h0s-16.97-22.59-16.97-22.59v30.21c0,1.68-1.36,3.04-3.04,3.04h-5.53c-1.68,0-3.04-1.36-3.04-3.04v-42.88c0-1.68,1.36-3.04,3.04-3.04h9.64c1.05,0,2.04.49,2.67,1.34l17.45,23.24.8,1.06.79-1.06,17.45-23.24c.63-.84,1.62-1.34,2.67-1.34h9.64c1.68,0,3.04,1.36,3.04,3.04Z"/>
  </g>
</svg>