<?xml version="1.0" encoding="UTF-8"?>
<svg id="Layer_1" data-name="Layer 1" xmlns="http://www.w3.org/2000/svg" viewBox="0 0 900 500">
  <defs>
    <style>
      .cls-1 {
        fill: #0c5ff2;
      }
    </style>
  </defs>
  <g id="_0Fg2r2.tif" data-name="0Fg2r2.tif">
    <g>
      <path class="cls-1" d="M231.13,342.04c3.61-8.08,7.22-16.16,10.84-24.23,2.59-5.78,5.21-11.55,7.8-17.33.25-.55.61-.81,1.23-.81,2.58.02,5.15.01,7.73,0,.6,0,.94.21,1.2.8,2.49,5.62,5.01,11.21,7.53,16.82,1.78,3.97,3.57,7.94,5.36,11.91,1.87,4.14,3.74,8.29,5.63,12.42.47,1.02.22,1.42-.9,1.41-3.06-.02-6.12-.02-9.19,0-.77,0-1.29-.24-1.62-.95-2.47-5.31-4.95-10.61-7.44-15.91-1.41-3.01-2.85-6.02-4.36-9.2-1.5,2.57-2.41,5.17-3.55,7.67-2.64,5.81-5.2,11.66-7.78,17.5-.24.53-.47.9-1.14.89-3.79-.05-7.58-.07-11.37-.1,0-.29,0-.58,0-.87Z"/>
      <path class="cls-1" d="M475.05,155.76c4.88,9.28,9.77,18.56,14.65,27.84.25.47.48.95.73,1.43.34.66.14,1.03-.61,1.04-.78.02-1.55.02-2.33.02-6.27,0-12.54-.01-18.8,0-1,0-1.74-.2-2.26-1.19-5.08-9.73-10.19-19.43-15.3-29.14,7.98,0,15.95,0,23.93,0Z"/>
      <path class="cls-1" d="M439.74,155.76c-1.33,2.59-2.65,5.18-4,7.76-3.73,7.09-7.49,14.17-11.19,21.27-.49.94-1.11,1.32-2.17,1.31-6.9-.03-13.8-.01-20.7-.02-1.59,0-1.64-.11-.89-1.53,4.82-9.15,9.64-18.3,14.46-27.45.22-.43.38-.89.57-1.33,7.98,0,15.95,0,23.93,0Z"/>
      <path class="cls-1" d="M398.06,343.89c-12.79.54-22.6-9.32-22.34-22.76.23-12.29,9.12-22.43,23.07-22.05,12.39.34,22.05,9.48,21.8,23.11-.22,12.16-9.01,22.17-22.53,21.7ZM398.08,333.48c3.57,0,6.76-1.29,8.28-3.41,3.58-5.02,3.99-10.27.78-15.59-3.46-5.74-10.36-6.26-14.73-3.49-4.17,2.63-5.56,6.78-5.36,11.53.26,5.99,4.44,11.31,11.04,10.96Z"/>
      <path class="cls-1" d="M437.72,304.9c2.43-2.13,5.02-4.06,8.15-4.88,10.23-2.69,19.66,2.28,22.57,12.56.89,3.14,1.16,6.36,1.16,9.61,0,6.36-.03,12.73.02,19.09.01,1.3-.35,1.81-1.72,1.76-2.62-.09-5.25-.09-7.87,0-1.33.04-1.76-.39-1.75-1.73.06-6.9.07-13.8,0-20.69-.03-3.01-.73-5.85-2.85-8.17-2.09-2.28-4.77-2.99-7.73-2.81-3.61.22-6.29,2.01-8.1,5.12-.97,1.66-1.51,3.45-1.51,5.38,0,7-.04,13.99.02,20.99.01,1.43-.34,1.99-1.86,1.92-2.67-.12-5.35-.07-8.02-.02-1.06.02-1.45-.34-1.45-1.42.03-13.41.02-26.81,0-40.22,0-1.07.36-1.46,1.43-1.44,2.48.05,4.96.04,7.44,0,.83-.01,1.19.3,1.39,1.1.31,1.25-.04,2.61.68,3.85Z"/>
      <path class="cls-1" d="M301.92,344.18c-4.86.35-9.34-.87-13.41-3.45-4.84-3.06-7.79-7.49-8.83-13.1-1.24-6.69-.92-13.26,2.76-19.23,3.37-5.45,8.56-8.28,14.76-9.27,5.79-.92,11.42-.51,16.48,2.85,1.16.77,2.21,1.72,3.32,2.57.75.57.53,1.19.04,1.74-1.87,2.1-4.07,3.89-5.85,6.08-.51.63-1.02.09-1.5-.26-3.8-2.79-7.9-3.43-12.36-1.78-3.54,1.3-6.72,5.6-6.89,9.34-.1,2.17-.15,4.31.58,6.42,1.42,4.13,5.32,7.17,9.67,7.38,3.48.17,6.77-.35,9.51-2.76.67-.59,1.34-.64,2.01.02,1.97,1.94,3.92,3.89,5.92,5.8.68.65.36,1.04-.15,1.53-3.95,3.82-8.61,6.01-14.17,6.12-.63.01-1.26,0-1.9,0Z"/>
      <path class="cls-1" d="M326.72,320.58c0-3.55-.04-6.46.02-9.38.02-1.07-.33-1.48-1.42-1.44-1.7.07-3.4-.02-5.1.03-.98.03-1.41-.31-1.38-1.34.05-2.33.05-4.66,0-6.99-.02-1.16.5-1.54,1.59-1.51,1.65.04,3.31-.03,4.96.02,1.01.03,1.38-.33,1.36-1.35-.05-2.67,0-5.34-.03-8.01-.01-.92.22-1.36,1.24-1.53,3.05-.52,6.15-.58,9.21-1.01.89-.12.84.61.84,1.19.01,3.06.06,6.12-.02,9.18-.03,1.17.21,1.6,1.49,1.55,2.77-.11,5.54.03,8.31-.06,1.42-.05,2.03.31,1.93,1.85-.13,2.08-.09,4.18,0,6.26.05,1.29-.33,1.82-1.71,1.77-2.77-.09-5.54.05-8.31-.06-1.4-.05-1.71.46-1.7,1.76.06,5.29.12,10.59,0,15.88-.11,4.28,2.77,6.9,7.49,5.66.98-.26,2.03-1.35,2.9-.64.68.56.8,1.81,1.12,2.77.6,1.84,1.15,3.69,1.77,5.52.21.63.11,1.07-.51,1.28-5.35,1.87-10.78,2.57-16.14.22-4.82-2.11-6.87-6.25-7.6-11.23-.54-3.68-.12-7.36-.28-10.4Z"/>
      <path class="cls-1" d="M448.44,261.27c-3.4,0-6.81.01-10.21,0-1.62,0-1.75-.22-1-1.66,4.84-9.2,9.7-18.39,14.53-27.6.46-.87,1.04-1.31,2.05-1.3,6.95.02,13.91,0,20.86.02,1.44,0,1.58.25.91,1.53-4.88,9.29-9.79,18.56-14.66,27.86-.48.92-1.16,1.19-2.12,1.18-3.45-.02-6.9,0-10.36,0Z"/>
      <path class="cls-1" d="M428.87,231.04c-3.45,0-6.9,0-10.35,0-1.54,0-1.66-.2-.93-1.58,4.86-9.24,9.73-18.47,14.59-27.71.39-.73.9-1.07,1.72-1.07,7.05.01,14.09,0,21.14.01,1.4,0,1.51.27.73,1.74-4.48,8.5-9.08,16.95-13.4,25.53-1.2,2.39-2.54,3.37-5.2,3.13-2.75-.25-5.53-.06-8.3-.06Z"/>
      <path class="cls-1" d="M387.49,231.04c-3.5,0-7-.02-10.5.01-1.13.01-1.4-.31-.85-1.35,4.93-9.31,9.84-18.64,14.75-27.97.39-.74.95-1.05,1.76-1.05,7.05,0,14.1-.01,21.15,0,1.32,0,1.43.29.8,1.5-4.67,8.85-9.37,17.68-13.96,26.57-.86,1.67-1.84,2.44-3.8,2.33-3.1-.18-6.22-.05-9.33-.05Z"/>
      <path class="cls-1" d="M503.24,231.04c-3.4,0-6.81-.02-10.21.01-.98.01-1.61-.28-2.09-1.2-4.75-9.08-9.55-18.14-14.33-27.21-.94-1.79-.84-1.96,1.13-1.96,6.61,0,13.23.03,19.84-.03,1.4-.01,2.21.49,2.86,1.73,4.67,8.96,9.41,17.89,14.12,26.83.89,1.7.82,1.82-1.11,1.83-3.4,0-6.81,0-10.21,0Z"/>
      <path class="cls-1" d="M625.5,308.17c0-2.49.03-4.67-.01-6.85-.02-.99.33-1.39,1.35-1.37,4.25.08,3.51-.48,3.52,3.4.04,12.58.01,25.16.01,37.75,0,1.91,0,1.93-1.94,1.92-3.34-.03-2.89.38-2.92-2.98-.02-1.59,0-3.18,0-4.93-9.2,12.37-25.84,9.97-33.02,2.09-9.04-9.93-7.39-24.32.48-31.81,10.21-9.72,26.42-6.94,32.54,2.79ZM591.57,321.52c-.36,9.74,7.39,16.94,16.01,17.29,11.23.45,18.13-7.73,18.2-17.13.07-10.11-7.05-17.24-16.8-17.49-10.09-.26-17.8,7.51-17.41,17.33Z"/>
      <path class="cls-1" d="M541.81,343.6c-12.75.21-22-9.22-21.91-22.11.08-13.08,9.2-22.51,22.39-22.4,11.92.09,22,9.08,21.6,23.32-.35,12.15-9.19,21.45-22.07,21.19ZM541.84,303.95c-9.99-.19-17.11,7.51-17.02,17.72.1,10.19,6.83,16.74,16.6,17.05,10.4.33,17.58-7.04,17.56-17.18-.02-10.25-7.21-17.83-17.14-17.58Z"/>
      <path class="cls-1" d="M495.73,343.57c-5.04.29-9.56-.9-13.78-3.34-1.94-1.12-3.33-2.8-4.84-4.36-.64-.66-.56-1.24.16-1.94,2.46-2.38,2.42-2.4,4.77-.08,3.1,3.06,6.93,4.41,11.2,4.91,3.28.38,6.46.08,9.57-.92,2.06-.66,3.87-1.74,4.88-3.84,1.68-3.48.34-7.01-3.23-8.45-3.71-1.5-7.66-1.95-11.56-2.65-4.05-.73-8.12-1.45-11.49-4.09-1.97-1.54-3.01-3.63-3.24-6.09-.6-6.36,2.9-10.36,8.27-12.09,8.53-2.76,16.69-2.03,24.1,3.47,1.03.76,1.1,1.4.2,2.32-1.88,1.94-1.87,1.99-4.12.51-4.88-3.22-10.25-3.47-15.8-2.61-1.83.28-3.53.96-5.12,1.93-3.49,2.12-3.64,7.07-.29,9.36,2.95,2.02,6.4,2.37,9.76,3,4.27.8,8.57,1.4,12.57,3.31,5.68,2.72,6.78,8.78,4.75,13.72-1.82,4.43-5.66,6.27-9.99,7.38-2.27.58-4.59.72-6.76.57Z"/>
      <path class="cls-1" d="M368.07,321.49c0,6.6-.03,13.21.03,19.81.01,1.33-.4,1.78-1.74,1.74-2.72-.09-5.44-.06-8.16-.01-1.08.02-1.43-.38-1.43-1.44.02-13.5.02-27,0-40.5,0-1.07.36-1.46,1.44-1.44,2.77.05,5.54.06,8.31,0,1.21-.03,1.59.4,1.58,1.6-.04,6.75-.02,13.5-.02,20.25Z"/>
      <path class="cls-1" d="M645.84,306.36c2.49-3.75,5.77-5.65,9.69-6.5,4.3-.94,8.45-.55,12.4,1.52,1.03.54,1.16,1.18.69,2.12-.02.04-.03.09-.05.14q-1.33,2.59-4.09,1.41c-6.05-2.6-14.34.77-16.96,6.78-.97,2.23-1.42,4.47-1.4,6.89.05,7.48-.02,14.96.05,22.44.01,1.46-.39,1.95-1.88,1.9-3.86-.15-3.3.48-3.3-3.35-.03-12.58-.01-25.16,0-37.73,0-2,0-2.01,2.01-2,3.25.02,2.83-.35,2.86,2.89.01,1.02,0,2.04,0,3.51Z"/>
      <path class="cls-1" d="M577.85,312.71c0,9.47-.03,18.95.03,28.42,0,1.44-.36,1.97-1.87,1.91-3.87-.15-3.31.47-3.31-3.34-.02-18.36,0-36.73,0-55.09,0-2.43,0-2.45,2.4-2.43,3.07.02,2.76-.32,2.76,2.7.01,9.28,0,18.56,0,27.84Z"/>
      <path class="cls-1" d="M368.95,288.47c.46,3-2.64,6.56-6.5,6.46-3.83-.1-6.55-2.75-6.54-6.61,0-3.74,2.76-6.43,6.54-6.45,4.03-.03,6.95,3.39,6.5,6.6Z"/>
    </g>
  </g>
</svg>