<?xml version="1.0" encoding="UTF-8"?>
<svg id="Layer_1" data-name="Layer 1" xmlns="http://www.w3.org/2000/svg" viewBox="0 0 900 500">
  <defs>
    <style>
      .cls-1 {
        fill: #0c5ff2;
      }
    </style>
  </defs>
  <g id="AOsB24">
    <g>
      <path class="cls-1" d="M173.46,209.54c.45-.12.78-.4,1.04-.77.39-.55.95-.87,1.58-.98,1.09-.19,2.18-.31,3.32-.96-.54,1.02-1.47,1.23-2.11,1.78-4.34,3.72-8.56,7.56-11.47,12.54-3.16,5.41-5.52,11.18-6.27,17.41-.54,4.52-.61,9.15.04,13.66.7,4.94,2.3,9.69,4.53,14.22,2.41,4.9,5.48,9.3,9.56,12.94,5.15,4.58,10.96,8.14,17.67,9.98,3.09.85,6.26,1.44,9.52,1.54,4.89.14,9.78.1,14.63-.4,5.4-.56,10.48-2.24,15.17-5.03,5.26-3.14,9.5-7.39,13.27-12.12,2.59-3.25,4.64-6.82,6.25-10.64,1.62-3.85,2.97-7.78,3.21-12,.07-1.36.48-2.67.47-4.05-.03-4.13-.45-8.19-1.52-12.22-.49-1.85-1.6-3.58-1.37-5.6.03-.28.05-.56.1-1.19,3.01,3.12,2.99,7.34,5.1,10.54-.52-5.25-2.4-10.1-4.45-14.91.73.44,1.16,1.13,1.51,1.82,1.78,3.49,2.95,7.18,3.96,10.97,1.1,4.12,1.2,8.23,1.05,12.38-.25,7.29-2.26,14.12-5.94,20.45-.17.29-.36.6-.44.92-.77,3.24-2.86,5.68-5.06,8.01-3.71,3.93-7.52,7.78-12.36,10.38-2.09,1.13-4.23,2.13-6.6,2.7-1.7.4-3.31,1.2-5.08,1.74,1.18.38,2.19,1,3.35,1.27.13.03.3,0,.43-.06,5.34-2.33,10.77-4.52,15.55-7.9,2.42-1.71,4.52-3.8,6.36-6.18,2.87-3.71,5.4-7.6,7.42-11.82,2.15-4.49,3.66-9.17,4.47-14.08.45-2.73,1-5.44.88-8.23,0-.18,0-.39.23-.48.09.02.23.02.25.06.99,3.59,2.47,6.94,1.51,10.99-1.13,4.72-2.42,9.37-3.78,14.02-.18.61-.42,1.19-.17,1.83.54.24.81-.11,1.12-.43,1.35-1.42,2.48-3,3.48-4.67.27-.45.49-.84,1.11-.67.3.46.22.97.03,1.4-2.95,6.45-6.21,12.63-11.12,17.97-3.23,3.51-6.9,6.41-10.48,9.46-2.07,1.77-4.67,2.61-6.94,4.04-1.47.93-3.01,1.86-4.74,2.22-5.34,1.12-10.63,2.5-16.06,3.14-.78.09-1.56.07-2.34.04-1.9-.07-3.81-.28-5.71.13-.42.09-.88.08-1.32.02-4.41-.55-8.82-1.12-13.13-2.29-1-.27-1.81-.93-2.73-1.38-.86-.42-1.65-.75-2.62-.71-.47.02-1-.07-1.42-.28-4.22-2.05-8.43-4.11-12.2-6.92-5.03-3.75-9.74-7.86-13.21-13.1-2.67-4.03-5.31-8.13-6.49-12.93-.45-1.83-1.42-3.5-2.02-5.28-.82-2.43-1.4-4.94-1.65-7.51-.14-1.45-.37-2.89-.62-4.32-.62-3.58.26-7.06.66-10.56.57-4.96,2.05-9.7,4.08-14.22,1.01-2.25,2.42-4.4,3.7-6.57,3.67-6.23,8.68-11.31,14.25-15.83,4-3.24,8.59-5.53,13.41-7.36.65-.25,1.32-.25,2.08-.2-.27.59-.71.89-1.2,1.07-6.31,2.41-11.99,5.81-16.78,10.58-.62.61-1.38,1.17-1.53,2.18,6.14-5.28,12.63-9.91,20.97-11.64-.19,1.38-1.11,1.83-1.94,2.2-2.6,1.14-5.12,2.42-7.53,3.9-2.24,1.37-4.52,2.69-6.37,4.59-.41.42-.65.83-.54,1.41-.06.03-.12.05-.18.08.03,0,.07.01.08,0,.03-.03.05-.07.08-.1ZM255.49,252.85c-1.3,1.58-.65,3.62-1.47,5.35-.78,1.64-1.09,3.49-1.87,5.15-.8,1.69-1.61,3.38-2.46,5.05-.82,1.6-1.82,3.1-2.95,4.55.73-.43,1.49-.74,1.92-1.48,1.26-2.12,2.7-4.13,3.72-6.39.89-1.96,1.6-4,2.41-5.99.85-2.09.74-4.13.7-6.24ZM200.4,295.99c2.39.92,4.48,1.86,6.81,1.72,2.25-.14,4.59.48,6.93-.6-.79-.32-1.41-.38-2.05-.37-1.86.01-3.71,0-5.57,0-1.07,0-2.09-.01-3.15-.44-.8-.32-1.75-.61-2.98-.31ZM180.55,288.37c1.76,1.71,7.62,4.61,8.94,4.41-2.92-1.35-5.57-3.26-8.94-4.41ZM170.99,280.16c-.85-1.89-3.39-5.02-4.32-5.26,1.35,1.84,2.3,3.8,4.32,5.26Z"/>
      <path class="cls-1" d="M248.23,248.98c-.19,1.98-.88,3.82-2.04,5.47-.56.8-1.03,1.64-1.56,2.46-.49.77-.74,1.57-.7,2.47.03.68-.05,1.36.02,2.04.15,1.58-.39,2.84-1.62,3.85-.86.71-1.49,1.55-1.33,2.76.02.19,0,.41-.08.57-1.98,3.53-4.05,6.98-8.71,7.56,0-1.12-.87-2.13-1.03-3.13-.33-2.07-1.18-4.01-1.36-6.09-.06-.71.11-1.34.61-1.88.62-.67.7-1.48.52-2.32-.34-1.66-.64-3.31-1.99-4.58-.61-.57-.37-1.44-.13-2.2.23-.73.65-1.43.32-2.27-.84-.32-1.74-.02-2.58-.21-.48-1.42-.47-1.39-1.96-1.14-.78.13-1.51.35-2.21.71-.48.25-1.02.39-1.56.3-.69-.12-1.33-.03-2.01.14-.87.22-1.68.02-2.46-.57-1.94-1.46-3.33-3.41-4.89-5.2-.79-.9-.71-1.99-.25-3.02.31-.71.43-1.34.02-2.07-.36-.63-.23-1.31.06-1.96.74-1.67,1.64-3.21,3.26-4.18.65-.39,1.13-.83,1.21-1.68.1-1.05,1.1-1.4,1.84-1.93.38-.27,1-.42.82-1.04-.16-.54-.37-1.12-1.04-1.31-.45-.13-1.05-.13-1.07-.78-.03-.92-.18-1.86.1-2.75.13-.41.67-.31,1.05-.31,1.32,0,2.64,0,4.04,0,.27-1.14-.72-1.67-1.27-2.24-.82-.85-1.49-1.53-1.1-2.87.2-.69-.19-1.5-1.12-1.72-.38.45-.2.91-.29,1.32-.09.4-.19.81-.68.82-.54.02-1.27.36-1.54-.37-.26-.72.16-1.16.89-1.39.81-.25,1.85-.33,1.53-1.6,1.53-.08,4.27,2.55,4.81,4.63,1.14-.78,2.4-1.25,3.59-1.83.77-.37.51-1.27-.46-1.73-.94-.44-1.74-.99-1.9-2.12.65-.32,1.24-.19,1.82-.23.6-.04,1.16-.14,1.62-.57.72-.69,1.62-.86,2.57-.82,1.78.08,3.36.51,4.85,1.66,3.96,3.08,7.05,6.82,9.45,11.17.92,1.67.9,3.75,2.12,5.22,1.17,1.4,1.31,3.09,1.9,4.65.15.39.41.91-.2,1.11-.55.18-.58-.34-.69-.7-.11-.36-.29-.62-.94-.42.74.84.89,1.96,1.68,2.71,1.38,1.3,1.59,3.39.31,4.75-.61.65-1.28,1.32-2.24,1.6-1.18-3.31-2.68-6.41-4.27-9.46-.43.41-.33.72-.17.94,1.03,1.46,1.49,3.16,1.95,4.83.45,1.64,1.7,2.82,2.31,4.35.14.37.49.42.85.43.42,0,.87-.26,1.3.16ZM228.04,230.13c-.52-.69-.11-1.15.17-1.65.4-.75.15-1.51-.53-1.4-1.58.25-3.41-.05-4.52,1.53-.8,1.14-1.72,2.11-3.14,2.45-.3.07-.57.24-.51.6.07.41.43.56.78.5.47-.08.93-.27,1.39-.43,2.51-.89,5.02-.56,7.54-.26.1,1.06-.35,2.19.84,2.58,1.48.49,2.9,1.08,4.17,1.94,1.27-1.54,1.28-1.55,3.05-.56,1.09.62,2.34.66,3.5.99.29.08.68.03.73-.3.1-.7.85-1.21.68-1.79-1.68-1.32-4.31-.92-4.84-3.5-.02-.09-.11-.16-.17-.23-.19-.26-.47-.36-.77-.29-.35.08-.38.38-.42.68-.05.45.15.95-.25,1.41-1.44-.71-1.35-2.35-2.31-3.32-1.01-1.01-2.41-1.3-3.47-2.2.45,1.69,2.38,1.98,3.26,3.39-.85.45-1.53.35-2-.32-.64-.9-1.65-1.24-2.44-1.94-.34.74.18,1.6-.74,2.14ZM227.27,219.74c-.31.83.14,1.21.79,1.59,1.37.8,2.94.58,4.39.91.44.1.9.14,1.23-.24.4-.44.2-.93-.04-1.35-.47-.83-.89-1.68-.93-2.83-.78.58-1.64.87-1.45,1.92.14.8-.27,1.17-.96,1.37-.65.19-1.24.18-1.68-.45-.32-.46-.62-1-1.37-.93ZM238.15,230.29c1.91-.67,3.32.85,5.08.91-.78-1.32-1.89-2.16-3.26-2.65-1.63-.58-1.96-.31-1.82,1.74ZM219.53,222.57q1.24,1.31,2.04.46c-.58-.38-1.14-.68-2.04-.46Z"/>
      <path class="cls-1" d="M307.89,250.8c.19.57.68.93,1.16,1.21,4.49,2.67,5.2,6.86,4.67,11.51-.62,5.4-4.7,8.9-9.53,9.94-2.97.64-5.98,1.01-9.02,1.01-4.89,0-9.79,0-14.68-.03-2.11-.01-2.25-.28-2.24-2.41.04-8.35.03-16.7.05-25.05,0-3.4.01-6.8.06-10.2.05-3.53,1.89-5.35,5.48-5.38,5.43-.04,10.87-.16,16.3.04,4.53.16,8.67,1.4,11.26,5.62.54.88.76,1.8.84,2.74.26,2.81.42,5.63-1.29,8.16-.61.9-1.27,1.71-2.32,2.14-.31.13-.63.29-.73.7ZM287.22,266.33c4.09,0,8.05,0,12.01,0,.74,0,1.44-.27,2.13-.52,3.82-1.36,4.67-6.13,1.6-8.81-1.68-1.46-3.73-1.57-5.77-1.64-2.88-.1-5.77.04-8.65-.12-1.28-.07-1.46.11-1.47,1.39-.02,3.01,0,6.02.01,9.02,0,.18.08.36.15.68ZM287.16,247.6c.25.04.44.1.62.1,3.91,0,7.83,0,11.74,0,1.1,0,1.98-.5,2.77-1.18,2.15-1.88,1.56-5.93-1-6.82-1.1-.38-2.25-.67-3.43-.7-3.18-.08-6.36.12-9.54-.17-.86-.08-1.27.36-1.26,1.2,0,.97,0,1.94.02,2.91.04,1.54-.13,3.08.07,4.66Z"/>
      <path class="cls-1" d="M375.48,271.02c-.6-.04-.86.11-1.03.36-.96,1.48-2.5,2.15-4.02,2.8-1.61.69-3.4.51-5.07.4-4.22-.28-7.36-2.48-9.73-5.89-2.71-3.89-3.12-8.29-2.9-12.81.12-2.41.47-4.77,1.46-7.07,1.14-2.65,2.86-4.74,5.13-6.4,1.18-.86,2.66-1.24,4.09-1.51,4.79-.89,9.39-.39,13.83,1.79,4.2,2.06,6.17,5.46,6.51,9.93.55,7.32.22,14.65.2,21.98,0,2.51-.5,4.9-1.92,7.05-1.61,2.45-3.83,4.03-6.62,4.99-4.32,1.5-8.69,1.97-13.1.66-4.4-1.31-7.19-4.32-8.56-8.64-.31-.96-.09-1.21.96-1.23,2.1-.02,4.21.02,6.31,0,1.02-.01,1.74.54,2.47,1.12,1.68,1.35,3.5,2.31,5.76,2.03,3.29-.41,5.96-3.37,6.21-6.93.06-.85,0-1.72,0-2.61ZM361.41,258.22c0,.87-.08,1.76.01,2.62.61,5.51,4.37,7.68,9.37,6.37,1.45-.38,2.72-1.33,3.34-2.69,2.05-4.54,2.08-9.1-.35-13.56-1.44-2.63-3.81-3.35-6.6-2.99-2.35.3-3.75,1.82-4.73,3.86-.98,2.04-1.2,4.17-1.03,6.38Z"/>
      <path class="cls-1" d="M611.19,260.74c.98,0,1.96.03,2.93,0,.68-.03,1.08.23,1.33.87.33.86.64,1.75,1.15,2.5,1.37,1.99,3.4,3.02,5.75,3.39,1.88.3,3.77.33,5.69.06,1.69-.24,3.08-.91,4.22-2.09,1.29-1.34,1.17-3.55-.11-4.87-1.5-1.54-3.36-2.5-5.35-3.19-3.32-1.15-6.78-1.81-10.17-2.71-2.32-.61-4.68-1.43-6.29-3.2-2.5-2.74-3.52-6.13-3.05-9.82.28-2.22,1.04-4.32,2.39-6.18,1.47-2.04,3.59-3.14,5.86-3.92,5.03-1.73,10.12-1.84,15.28-.44,4.24,1.16,7.03,3.86,8.71,7.76.56,1.29.6,2.74.74,4.14.06.6-.23.89-.86.88-1.71-.02-3.43-.05-5.12-.34-1.13-.2-2.05-.91-2.68-1.89-2.63-4.06-7.91-5.01-11.98-3.61-2.54.88-3.64,2.73-3.35,5.26.13,1.12.82,1.75,1.63,2.27,1.36.87,2.86,1.46,4.42,1.88,3.35.89,6.78,1.44,10.09,2.5,2.45.78,4.65,2,6.65,3.58.39.31.63.73.88,1.15,2.66,4.26,2.5,8.61.5,13.05-1.25,2.78-3.44,4.47-6.2,5.64-5.1,2.17-10.38,2.2-15.67,1.22-5.86-1.09-9.82-4.51-11.52-10.27-.24-.82-.19-1.73-.24-2.6-.04-.67.34-.95,1-.94,1.12.01,2.25,0,3.38,0v-.06Z"/>
      <path class="cls-1" d="M441.47,274.5c-.29-.47-.17-.92-.17-1.34,0-12.42,0-24.84,0-37.26,0-2.45,2.06-4.5,4.54-4.5,5.13-.01,10.27-.13,15.4.03,8.27.25,12.7,4.58,13.21,12.52.18,2.79-.1,5.55-1.28,8.11-1.88,4.08-5.15,6.3-9.67,6.76-3.86.39-7.72.26-11.58.21-1.47-.02-1.68.18-1.67,1.65.02,3.93.03,7.86.04,11.79,0,.39-.05.77-.08,1.16-.05.64-.4.99-1.06.89-2.57-.4-5.15-.2-7.69,0ZM455.77,251.2h0c1.42,0,2.84.04,4.26-.02,1.8-.07,3.43-.85,4.36-2.29,1.45-2.25,1.6-4.82.31-7.22-1.16-2.15-3.29-2.76-5.61-2.78-2.35-.02-4.7-.04-7.05-.04-1.46,0-1.81.33-1.8,1.82.04,3.16.12,6.31-.03,9.47-.04.85.36,1.09,1.15,1.06,1.47-.04,2.94-.01,4.4-.01Z"/>
      <path class="cls-1" d="M388.54,231.39c1.45,0,2.81-.04,4.18.01,1.92.08,3.9,2.11,3.93,4.03.03,2.62,0,5.24,0,7.86,0,.57-.09,1.14.14,1.7.4-.03.62-.33.83-.56,3.16-3.53,7.14-4.59,11.68-3.7,3,.59,5.24,2.48,7.21,4.71,1.98,2.23,2.62,4.91,2.76,7.79.3,6.64.12,13.29.25,19.94.03,1.33-.06,1.37-1.41,1.35-1.86-.02-3.72-.03-5.58-.08-1.37-.04-1.65-.34-1.6-1.66.2-5.14.06-10.29.09-15.43.01-2.09-.14-4.19-1.37-6.01-1.37-2.03-3.08-3.52-5.75-3.36-2.84.17-4.89,1.55-6.04,4.12-.81,1.83-1.22,3.77-1.21,5.8.02,5.05.02,10.09.02,15.14,0,.43.1.87-.14,1.38h-7.94c-.33-1.14-.4-40.02-.06-43.03Z"/>
      <path class="cls-1" d="M586.85,259.84c-.81.21-1.54.12-2.27.12-6.02,0-12.04-.02-18.06-.02-1.7,0-1.83.15-1.34,1.75.3.97.65,1.94,1.13,2.83,2.1,3.9,7.92,3.74,10.04,1.43,1.3-1.42,2.89-2.04,4.85-1.93,1.7.09,3.41.02,5.25.02-.57,2.72-1.83,4.88-3.71,6.63-3,2.79-6.55,4.14-10.74,4.22-4.16.08-7.83-.86-10.94-3.65-1.62-1.45-2.85-3.17-3.61-5.22-1.98-5.39-1.96-10.82-.21-16.24,1.87-5.79,6.82-8.98,12.55-9.29,3.11-.17,6.19.15,9.03,1.48,3.23,1.51,5.44,4.08,6.77,7.34,1.13,2.79,1.6,7.3,1.25,10.55ZM571.25,254.33s0,.01,0,.02c1.71,0,3.42-.02,5.12,0,.86.02,1.22-.28,1.21-1.18-.01-1.35-.59-2.45-1.39-3.43-1.53-1.89-4.24-2.52-6.81-1.69-2.14.69-4.26,3.29-4.4,5.39-.05.77.4.88,1,.88,1.76,0,3.51,0,5.27,0Z"/>
      <path class="cls-1" d="M519.73,256.4c-.11,2.6.24,5.79-.55,8.97-.97,3.9-3.31,6.46-7,7.97-4.26,1.74-8.68,1.89-13.11,1.12-3.08-.53-5.5-2.4-6.93-5.14-.92-1.77-.9-3.85-.85-5.85.11-4.81,2.83-7.16,7.63-8.73,2.5-.82,5.17-1.02,7.76-1.51,1.11-.21,2.19-.54,3.15-1.13.81-.49,1.51-1.12,1.4-2.21-.09-.9-.94-1.87-2.05-2.02-1.82-.24-3.64-.72-5.52-.24-.93.24-1.78.5-2.42,1.23-.51.58-1.13.88-1.93.88-2.06,0-4.11.04-6.17.02-1.08-.01-1.31-.36-.95-1.37,1.56-4.32,4.72-6.88,9.2-7.62,4.18-.68,8.35-.51,12.43.96,3.68,1.32,5.76,3.89,5.89,7.81.07,2.09.01,4.18.01,6.85ZM511.44,257.88c-.81.21-1.41.36-2.01.52-1.41.36-2.73,1.05-4.2,1.19-1.19.11-2.27.54-3.34,1.01-1.78.78-2.64,2.51-2.18,4.41.22.92.32,1.99,1.38,2.41,4.24,1.67,9.1-.66,10.06-5.07.3-1.38.23-2.77.27-4.47Z"/>
      <path class="cls-1" d="M723.5,255.95c-.07,2.95.29,5.94-.29,8.86-.82,4.13-3.13,7.07-7.19,8.62-4.05,1.54-8.28,1.66-12.4,1.02-3.55-.55-6.42-2.49-7.75-6.25-1.05-2.96-.74-5.7.39-8.48,1.27-3.12,4.19-4.01,6.99-4.99,2.41-.84,4.94-1.16,7.46-1.45,1.13-.13,2.18-.54,3.19-1.04.69-.34,1.1-.85,1.11-1.71.02-1.88-.44-2.5-2.32-2.82-1.11-.19-2.22-.38-3.35-.3-1.53.1-3,.29-4.14,1.5-.66.71-1.53.95-2.53.9-1.76-.09-3.52-.05-5.28-.14-1.25-.07-1.44-.43-.94-1.59,1.88-4.3,5.07-6.87,9.86-7.4,4.03-.44,8-.42,11.8,1.17,3.28,1.37,5.33,3.7,5.37,7.41.03,2.23,0,4.46,0,6.69ZM715.55,260.06c.03-2-.33-2.27-2.49-1.67-.37.1-.74.24-1.11.36-.55.19-1.09.51-1.66.54-1.76.1-3.3.83-4.82,1.59-2.37,1.18-2.65,4.75-.53,6.24,2.93,2.05,8.47.51,9.81-2.79.53-1.29.82-2.68.8-4.27Z"/>
      <path class="cls-1" d="M523.74,274.33c-.28-.45-.22-.8-.22-1.13,0-6.74-.1-13.49.04-20.23.1-4.8,2.1-8.56,6.75-10.67,6.17-2.8,12.16-2.43,17.91.98,1.96,1.16,3.23,3,3.81,5.3.7,2.76.9,5.53.87,8.36-.06,5.34-.01,10.67-.02,16.01,0,1.54-.01,1.55-1.53,1.48-1.22-.06-2.45-.07-3.66-.24-2.17-.3-3.3-1.46-3.55-3.6-.12-1.01-.08-2.03-.08-3.05,0-4.27,0-8.54,0-12.81,0-.97-.06-1.94-.27-2.89-.54-2.48-2.23-3.94-4.78-4.14-1.32-.1-2.63-.09-3.85.56-2.25,1.19-2.79,3.28-2.8,5.53-.05,6.11,0,12.23-.02,18.34,0,2.15.54,2.6-2.44,2.25-2.02-.24-4.1-.05-6.16-.05Z"/>
      <path class="cls-1" d="M186.84,276.39c-.19.47.43.75.11,1.16q-1.81.29-2.96,2.35c-1.8-1.24-3.45-2.59-3.77-4.85-.34-2.39-1.11-4.72-1-7.18.06-1.33-.55-2.4-1.7-3.19-.95-.65-1.5-1.6-1.85-2.72-.33-1.06-.92-2.04-1.23-3.1-.52-1.76-1.02-3.55.03-5.33.34-.57.12-1.24.15-1.86.05-.88-.69-.91-1.25-1.17-.26-.12-.57-.3-.67-.53-.58-1.32-1.66-2.24-2.55-3.32-.96-1.16-.78-1.83.54-2.71.35-.23.62-.65,1.13-.61.32.26.13.52-.02.75-.54.85-.8,1.6.5,2.02.41.13.31.56.31.89,0,.48-.03.96.17,1.43.69,1.6,1.78,1.89,3.03.74.6-.55,1.25-.71,2.02-.46,1.06.35,2.08.84,3.26.51.48-.13.79.3,1.1.6.56.54,1.1,1.11,1.67,1.63.55.5,1.22.79,1.97.88,1.77.2,1.93.34,2.25,2.1.13.71.13,1.43.21,2.35,1.68-.41,2.92.84,4.39,1.09,1.75.3,3.16,1.18,4.68,1.93,1.1.54,1.36,1.15.86,2.31-.39.9-1,1.68-1.68,2.37-.6.62-.8,1.26-.75,2.09.06,1.02.03,2.03-.55,2.95-.56.9-1.11,1.61-2.38,1.56-1.13-.05-1.76.66-2.15,1.8-.61,1.78-1.68,3.25-3.88,3.49Z"/>
      <path class="cls-1" d="M603.4,267.52c0,1.94-.02,3.72,0,5.51.01,1.12-.75,1.43-1.63,1.45-1.91.06-3.82.11-5.72-.07-.78-.07-1.56-.16-2.33-.27-2.73-.38-4.37-2.24-4.39-5-.07-12.43-.03-24.86-.02-37.29,0-.09.04-.18.1-.4,1.71,0,3.46-.15,5.18.04,2.08.22,3.35,1.8,3.47,4.06.07,1.36,0,2.72.02,4.08.01,1.61.12,1.7,1.79,1.65.78-.02,1.57.01,2.35-.03.92-.05,1.15.41,1.19,1.23.1,2.53-1.17,4.16-3.74,4.69-1.41.29-1.61.54-1.61,1.92.01,5.1.01,10.2.02,15.29,0,.39-.03.78.02,1.16.18,1.46.8,1.99,2.29,1.99.93,0,1.86,0,3,0Z"/>
      <path class="cls-1" d="M667.97,273.42c2.39.12,3.83-1.6,5.66-2.31-1.15,2.55-9.2,5.55-14.36,4.48-8.36-1.73-16.18-8.26-16.06-18.51.12-10.06,6.77-16.25,16.04-18.59,5.03-1.27,14.66,2.66,16.05,6.07-1.87,1.06-2.34,1.18-3.35-.53-1.3-2.19-3.58-2.34-5.5-3.25-.62-.3-1.33-.23-1.83.65-.59,1.05-1.41,1.98-2.93,1.68-.71-.14-1.28.38-1.38,1.04-.12.78.59.9,1.19.94.81.06,1.48.43,2.2.76.94.42,1.38.16,1.48-.87.05-.57-.03-1.16-.06-1.74-.07-1.28.64-1.86,1.77-1.22.89.5,1.95,1.06,1.95,2.33,0,.65.43.76.87.99.91.47,1.73,1.04,1.89,2.17-.46.37-.91.4-1.17-.02-.32-.51-.59-1.21-1.26-.69-.6.46.22.91.37,1.56-2.87.65-4.4,2.68-5.29,5.29-.44.18-.66-.08-.92-.32-1.23-1.11-3.94-.44-4.59,1.11-.18.44.03.75.24,1.07.24.38.74.48.92.9.61-.22,1.28-1.04,1.7-.55.8.93,2.14,1.64,1.93,3.31-1.02-.16-1.68-.91-2.49-1.36-.65-.36-1.29-.71-2.05-.69-.91.02-1.7-.32-2.12-1.07-.89-1.59-2.61-2.31-3.72-3.66-.88-1.06-1.79-2-1.66-3.55.07-.83-1.18-2.11-2-2.26-.65-.13-1.24-.1-1.62.61-.92,1.7-2.03,3.29-2.25,5.3-.12,1.1-.82,2.05-.84,3.22-.1,7.87,3.29,13.69,10.35,17.32,2.9,1.49,6.07,1.68,9.28,1.53.56-.03.92-.28,1.08-.81.5-1.67,1.36-3.2,1.8-4.9.19-.76.08-1.31-.48-1.83-.46-.43-.9-.89-1.33-1.35-1.17-1.25-1.35-2.32-.6-3.82.17-.35.34-.69.35-1.09.02-1.38.66-1.97,2.12-1.92,2.21.08,4.23.65,5.84,2.27.72.73,1.49,1.37,2.56,1.61.77.17,1.06.76.67,1.44-.79,1.35-1.26,2.81-2.52,3.99-1.71,1.6-3.3,3.28-5.43,4.35-.12.06-.22.2-.29.32-.07.12-.08.27-.19.65ZM659,242.82c.35-1.86.35-1.87,2.1-1.63.67.09,1-.15,1.04-.9-1.23-.22-2.51-.95-3.58-.38-1.03.55-2.33.66-3.22,1.68,1.41-.15,2.33.94,3.65,1.23Z"/>
      <path class="cls-1" d="M437.71,267.52v6.93c-3.34.21-6.59.03-9.79-.64-1.72-.36-2.93-1.49-3.42-3.25-.3-1.08-.55-2.16-.55-3.29,0-11.79,0-23.58.02-35.37,0-.09.04-.19.1-.49,1.73-.03,3.54-.25,5.29.12,1.98.41,3.27,2.19,3.41,4.41.08,1.21.03,2.42.04,3.64.02,1.5.22,1.7,1.67,1.7.29,0,.59-.05.88,0,.78.12,1.96-.48,2.26.39.39,1.14.46,2.5-.36,3.63-.79,1.09-1.89,1.69-3.23,1.75-.95.04-1.27.49-1.26,1.38.04,5.58.03,11.16.08,16.74.02,2.08.35,2.33,2.41,2.34.77,0,1.55,0,2.44,0Z"/>
      <path class="cls-1" d="M478.88,231.41c1.9,0,3.65-.1,5.39.03,1.97.14,3.45,1.8,3.71,3.91.06.48.04.97.04,1.45,0,11.98,0,23.97,0,35.95q0,1.51-1.55,1.52c-2.05.01-4.11.04-6.16.02-1.42-.01-1.43-.04-1.43-1.5,0-12.03,0-24.06,0-36.09v-5.29Z"/>
      <path class="cls-1" d="M683.27,274.51v-43.07c1.67,0,3.26-.21,4.76.05,2.23.38,3.82,1.63,3.8,4.37-.06,7.43-.04,14.85-.04,22.28,0,4.9-.09,9.8.07,14.71.05,1.69.03,1.68-1.68,1.68-2.24-.01-4.48,0-6.91,0Z"/>
      <path class="cls-1" d="M750,241.64c-1.37,2.9-2.36,5.61-3.45,8.4-1.18,0-2.35,0-3.51,0-3.17.03-5.61,1.92-6.39,4.97-.35,1.37-.47,2.77-.46,4.18.04,4.76.07,9.51.09,14.27,0,.28-.07.57-.1.84-.52.37-1.07.2-1.59.2-1.86.02-3.72,0-5.57,0-1.31,0-1.4-.05-1.41-1.39-.01-1.65.02-3.3.03-4.95.01-3.88-.02-7.76.03-11.65.04-3.28,1.04-6.26,2.84-9.02,1.84-2.82,4.57-4.39,7.67-5.24,3.76-1.03,7.65-.66,11.83-.61Z"/>
      <path class="cls-1" d="M326.17,264.08c0,2.72,0,5.44,0,8.15,0,1.85-.4,2.26-2.21,2.25-1.71,0-3.43,0-5.14-.06-1.77-.06-2.07-.37-2.05-2.06.05-4.9-.18-9.8.25-14.69.2-2.22.37-4.49,1.1-6.58,1.21-3.46,3.58-6.05,6.89-7.77,3.02-1.57,6.38-1.74,9.64-2.29.9-.15,1.26.22,1.26,1.09,0,2.33.02,4.66.05,6.99,0,.8-.46.94-1.14.94-1.36,0-2.73-.1-4.08.25-2.91.75-4.56,2.78-4.56,5.78,0,2.67,0,5.34,0,8.01Z"/>
      <path class="cls-1" d="M340.44,241.01c1.78.05,3.56-.05,5.26.38,1.74.44,2.9,1.54,3.18,3.41.14.92.13,1.84.14,2.76.02,8.4.04,16.8.06,25.2,0,1.71-.08,1.77-1.83,1.75-1.86-.02-3.72-.03-5.58-.03-1.37,0-1.39,0-1.39-1.36,0-5.97,0-11.94,0-17.92,0-4.13,0-8.25,0-12.38,0-.53-.08-1.07.17-1.81Z"/>
      <path class="cls-1" d="M212.52,210.01c-1.76-.06-3.21.6-4.28,1.91-1.28,1.58-3.09,1.94-4.9,2.24-1.08.18-2.08.43-3.01,1.02-.48.3-1.07.45-1.62.64-1.3.45-2.49.99-3.41,2.12-1.06,1.32-4.46.78-5.28-.71-.47-.86.3-1.16.76-1.58-.59-.58-1.39-.33-1.93-.75,2.27-3.86,17.6-7.08,23.68-4.89Z"/>
      <path class="cls-1" d="M181.33,220.65c.97-1.4,1.93-2.62,3.94-2.64-.43.85-1.03,1.33-1.7,1.76-.58.37-.73.76.02,1.14.99.5,1.62,1.57,2.82,1.76.11.02.27.19.28.29.03,1.21,1.15,1.75,1.65,2.76-.85.48-1.98-.14-2.77.67-.23-.48.15-.7.2-1.01.09-.51-.2-.82-.65-.67-1.09.35-2.16.8-3.23,1.23-.05.02-.05.18-.07.28.37.77,1.46.25,1.86,1.13-.27.69-.99.99-1.66,1.09-2.53.38-3.79,2.3-5.01,4.13-.85,1.27-1.36,2.78-2.34,4.01-.48.6-.88,1.23-.37,2.1.23.4.15,1.02-.08,1.56-.75-.38-.54-1.18-.79-1.74-.86-.41-1.62.34-2.52.17-.2-.78.14-1.51.4-2.18.67-1.76,1.48-3.48,2.2-5.23.33-.8,1.14-1.02,1.69-1.52-.32-1.88-.18-2.2,1.53-3.08.72-.37,1.02-.99,1.35-1.65.73-1.45,1.19-3.12,3.03-3.84.31.6.74,1.12,1.54.81.25-.1.28-.41.23-.64-.18-.8-.93-.26-1.52-.68Z"/>
      <path class="cls-1" d="M340.33,238.38v-7c2.18.16,4.32-.4,6.39.57,1.22.58,1.93,1.43,2.05,2.77.07.87.12,1.74.17,2.61.04.72-.28,1.06-1.04,1.05-2.49-.02-4.97,0-7.57,0Z"/>
      <path class="cls-1" d="M238.37,208.06c-.6.06-.97-.36-1.42-.65-2.35-1.55-4.85-2.84-7.38-4.07-2.41-1.17-4.91-2.07-7.48-2.76-2.48-.67-5.03-1.11-7.55-1.64-.95-.2-1.9-.36-3.03-.57,3.23-.55,6.79.08,10.84,1.2,5.5,1.53,10.42,4.18,15.04,7.45.41.29.74.62.96,1.06l.02-.02Z"/>
      <path class="cls-1" d="M240.98,203.14c1.3-.13,1.88.98,2.62,1.65,2.49,2.25,4.89,4.6,7.06,7.17.2.24.46.49.45,1.15-3.44-3.45-6.9-6.59-10.11-9.99l-.02.02Z"/>
      <path class="cls-1" d="M254.94,223.88c1.82,2.46,3.24,6.75,3.46,9.23-1.42-3.1-2.38-6.2-3.46-9.23Z"/>
      <path class="cls-1" d="M206.81,214.73c1.7.24,3.14.12,4.59.03.38-.02.85-.09.96.41.11.51-.36.61-.7.76-1.7.74-3.66.31-4.84-1.21Z"/>
      <path class="cls-1" d="M246.69,262.27c-.3,2.33-1.57,4.11-2.47,6.04-.54-1.72.85-5.04,2.47-6.04Z"/>
      <path class="cls-1" d="M680.3,258.88c-.78-1.46-.6-3.41.31-4.24.5,1.5.4,3.23-.31,4.24Z"/>
      <path class="cls-1" d="M178.43,244.25c-1.88-.15-3.33-1.29-5.01-2.03.24-.03.48-.11.71-.08,1.41.18,2.58,1.16,4.05,1.17.16,0,.32.34.26.93Z"/>
      <path class="cls-1" d="M244,213.77c1.46.68,2.35,1.87,2.54,3.28-1.18-.95-2-2.01-2.54-3.28Z"/>
      <path class="cls-1" d="M266.35,266.41c-.29-1.75.36-3.06,1.56-4.18-.61,1.32-.42,2.93-1.56,4.18Z"/>
      <path class="cls-1" d="M241.01,203.12c-.19-.03-.4-.04-.43-.29,0-.04.13-.16.18-.14.23.06.25.25.23.45l.02-.02Z"/>
      <path class="cls-1" d="M268.2,261.42s-.04.06-.06.09c0-.03-.03-.07-.03-.1,0-.03.03-.06.05-.09,0,.04.02.07.03.11Z"/>
      <path class="cls-1" d="M238.35,208.08s.08.08.12.12c-.02-.01-.06-.02-.07-.03-.02-.03-.02-.07-.03-.1l-.02.02Z"/>
    </g>
  </g>
</svg>