<?xml version="1.0" encoding="UTF-8"?>
<svg id="Layer_1" data-name="Layer 1" xmlns="http://www.w3.org/2000/svg" viewBox="0 0 900 500">
  <defs>
    <style>
      .cls-1 {
        fill: #0058f5;
      }
    </style>
  </defs>
  <path class="cls-1" d="M226.99,172.81c-42.45,0-76.99,34.63-76.99,77.19s34.54,77.19,77,77.19,77-34.63,77-77.19-34.56-77.19-77.02-77.19M210.99,308.63c-25.71-7.06-44.69-30.64-44.69-58.63,0-2.07.11-4.13.31-6.16,4.16-.92,8.45-1.48,12.88-1.48,12.68,0,24.4,4.01,34.13,10.71-4.23,9.56-6.6,20.12-6.6,31.22,0,8.51,1.42,16.69,3.96,24.34M223.34,284.31c0-32.72,25.92-59.41,58.24-60.72,2.35,4.88,4.1,10.12,5.11,15.61-.47-.02-.94-.05-1.4-.05-25.53,0-46.31,20.83-46.31,46.42,0,7.97,2.06,15.66,5.82,22.47-4.91,1.51-10.06,2.48-15.41,2.7-3.87-8-6.05-16.97-6.05-26.43M259.64,301.13c-2.82-4.66-4.35-10.01-4.35-15.58,0-16.59,13.46-30.08,30-30.08.72,0,1.42.09,2.12.14-1.78,19.15-12.44,35.68-27.77,45.52"/>
  <g>
    <path class="cls-1" d="M351.64,273.87h-15.22v-48.42h15.22v48.42ZM344.03,200.63c4.68,0,8.48,3.82,8.48,8.5s-3.8,8.51-8.48,8.51-8.48-3.82-8.48-8.51c-.02-4.69,3.79-8.5,8.48-8.5"/>
    <path class="cls-1" d="M383.63,260.67c6.05,0,10.34-4.9,10.34-11.34s-4.29-11.06-10.34-11.06-10.34,4.9-10.34,11.24,4.1,11.15,10.34,11.15M360.52,287.96l10.73-8.22c2.64,3.71,6.35,5.57,11.12,5.57,6.35,0,11.21-3.82,11.21-11.06v-5.07c-3.21,3.23-7.8,5.08-12.97,5.08-12.1,0-22.24-10.07-22.24-24.54s9.65-25.14,23.7-25.14c5.85,0,11.21,2.73,14.92,6.25l3.32-5.47h8.48v48.4c0,14.86-10.14,24.73-26.14,24.73-9.37.02-17.37-4.19-22.14-10.54"/>
    <path class="cls-1" d="M445.95,239.35c-2.64-2.06-6.05-3.23-9.47-3.23-3.03,0-4.68,1.37-4.68,3.32,0,1.37.98,2.64,3.21,3.13l4.19,1.17c10.93,3.23,15.13,8.31,15.13,15.55,0,8.12-6.83,15.55-19.8,15.55-7.61,0-14.72-2.35-19.8-6.75l7.13-9.87c3.03,2.93,7.8,4.79,11.41,4.79,3.9,0,5.27-1.95,5.27-3.91,0-1.67-1.26-3.13-3.9-3.71l-5.75-1.95c-5.66-1.76-12.68-5.47-12.68-13.78s6.92-15.06,19.02-15.06c6.24,0,12.38,1.76,17.36,5.29l-6.64,9.48Z"/>
  </g>
  <g>
    <path class="cls-1" d="M725.81,285.99c-3.23,8.02-8.98,12.23-17.36,12.23-1.47,0-3.32-.2-4.68-.39l.58-7.33h3.99c4.49,0,7.31-1.86,8.98-5.86l4.49-10.85-19.13-47.64h9.37l14.24,36.86,14.33-36.86h9.37l-24.19,59.85ZM674.51,266.53c8.87,0,14.83-7.44,14.83-16.83,0-8.79-6.14-16.23-14.92-16.23-9.26,0-14.92,7.44-14.92,16.53s5.64,16.53,15.02,16.53M653.15,286.97l7.13-4.1c2.64,4.3,8.09,7.24,13.66,7.24,9.47,0,15.41-5.38,15.41-14.56v-8.79c-3.62,5.18-9.37,8.11-15.41,8.11-13.85,0-23.31-11.15-23.31-24.84s8.87-24.84,23.8-24.84c7.13,0,13.27,3.82,16.48,7.83l3.32-7.14h3.9v49.57c0,14.38-9.75,22.99-24.19,22.99-9.09,0-16.79-4.6-20.79-11.45M625.94,273.86h-8.78v-48h3.9l3.32,7.05c2.73-4.6,8.19-7.72,14.24-7.72,4.58,0,9.17,1.67,12.97,4.6l-4.58,6.75c-2.93-2.06-5.57-3.03-8.78-3.03-5.96,0-11.21,4.6-12.29,10.67v29.67ZM573.15,245.81h27.51c-.39-7.14-6.05-12.8-13.55-12.8-7.81-.02-13.27,5.57-13.96,12.8M601.44,260.67l7.41,3.8c-4.88,7.05-12.29,10.37-20.49,10.37-14.92,0-24.58-10.46-24.58-24.84s8.69-24.84,23.22-24.84,22.72,11.15,22.72,23.76c0,1.86-.09,3.42-.19,4.1h-36.68c.69,8.22,6.35,13.99,15.52,13.99,4.77.02,9.56-1.56,13.07-6.35M523.02,273.86h-8.78v-48h3.9l3.62,6.75c3.32-4.49,9.17-7.44,15.02-7.44,11.41,0,20.49,7.83,20.49,21.02v27.66h-8.78v-26.88c0-7.72-3.9-13.49-12.19-13.49-5.55,0-10.73,3.52-13.27,8.7v31.67h0ZM470.23,245.81h27.51c-.39-7.14-6.05-12.8-13.55-12.8-7.81-.02-13.27,5.57-13.96,12.8M498.52,260.67l7.41,3.8c-4.88,7.05-12.29,10.37-20.47,10.37-14.92,0-24.58-10.46-24.58-24.84s8.69-24.84,23.22-24.84,22.72,11.15,22.72,23.76c0,1.86-.09,3.42-.19,4.1h-36.69c.69,8.22,6.35,13.99,15.52,13.99,4.77.02,9.56-1.56,13.07-6.35"/>
    <path class="cls-1" d="M725.81,285.99c-3.23,8.02-8.98,12.23-17.36,12.23-1.47,0-3.32-.2-4.68-.39l.58-7.33h3.99c4.49,0,7.31-1.86,8.98-5.86l4.49-10.85-19.13-47.64h9.37l14.24,36.86,14.33-36.86h9.37l-24.19,59.85ZM674.51,266.53c8.87,0,14.83-7.44,14.83-16.83,0-8.79-6.14-16.23-14.92-16.23-9.26,0-14.92,7.44-14.92,16.53s5.64,16.53,15.02,16.53M653.15,286.97l7.13-4.1c2.64,4.3,8.09,7.24,13.66,7.24,9.47,0,15.41-5.38,15.41-14.56v-8.79c-3.62,5.18-9.37,8.11-15.41,8.11-13.85,0-23.31-11.15-23.31-24.84s8.87-24.84,23.8-24.84c7.13,0,13.27,3.82,16.48,7.83l3.32-7.14h3.9v49.57c0,14.38-9.75,22.99-24.19,22.99-9.09,0-16.79-4.6-20.79-11.45M625.94,273.86h-8.78v-48h3.9l3.32,7.05c2.73-4.6,8.19-7.72,14.24-7.72,4.58,0,9.17,1.67,12.97,4.6l-4.58,6.75c-2.93-2.06-5.57-3.03-8.78-3.03-5.96,0-11.21,4.6-12.29,10.67v29.67ZM573.15,245.81h27.51c-.39-7.14-6.05-12.8-13.55-12.8-7.81-.02-13.27,5.57-13.96,12.8M601.44,260.67l7.41,3.8c-4.88,7.05-12.29,10.37-20.49,10.37-14.92,0-24.58-10.46-24.58-24.84s8.69-24.84,23.22-24.84,22.72,11.15,22.72,23.76c0,1.86-.09,3.42-.19,4.1h-36.68c.69,8.22,6.35,13.99,15.52,13.99,4.77.02,9.56-1.56,13.07-6.35M523.02,273.86h-8.78v-48h3.9l3.62,6.75c3.32-4.49,9.17-7.44,15.02-7.44,11.41,0,20.49,7.83,20.49,21.02v27.66h-8.78v-26.88c0-7.72-3.9-13.49-12.19-13.49-5.55,0-10.73,3.52-13.27,8.7v31.67h0ZM470.23,245.81h27.51c-.39-7.14-6.05-12.8-13.55-12.8-7.81-.02-13.27,5.57-13.96,12.8M498.52,260.67l7.41,3.8c-4.88,7.05-12.29,10.37-20.47,10.37-14.92,0-24.58-10.46-24.58-24.84s8.69-24.84,23.22-24.84,22.72,11.15,22.72,23.76c0,1.86-.09,3.42-.19,4.1h-36.69c.69,8.22,6.35,13.99,15.52,13.99,4.77.02,9.56-1.56,13.07-6.35"/>
  </g>
</svg>