<?xml version="1.0" encoding="UTF-8"?>
<svg id="Layer_1" data-name="Layer 1" xmlns="http://www.w3.org/2000/svg" viewBox="0 0 900 500">
  <defs>
    <style>
      .cls-1 {
        fill: #0c5ff2;
      }
    </style>
  </defs>
  <g id="oLGm7p.tif">
    <g>
      <path class="cls-1" d="M564.81,264.12c2.22,2.68,4.27,5.17,6.33,7.66,1.86,2.24,3.71,4.48,5.57,6.73.15.18.29.36.44.54.25.29.47.62.26,1-.19.34-.58.21-.88.21-3.19,0-6.38-.02-9.57.03-.76.01-1.17-.33-1.59-.87-3.42-4.42-6.88-8.81-10.28-13.25-.65-.85-1.32-1.27-2.42-1.19-1.38.1-2.77.01-4.16.03-1.04.01-1.07.03-1.07,1.11-.01,4.16,0,8.32,0,12.47,0,1.82.19,1.68-1.75,1.68-2.5,0-4.99.01-7.49,0-1.06,0-1.06-.03-1.1-1.09,0-.23,0-.46,0-.69,0-14.28,0-28.55,0-42.83,0-1.89-.16-1.84,1.78-1.84,6.43,0,12.85,0,19.28,0,2.99,0,5.91.4,8.62,1.73,5.57,2.74,8.45,7.25,8.73,13.42.07,1.62-.02,3.23-.38,4.82-.85,3.8-3.08,6.54-6.4,8.47-1.19.69-2.46,1.22-3.92,1.86ZM547.45,249.36c0,1.94-.01,3.87,0,5.81,0,1.05.03,1.06,1.1,1.08,1.43.02,2.86.01,4.29,0,2.17,0,4.34.05,6.5-.06,2.39-.13,4.2-1.32,5.29-3.47,2.05-4.01-.46-9.93-5.9-10.02-3.41-.06-6.83-.02-10.24,0-1.02,0-1.04.04-1.05,1.13-.02,1.84,0,3.69,0,5.53Z"/>
      <path class="cls-1" d="M454.77,243.95c2.06,1.58,4.14,3.19,6.23,4.78.48.36.32.67.01,1.03-.99,1.16-1.97,2.33-2.94,3.5-.69.83-.7.84-.07,1.72,3.04,4.26,3.48,8.84,1.63,13.68-.9,2.36-2.5,4.18-4.59,5.59-.34.23-.76.35-1.06.86.53.31,1.06.62,1.59.94,2.86,1.69,4.83,4.08,5.26,7.42.7,5.42-.99,9.94-5.56,13.18-2.42,1.71-5.16,2.67-8.07,3.12-4.18.65-8.31.45-12.31-.96-6.03-2.13-8.68-6.91-8.82-12.77-.02-.94.03-.98,1.04-.99,2.22-.02,4.44-.01,6.66,0,1.1,0,1.12.02,1.31,1.11.32,1.88,1.2,3.38,2.86,4.37.84.51,1.76.81,2.73.96,2.51.39,4.99.34,7.32-.8,2.29-1.13,3.48-2.95,3.3-5.57-.12-1.81-.96-3.16-2.53-4.03-1.58-.87-3.32-1.11-5.09-1.12-1.76-.01-3.51-.12-5.23-.5-7.79-1.7-12.36-7-12.79-14.94-.27-5.14,1.11-9.7,5.01-13.27,2.53-2.32,5.56-3.62,8.9-4.21,2.33-.41,4.69-.43,7.04-.1,1.3.18,2.56.47,3.68,1.13.64.38.97.22,1.36-.32.68-.94,1.39-1.84,2.11-2.75.28-.35.48-.8,1.01-1.04ZM443.22,255.19c-4.43.02-7.51,2.41-8.28,6.43-.74,3.86.95,7.37,4.32,8.83,2.57,1.12,5.2,1.17,7.8.1,1.93-.79,3.33-2.16,4.01-4.14,2.03-5.94-2.23-11.41-7.86-11.22Z"/>
      <path class="cls-1" d="M477.34,250.87c.47.12.59-.11.74-.27,2.58-2.75,5.84-3.78,9.5-3.75,1.34.01,2.68.12,3.98.46,3.84,1.01,6.34,3.45,7.66,7.15.85,2.37,1.16,4.84,1.17,7.35.01,5.73,0,11.45,0,17.18,0,1.26-.02,1.27-1.31,1.28-2.31,0-4.62,0-6.93,0-1.21,0-1.22-.02-1.22-1.23,0-5.27,0-10.53,0-15.8,0-.83-.02-1.66-.18-2.48-.76-3.94-3.84-5.98-7.76-5.1-3.35.75-5.49,3.42-5.66,7.13-.06,1.34-.02,2.68-.02,4.02,0,4.06,0,8.13,0,12.19,0,1.25-.02,1.26-1.18,1.27-2.45.01-4.9.01-7.35,0-.98,0-.98-.03-1.02-1.02-.01-.28,0-.55,0-.83,0-14.23,0-28.45,0-42.68,0-.18,0-.37,0-.55.02-1.33.02-1.35,1.29-1.35,2.36-.01,4.71-.01,7.07,0,1.22,0,1.24.03,1.24,1.24,0,4.8,0,9.61,0,14.41,0,.49,0,.97,0,1.41Z"/>
      <path class="cls-1" d="M645.17,250.81c.21-.79.28-1.62.31-2.44.02-.54.18-.86.8-.85,2.5.02,4.99.01,7.49,0,.45,0,.69.18.7.65,0,.32.02.65.02.97,0,9.84,0,19.68,0,29.52,0,.14,0,.28,0,.42-.03,1.16-.03,1.18-1.14,1.19-2.13.01-4.25.01-6.38,0-1.09,0-1.08-.03-1.23-1.16-.1-.82-.23-1.63-.34-2.43-.16,0-.29-.02-.33.03-2.84,3.57-6.68,4.81-11.06,4.56-5.04-.29-9.32-2.18-12.42-6.32-1.88-2.51-2.82-5.39-3.16-8.46-.45-4.13.04-8.13,2.13-11.79,2.53-4.43,6.47-6.85,11.44-7.67,2.4-.4,4.79-.33,7.15.27,2.1.54,3.97,1.49,5.42,3.16.15.17.26.38.59.38ZM636.49,272.54c4.86,0,8.7-3.66,8.73-8.33.03-5.29-3.6-9.03-8.75-9.02-5.1,0-8.6,3.5-8.63,8.62-.04,5.19,3.47,8.72,8.65,8.73Z"/>
      <path class="cls-1" d="M706.07,250.9c.41.09.53-.13.68-.29,2.57-2.75,5.83-3.79,9.49-3.76,1.66.01,3.31.2,4.91.74,2.77.95,4.78,2.73,6.08,5.33,1.07,2.14,1.66,4.43,1.69,6.8.07,6.51.05,13.02.05,19.53,0,.97-.03,1-1.01,1-2.36.02-4.71.01-7.07,0-1.29,0-1.3-.01-1.3-1.29,0-5.26,0-10.53,0-15.79,0-.83-.01-1.66-.19-2.48-.83-3.99-3.97-5.98-7.94-4.99-3.23.8-5.21,3.32-5.49,6.98-.05.69-.05,1.38-.05,2.08,0,4.62,0,9.24,0,13.85,0,.32-.02.65,0,.97.01.47-.22.66-.67.66-2.68,0-5.36,0-8.04,0-.52,0-.77-.21-.75-.74,0-.32,0-.65,0-.97,0-14.32,0-28.63,0-42.95,0-.14,0-.28,0-.42.02-1.36.02-1.37,1.39-1.38,2.31-.01,4.62-.01,6.93,0,1.2,0,1.22.03,1.23,1.25,0,4.8,0,9.61,0,14.41,0,.49.04.97.06,1.42Z"/>
      <path class="cls-1" d="M589.72,267.32c.01,1.19.59,2.12,1.3,2.97.98,1.16,2.25,1.93,3.71,2.32,3.66.96,7.23.7,10.67-.93.58-.27,1.07-1,1.65-.88.63.14.99.91,1.45,1.42,1.27,1.4,2.53,2.81,3.8,4.22-.48.77-1.17,1.16-1.81,1.6-2.29,1.57-4.87,2.45-7.58,2.91-3.78.64-7.56.61-11.27-.48-5.56-1.64-9.29-5.18-10.92-10.79-1.03-3.53-1.09-7.1-.23-10.68,1.45-6.05,6.21-11.03,14.01-11.98,3.05-.37,6.1-.23,9.07.67,5.86,1.77,9.22,5.72,10.21,11.72.36,2.2.38,4.41.08,6.63-.16,1.15-.15,1.16-1.36,1.16-7.03,0-14.06,0-21.09,0-.55,0-1.11-.07-1.71.12ZM589.69,259.99c.28.32.52.28.74.29,1.34,0,2.67,0,4.01,0,3.23,0,6.45,0,9.68,0,1.09,0,1.2-.16.86-1.21-.45-1.39-1.41-2.37-2.7-3-2.6-1.26-5.31-1.49-8.06-.6-2.28.74-3.79,2.29-4.53,4.52Z"/>
      <path class="cls-1" d="M375.04,257.07c0-7.11,0-14.23,0-21.34,0-.32.03-.65,0-.97-.07-.75.32-.96,1-.96,2.77.01,5.55,0,8.32.01.95,0,1,.09,1.03,1.05.02.51,0,1.02,0,1.52,0,10.72,0,21.43,0,32.15,0,.32,0,.65,0,.97.02,1.3.02,1.31,1.29,1.32,2.73,0,5.45,0,8.18,0,2.87,0,5.73,0,8.6,0,1.14,0,1.15.02,1.16,1.15.01,2.4.01,4.8,0,7.21,0,1.05-.03,1.07-1.09,1.08-2.13.02-4.25,0-6.38,0-6.75,0-13.5,0-20.24,0-.37,0-.74-.02-1.11,0-.52.02-.77-.21-.75-.74.01-.37,0-.74,0-1.11,0-7.11,0-14.23,0-21.34Z"/>
      <path class="cls-1" d="M528.79,272.02c.67,2.42,1.31,4.77,1.98,7.12.18.62-.13.84-.62,1.01-2.11.75-4.3,1.06-6.53,1.15-1.39.05-2.77-.05-4.13-.37-3.71-.88-6.05-3.22-7.15-6.82-.56-1.82-.76-3.71-.76-5.61,0-3.65,0-7.3,0-10.95,0-.32,0-.65,0-.97-.03-1.11-.03-1.12-1.2-1.13-1.16-.02-2.31,0-3.47,0-1.17-.02-1.19-.03-1.2-1.14-.01-1.94.02-3.88-.01-5.82-.01-.72.25-.98.96-.96,1.34.04,2.68-.02,4.02.02.67.02.9-.26.9-.9-.02-1.94-.01-3.88,0-5.82,0-1.19.02-1.21,1.19-1.34,2.43-.28,4.87-.56,7.3-.8.99-.1,1.03-.04,1.04.94.02,2.17,0,4.34,0,6.52,0,1.38.01,1.39,1.35,1.4,1.9,0,3.79,0,5.69,0,1.25,0,1.26.02,1.27,1.19.01,1.89.02,3.79,0,5.68,0,.99-.03,1.03-1.01,1.04-2.03.02-4.07,0-6.1.01-1.21,0-1.23.02-1.23,1.23,0,3.93,0,7.86,0,11.78,0,.28.02.55.05.83.26,2.28,1.76,3.54,4.07,3.41,1.19-.07,2.35-.39,3.59-.67Z"/>
      <path class="cls-1" d="M678.74,281.32c-2.96.06-5.67-.42-8.27-1.5-4.44-1.85-7.46-5.04-8.88-9.65-1.12-3.66-1.22-7.38-.23-11.07,1.35-5.04,4.49-8.65,9.28-10.7,4.73-2.02,9.59-2.18,14.48-.62,1.84.59,3.35,1.72,4.76,3.02.49.46.46.77.02,1.25-1.37,1.5-2.69,3.05-4.04,4.57-.67.75-.68.75-1.58.23-2.4-1.37-4.97-1.68-7.63-1.06-3.28.76-5.4,2.8-6.09,6.1-1.1,5.3,1.58,9.13,5.92,10.19,2.77.67,5.41.16,7.86-1.32.24-.14.47-.3.68-.48.31-.27.56-.21.83.07,1.7,1.76,3.39,3.53,5.11,5.28.47.47.27.76-.12,1.13-1.84,1.75-3.95,3.03-6.38,3.78-1.92.59-3.87.86-5.73.79Z"/>
      <path class="cls-1" d="M419.29,264.02c0,4.85,0,9.7,0,14.55,0,.32-.02.65,0,.97.03.55-.26.72-.76.72-2.68,0-5.36,0-8.04,0-.55,0-.73-.28-.72-.77,0-.32,0-.65,0-.97,0-9.75,0-19.49,0-29.24,0-.28.02-.56,0-.83-.06-.74.29-.95.99-.94,2.5.03,4.99,0,7.49.02,1.03,0,1.05.03,1.06,1.11,0,5.13,0,10.25,0,15.38Z"/>
      <path class="cls-1" d="M419.93,238.77c0,3.19-2.18,5.36-5.4,5.36-3.21,0-5.41-2.18-5.41-5.36,0-3.19,2.19-5.36,5.41-5.36,3.23,0,5.4,2.15,5.4,5.36Z"/>
    </g>
  </g>
  <polygon class="cls-1" points="328.46 316.57 317.74 323.86 313.96 321.42 301.47 313.37 291.57 306.99 277.76 298.09 265 289.87 233.27 269.42 220.53 261.21 215.28 257.82 206.77 263.3 196.9 269.65 184.43 277.68 171.36 286.09 171.02 270.29 182.11 263.21 195.89 254.42 207.46 247.05 215.28 242.06 221.86 246.39 231.41 252.68 245.46 261.93 266.45 275.75 280.51 285 290.05 291.29 302.12 299.23 311.24 305.23 323.05 313.01 328.46 316.57"/>
  <g>
    <path class="cls-1" d="M338.39,225.87c-4.1-9.71-9.97-18.41-17.43-25.87-7.46-7.46-16.17-13.33-25.87-17.43-10.08-4.26-20.75-6.42-31.72-6.42s-21.64,2.16-31.72,6.42c-9.71,4.1-18.41,9.97-25.87,17.43-7.46,7.46-13.33,16.17-17.43,25.87-4.26,10.08-6.42,20.75-6.42,31.72,0,1.88.06,3.76.19,5.62.33,4.91,1.11,9.74,2.31,14.47l12.47-8.03c-.72-3.96-1.08-7.99-1.08-12.07,0-1.06.02-2.11.07-3.16.37-7.99,2.13-15.76,5.25-23.14,3.4-8.05,8.27-15.27,14.46-21.46,6.19-6.19,13.41-11.05,21.46-14.46,8.35-3.53,17.21-5.32,26.31-5.32s17.95,1.79,26.3,5.32c8.05,3.4,15.27,8.27,21.46,14.46,6.19,6.19,11.05,13.41,14.46,21.46,3.53,8.35,5.33,17.2,5.33,26.3s-1.79,17.95-5.33,26.3c-3.38,8-8.21,15.18-14.35,21.34-.04.04-.07.08-.11.11-2.99,2.99-6.22,5.67-9.66,8.02l12.49,8.05c2.44-1.93,4.77-4.02,7-6.24.71-.71,1.41-1.43,2.09-2.17,6.47-6.96,11.63-14.92,15.34-23.7,4.26-10.08,6.42-20.75,6.42-31.72s-2.16-21.64-6.42-31.72Z"/>
    <path class="cls-1" d="M315.76,235.43c-2.87-6.77-6.96-12.85-12.18-18.06-5.21-5.21-11.29-9.31-18.07-12.18-7.03-2.98-14.49-4.49-22.16-4.49s-15.12,1.51-22.16,4.49c-6.77,2.87-12.85,6.96-18.06,12.18-5.21,5.21-9.31,11.29-12.18,18.06-1.59,3.76-2.76,7.65-3.51,11.62-.65,3.45-.98,6.97-.98,10.54,0,1.92.09,3.82.28,5.71l8.51-5.48,5.25,3.39c-.1-1.2-.15-2.41-.15-3.62,0-3.82.5-7.57,1.48-11.2.51-1.88,1.15-3.73,1.91-5.55,2.17-5.12,5.26-9.71,9.2-13.65,3.94-3.94,8.54-7.04,13.65-9.2,5.31-2.25,10.94-3.39,16.74-3.39s11.43,1.14,16.74,3.39c5.12,2.17,9.71,5.26,13.65,9.2,3.94,3.94,7.04,8.54,9.2,13.65,2.25,5.31,3.39,10.95,3.39,16.74s-1.14,11.43-3.39,16.74c-2.17,5.12-5.26,9.71-9.2,13.65-1.18,1.18-2.41,2.28-3.71,3.31-3.03,2.4-6.36,4.38-9.95,5.9-.77.33-1.56.63-2.34.91l13.81,8.9c3.8-2.17,7.33-4.76,10.55-7.76.5-.46.99-.94,1.47-1.42,5.21-5.21,9.31-11.29,12.18-18.06,2.98-7.04,4.49-14.49,4.49-22.16s-1.51-15.12-4.49-22.16Z"/>
    <path class="cls-1" d="M286.22,234.73c-6.1-6.1-14.22-9.47-22.85-9.47s-16.75,3.36-22.86,9.47c-4.93,4.93-8.07,11.18-9.1,17.95-.24,1.61-.37,3.25-.37,4.91,0,4.12.76,8.11,2.22,11.83l31.73,20.45c5.56-.27,10.87-1.95,15.51-4.87,2.05-1.28,3.96-2.81,5.71-4.56,6.11-6.1,9.47-14.22,9.47-22.85s-3.36-16.75-9.47-22.86ZM266.45,275.75c-1,.17-2.04.26-3.09.26-8.66,0-15.95-6.01-17.91-14.08-.34-1.39-.52-2.85-.52-4.34,0-10.16,8.26-18.42,18.42-18.42s18.42,8.26,18.42,18.42c0,9.11-6.64,16.69-15.33,18.16Z"/>
  </g>
</svg>