<?xml version="1.0" encoding="UTF-8"?>
<svg id="Layer_1" data-name="Layer 1" xmlns="http://www.w3.org/2000/svg" viewBox="0 0 900 500">
  <defs>
    <style>
      .cls-1 {
        fill: #0c5ff2;
      }
    </style>
  </defs>
  <g id="h6ntG1.tif">
    <g>
      <path class="cls-1" d="M208.23,192.98c8.55,0,17.11.05,25.66-.06,1.94-.02,2.82.66,3.44,2.44,4.78,13.72,9.64,27.4,14.48,41.1,1.25,3.53,2.52,7.06,3.99,11.19.95-2.57,1.72-4.6,2.45-6.64,5.45-15.3,10.92-30.6,16.31-45.93.56-1.59,1.37-2.16,3.04-2.14,7.59.07,15.19.03,22.79.03,2.89,0,2.89,0,2.89,2.85,0,23.13,0,46.25,0,69.38,0,.76,0,1.52,0,2.34.7,0,.72-.52.87-.87,10.08-23.34,20.13-46.69,30.24-70.01,1.92-4.43,1-3.62,5.5-3.68,3.13-.04,6.26.05,9.38-.03,1.55-.04,2.4.45,3.04,1.94,6.56,15.21,13.2,30.38,19.82,45.57,3.97,9.11,7.92,18.23,11.9,27.34.21.48.27,1.12.93,1.37.35-.75.17-1.52.18-2.25.01-23.7,0-47.4.01-71.1,0-2.83,0-2.83,2.89-2.83,4.4,0,8.81,0,13.21,0,2.64,0,2.69.05,2.69,2.66,0,20.2,0,40.39,0,60.59,0,.64.03,1.28,0,1.91-.05,1.21.48,1.72,1.71,1.72,9.32-.02,18.64-.03,27.96,0,1.27,0,1.79-.72,2.22-1.72,3.64-8.49,7.31-16.97,10.96-25.45,5.29-12.29,10.63-24.56,15.84-36.88.89-2.12,1.99-3.05,4.38-2.89,3.5.23,7.02.11,10.53.04,1.43-.03,2.2.54,2.76,1.82,8.51,19.64,17.05,39.27,25.59,58.9,1.98,4.54,3.97,9.08,6.41,13.58v-2.14c0-23.06,0-46.13,0-69.19q0-2.94,2.97-2.95c7.6,0,15.19.04,22.79-.03,1.71-.02,2.62.44,3.22,2.16,4.99,14.32,10.09,28.6,15.15,42.89,1.08,3.04,2.17,6.08,3.68,9.12.77-2.11,1.56-4.22,2.31-6.34,5.33-15.01,10.69-30.01,15.93-45.05.73-2.1,1.73-2.84,3.98-2.8,7.47.14,14.93.05,22.4.06,2.61,0,2.66.05,2.66,2.69,0,23.19,0,46.38,0,69.57v2.53c.82-.51.97-1.2,1.22-1.78,10.13-23.45,20.27-46.9,30.33-70.38.86-2.01,1.97-2.79,4.17-2.67,3.56.18,7.15.08,10.72.04,1.24-.02,1.99.41,2.5,1.59,7.65,17.65,15.34,35.29,23.02,52.93,3.97,9.11,7.93,18.23,11.89,27.34.92,2.11.82,2.3-1.42,2.31-5.62.02-11.23-.03-16.85.03-1.44.02-2.17-.52-2.69-1.85-1.84-4.68-3.85-9.3-5.69-13.99-.52-1.33-1.26-1.85-2.69-1.84-9.51.05-19.02.05-28.53,0-1.54,0-2.27.61-2.79,2-1.72,4.59-3.58,9.13-5.31,13.73-.52,1.39-1.29,1.97-2.83,1.96-10.34-.06-20.68-.02-31.02-.03-2.49,0-2.55-.07-2.55-2.6,0-19.43,0-38.86,0-58.29,0-.75,0-1.49,0-2.24-.14-.03-.27-.06-.41-.09-.84,2.35-1.71,4.7-2.52,7.06-6.19,18.01-12.39,36.03-18.53,54.06-.55,1.61-1.37,2.19-3.04,2.13-3.25-.11-6.51-.11-9.76,0-1.69.06-2.48-.54-3-2.15-5.27-16.11-10.61-32.19-15.94-48.28-1.26-3.81-2.53-7.62-3.81-11.42-.11-.33-.08-.78-.73-.97,0,.8,0,1.54,0,2.28,0,19.24,0,38.48,0,57.72,0,2.76,0,2.76-2.77,2.77-10.4.01-20.81-.02-31.21.06-1.65.01-2.52-.5-3.12-2.08-1.75-4.58-3.7-9.09-5.49-13.66-.54-1.39-1.31-1.96-2.83-1.96-9.45.05-18.89.06-28.34,0-1.63-.01-2.39.64-2.93,2.08-1.68,4.47-3.54,8.88-5.2,13.36-.59,1.6-1.41,2.26-3.2,2.26-25.66-.06-51.32-.05-76.98,0-1.58,0-2.42-.51-3-1.99-1.8-4.63-3.76-9.2-5.58-13.82-.55-1.4-1.38-1.88-2.89-1.87-9.45.06-18.89.06-28.34,0-1.54,0-2.25.55-2.78,1.97-1.71,4.6-3.63,9.12-5.34,13.71-.56,1.5-1.38,2.02-2.97,2.01-10.28-.06-20.55-.03-30.83-.03-2.49,0-2.56-.07-2.56-2.59,0-19.43,0-38.86,0-58.29,0-.75,0-1.49,0-2.24-.13-.03-.27-.05-.4-.08-1.17,3.32-2.36,6.63-3.5,9.96-5.8,16.94-11.62,33.87-17.35,50.83-.61,1.8-1.42,2.56-3.38,2.47-3.18-.16-6.39-.14-9.57,0-1.82.08-2.55-.64-3.1-2.3-6.42-19.55-12.91-39.08-19.39-58.61-.21-.64-.47-1.27-.76-2.07-.49.83-.29,1.53-.29,2.19-.01,19.3,0,38.61-.01,57.91,0,2.83,0,2.84-2.89,2.84-5.3,0-10.6-.02-15.9-.04v-84.1ZM471.14,217.93c-3.27,8.32-6.3,16.08-9.35,23.83-.46,1.18-.06,1.65,1.17,1.65,5.54-.01,11.09-.02,16.63.01,1.31,0,1.55-.46,1.08-1.62-.9-2.17-1.72-4.38-2.59-6.57-2.24-5.6-4.49-11.2-6.93-17.3ZM343.21,217.9c-3.28,8.42-6.37,16.29-9.39,24.17-.59,1.54.73,1.31,1.54,1.31,4.52.03,9.05.02,13.57.02q4.49,0,2.81-4.22c-2.76-6.9-5.53-13.8-8.52-21.28ZM647.58,218.34c-.27.16-.36.17-.38.22-3.07,7.76-6.13,15.52-9.21,23.28-.52,1.31.11,1.57,1.23,1.57,5.55,0,11.11-.01,16.66,0,1.11,0,1.53-.32,1.07-1.48-3.12-7.81-6.21-15.62-9.37-23.59Z"/>
      <path class="cls-1" d="M363.34,178.08c.01,1.91-.03,3.81.05,5.72.06,1.49-.55,2.02-2.02,2.01-5.73-.05-11.46-.02-17.19-.02-6.24,0-12.48-.05-18.72.03-1.81.02-2.56-.57-2.42-2.41.13-1.77.07-3.56.09-5.33h40.21Z"/>
      <path class="cls-1" d="M385.66,290.43c8.94,0,15.69,6.81,15.58,15.8-.13,9.82-7.86,15.95-15.95,15.68-8.91-.3-15.44-6.71-15.44-15.77,0-9.2,6.57-15.72,15.82-15.72ZM373.34,306.07c-.04,7.29,5.36,13.02,12.24,12.99,6.78-.02,12.16-5.76,12.14-12.94-.02-7.21-5.4-12.91-12.18-12.9-6.82.01-12.15,5.63-12.19,12.85Z"/>
      <path class="cls-1" d="M587.41,306.03c0-4.2.05-8.41-.02-12.61-.03-1.61.47-2.32,2.18-2.26,2.8.1,5.61.04,8.42.02,1.1,0,2.16.2,3.2.5,3.48.99,5.38,3.43,5.42,6.94.05,4.11-1.57,6.63-5.27,7.6-1.81.47-1.92.99-.98,2.47,2.08,3.28,4.03,6.64,5.96,10.01.38.66,1.62,1.61.57,2.16-.96.51-2.52.68-3.51-.52-.44-.54-.76-1.17-1.12-1.78-1.95-3.36-3.89-6.73-5.83-10.09-.8-1.38-3.68-2.16-4.99-1.37-.75.45-.59,1.22-.59,1.89-.02,3.25-.01,6.49-.01,9.74,0,1.17.1,2.33-1.68,2.34-1.74.02-1.75-1.05-1.75-2.27.01-4.27,0-8.53,0-12.8ZM590.84,298.21c0,1.86-.01,3.13,0,4.41,0,.65.05,1.43.87,1.47,3.11.15,6.28.5,9.16-1.1,1.65-.92,2.35-2.42,2.21-4.33-.14-1.84-1.07-3.08-2.72-3.82-1.42-.64-2.94-.87-4.47-.87-5.97,0-4.96-.68-5.06,4.24Z"/>
      <path class="cls-1" d="M538.18,321.06c-1.26.19-2.02-.36-2.45-1.57-.52-1.43-1.27-2.79-1.72-4.24-.51-1.67-1.45-2.29-3.22-2.23-3.57.12-7.14.09-10.71.01-1.45-.03-2.23.51-2.7,1.85-.57,1.62-1.27,3.19-1.96,4.77-.55,1.28-2.27,1.93-3.48,1.34-1.04-.51-.33-1.23-.1-1.77,1.76-4.16,3.56-8.31,5.36-12.45,2.03-4.67,4.11-9.31,6.11-14,.46-1.08,1.05-1.61,2.27-1.61,1.19,0,1.84.44,2.31,1.54,3.83,8.88,7.68,17.75,11.59,26.6.71,1.59.18,1.94-1.31,1.76ZM525.89,295.86c-.18,0-.37.02-.55.03-1.83,4.38-3.66,8.76-5.49,13.14-.3.72-.3,1.26.69,1.26,3.37,0,6.74,0,10.11-.01.75,0,1.06-.38.76-1.11-1.84-4.44-3.68-8.88-5.52-13.31Z"/>
      <path class="cls-1" d="M313.58,290.43c2.56-.14,4.96.59,6.98,2.33.52.45,1.75.98.6,1.89-.81.64-1.51,2.17-2.97.7-2.21-2.23-4.87-2.6-7.77-1.55-2,.73-3.08,2.21-3.31,4.29-.23,2.08.75,3.52,2.51,4.55,1.9,1.1,4.01,1.62,6.05,2.36,3.63,1.32,6.51,3.33,6.69,7.66.18,4.36-2.87,8.13-7.56,8.98-3.99.72-7.78.15-10.78-2.97-.53-.55-1.5-1.17-.35-1.98.88-.62,1.68-1.96,3.01-.42,2.1,2.45,4.77,3.31,7.92,2.39,2.38-.7,4-2.52,4.21-4.7.2-2.11-1.1-4.17-3.52-5.17-2.06-.85-4.24-1.41-6.29-2.28-5.62-2.37-7.33-8.47-3.61-12.95,2.07-2.48,4.93-3.26,8.19-3.14Z"/>
      <path class="cls-1" d="M450.29,306.04c0-4.01-.03-8.02.01-12.03.01-1.23-.5-2.85,1.75-2.82,2.12.03,1.64,1.56,1.65,2.73.03,7.26.01,14.52.02,21.77,0,2.63.02,2.64,2.69,2.64,3.06,0,6.12,0,9.18,0,1.01,0,1.97.02,1.93,1.45-.04,1.33-.98,1.29-1.89,1.3-4.46,0-8.93-.04-13.39.03-1.55.02-1.98-.67-1.96-2.08.04-4.33.02-8.66.01-12.99Z"/>
    </g>
  </g>
</svg>