<?xml version="1.0" encoding="UTF-8"?>
<svg id="Layer_1" data-name="Layer 1" xmlns="http://www.w3.org/2000/svg" viewBox="0 0 900 500">
  <defs>
    <style>
      .cls-1 {
        fill: #0c5ff2;
      }
    </style>
  </defs>
  <path class="cls-1" d="M235.95,227.37c.66.02,1.11.14,1.48-.29,2.04-2.42,4.76-4.05,7.17-6.03.35-.29.68-.62,1-.94,2.04-2.09,4.33-3.88,6.66-5.64.64-.48,1.17-1.1,1.74-1.68.38-.39.76-.71,1.39-.43v93.01c-.93.37-1.82-.11-2.6-.38-1.42-.49-2.84-.83-4.33-.91-.28-.02-.55-.12-.82-.22-3.74-1.38-7.64-2.34-11.16-4.3-3.24-1.81-6.42-3.67-9.31-6.05-2.25-1.85-4.73-3.45-6.63-5.67-2.95-3.46-5.92-6.9-8.09-10.96-1.26-2.36-2.51-4.77-3.41-7.22-.88-2.39-1.92-4.85-2.01-7.52-.04-1.28-.49-2.55-.75-3.83-.31-1.56-.61-3.11-.6-4.71.02-2.76-.02-5.51,0-8.27.05-4.92,1.06-9.64,2.53-14.34.87-2.78,1.94-5.45,3.14-8.05.92-2,2.21-3.85,3.52-5.64,2.03-2.76,4.25-5.36,6.68-7.8,2.04-2.04,4.46-3.55,6.69-5.32,3.57-2.83,7.65-4.74,11.81-6.43,1.86-.75,3.8-1.49,5.84-1.82,1.93-.32,3.81-.92,5.76-1.42-2.74,2.51-5.84,4.58-8.79,6.82-3.03,2.3-6.19,4.46-9.21,6.78-2.98,2.29-6.13,4.35-9.02,6.83-.24.91.04,1.64.87,2.17.19.12.38.27.53.43,2.7,2.91,5.8,5.4,8.6,8.2.49.48,1.02.93,1.27,1.64Z"/>
  <path class="cls-1" d="M274.35,195.36c1.81.24,3.41.5,4.93,1.09,1.7.66,3.4,1.32,5.07,2.06,1.7.75,3.46,1.38,4.97,2.56,1.38,1.08,2.94,1.95,4.42,2.9,4.15,2.65,7.56,6.14,10.84,9.72,2.69,2.93,4.99,6.21,6.99,9.66,1.17,2.01,2.02,4.17,2.95,6.29,1.07,2.46,1.56,5.09,2.52,7.57.26.68.41,1.41.39,2.17-.05,1.54.51,3.04.56,4.55.09,2.77.85,5.51.22,8.33-.36,1.6-.05,3.28-.4,4.93-.39,1.82-.24,3.79-.82,5.54-.7,2.13-1.17,4.35-2.1,6.42-.55,1.22-.9,2.52-1.52,3.75-1.46,2.95-3,5.81-4.91,8.52-2.42,3.43-5.2,6.51-8.19,9.42-2.66,2.59-5.57,4.84-8.73,6.82-2.02,1.27-4.25,2.13-6.29,3.36-1.08.65-2.46.83-3.71,1.21-1.85.55-3.58,1.45-5.53,1.75-.57.09-1.11.09-1.68.09v-108.71Z"/>
  <path class="cls-1" d="M641.91,258.94v33.99h-9.85c.09.07.05.04,0,0-.04-.04-.1-.09-.1-.13-.26-29.45-.03-58.9-.12-88.35,0-.28-.04-.57.17-.82.28-.27.64-.19.98-.19,11.03.01,22.05.04,33.08.03,3.66,0,7.26.41,10.78,1.35,6.44,1.71,11.54,5.15,14.16,11.51,1.22,2.97,2.11,6.07,2.23,9.31.18,4.59.38,9.16-.63,13.71-1.86,8.35-6.7,14.03-14.87,16.83-.15.05-.3.14-.68.32,5.65,12.19,11.51,24.25,17.24,36.48h-10.8c-5.45-11.36-10.89-22.7-16.33-34.04h-25.26ZM642,249.69c.42.05.65.11.87.1,6.51-.28,13.03-.21,19.55-.1,3.17.06,6.34.05,9.45-.75,4.95-1.28,8.36-4.33,10.09-9.04,1.88-5.12,2.06-10.45.79-15.75-1.4-5.84-5.14-9.4-11.02-10.82-2.32-.56-4.66-.8-7.03-.76-7.54.12-15.09.1-22.71-.02v37.12Z"/>
  <path class="cls-1" d="M468.79,248.72c.26,6.8-.44,13.52-1.8,20.17-.77,3.77-2.01,7.39-3.68,10.87-3.16,6.6-8.53,10.51-15.45,12.49-6.34,1.81-12.82,2.08-19.37,1.56-3.41-.27-6.74-.84-10-1.84-7.97-2.46-13.34-7.65-16.3-15.36-1.86-4.85-2.76-9.9-3.47-15.02-.88-6.35-.91-12.72-.6-19.07.39-8.03,1.61-15.94,4.74-23.47,3.36-8.09,9.21-13.29,17.75-15.39,8.43-2.08,16.91-2.16,25.34-.11,9.21,2.24,15.29,8.02,18.64,16.78,1.8,4.69,2.73,9.55,3.45,14.5.67,4.62.71,9.26.75,13.9ZM408.07,247.41c-.15,2.13.2,5.39.36,8.66.28,5.75,1.19,11.38,3.16,16.82,1.9,5.26,5.51,8.76,10.86,10.46,7.13,2.27,14.3,2.18,21.47.26,5.51-1.47,9.22-4.97,11.31-10.21.53-1.33,1.02-2.67,1.39-4.05,1.73-6.54,2.14-13.23,2.33-19.94.14-4.88-.36-9.75-1.04-14.58-.56-3.98-1.49-7.86-3.05-11.59-2.31-5.48-6.26-9.14-12.03-10.71-5.95-1.62-11.97-1.67-17.97-.18-5.85,1.44-10.09,4.85-12.52,10.38-.58,1.31-1.05,2.66-1.49,4.02-2.01,6.36-2.38,12.94-2.79,20.67Z"/>
  <path class="cls-1" d="M616.23,292.71c-3.49-.33-6.64-.07-9.83-.23-2.08-7.54-4.55-14.77-6.72-22-2.05,0-3.94,0-5.83,0-10.04-.03-20.08.16-30.12-.12q-1.74-.05-2.26,1.6c-1.87,5.95-3.54,11.96-5.2,17.97-.21.77-.36,1.56-.53,2.32-.58.65-1.34.68-2.09.68-2.59,0-5.18,0-8.05,0,8.14-29.72,16.36-59.33,24.57-89.22.2-.22.72-.22,1.24-.22,6.4-.02,12.81-.04,19.21-.05.4,0,.81-.03,1.44.31,7.99,29.43,16.03,59.05,24.15,88.96ZM577.61,212.25c-4.48,15.95-8.65,31.77-13.2,47.48-.08.27-.06.56-.07.85,0,.05.02.12.05.16.03.04.09.07.13.1,2.3.31,31.86.21,33.11-.18-4.45-16.13-8.9-32.26-13.36-48.4-2.3-.25-4.4.12-6.65-.01Z"/>
  <path class="cls-1" d="M383.79,204.49c-.37,3.09-.41,5.99-1.08,8.89-1.38-.19-2.61-.39-3.86-.52-7.28-.78-14.57-1.57-21.91-1.53-3.24.02-6.46.34-9.55,1.37-3.36,1.13-6.27,2.88-7.99,6.14-.54,1.03-.9,2.11-1.12,3.23-.65,3.39-.47,6.77.62,10.02.96,2.85,3.02,4.81,5.77,6.07,3.84,1.76,7.9,2.81,11.98,3.82,5.47,1.35,11.01,2.47,16.2,4.75.53.23,1.04.48,1.58.69,6.1,2.39,9.66,6.86,10.77,13.23.82,4.67.82,9.39-.06,14.04-.75,3.97-2.3,7.66-4.99,10.81-2.69,3.15-6.1,5.15-9.99,6.5-5.45,1.89-11.09,1.93-16.75,1.79-5.14-.13-10.24-.6-15.32-1.41-2.27-.36-4.58-.54-6.87-.8-.57-.06-1.16-.05-1.81-.61.27-2.74.56-5.62.86-8.62,1.38.22,2.66.47,3.96.61,3.32.36,6.65.68,9.98,1,4.19.41,8.39.69,12.6.78,3.33.07,6.55-.5,9.69-1.53,5.16-1.71,7.94-5.48,8.92-10.65.56-2.94.67-5.93.13-8.9-.63-3.56-2.5-6.2-5.77-7.87-3.36-1.71-6.95-2.73-10.62-3.47-5.36-1.08-10.67-2.36-15.84-4.19-2.72-.96-5.33-2.18-7.68-3.84-4.27-3-6.38-7.33-7.09-12.32-.59-4.1-.64-8.23.14-12.34,1.23-6.47,4.86-11.18,10.69-14.16,4.37-2.23,9.12-3.16,13.99-3.39,7-.33,13.95.17,20.88,1.16,3.07.44,6.16.81,9.53,1.24Z"/>
  <path class="cls-1" d="M496.74,283.4c4.62,0,8.99,0,13.36,0,4.44,0,8.89-.02,13.33,0,4.36.03,8.73-.09,13.09.11v9.42h-49.66v-89.31c3.23-.04,6.49.03,9.88-.19v79.97Z"/>
</svg>