<?xml version="1.0" encoding="UTF-8"?>
<svg id="Layer_1" data-name="Layer 1" xmlns="http://www.w3.org/2000/svg" xmlns:xlink="http://www.w3.org/1999/xlink" viewBox="0 0 900 500">
  <defs>
    <style>
      .cls-1 {
        fill: url(#linear-gradient);
      }

      .cls-2 {
        fill: #0058f5;
      }
    </style>
    <linearGradient id="linear-gradient" x1="463.01" y1="230.8" x2="463.01" y2="153.88" gradientUnits="userSpaceOnUse">
      <stop offset="0" stop-color="#0058f5" stop-opacity="0"/>
      <stop offset=".09" stop-color="#0058f5" stop-opacity=".04"/>
      <stop offset=".23" stop-color="#0058f5" stop-opacity=".14"/>
      <stop offset=".41" stop-color="#0058f5" stop-opacity=".3"/>
      <stop offset=".62" stop-color="#0058f5" stop-opacity=".52"/>
      <stop offset=".85" stop-color="#0058f5" stop-opacity=".8"/>
      <stop offset="1" stop-color="#0058f5"/>
    </linearGradient>
  </defs>
  <g id="nZov3W">
    <g>
      <path class="cls-2" d="M396.94,346.12v-7.7c4.83.19,11.26.18,15.12-3.2,1.68-1.47,12.19-18.47,11.24-19.26-1.61.08-3.25.25-4.16-1.31l-33.14-59.02-43.06,28.87,46.93,32.09h-14.47c-2.52,0-36.12-25.75-41.65-28.38l-6.89-.5v28.88h-9.64v-87.59c2.07-1.55,7.5-1.57,9.64,0v50.37l7.04-.35,36.64-23.74,25.32-.19,30.1,52.74,1.82,1.06,27.01-53.9h10.93c-10.61,20.92-20.69,42.25-31.81,62.9-4.13,7.66-11.36,22.78-19.45,26.15l-7.25,2.07h-10.29Z"/>
      <path class="cls-2" d="M231.07,296.07h9.65c-.76,7.91,2.13,11.84,10.03,12.76,10.51,1.24,28.08,1.57,38.43,0,6.99-1.06,10.79-2.42,9.97-10.44-.7-6.84-5.6-8.8-11.83-9.36-13.31-1.21-37.15,2.76-48.53-2.26-9.46-4.16-9.21-22.09-1.6-27.91,6.92-5.3,21.61-4.35,30.21-4.5,9.03-.15,19.61-.86,28.65.94,8.15,1.62,11.09,9.1,10.29,16.73l-9.03.3c.27-7.28-4.12-9.14-10.59-9.65-10.39-.81-27.2-1.51-37.12.86-4.5,1.07-8.01,2.65-8.17,7.89-.36,12.05,12.86,8.88,20.86,9.22,1.52.07,2.93.65,4.45.69,9.92.29,29.06-2.06,36.95,3.54s7.47,25.19-1.64,29.72c-7.47,3.71-37.53,3.87-46.85,3.28-10.5-.66-21.87-1.95-24.11-14.11v-7.7Z"/>
      <path class="cls-2" d="M668.89,287.73h-69.43c-.19,6.88.5,15.2,7.28,18.73,7.8,4.06,37.56,4.4,45.68,1.08,4.41-1.8,6.3-4.85,6.84-9.54h9.64c.75,14.45-10.98,17.7-22.9,19.17-10.37,1.28-35.64,1.49-44.56-3.49-12.13-6.78-12.67-25.61-10.9-37.74,2.04-13.98,8.29-19.5,22.18-21.5,9.81-1.41,35.52-1.45,44.2,2.57,6.84,3.17,11.97,12.81,11.97,20.13v10.59ZM659.25,279.39c-.17-6.01-1.21-11.68-7.08-14.43-8.63-4.06-37.27-4.18-45.79-.15-5.6,2.65-7.41,8.75-6.92,14.59h59.79Z"/>
      <path class="cls-2" d="M582.1,316.61h-9v-40.11c0-2.93-2.71-8.41-5.19-10.22-7.61-5.58-27.56-4.49-36.63-2.63-7.08,1.45-11.73,4.23-13.33,11.72-.17.77-.79,5.09-.79,5.62v35.61h-9v-61.6h9v11.55c3.39-4.64,5.18-8.5,11.07-10.45,8.88-2.94,32.48-2.95,41.18.32,5.81,2.19,12.68,9.07,12.68,15.58v44.6Z"/>
      <rect class="cls-2" x="474.09" y="228.05" width="9" height="88.55"/>
      <rect class="cls-2" x="490.81" y="255" width="9.64" height="61.6"/>
      <path class="cls-2" d="M500.45,228.05v11.55h-9.64v-10.59c2.42-2,6.6-.54,9.64-.96Z"/>
      <path class="cls-2" d="M466.38,328.48c.28-.9,2.26-1.33,3.11-.84l7.5,10.78,7.5-10.78,2.51.16c.82.58.87,10.06.59,11.59-.2,1.11-.69,1.8-1.92,1.61v-11.55l-8.68,11.54-8.68-11.54v10.59l-.96.95-.96-.95v-11.55Z"/>
      <path class="cls-2" d="M648.16,328.31c.48.47,1.09,2.72.8,3.05-1.87.19-1.43-1.81-3.15-2.29-1.93-.54-8.99-.71-10.36.67-1.01,1.02-1,8.37-.03,9.04,3.89.38,7.67,1.16,11.49.16l.76-3.09c-.56-.54-6.01.99-7.06-.97,0-1.58,7.02-.8,8.35-.97.19,3.44.53,6.35-3.58,7.02-2.17.35-9.99.24-11.54-1.24-1.59-1.52-1.37-9.58.34-11.22,1.49-1.43,12.64-1.49,13.98-.17Z"/>
      <path class="cls-2" d="M458.98,339.07c.76-.23,1.08-1.43,1-2.23-.47-4.47-11.7-.26-13.02-3.82-2.57-6.95,10.84-6.68,13.33-4.24s-.11,3.67-.97,2.1c-.17-.32.31-1.04-.43-1.46-2.24-1.25-11.85-1.34-10.46,2.85,1.05,3.17,16.19-2.92,12.71,7.35-2.23,1.77-12.47,1.82-13.75.11-.47-.63-.32-2.34-.95-3.22l1.61-.02,1.28,2.58h9.64Z"/>
      <path class="cls-2" d="M523.92,327.51c3.08.66,4.11,5.77.97,7.38,2.44.67.9,3.91,1.28,6.09-2.46.48-.61-2.83-1.6-4.5-1.3-2.2-8.85-.96-11.26-1.28l-.64,5.46-1.29-.65v-11.55l.96-.96c3.37.49,8.47-.66,11.57,0ZM513.31,333.93h10.61c.84,0,1.32-2.56.87-3.43-.19-.55-1.8-1.71-2.16-1.71h-9.32v5.13Z"/>
      <path class="cls-2" d="M587.89,339.07v-11.55h1.29v13.48c-1.2.16-1.9,0-2.93-.61-3.31-1.93-7.43-8.82-11.22-10.94v10.59l-1.93.96v-13.48c6.31.42,9.71,8.37,14.79,11.55Z"/>
      <polygon class="cls-2" points="607.82 327.51 607.82 328.8 596.89 328.8 596.89 333.29 607.17 333.29 607.17 334.57 596.89 334.57 596.89 339.07 607.82 339.07 607.82 340.99 594.96 340.99 594.96 327.51 607.82 327.51"/>
      <path class="cls-2" d="M625.5,327.51c1.95.42,3.17,3.29,2.64,5.15-.23.8-1.47,1.69-1.46,2.23,0,.61,2.12,4.15,1.07,6.1-2.46.48-.61-2.83-1.6-4.5-1.3-2.2-8.85-.96-11.26-1.28l-.64,5.46-1.29-.65v-12.51c3.64.53,9.18-.72,12.54,0ZM614.89,333.93h10.61c.84,0,1.32-2.56.87-3.43-.19-.55-1.8-1.71-2.16-1.71h-9.32v5.13Z"/>
      <path class="cls-2" d="M567.96,327.51v1.28h-10.61c-1.45,1.04-.92,2.93-.96,4.49h10.93v1.28h-10.93v4.49h11.57v1.93h-12.86v-13.48h12.86Z"/>
      <path class="cls-2" d="M508.16,340.99c-1.87,1.67-2.8-3.57-4.16-3.25l-9.53.04c-.84.21-1.47,3.04-2.06,3.23-.71.23-2.05.2-1.6-.97.42-1.08,5.92-10.14,6.77-11.21,1.15-1.43,2.27-2.09,3.42-.27.59,1.41,7.68,11.95,7.15,12.43ZM503.66,336.49l-4.18-7.04-4.17,6.09c-.17,1.31.05.83.95.95,2.28.3,5.05-.22,7.4,0Z"/>
      <path class="cls-2" d="M668.25,327.52c-1.03,2.32-5.88,5.18-6.74,7.06-.92,2.01.23,4.43-.66,6.41-2.6-.05-1.11-4.6-1.93-6.41s-5.72-4.75-6.74-7.06c3.72-.46,5.36,3.94,8.12,5.72,1.71.3,5.27-6.52,7.95-5.72Z"/>
      <path class="cls-2" d="M543.85,327.51c.22.06.99.87.96,1.28-2.3.31-5.37-.86-7.07.97v11.23h-1.29v-12.19h-6.43s0-1.28,0-1.28c3.78.63,10.45-.86,13.82,0Z"/>
    </g>
  </g>
  <path class="cls-1" d="M566.39,230.8h-206.76c13.31-44.49,54.56-76.92,103.38-76.92s90.07,32.43,103.38,76.92Z"/>
</svg>