<?xml version="1.0" encoding="UTF-8"?>
<svg id="Layer_1" data-name="Layer 1" xmlns="http://www.w3.org/2000/svg" viewBox="0 0 900 500">
  <defs>
    <style>
      .cls-1 {
        fill: #0c5ff2;
      }
    </style>
  </defs>
  <g id="sIZiac.tif">
    <g>
      <path class="cls-1" d="M712.24,217.53c-1.11,2.02-2.28,4.01-3.32,6.07-7.33,14.49-14.65,28.99-21.91,43.51-.62,1.24-1.36,1.53-2.69,1.75-4.07.67-6.02-1.05-7.77-4.7-7.27-15.15-14.92-30.11-22.42-45.15-.27-.55-.52-1.11-.89-1.92,1.68,0,3.14-.16,4.53.07.6.1,1.23.91,1.56,1.55,7.45,14.78,14.85,29.59,22.27,44.38.3.6.64,1.19,1.1,2.03.44-.79.79-1.34,1.09-1.93,7.32-14.64,14.67-29.26,21.92-43.94.8-1.63,1.64-2.51,3.53-2.2.99.16,2.01.07,3.02.09v.38Z"/>
      <path class="cls-1" d="M266.93,238.4c2.78,0,5.24-.04,7.69.01,2.26.05,3.59,1.08,3.86,2.87.33,2.15-1.07,3.82-3.32,3.86-2.64.04-5.29,0-8.06,0v6.75c2.58,0,5.2-.03,7.83,0,2.07.03,3.38,1.13,3.58,2.9.23,2.12-1.18,3.71-3.48,3.76-2.58.06-5.17.01-7.97.01v7.96c-1.89-.35-3.57-.51-5.14-.99-7.04-2.16-12.34-6.19-14.36-13.65-.12-.43-.79-1.02-1.21-1.02-10.04-.05-20.08-.02-30.12,0-.11,0-.22.11-.45.24.26,6.65,1.83,13.05,5.02,18.92,9.51,17.47,24.34,26.45,44.26,26.04,20.76-.43,34.86-14.09,40.85-31.49,10.06-29.24-9.16-60.28-39.82-64.74-.67-.1-1.36-.15-2.02-.33,6.19-.5,12.16.59,17.94,2.7,20.02,7.32,32.7,25.78,32.66,47.4-.05,24.76-19.3,46.73-43.85,50.04-27.76,3.74-52.43-13.51-58.19-40.83-.82-3.89-.9-7.94-1.34-12.13h35.8c3.17-10.1,10.31-15.87,19.85-16v7.7Z"/>
      <path class="cls-1" d="M574.66,250.05h-18.89v-8.51h27.7c.04.59.11,1.19.11,1.79,0,7,0,13.99,0,20.99,0,.86.16,1.66-1.06,2.08-12.35,4.2-24.9,5.47-37.58,2.02-8.99-2.45-15.83-7.77-18.31-17.12-3.46-13.01,1.16-26.72,16.99-31.88,12.87-4.19,25.52-2.85,37.81,2.54.45.2.96.87.97,1.34.09,3.14.04,6.28.04,9.81-1.35-.82-2.45-1.46-3.53-2.13-10.32-6.45-21.34-7.19-32.72-3.61-7.4,2.32-11.39,7.88-11.68,15.48-.29,7.6,3.34,13.4,10.32,16.48,6.82,3.01,13.99,2.95,21.2,2.3,2.87-.26,5.72-.81,8.62-1.23v-10.34Z"/>
      <path class="cls-1" d="M366.03,253.09v17.97h-8.68v-51.14c.34-.06.69-.17,1.04-.17,10.04.01,20.08-.03,30.11.08,3.93.05,7.77.85,11.32,2.67,4.08,2.1,6.8,5.35,7.34,9.91.35,2.95.42,6.09-.23,8.96-1.51,6.68-6.65,9.64-12.9,10.89-2.64.53-5.38.73-8.08.79-5.87.11-11.74.04-17.61.04h-2.32ZM366.26,228.31v16.16c7.74,0,15.3.06,22.86-.04,1.73-.02,3.5-.44,5.18-.94,2.12-.64,3.69-2.15,4.07-4.34,1.23-7.07-.95-9.43-6.56-10.33-.99-.16-2-.32-3-.33-7.12-.12-14.24-.2-21.36-.29-.36,0-.73.07-1.18.12Z"/>
      <path class="cls-1" d="M463.58,217.99h8.79v2.1c0,10.46,0,20.92.01,31.38,0,1.13.09,2.27.3,3.37.73,3.82,2.77,5.85,6.61,6.54,9.35,1.68,17.64-1.16,25.6-5.79,2.87-1.67,3.99-3.61,3.89-7.04-.28-9.44-.1-18.9-.1-28.36,0-.68,0-1.37,0-2.17h8.7v51.21h-8.61v-6.2c-.88.46-1.46.73-2.02,1.05-7.38,4.17-15.18,6.79-23.78,6.39-6.49-.3-12.31-2.1-16.37-7.61-2.08-2.83-3.1-6.08-3.12-9.55-.06-11.47-.02-22.94-.02-34.41,0-.25.05-.49.11-.92Z"/>
      <path class="cls-1" d="M459.43,260.72v8.4c-.15.08-.26.2-.36.2-10.16-.1-20.32-.16-30.48-.34-1.55-.03-3.12-.47-4.62-.93-6.26-1.91-9.66-6.26-9.92-13.18-.26-6.61-.18-13.23-.22-19.85-.03-4.98,0-9.96,0-14.94v-2.08h8.91v2.09c0,10.46,0,20.93,0,31.39,0,.69,0,1.39.05,2.08.37,4.18,1.63,5.77,5.76,6.5,2.59.46,5.26.6,7.9.63,6.95.08,13.89.03,20.84.03h2.15Z"/>
      <path class="cls-1" d="M601.53,248.93v19.73h-4.74v-51.42c.24-.05.47-.14.7-.14,10.35.01,20.71-.15,31.05.15,3.45.1,6.98,1.05,10.28,2.19,4.65,1.61,7.43,5.18,8.08,10.08.76,5.77.28,11.28-4.83,15.22-3.14,2.43-6.87,3.6-10.73,3.76-8,.32-16.02.31-24.03.43-1.82.03-3.65,0-5.78,0ZM601.62,244.45c6.03,0,11.89.05,17.74-.02,4.22-.05,8.47.04,12.64-.45,8.84-1.04,11.11-6.64,9.98-14.17-.49-3.25-2.4-5.65-5.57-6.54-2.88-.81-5.9-1.43-8.88-1.52-8.13-.26-16.26-.19-24.39-.25-.48,0-.96.08-1.52.13v22.81Z"/>
      <path class="cls-1" d="M316.9,234.44h20.71c.05.19.11.38.16.57-6.28,3.16-12.57,6.31-18.88,9.48-.7-3.51-1.35-6.81-1.99-10.05Z"/>
      <path class="cls-1" d="M237.44,320.91c.71-6.95,1.42-13.91,2.13-20.92,3.34,1.3,6.47,2.51,9.79,3.8-3.83,5.72-7.69,11.49-11.55,17.25-.12-.05-.25-.09-.37-.14Z"/>
      <path class="cls-1" d="M315.98,267.53c.8-3.11,1.64-6.38,2.55-9.88,6.11,3.09,12.33,6.24,18.56,9.39-.04.16-.07.33-.11.49h-20.99Z"/>
      <path class="cls-1" d="M303.65,287.91c2.27-2.83,4.38-5.46,6.58-8.21,4.35,5.4,8.74,10.84,13.12,16.28-.06.1-.12.19-.17.29-6.51-2.79-13.02-5.57-19.53-8.36Z"/>
      <path class="cls-1" d="M210.8,304.25c3.44-6.07,6.88-12.14,10-17.64,2.41,2.41,4.84,4.84,7.24,7.25-5.25,3.34-11.08,7.05-16.9,10.76-.11-.12-.23-.24-.34-.37Z"/>
      <path class="cls-1" d="M270.35,174.74c1.15,6.89,2.31,13.79,3.47,20.77-3.49-.37-6.82-.72-10.44-1.1,2.21-6.6,4.4-13.16,6.6-19.72.12.02.24.03.37.05Z"/>
      <path class="cls-1" d="M214.55,276.97c-6.8,1.34-13.64,2.7-20.48,4.05-.06-.1-.12-.2-.19-.3,5.48-4.46,10.96-8.91,16.43-13.37,1.45,3.29,2.81,6.38,4.24,9.61Z"/>
      <path class="cls-1" d="M262.74,305.56c3.56-.29,6.87-.57,10.47-.86-.9,6.81-1.81,13.68-2.72,20.54-.13.02-.26.05-.39.07-2.45-6.57-4.89-13.13-7.36-19.74Z"/>
      <path class="cls-1" d="M284.8,301.23c3.18-1.69,6.11-3.25,9.29-4.94,1.85,6.59,3.71,13.24,5.58,19.9-.12.08-.25.16-.37.23-4.82-5.05-9.64-10.11-14.5-15.19Z"/>
      <path class="cls-1" d="M208.02,246.19v10.54c-6.68-1.25-13.43-2.52-20.18-3.79-.03-.15-.06-.29-.08-.44,6.68-2.08,13.35-4.16,20.27-6.32Z"/>
      <path class="cls-1" d="M311.76,221.84c-2.12-2.93-4.07-5.61-6.17-8.51,6.35-2.75,12.75-5.51,19.14-8.28.08.1.15.19.23.29-4.4,5.5-8.8,11.01-13.2,16.5Z"/>
      <path class="cls-1" d="M295.71,204.28c-3.15-1.79-6.09-3.46-9.16-5.2,4.59-5.08,9.22-10.2,13.84-15.32.13.05.27.11.4.16-1.69,6.76-3.37,13.52-5.08,20.36Z"/>
    </g>
  </g>
</svg>