<?xml version="1.0" encoding="UTF-8"?>
<svg id="Layer_1" data-name="Layer 1" xmlns="http://www.w3.org/2000/svg" viewBox="0 0 900 500">
  <defs>
    <style>
      .cls-1 {
        fill: #0c5ff2;
      }
    </style>
  </defs>
  <g id="bLRzpu">
    <g>
      <path class="cls-1" d="M529.62,307.72c-3.7-.44-.79-2.22-.38-2.89,7.08-11.45,14.27-22.84,21.45-34.23,14.35-22.79,28.77-45.55,43.02-68.41,2.95-4.73,6.47-8.54,11.65-10.6,1.61-.07,4-.17,5.61-.24,5.91,1.74,9.57,5.73,12.68,10.97,16.45,27.72,33.13,55.29,49.75,82.91,2.3,3.82,3.59,8.16,3.74,12.61,0,.06,0,.12,0,.18.2,5.63-4.28,10.36-9.92,10.39-6.95.03-96.99-.66-137.61-.68ZM539.91,301.49c1.83,0,2.98.11,4.12-.02,17.02-1.83,34.04-3.68,51.06-5.56,14.12-1.57,28.23-3.28,42.36-4.76,7.37-.77,10.49-4.6,7.44-10.18-9.08-16.65-18.28-33.23-27.68-49.7-3.17-5.55-8.06-5.93-12.8-1.59-1.01.92-1.84,2.03-2.75,3.05-20.38,22.69-40.75,45.38-61.74,68.75Z"/>
      <path class="cls-1" d="M222.84,196.52c1.9-.74,3.83-1.09,5.91-1.07,11.99.08,23.97.04,35.96.05,2.52,0,5.93-.58,5.99,2.97.06,4.05-3.62,3.05-6.22,3.22-4.56.29-10.8-2.01-13.23.96-2.3,2.8-.78,8.79-.81,13.38-.08,10.78-.09,21.55-.12,32.33,0,2.65-.04,5.72-3.58,5.63-3.5-.09-3.33-3.15-3.33-5.79.03-14.2-.09-28.4.09-42.59.04-3.15-.78-4.02-3.97-4.02-5.56,0-11.22,1.03-16.68-.94v-4.11Z"/>
      <path class="cls-1" d="M491.61,308.65c-1.76-4.75-1.03-9.69-1.07-14.55-.08-8.71.14-17.43-.05-26.14-.08-3.54,1.05-4.96,4.68-4.78,4.78.24,9.57.06,14.36.11,8.75.1,13.61,3.73,14.81,11.02,1.14,6.96-2.72,12.45-11.19,15.36,2.78,3.58,5.28,7.19,8.19,10.42,2.47,2.74,3.65,5.31,1.15,8.56h-2.06c-1.96-4.99-6.34-8.32-8.89-12.85-2.8-4.95-6.7-6.49-12.21-6.01-2.92.26-3.69,1.01-3.68,3.84.02,5.06,1.18,10.35-1.99,15.01h-2.06ZM504.61,267.59s0-.05,0-.07c-2.05,0-4.11.08-6.16-.02-1.91-.1-2.89.48-2.72,2.57.41,5.04-2.17,11.67,1.1,14.7,2.96,2.74,9.45,1.01,14.37.35,5.29-.71,8.15-3.97,8.01-8.86-.13-4.76-3.33-8.12-8.44-8.64-2.03-.2-4.11-.03-6.16-.03Z"/>
      <path class="cls-1" d="M448.26,303.74c.26-8.03-.28-16.11.33-24.11.97-12.7,11.34-19.79,23-16.32,6.91,2.06,11.65,8.3,11.85,16.18.2,7.87-.2,15.75.23,23.6.15,2.63-2.46,3.37-2.36,5.55h-2.06c-1.27-4.49-1.01-9.1-.88-13.68.07-2.59-.67-3.64-3.45-3.57-6.15.16-12.31.01-18.47-.02-1.41,0-2.84-.03-2.85,1.98-.03,5.09-.07,10.19-.1,15.28-1.72,0-5.3-3.25-5.25-4.91ZM465.9,287.03c3.25,0,6.49.02,9.74-.01,1.14-.01,2.56.28,2.63-1.53.21-5.31.51-10.71-3.76-14.84-3.68-3.56-8.19-4.17-12.83-2.52-5.53,1.96-7.43,6.7-7.99,12.05-.71,6.85-.63,6.86,6.06,6.86,2.05,0,4.1,0,6.15,0Z"/>
      <path class="cls-1" d="M407.54,209.49c-5.59,8.94-11.16,17.88-16.78,26.8-3.66,5.8-5.66,5.76-9.34-.15-5.56-8.95-11.11-17.9-17.59-26.71,0,12.21.1,24.42-.07,36.63-.04,3.01,1.77,8.05-3.56,7.88-4.84-.16-3.03-4.98-3.06-7.86-.11-14.56,0-29.13.13-43.69.02-2.59-.89-5.85,2.72-6.97,4.02-1.25,5.37,2.05,6.94,4.63,6.31,10.36,12.56,20.75,19.17,31.69,4.76-7.7,9.29-15.02,13.81-22.36,1.52-2.47,2.82-5.11,4.54-7.43,2.06-2.79,2.74-8.02,7.88-6.39,4.67,1.48,2.97,6.01,3,9.36.12,13.02,0,26.05-.03,39.07,0,1.37.09,2.75-.03,4.11-.22,2.59.59,6.15-3.62,6.02-3.76-.12-3.2-3.36-3.22-5.85-.03-6.51.04-13.02.05-19.53.01-6.33,0-12.66,0-19-.31-.08-.63-.16-.94-.24Z"/>
      <path class="cls-1" d="M513.12,230.89c4.51,5.81,8.65,11.23,12.9,16.57,1.6,2.02,3.11,4.22.6,6.19-2.46,1.94-4.44.11-5.99-1.94-4.13-5.45-8.68-10.65-12.23-16.45-2.91-4.75-6.96-4.01-11.12-4.03-7.06-.03-7.06,0-7.06,7.04,0,3.77.03,7.53-.02,11.3-.03,2.35-.41,4.65-3.47,4.7-3.11.05-3.4-2.17-3.39-4.6.03-16.26.08-32.52-.02-48.78-.02-3.61,1.57-4.93,4.94-4.88,7.71.13,15.43-.04,23.12.37,9.37.49,15.26,5.52,16.33,13.29,1.43,10.35-2.48,17.12-11.87,20.56-.63.23-1.32.32-2.71.65ZM490.36,213.46c0,2.91.06,5.83-.02,8.74-.06,1.96.23,3.25,2.71,3.18,5.83-.14,11.68.18,17.49-.17,6.43-.39,10.33-4.7,10.69-11.02.34-6.01-2.96-10.26-9.07-11.88-3.39-.9-6.82-.57-10.23-.59-11.57-.05-11.57-.02-11.57,11.74Z"/>
      <path class="cls-1" d="M472.22,233.4c0,5.48-.01,10.96,0,16.44,0,2.2-.21,4.26-3.06,4.38-3.16.14-3.53-2.04-3.52-4.46.03-4.11-.18-8.24.14-12.33.26-3.33-1.04-4-4.08-3.93-8.4.19-16.81.19-25.2-.02-3.03-.07-3.77,1.01-3.63,3.81.21,4.1.03,8.22.06,12.33.02,2.49-.54,4.57-3.55,4.53-2.64-.03-3.52-1.92-3.45-4.19.35-11.63-.83-23.31.71-34.89,1.7-12.78,11.08-20.23,24.34-19.75,11.5.42,20.47,9.46,21.11,21.63.29,5.46.05,10.96.05,16.44.02,0,.05,0,.07,0ZM449.31,227.37s0,.02,0,.03h5.15c12.2,0,13.66-2,10.27-14.04-2.01-7.14-7.73-11.63-14.98-11.75-7.92-.13-13.41,3.86-15.81,11.27-1.3,4.03-.86,8.13-1.03,12.22-.1,2.41,1.41,2.27,3.01,2.27,4.46-.02,8.92,0,13.38,0Z"/>
      <path class="cls-1" d="M331.44,194.87c4.33.39,8.52,1.07,12.41,3.04,2.01,1.02,3.52,2.63,2.47,4.92-1.1,2.41-3.22,1.97-5.25.98-5.87-2.83-11.93-4.19-18.36-2.11-3.51,1.13-5.9,3.22-6.27,7.21-.38,3.98,1.46,6.43,4.8,8.22,4.57,2.44,9.67,3.28,14.49,4.95,10.3,3.59,14.39,9.1,13.04,17.87-1.28,8.36-8.31,13.81-18.06,14.22-6.29.27-12.25-.94-17.87-3.68-2.28-1.11-5.13-2.42-3.54-5.7,1.78-3.65,4.25-1.44,6.36-.12,5.18,3.24,10.84,4.14,16.76,3.24,4.77-.73,8.21-3.15,9.07-8.34.84-5.1-1.69-8.29-6-10.08-4.71-1.95-9.65-3.34-14.43-5.13-9.42-3.53-12.73-8.31-11.74-16.7.8-6.75,6.64-11.43,15.49-12.33,2.2-.22,4.42-.32,6.63-.47Z"/>
      <path class="cls-1" d="M392.9,306.76c-2.51.01-5.01.02-7.52.03-11.71-1.64-20.04-11.6-19.4-23.19.65-11.8,10.74-21.2,22.83-21.25,12.39-.06,22.26,9.1,23.14,21.46.8,11.15-7.43,21.06-19.05,22.95ZM406.33,284.91c0-10.04-7.54-17.63-17.44-17.58-9.69.05-17.68,8.17-17.46,17.77.21,9.58,7.95,17.3,17.39,17.37,9.89.07,17.53-7.59,17.52-17.55Z"/>
      <path class="cls-1" d="M551.28,227.88c0-7.19-.17-14.38.08-21.56.11-3.3-.72-4.61-4.21-4.4-4.27.26-8.56.04-12.85-.02-1.86-.02-3.49-.52-3.52-2.79-.04-2.26,1.56-2.89,3.43-2.89,13.71,0,27.41.05,41.12.08,1.8,0,3,.73,3.08,2.64.1,2.2-1.23,3.02-3.24,3.02-4.11,0-8.24.25-12.33-.05-3.78-.28-5.05.86-4.99,4.81.21,13.17.01,26.36-.03,39.53,0,1.2-.02,2.4,0,3.59.02,2.44-.41,4.63-3.52,4.49-2.73-.13-3.1-2.11-3.08-4.39.05-7.36.02-14.72.02-22.08.01,0,.03,0,.04,0Z"/>
      <path class="cls-1" d="M351.67,306.7c-2.48.02-4.97.04-7.45.06-3.16,0-6.02-1.18-8.8-2.48-1.79-.84-3.42-2.17-2.2-4.4,1.2-2.2,2.94-1.03,4.35-.1,3.92,2.59,8.23,3.19,12.77,2.69,3.81-.42,6.37-2.54,7.2-6.26.85-3.83-1.44-6.31-4.58-7.69-3.88-1.71-8.05-2.76-11.99-4.35-6.21-2.51-8.44-5.9-7.98-11.58.4-5.04,3.5-8.27,9.7-9.71,5.11-1.18,10.2-.77,15.12,1.06,1.89.7,4.3,1.55,3.17,4.24-1.08,2.58-3.06,1.09-4.77.42-3.69-1.45-7.4-2.58-11.47-1.62-3.45.82-6.18,2.4-6.45,6.25-.26,3.72,2.43,5.45,5.43,6.57,3.19,1.19,6.49,2.05,9.71,3.15,7.16,2.45,9.99,6.22,9.57,12.63-.39,6.06-4.09,9.67-11.35,11.12Z"/>
      <path class="cls-1" d="M271.54,219.01c5.73-5.18,12.12-6.12,17.27-2.93,1.82,1.13,2.9,2.6,2.05,4.66-1.01,2.44-3.02,1.87-4.74.91-7.51-4.21-14.17.03-14.81,9.73-.38,5.8-.2,11.64-.24,17.46-.02,2.52-.12,5.24-3.42,5.17-3.16-.06-2.84-2.82-2.84-5.03.01-9.76.05-19.53.07-29.29,0-2.2-.5-4.88,2.58-5.28,2.92-.38,3.51,2.11,4.07,4.61Z"/>
      <path class="cls-1" d="M417.21,284.41c0-5.64-.04-11.27.02-16.91.02-1.93-.69-4.75,2.16-4.95,3.15-.22,2.99,2.62,2.98,4.85-.01,9.57.2,19.14-.21,28.69-.2,4.77.83,6.83,6.05,6.26,4.56-.49,9.22-.12,13.84-.08,1.59.01,3.3.16,3.13,2.38-.13,1.77-1.56,2-3.02,1.99-7.18-.01-14.37-.12-21.55,0-3.25.05-3.56-1.86-3.55-4.3.02-5.98,0-11.96,0-17.94.04,0,.09,0,.13,0Z"/>
      <path class="cls-1" d="M294.4,233.87c0-5.12.02-10.24,0-15.37-.01-2.09.52-3.93,2.88-4.06,2.63-.15,3.53,1.74,3.52,4.03-.04,10.59-.13,21.17-.23,31.76-.02,2.05-.63,3.86-3.09,3.87-2.43,0-3.15-1.78-3.17-3.82-.06-5.46-.02-10.93-.02-16.4.04,0,.08,0,.12,0Z"/>
      <path class="cls-1" d="M301.14,197.14c-.26,2.06-1.56,3.45-3.66,3.4-2.37-.06-3.76-1.58-3.58-4.07.17-2.32,1.67-3.25,3.86-3.15,2.32.1,3.3,1.49,3.38,3.82Z"/>
    </g>
  </g>
</svg>