<?xml version="1.0" encoding="UTF-8"?>
<svg id="Layer_1" data-name="Layer 1" xmlns="http://www.w3.org/2000/svg" viewBox="0 0 900 500">
  <defs>
    <style>
      .cls-1 {
        fill: #0058f5;
      }
    </style>
  </defs>
  <path class="cls-1" d="M150.62,184.46l121.51,65.95c3.1,2.17,7.07,5.9,8.92,9.16,2.74,4.82,1.52,12.41,8.05,12.52.68.01,8.74-7.26,10.61-8.47,3.48-2.27,7.33-4.03,11.11-5.73l63.41-14.3c.72.84-5.26,6.95-6.23,7.79-12.9,11.1-29.85,9.55-44.98,15.25l.32,1.24,23.1-2.5c.71.41-.97,1.6-1.26,1.85-5.95,5.05-9.72,6.14-17.48,6.86-5.21.48-12.52-1-16.55,3.11,6.64-.49,13.39-1.23,19.99.01-2,2.9-7.01,5.53-10.46,6.07-1.19.18-20.77-.48-18.9,2.01l14.36,1.88c-6.88,8.46-17.76,5.8-27.42,6.28-1.17,7.06-3.05,13.6-11.16,14.71-6.54.9-12.8-.51-17-5.75,0-.8,10.17-8.03,11.7-9.49.43-.41,1.46.15.16-1.1-12.44-1.67-29.25,2.34-36.87-10.25l19.05.62c.22-1.42-2.76-1.99-3.93-2.31-11.57-3.1-26.13-.91-33.86-12.32,14.18-1.06,28.42,1.26,42.47,2.8,1.7-1.3-9.81-3.85-10.61-4.05-17.32-4.12-37.84-4.4-51.86-16.17-2.08-1.74-9.17-9.08-9.98-11.22-.5-1.32.69-.85,1.4-.78,5.09.51,12.86,3.04,18.09,4.39,19.43,5.04,38.69,11.25,57.96,16.62,1.89-1.48-15.67-8.14-16.71-8.55-21.76-8.54-47.24-14.67-68.04-24.32-15.88-7.37-25.5-25.55-29.56-41.8h.62ZM432.63,263.87c0-3.31-1.27-6.62-4.08-8.5,1.82-1.77,2.76-4.36,2.76-6.9,0-8.17-5.9-11.37-13.3-11.37h-14.13v38.51h15.01c7.78,0,13.74-3.2,13.74-11.75ZM423.58,248.53c0,3.59-2.48,4.14-5.46,4.14h-6.35v-8.06h6.35c2.92,0,5.46.44,5.46,3.92ZM424.74,263.92c0,3.81-2.7,4.25-5.85,4.25h-7.12v-8.55h7.12c3.15,0,5.85.5,5.85,4.3ZM467.01,268h-16.33v-30.9h-7.84v38.51h24.17v-7.61ZM505.25,237.1h-7.89v22.18c0,5.13-.77,9.1-6.9,9.1s-6.84-4.14-6.84-9.1v-22.18h-7.89v22.62c0,9.88,4.25,16.33,14.79,16.33s14.73-6.46,14.73-16.33v-22.62ZM542.99,267.84h-18.54v-8.28h16.17v-7.45h-16.17v-7.23h18.54v-7.78h-26.43v38.51h26.43v-7.78ZM598.25,249.64c0-8.11-5.85-11.7-13.35-11.7h-14.13v38.51h7.89v-15.51h1.93c2.37,0,2.87.61,4.03,2.59l7.73,12.91h9.16l-9.16-14.35c-.44-.66-1.05-1.6-1.55-2.04,4.52-1.55,7.45-5.63,7.45-10.43ZM590.36,249.69c0,3.53-2.37,4.3-5.41,4.3h-6.29v-8.44h6.29c2.92,0,5.41.66,5.41,4.14ZM627.39,237.94h-6.84l-14.79,38.51h8.5l3.48-9.66h12.53l3.48,9.66h8.55l-14.9-38.51ZM620.27,259.9l3.7-10.32,3.75,10.32h-7.45ZM667.67,237.94l-8.39,26.49-8.39-26.49h-8.33l12.97,38.51h7.45l12.97-38.51h-8.28ZM710.93,268.68h-18.54v-8.28h16.17v-7.45h-16.17v-7.23h18.54v-7.78h-26.43v38.51h26.43v-7.78ZM750,237.94h-7.89v21.96l-14.02-21.96h-6.4v38.51h7.89v-21.96l14.07,21.96h6.35v-38.51ZM651.01,293.29c-4.17,0-6.89,2.49-6.89,6.24s1.75,5.47,6.6,6.28c3.62.61,4.79,1.62,4.79,3.56,0,2.23-1.58,3.62-4.14,3.62-2.26,0-4.08-.78-5.43-2.33-.26-.29-.55-.32-.84-.03l-1.04.97c-.29.26-.32.55-.06.84,1.71,2.07,4.21,3.11,7.54,3.11,4.17,0,6.89-2.49,6.89-6.24s-1.75-5.37-6.57-6.21c-3.72-.65-4.82-1.65-4.82-3.62,0-2.23,1.58-3.62,4.11-3.62,1.91,0,3.4.61,4.4,1.84.26.32.55.36.87.06l1.07-.97c.29-.26.36-.55.1-.87-1.49-1.75-3.66-2.62-6.57-2.62ZM665.92,307.78c0,5.05,2.72,7.76,7.7,7.76s7.7-2.72,7.7-7.76v-6.73c0-5.05-2.72-7.76-7.7-7.76s-7.7,2.72-7.7,7.76v6.73ZM668.83,301.4c0-3.75,1.55-5.56,4.79-5.56s4.79,1.81,4.79,5.56v6.02c0,3.75-1.55,5.56-4.79,5.56s-4.79-1.81-4.79-5.56v-6.02ZM703.5,313.21c0-.39-.23-.61-.61-.61h-9.44v-18.31c0-.39-.23-.61-.61-.61h-1.68c-.39,0-.61.23-.61.61v20.25c0,.39.23.61.61.61h11.74c.39,0,.61-.23.61-.61v-1.33ZM720.19,294.22c-.13-.39-.36-.55-.74-.55h-1.97c-.39,0-.61.16-.74.52l-6.86,20.25c-.16.45.06.71.52.71h1.71c.36,0,.58-.16.68-.52l1.26-3.91h8.73l1.26,3.91c.1.36.32.52.68.52h1.81c.45,0,.68-.26.52-.71l-6.86-20.22ZM718.45,297.17l3.53,11h-7.08l3.49-11h.06ZM741.86,306.68l4.63,8.05c.19.29.42.42.74.42h2.01c.52,0,.68-.32.42-.74l-4.85-8.02c3.14-.74,4.66-2.81,4.66-6.24,0-4.4-2.46-6.47-7.67-6.47h-5.82c-.39,0-.61.23-.61.61v20.25c0,.39.23.61.61.61h1.68c.39,0,.61-.23.61-.61v-7.86h3.59ZM738.27,304.12v-7.89h3.53c3.27,0,4.72,1.23,4.72,3.95s-1.46,3.95-4.72,3.95h-3.53Z"/>
</svg>