<?xml version="1.0" encoding="UTF-8"?>
<svg id="Layer_1" data-name="Layer 1" xmlns="http://www.w3.org/2000/svg" viewBox="0 0 677.67 114.32">
  <defs>
    <style>
      .cls-1 {
        fill: #fff;
      }
    </style>
  </defs>
  <path class="cls-1" d="M5.07,27.22c3.38-5.93,8-10.54,13.85-13.85,5.85-3.31,12.42-4.96,19.69-4.96,8.51,0,15.96,2.18,22.36,6.54,6.4,4.36,10.87,10.4,13.42,18.11h-17.56c-1.75-3.64-4.2-6.36-7.36-8.18-3.16-1.82-6.82-2.73-10.96-2.73-4.44,0-8.38,1.04-11.84,3.11-3.46,2.07-6.15,5-8.07,8.78-1.93,3.78-2.89,8.22-2.89,13.31s.96,9.44,2.89,13.25c1.93,3.82,4.62,6.76,8.07,8.84,3.45,2.07,7.4,3.11,11.84,3.11,4.15,0,7.8-.93,10.96-2.78s5.62-4.6,7.36-8.24h17.56c-2.55,7.78-7,13.84-13.36,18.16-6.36,4.33-13.84,6.49-22.42,6.49-7.27,0-13.84-1.65-19.69-4.96-5.85-3.31-10.47-7.91-13.85-13.8C1.69,61.52,0,54.83,0,47.34s1.69-14.2,5.07-20.13Z"/>
  <path class="cls-1" d="M87.21,38.83c2.44-4.73,5.74-8.36,9.93-10.91,4.18-2.54,8.85-3.82,14.02-3.82,4.51,0,8.45.91,11.84,2.73,3.38,1.82,6.09,4.11,8.13,6.87v-8.62h15.38v60.43h-15.38v-8.84c-1.96,2.84-4.67,5.18-8.13,7.04-3.46,1.85-7.44,2.78-11.94,2.78-5.09,0-9.73-1.31-13.91-3.93-4.18-2.62-7.49-6.31-9.93-11.07-2.44-4.76-3.65-10.23-3.65-16.42s1.22-11.53,3.65-16.25ZM128.94,45.76c-1.46-2.65-3.42-4.69-5.89-6.11-2.47-1.42-5.13-2.13-7.96-2.13s-5.45.69-7.85,2.07c-2.4,1.38-4.35,3.4-5.84,6.05-1.49,2.66-2.24,5.8-2.24,9.44s.75,6.82,2.24,9.54c1.49,2.73,3.45,4.82,5.89,6.27,2.44,1.46,5.04,2.18,7.8,2.18s5.49-.71,7.96-2.13c2.47-1.42,4.44-3.45,5.89-6.11,1.45-2.65,2.18-5.84,2.18-9.54s-.73-6.89-2.18-9.55Z"/>
  <path class="cls-1" d="M184.84,26.89c3.45-1.85,7.4-2.78,11.84-2.78,5.16,0,9.83,1.27,14.02,3.82,4.18,2.55,7.49,6.16,9.93,10.85,2.44,4.69,3.65,10.13,3.65,16.31s-1.22,11.65-3.65,16.42c-2.44,4.76-5.75,8.45-9.93,11.07-4.18,2.62-8.85,3.93-14.02,3.93-4.44,0-8.34-.91-11.73-2.73-3.38-1.82-6.13-4.11-8.24-6.87v37.42h-15.27V25.09h15.27v8.73c1.96-2.76,4.67-5.07,8.13-6.93ZM206.44,45.65c-1.49-2.65-3.46-4.67-5.89-6.05-2.44-1.38-5.07-2.07-7.91-2.07s-5.36.71-7.8,2.13c-2.44,1.42-4.4,3.47-5.89,6.16-1.49,2.69-2.24,5.85-2.24,9.49s.74,6.8,2.24,9.49c1.49,2.69,3.45,4.75,5.89,6.16,2.44,1.42,5.03,2.13,7.8,2.13s5.47-.73,7.91-2.18c2.44-1.45,4.4-3.53,5.89-6.22,1.49-2.69,2.24-5.89,2.24-9.6s-.75-6.78-2.24-9.44Z"/>
  <path class="cls-1" d="M253.18,37.63v29.23c0,2.04.49,3.51,1.47,4.42.98.91,2.64,1.36,4.96,1.36h7.09v12.87h-9.6c-12.87,0-19.31-6.25-19.31-18.76v-29.13h-7.2v-12.54h7.2v-14.94h15.38v14.94h13.53v12.54h-13.53Z"/>
  <path class="cls-1" d="M278.76,15.33c-1.78-1.71-2.67-3.83-2.67-6.38s.89-4.67,2.67-6.38c1.78-1.71,4.02-2.56,6.71-2.56s4.93.86,6.71,2.56c1.78,1.71,2.67,3.84,2.67,6.38s-.89,4.67-2.67,6.38c-1.78,1.71-4.02,2.56-6.71,2.56s-4.93-.85-6.71-2.56ZM293,25.09v60.43h-15.27V25.09h15.27Z"/>
  <path class="cls-1" d="M333.25,71.45l15.27-46.36h16.25l-22.36,60.43h-18.54l-22.25-60.43h16.36l15.27,46.36Z"/>
  <path class="cls-1" d="M373.12,38.83c2.44-4.73,5.74-8.36,9.93-10.91,4.18-2.54,8.85-3.82,14.02-3.82,4.51,0,8.45.91,11.84,2.73,3.38,1.82,6.09,4.11,8.13,6.87v-8.62h15.38v60.43h-15.38v-8.84c-1.96,2.84-4.67,5.18-8.13,7.04-3.46,1.85-7.44,2.78-11.94,2.78-5.09,0-9.73-1.31-13.91-3.93-4.18-2.62-7.49-6.31-9.93-11.07-2.44-4.76-3.65-10.23-3.65-16.42s1.22-11.53,3.65-16.25ZM414.85,45.76c-1.46-2.65-3.42-4.69-5.89-6.11-2.47-1.42-5.13-2.13-7.96-2.13s-5.45.69-7.85,2.07c-2.4,1.38-4.35,3.4-5.84,6.05-1.49,2.66-2.24,5.8-2.24,9.44s.75,6.82,2.24,9.54c1.49,2.73,3.45,4.82,5.89,6.27,2.44,1.46,5.04,2.18,7.8,2.18s5.49-.71,7.96-2.13c2.47-1.42,4.44-3.45,5.89-6.11,1.45-2.65,2.18-5.84,2.18-9.54s-.73-6.89-2.18-9.55Z"/>
  <path class="cls-1" d="M465.13,37.63v29.23c0,2.04.49,3.51,1.47,4.42.98.91,2.64,1.36,4.96,1.36h7.09v12.87h-9.6c-12.87,0-19.31-6.25-19.31-18.76v-29.13h-7.2v-12.54h7.2v-14.94h15.38v14.94h13.53v12.54h-13.53Z"/>
  <path class="cls-1" d="M545.42,59.89h-44.18c.36,4.36,1.89,7.78,4.58,10.25,2.69,2.47,6,3.71,9.93,3.71,5.67,0,9.71-2.44,12.11-7.31h16.47c-1.75,5.82-5.09,10.6-10.04,14.34-4.95,3.75-11.02,5.62-18.22,5.62-5.82,0-11.04-1.29-15.65-3.87-4.62-2.58-8.22-6.23-10.8-10.96-2.58-4.73-3.87-10.18-3.87-16.36s1.27-11.74,3.82-16.47c2.54-4.73,6.11-8.36,10.69-10.91,4.58-2.54,9.85-3.82,15.82-3.82s10.89,1.24,15.44,3.71c4.54,2.47,8.07,5.98,10.58,10.53,2.51,4.55,3.76,9.76,3.76,15.65,0,2.18-.15,4.15-.44,5.89ZM530.04,49.63c-.07-3.93-1.49-7.07-4.25-9.44-2.76-2.36-6.15-3.55-10.14-3.55-3.78,0-6.96,1.15-9.54,3.44-2.58,2.29-4.16,5.47-4.75,9.54h28.69Z"/>
  <path class="cls-1" d="M583.61,6.12v78.91h-15.83V6.12h15.83Z"/>
  <path class="cls-1" d="M658,98.94l-11.98-14.36c-3.32.83-6.71,1.24-10.17,1.24-7.39,0-14.17-1.73-20.35-5.2-6.18-3.47-11.08-8.27-14.7-14.41-3.62-6.14-5.43-13.1-5.43-20.86s1.81-14.6,5.43-20.75c3.62-6.14,8.52-10.95,14.7-14.41,6.18-3.47,12.96-5.2,20.35-5.2s14.26,1.73,20.41,5.2c6.14,3.47,11,8.27,14.58,14.41,3.58,6.14,5.37,13.06,5.37,20.75,0,7.01-1.49,13.4-4.47,19.16-2.98,5.77-7.03,10.46-12.15,14.08l18.09,20.35h-19.67ZM614.7,59.26c2.03,4,4.88,7.07,8.54,9.21,3.65,2.15,7.86,3.22,12.61,3.22s8.93-1.07,12.55-3.22,6.44-5.22,8.48-9.21c2.03-3.99,3.05-8.63,3.05-13.91s-1.02-9.89-3.05-13.85-4.86-6.99-8.48-9.1c-3.62-2.11-7.8-3.17-12.55-3.17s-8.95,1.06-12.61,3.17c-3.66,2.11-6.5,5.14-8.54,9.1-2.04,3.96-3.05,8.57-3.05,13.85s1.02,9.91,3.05,13.91Z"/>
  <rect class="cls-1" x="556.98" y="6.12" width="37.42" height="13"/>
  <rect class="cls-1" x="556.98" y="72.98" width="36.11" height="12.54"/>
</svg>