<?xml version="1.0" encoding="UTF-8"?>
<svg id="Layer_1" data-name="Layer 1" xmlns="http://www.w3.org/2000/svg" viewBox="0 0 900 500">
  <defs>
    <style>
      .cls-1 {
        fill: #0c5ff2;
      }
    </style>
  </defs>
  <g id="QesYhr">
    <g>
      <path class="cls-1" d="M182.24,239.15c.55,1.11.06,2.33.43,3.59.62-1.92.46-3.87.98-5.84h9.87c-3.93,25.87,3.24,48.37,21.65,66.97,13.7,13.85,30.73,21.23,50.23,22.34,35.99,2.04,64.32-21.91,73.86-45.01-2.11-.26-4.18-.09-6.23-.12-2.09-.03-4.19,0-6.28,0-2.09,0-4.19,0-6.28,0-2.15,0-4.3,0-6.45,0-2.09,0-4.19,0-6.28,0-2.09,0-4.19,0-6.28,0-2.08,0-4.16,0-6.21,0-.25-1.24-.37-64.16-.13-65.37h38.17v12.28c-8.11-.19-16.07.16-23.96-.3-.5,1.18-.68,9.08-.29,11.92,8.02.07,16.08.05,24.27,0v12.62c-8.11-.08-16.12.14-23.88-.23-.73.54-.68,1.07-.69,1.57-.08,4.73,0,9.45.16,14.18,0,.1.09.2.27.53h45.26c-5.01,18.17-13.22,34.08-27.52,46.36-14.19,12.19-30.66,19.3-49.34,21.22.05.38.55.26.51.63h-17.33c.08-.2.16-.39.28-.68-1.38-.21-2.72-.6-4.04-.59-3.34.05-6.46-1.02-9.62-1.78-4.66-1.12-9.15-2.8-13.57-4.68-4.75-2.02-9.2-4.57-13.45-7.43-5.78-3.88-10.91-8.54-15.6-13.69-3.85-4.23-7.2-8.82-10.14-13.68-2.62-4.32-4.82-8.88-6.6-13.64-2.42-6.51-4.23-13.14-4.74-20.1-.12-1.64-.1-3.36-1.01-4.86v-16.22Z"/>
      <path class="cls-1" d="M259.71,336.49c.11-.12.23-.22.34,0h-.34Z"/>
      <path class="cls-1" d="M278.73,336.49c.11-.27.23-.21.34,0h-.34Z"/>
      <path class="cls-1" d="M201.38,215.53h17.55c.71.7.94,1.55,1.18,2.32,1.17,3.75,2.9,7.29,4.07,11.03,1.37,4.39,3.4,8.52,4.88,12.87.99,2.91,1.91,5.86,3.21,8.66.36.78.38.77,1.32.86.07-.08.2-.17.2-.26-.11-2.35.91-4.39,1.93-6.37,1.88-3.65,3.19-7.56,5.06-11.2,2.39-4.65,4.02-9.63,6.32-14.32.22-.45.37-.93.51-1.42.15-.57.33-1.21,1.01-1.46.76.2,1.04.84,1.32,1.44,2.82,6.24,5.54,12.52,8.47,18.71,1.44,3.05,2.82,6.12,4.26,9.16.63,1.32,1.12,2.69,1.42,4.12.13.6.29,1.2.89,1.61.77-.64,1.22-1.52,1.5-2.39,1.35-4.21,2.69-8.42,4.34-12.52,2.43-6.03,4.42-12.21,6.76-18.27.32-.83.74-1.63,1.13-2.48h13.53c.04.62.03,1.19-.2,1.78-.38.93-.65,1.91-1.07,2.83-1.24,2.69-1.81,5.63-3.07,8.32-.76,1.62-1.2,3.38-1.83,5.06-1.96,5.24-3.99,10.46-5.92,15.72-1.85,5.04-3.93,10-5.68,15.08-.8,2.32-1.76,4.6-2.65,6.91-1.48,3.86-2.93,7.74-4.34,11.62-.4,1.1-1.12,2.08-1.13,3.24-.27.33-.55.27-.72.24-5.49-13.88-10.96-27.71-16.45-41.6-.82-.17-1.21.29-1.35,1.05-.46,2.57-1.7,4.85-2.61,7.25-1.03,2.72-2.11,5.42-3.21,8.11-1.15,2.8-2.25,5.61-3.25,8.46-1.13,3.21-2.88,6.16-3.78,9.48-.36,1.32-1.01,2.61-1.57,3.89-.49,1.13-1.03,2.23-1.03,3.45-.61.23-.95.17-1.11-.43-.94-3.46-2.27-6.78-3.65-10.08-.72-1.71-1.06-3.53-1.8-5.23-.65-1.48-1.13-3.04-1.71-4.56-2.45-6.44-4.9-12.88-7.38-19.31-1.91-4.96-3.53-10.04-5.63-14.93-.28-.66-.41-1.39-.55-2.1-.11-.56-.28-1.08-.76-1.64h-24.79c.66-2.66,1.53-5.07,2.45-7.46,2.54-6.63,5.61-13.02,9.56-18.92,4.69-7,10.21-13.28,16.91-18.54,4.36-3.42,8.83-6.63,13.71-9.27,2.63-1.42,5.35-2.66,8.14-3.73,2.88-1.11,5.76-2.24,8.74-3.07,3.67-1.03,7.35-2.07,11.18-2.45,3.64-.35,7.26-.92,10.9-1.22,1.9-.15,3.82-.09,5.75.09,2.47.23,4.93.57,7.4.77,3.55.29,7.02.93,10.47,1.75,5.99,1.42,11.83,3.41,17.32,6.09,6.06,2.97,11.88,6.41,17,10.95,2.65,2.35,5.38,4.61,7.89,7.13,4.36,4.39,7.88,9.39,11.21,14.55,2.14,3.32,3.73,6.93,5.38,10.48,1.31,2.83,2.19,5.86,3.17,8.84.9,2.78,1.47,5.63,2.18,8.44.67,2.65,1.01,5.39,1.4,8.1.72,5.04.37,10.11.3,15.16-.02,1.08-.28,2.2-.26,3.28-1.11.53-5.82.74-10.18.46-.38-.95-.28-1.99-.12-2.94.44-2.67.61-5.34.6-8.04,0-1.13-.14-2.24-.34-3.34-.44-2.43-.37-4.91-.68-7.35-.2-1.62-.8-3.14-1.1-4.73-1.23-6.55-3.67-12.7-6.75-18.57-2.85-5.43-6.39-10.44-10.52-15.03-4.51-5.02-9.53-9.44-15.16-13.15-5.09-3.35-10.53-6.08-16.24-8.26-3.85-1.47-7.82-2.49-11.84-3.31-2.3-.46-4.65-.74-7.03-.9-2.47-.16-4.92-.59-7.41-.5-7.33.25-14.57,1.09-21.61,3.3-7.41,2.33-14.34,5.68-20.83,9.9-5.42,3.52-10.03,8.01-14.56,12.59-3.85,3.9-6.64,8.5-9.4,13.15-.4.68-.86,1.31-1.28,1.98-.16.26-.18.52.04,1.05Z"/>
      <path class="cls-1" d="M401.88,217.55c4.47-.19,8.4,1.03,12.14,3.02.87.46,1.56,1.14,2.23,1.8,2.62,2.56,5.28,5.12,6.22,8.84.6,2.38,1.39,4.75,1.31,7.24-.15,4.47-1.57,8.58-3.96,12.33-.78,1.23-1.89,2.28-3.05,3.15-2.84,2.13-5.87,3.89-9.4,4.8-2.52.65-5.07.88-7.55.54-4.2-.57-8.28-1.66-11.47-4.77-1.98-1.93-3.99-3.82-5.39-6.25-1.56-2.72-2.44-5.6-2.54-8.78-.17-5.03,1.29-9.5,4.16-13.59,2.28-3.25,5.54-5.25,9.07-6.84,2.65-1.19,5.48-1.7,8.24-1.5ZM387.36,238.34c-.63,7.46,6.74,15.02,14.64,15.07,8.19.05,15.08-7.52,15.04-14.85-.05-8.46-6.67-15.12-14.81-15.39-7.35-.24-15.39,6.95-14.88,15.16Z"/>
      <path class="cls-1" d="M534.29,244.55c1.24-4.77,3.19-9.18,4.85-13.7,1.66-4.5,3.09-9.09,5.07-13.47l.41-.02c1.18,2.97,2.3,5.97,3.54,8.92,1.24,2.95,2.23,6.01,3.58,8.92,1.36,2.92,1.84,6.2,3.62,9.33.24-.42.36-.55.39-.7,1.11-5.01,3.27-9.67,4.94-14.5,1.14-3.29,2.64-6.45,3.49-9.84.21-.84.77-1.24,1.58-1.26,1.69-.03,3.38,0,5.29,0-1.1,3.62-2.59,6.92-3.9,10.28-1.33,3.4-2.61,6.82-3.89,10.24-1.26,3.37-2.38,6.79-3.74,10.12-1.37,3.35-2.28,6.88-3.84,10.15-.15,0-.3,0-.45,0-.86-2.27-1.7-4.55-2.58-6.81-.88-2.25-1.79-4.49-2.69-6.73-.92-2.29-1.79-4.61-2.8-6.87-.97-2.15-1.35-4.58-3.08-6.85-3.04,9.51-7.57,18.09-10.26,27.43-.59.13-.74-.37-.92-.85-1.44-3.84-2.95-7.65-4.32-11.52-.99-2.81-2.09-5.58-3.13-8.37-1.7-4.58-3.38-9.18-5.1-13.75-.77-2.05-1.71-4.03-2.38-6.31,1.19-.35,2.37-.15,3.51-.13,2.89.05,2.71-.33,3.73,2.54,1.67,4.71,3.58,9.34,5.22,14.07.99,2.86,2.32,5.61,2.93,8.6.07.35.21.78.93,1.09Z"/>
      <path class="cls-1" d="M617.17,237.34c.03,4.92-1.11,9.06-3.64,12.73-2.99,4.35-7.23,7.05-12.27,8.46-8.1,2.27-15.17.08-21.02-5.62-6.49-6.33-8.01-15.77-3.87-23.95,4.55-9,15.4-13.6,25.12-10.9,5.35,1.48,9.45,4.45,12.55,8.89,1.19,1.7,2.09,3.59,2.4,5.71.25,1.71,1.04,3.36.72,4.68ZM610.35,238.21c-.08-1.06.06-2.12-.22-3.19-.85-3.2-2.59-5.81-5.02-8.05-5.11-4.71-12.08-4.66-17.26-1.42-5.93,3.71-10.22,13.38-4.19,21.61,3.52,4.8,9.38,7.03,14.72,5.99,7.57-1.48,12.29-8.58,11.97-14.95Z"/>
      <path class="cls-1" d="M683.51,258.17v-39.69c.52-.41.98-.26,1.42-.25,5.38.01,10.76-.13,16.13.27,4,.3,7.6,1.63,10.65,4.27,2.73,2.37,4.43,5.36,5.24,8.85.56,2.42.89,4.86.8,7.36-.04,1.03-.27,2-.42,3-.78,5.26-2.88,9.81-7.44,12.91-2.91,1.98-6.21,2.9-9.69,3.21-4.86.42-9.72.33-14.59.32-.67,0-1.35.09-2.09-.24ZM689.95,252.26c.41.34.75.38,1.09.34,2.82-.36,5.66-.25,8.48-.24,3.87.02,8.56-3.01,10.16-7.23,1.53-4.04,1.57-8.12.64-12.27-.95-4.27-4.32-7.4-8.64-8.29-3.02-.62-6.06-.68-9.11-.67-.83,0-1.68-.15-2.62.17v28.18Z"/>
      <path class="cls-1" d="M458.1,218.31h6.13c.4.48.25,1.01.26,1.5.01,7.99.12,15.99-.05,23.98-.06,3.04-.44,6.1-2.12,8.87-2,3.29-4.86,5.14-8.55,6.05-3.12.77-6.29.87-9.41.56-2.97-.29-5.82-1.33-8.15-3.36-2.37-2.07-3.83-4.63-4.54-7.7-.56-2.44-.63-4.88-.63-7.35.02-6.87,0-13.73,0-20.6,0-.56,0-1.12,0-1.84h6.55c.29.24.07.72.07,1.14,0,8.11.02,16.21-.01,24.32-.01,3.45,1.59,6.04,4.31,7.94,3.65,2.55,9.5,2.2,12.8-.64.29-.25.56-.56.77-.89,1.39-2.14,2.4-4.37,2.37-7.04-.08-7.6-.04-15.2-.02-22.79,0-.66-.13-1.35.2-2.13Z"/>
      <path class="cls-1" d="M501.09,258.34c-2.14,0-4.29,0-6.43,0-.57,0-.92-.32-1.3-.68-.73-.72-1.22-1.61-1.82-2.42-3.32-4.41-6.71-8.76-9.9-13.26-.4-.56-.68-1.36-1.78-1.32v17.56h-6.12v-39.96c1.56,0,2.91-.02,4.25,0,3.33.06,6.66-.11,9.99.29,3.59.44,6.26,2.05,7.78,5.4.37.83.61,1.72.66,2.59.11,2.13.21,4.25-.19,6.39-.21,1.11-.63,1.98-1.29,2.85-1.41,1.85-3.06,3.25-5.42,3.73-.5.1-1.14.11-1.67.81,1.22,2.03,2.92,3.81,4.33,5.76,1.48,2.05,3.04,4.05,4.63,6.02,1.54,1.92,2.91,3.96,4.51,5.82-.07.13-.14.27-.21.4ZM480.14,234.97c1.8.34,4.2.29,5.82-.08,2.43-.56,3.78-1.87,4.09-4.26.36-2.8-.7-5.1-3.3-6.14-1.72-.69-3.58-.91-5.44-.96-.39-.01-.8-.06-1.17.41v11.03Z"/>
      <path class="cls-1" d="M631.04,240.31v17.9c-2.08.31-3.96.15-5.97.07v-39.87c.21-.09.36-.2.51-.2,3.9.01,7.81.02,11.71.07,1.54.02,3.03.32,4.47.88,3.99,1.54,5.79,4.65,6.2,8.7.17,1.69.09,3.39-.34,5.04-.92,3.5-3.19,5.72-6.7,6.71-.62.18-1.39.05-1.84.93,4.36,5.76,8.92,11.44,13.12,17.32-.12.18-.15.26-.19.27-2.11.48-4.23.31-6.35.1-.52-.05-.79-.62-1.09-1.01-2.86-3.69-5.7-7.4-8.39-11.23-1.16-1.65-2.55-3.14-3.64-4.86-.27-.42-.56-1.04-1.51-.8ZM631.49,235.34c2.66.3,5.02-.08,7.34-.82.71-.23,1.2-.75,1.67-1.35,1.1-1.4.83-2.99.75-4.53-.1-2.07-1.29-3.46-3.19-4.14-1.75-.62-3.59-.95-5.47-.93-.39,0-.8-.02-1.1.39v11.38Z"/>
      <path class="cls-1" d="M717.5,276.64c.3,1.33.23,2.26.16,3.16-1.62.32-107.05.37-108.93.07-.78-.96-.19-2.01-.36-3.22,36.49-.02,72.78-.02,109.13,0Z"/>
      <path class="cls-1" d="M489.52,276.84c.35,1.04.57,1.99-.15,3.2-36.1.05-72.3.01-108.32.02-.61-.6-.46-1.13-.45-1.62,0-.5.06-1,.1-1.49,1.29-.37,106.52-.49,108.82-.11Z"/>
      <path class="cls-1" d="M663.35,252.67c4.93-.06,9.66-.65,14.49,0v5.6h-21.09c-.13-.74-.14-39.11-.01-39.92h6.6c.02,3.86,0,7.61,0,11.36,0,3.83,0,7.66,0,11.48,0,3.76,0,7.53,0,11.49Z"/>
      <path class="cls-1" d="M509.68,267.58c5.32,5.24,10.78,10.33,16.48,15.63.5-1.9.1-3.5.13-5.09.03-1.63-.03-3.26.04-4.89.07-1.62-.1-3.24-.14-4.85,1.22-.69,2.39-.39,3.56-.34.17,7.79-.12,15.52.15,23.44-2.18-1.61-3.79-3.71-5.68-5.5-1.88-1.79-3.71-3.63-5.59-5.42-1.92-1.82-3.86-3.6-5.84-5.71-.52,1.88-.18,3.54-.21,5.17-.04,1.74-.03,3.49-.03,5.24,0,1.68,0,3.36,0,5.08-.98.38-1.86.18-2.72.13-.42-1.22-.61-15.26-.14-22.88Z"/>
      <path class="cls-1" d="M588.23,282.1c-1.75-.33-3.51.1-5.25-.15-.4-.92-.25-1.8-.14-2.78h8.58c.41,2.12.19,4.13-.52,6.01-1.4,3.72-4.33,5.46-8.22,5.71-1.64.11-3.3.19-4.9-.21-3.43-.85-6.02-2.82-7.47-6.06-1.8-4.01-1.69-8.03.63-11.79,2.59-4.19,8.42-6.24,13.26-4.87,1.47.42,2.87.98,4.04,2.02.43.39.82.76.93,1.38-.55.76-1.1,1.54-2.02,1.91-.5-.11-.83-.42-1.16-.72-4.56-4.16-11.77-.97-12.93,4.47-1.13,5.3.92,9.31,6.46,10.88,2.28.64,6.81.06,8.14-2.98.36-.83.76-1.63.57-2.83Z"/>
      <path class="cls-1" d="M551.92,268.51c.51-.41.78-.48,1.07-.47,2.15.06,4.3.07,6.45.18,3.44.18,5.36,2.21,5.4,5.65,0,.67,0,1.35-.08,2.02-.22,2.01-1.36,3.26-3.29,3.82-.48.14-1,.21-1.43.88,2.2,3.32,4.86,6.41,7.39,9.76-2.22.47-3.89.2-5.18-1.69-1.58-2.32-3.38-4.5-5.07-6.75-.47-.63-.94-1.24-1.86-1.68.21,3.42.36,6.71.22,10.04-1.11.61-2.22.22-3.59.17-.06-7.41-.03-14.79-.04-21.95ZM556,277.63c1.56.25,2.79-.17,4.02-.58.45-.15.81-.39,1.02-.83.98-2.11-.16-4.52-2.44-4.95-.8-.15-1.62-.49-2.6-.25-.15,2.19-.12,4.35,0,6.6Z"/>
      <path class="cls-1" d="M496.06,279.96v7.49h8.67c.35,1.16.35,2.13-.04,3.16-4.06-.21-8.06,0-12.18-.07v-22.14c.95-.33,10.71-.4,12.28-.07.37.79.23,1.59.03,2.48-1.5.28-2.96.12-4.41.14-1.41.02-2.81,0-4.36,0-.29,1.97-.06,3.86-.19,5.9,3.01.37,5.94-.52,8.81.14.58.97.33,1.88.17,2.96h-8.78Z"/>
      <path class="cls-1" d="M547.62,270.91h-8.69c-.52,1.99-.5,3.89-.18,5.97,2.99.28,5.93-.28,8.9.17.27.88.24,1.75.04,2.72-2.94.64-5.94-.15-8.99.26v7.35h8.73c.57,1.09.32,2.02.31,3.07h-12.51v-22.22h12.4c.24.91.23,1.67-.03,2.67Z"/>
      <path class="cls-1" d="M610.9,268.45c-.01.54-.36.94-.66,1.32-2.23,2.85-3.83,6.1-5.92,9.04-.53.75-.73,1.62-.72,2.56.03,2.42.02,4.84.02,7.26,0,.56.09,1.12-.13,1.75-.99.43-2.04.09-3.01.08-.47-.42-.36-.89-.36-1.33,0-2.25-.08-4.51.05-6.75.1-1.63-.45-3-1.31-4.26-2.1-3.06-3.73-6.42-6.03-9.36-.18-.23-.27-.49-.25-.89.45.03.92.08,1.39.09,1.59.04,2.7.61,3.44,2.2.93,2.04,2.46,3.77,3.41,5.82.22.48.59.8,1.01.99.71-.05.92-.56,1.15-.99,1.17-2.18,2.57-4.23,3.97-6.27,1.22-1.78,1.61-1.89,3.96-1.26Z"/>
    </g>
  </g>
</svg>