<?xml version="1.0" encoding="UTF-8"?>
<svg id="Layer_1" data-name="Layer 1" xmlns="http://www.w3.org/2000/svg" viewBox="0 0 900 500">
  <defs>
    <style>
      .cls-1 {
        fill: #0058f5;
      }
    </style>
  </defs>
  <path class="cls-1" d="M248.69,262.93c0,3.9-2.15,7.12-6.44,9.63-3.66,2.13-7.58,3.19-11.76,3.19-5.64,0-10.22-1.37-13.73-4.1v.05c0-.07-.02-.11-.05-.11-.21.11-.75.46-1.6,1.06-1.28.75-2.22,1.12-2.82,1.12-.32,0-.48-.07-.48-.21v-.05c.64-3.02.96-5.25.96-6.71,0-2.02-.6-4.15-1.81-6.39-.07-.07-.11-.21-.11-.43,0-.57.32-1.19.96-1.86l1.65-.21,1.6.21.9,1.01c0,4.36.71,7.63,2.13,9.79,2.2,3.34,6.17,5,11.92,5,3.37,0,6.37-.82,9-2.45,3.02-1.92,4.52-4.47,4.52-7.67,0-3.76-2.68-6.19-8.04-7.29l-15.06-2.13c-5.43-1.14-8.14-3.58-8.14-7.35s2-6.72,6.02-9.1c3.41-2.06,7.08-3.09,11.02-3.09,4.61,0,8.46,1.17,11.55,3.51l3.03-1.76,1.49-.27,1.76.64c-1.28,1.35-1.92,2.86-1.92,4.52,0,.96.23,2.38.69,4.26.46,1.88.69,3.3.69,4.26l-.8,1.06-1.76.27-1.76-.37c-.71-.85-1.26-2.59-1.65-5.22-.46-2.91-1.33-5.02-2.61-6.33-1.74-1.77-4.61-2.66-8.62-2.66-2.31,0-4.44.5-6.39,1.49-2.13,1.06-3.69,2.56-4.68,4.47-.6,1.17-.9,2.4-.9,3.67,0,3.58,2.71,5.84,8.14,6.76,1.7.46,4.17.85,7.4,1.17,3.65.36,6.21.67,7.67.96,5.36.99,8.04,3.53,8.04,7.61ZM295,248.83c0,6.35-6.96,9.46-20.87,9.32l-10.81-.11v.9c.03.14.07.34.11.59l.21,5.96c.14,3.44.64,5.8,1.49,7.08l1.33.53h5.59l1.17.85-1.17.85-1.76.11c-5.47,0-11.53-.43-18.2-1.28l-1.22-.85.21-.48,1.49-.27c.18,0,1.74.21,4.68.64l1.17-.37c.39-.78.59-4.63.59-11.55v-19.06c0-1.49-.2-2.56-.59-3.19l-1.17-.37c-2.45.36-4.28.53-5.48.53l-.9-.75,1.12-.96c.92-.21,2.54-.37,4.84-.48l17.14-.75c.82-.03,1.37-.05,1.65-.05,4.65,0,8.84,1.01,12.56,3.03,4.54,2.48,6.81,5.86,6.81,10.11ZM289.83,248.4c0-4.72-2.57-8.02-7.72-9.9-1.56-.57-3.34-.85-5.32-.85h-2.82c.35,0-2.06.11-7.24.32-.85.04-1.51.05-1.97.05-.78.78-1.17,5.22-1.17,13.31v3.89c0,.89,1.83,1.33,5.48,1.33,6.67,0,11.37-.35,14.11-1.06,4.44-1.14,6.65-3.49,6.65-7.08ZM342.37,272.41c-.82.92-2.75,1.38-5.8,1.38-2.7,0-4.61-.75-5.75-2.24-.46-.6-.96-2.13-1.49-4.58l-1.44-6.49c-1.6-3.09-5.15-4.63-10.65-4.63-4.22,0-7.1.12-8.62.37l-.27,1.12c0,5.5.28,11.02.85,16.55-1.14.35-2.5.53-4.1.53-5,0-8.16-.55-9.48-1.65l1.01-.75c.78.07,2.56.27,5.32.59l1.17-.37.05-3.14c.28-10.47.43-19.8.43-28,0-1.06-.16-1.92-.48-2.56l-1.17-.37-5.43.53-.9-.8c.78-.92,2.75-1.38,5.91-1.38h.85c.39,0,1.72-.05,3.99-.16l11.18-.53c1.53-.07,2.84-.11,3.94-.11,4.51,0,8.46.82,11.87,2.45,4.4,2.13,6.6,5.22,6.6,9.26,0,2.48-1.53,4.51-4.58,6.07-2.41,1.28-5.02,1.97-7.83,2.08h.27c1.92,1.06,3.12,1.88,3.62,2.45h-.05c.64.85,1.15,2.52,1.54,5,.46,2.84.85,4.63,1.17,5.38,1.03,2.31,2.73,3.42,5.11,3.35l2.24-.05.9.69ZM334.71,247.34c0-4.05-1.88-6.81-5.64-8.3-2.38-.92-6.01-1.38-10.91-1.38-4.51,0-7.33.25-8.46.75-.89.39-1.33,5.64-1.33,15.76h15.65c2.38,0,4.63-.53,6.76-1.6,2.63-1.31,3.94-3.05,3.94-5.22ZM367.55,272.78c-.89,1.21-2.96,1.81-6.23,1.81h-8.73c-3.41,0-5.47-.6-6.17-1.81l.43-.48.64-.11c.6,0,1.47.13,2.61.4,1.14.27,1.97.4,2.5.4l1.22-.43c.71-1.17,1.06-5.09,1.06-11.76v-1.6c0-.5-.02-1.17-.05-2.02-.07-1.06-.11-1.74-.11-2.02l-.16-5.27c-.07-2.16-.16-4.13-.27-5.91-.18-3.51-.37-5.43-.59-5.75l-1.22-.43c-1.95.36-3.64.6-5.06.75l-.59-.16-.43-.48c.71-1.17,2.77-1.77,6.17-1.81l-.11.05c-.18,0,.43-.02,1.81-.05,1.24-.03,2.71-.03,4.42,0l2.61.05-.11-.05c3.48.07,5.59.67,6.33,1.81l-.32.48-.69.16-5.16-.69-1.17.37c-.64,1.21-.94,5.27-.9,12.19l.11,16.13c0,3.3.27,5.31.8,6.02l1.17.43c2.24-.53,3.94-.8,5.11-.8l.64.11.43.48ZM425.04,237.97l-.27.53-1.6.21c-.53,0-2.08-.16-4.63-.48l-1.28.37-.32.96c0,.43.04,1.17.11,2.24l.16,3.19c.04.39.12,1.62.27,3.67l.37,6.81c.07.92.11,1.69.11,2.29,0,11.28-1.76,16.93-5.27,16.93l-2.24-.53-17.46-21.29c-4.44-5.39-7.45-9.23-9.05-11.5-.6,6.39-.9,13.66-.9,21.82,0,6.78,1.84,10.08,5.54,9.9l1.17-.05,1.17.9-1.17.8-1.65.11c-5.54,0-10.52-.44-14.96-1.33-1.28-.25-2.06-.5-2.34-.75l.43-.64,2.24-.11c.6-.03,1.84.14,3.73.53l1.17-.48c.28-.89.43-1.69.43-2.4v-28.96c0-.39-.14-1.08-.43-2.08l-1.01-.43-4.79.53-1.49-.27-.27-.53c1.21-1.17,4.7-1.76,10.49-1.76,1.49,0,2.82.21,3.99.64,6.39,6.21,13.01,14.04,19.86,23.47l6.76,9.26c.6-5.22.9-11.25.9-18.1,0-8.02-.99-12.47-2.98-13.36-.28-.14-.9-.28-1.86-.43l-1.92-.27-.37-.59.32-.59,2.55-.48c.35,0,.5.02.43.05-.11.04-.25.07-.43.11v.05l.43.11h-.05c.99.11,2.09.18,3.3.21l3.83.16c1.74.07,4.31.25,7.72.53l1.28.96ZM470.92,257.08c0,4.12-.46,7.77-1.38,10.97-1.1,3.69-2.29,5.64-3.57,5.86l-1.7-.27-.59-1.12.21-.9c-3.44,2.77-8.11,4.15-14,4.15-7.28,0-13.34-2.29-18.2-6.87-4.33-4.08-6.49-8.55-6.49-13.41,0-4.15,1.61-8.04,4.84-11.66,2.84-3.16,6.39-5.55,10.65-7.19,3.02-1.17,6.28-1.76,9.79-1.76,5.75,0,10.4,1.67,13.95,5l1.28-.96.75-2.02,1.65-.43,1.65.37c-1.31,2.31-1.97,4.79-1.97,7.45s.59,4.92,1.76,6.87l-.85,1.22-1.92.43-1.81-.32c-.78-.85-1.42-2.79-1.92-5.8-.57-3.3-1.62-5.66-3.14-7.08-2.06-1.88-5.43-2.82-10.11-2.82-6.17,0-11.11,2.27-14.8,6.81-2.98,3.69-4.47,7.72-4.47,12.08s1.49,8.22,4.47,11.76c3.65,4.33,8.57,6.49,14.74,6.49,7.49,0,12.28-2.91,14.37-8.73.67-1.84,1.01-3.89,1.01-6.12,0-.82-3.02-1.22-9.05-1.22-1.63,0-3.46.94-5.48,2.82-.78,0-1.42-.33-1.92-.98-.5-.66-.75-1.37-.75-2.16,0-.96,1.51-1.44,4.52-1.44.21,0,3.3.2,9.26.59,1.06.07,1.84.11,2.34.11.64,0,1.59-.12,2.85-.37,1.26-.25,2.21-.37,2.85-.37.78,0,1.17.34,1.17,1.01ZM530.8,262.33c0,7-6.19,10.51-18.56,10.51h-23.35c-2.98,0-4.49-1.28-4.49-3.91s1.52-3.79,4.49-3.79h23.35c5.78,0,8.7-1.23,8.7-3.62v-2.39c0-2.22-2.51-3.27-7.53-3.27h-11.97c-11.15,0-16.75-3.15-16.75-9.4v-3.79c0-6.83,5.72-10.22,17.1-10.22h5.49c2.92,0,4.38,1.28,4.38,3.85s-1.46,3.85-4.38,3.85h-5.43c-4.85,0-7.24,1.05-7.24,3.04v2.39c0,1.81,2.22,2.74,6.65,2.74h11.15c12.26,0,18.39,3.44,18.39,10.22v3.79ZM553.39,272.84c-11.91,0-17.86-3.79-17.86-11.38v-17.8c0-7.47,5.84-11.21,17.57-11.21h13.6c11.67,0,17.51,3.74,17.51,11.21v17.8c0,7.59-5.95,11.38-17.8,11.38h-13.02ZM574.35,243.89c0-2.45-2.57-3.74-7.82-3.74h-13.25c-5.25,0-7.88,1.28-7.88,3.74v17.22c0,2.69,2.63,4.03,7.88,4.03h13.25c5.25,0,7.82-1.34,7.82-4.03v-17.22ZM608.44,272.84c-11.85,0-17.86-3.79-17.86-11.44v-25.22c0-2.69,1.63-4.03,4.9-4.03s4.96,1.34,4.96,4.03v24.87c0,2.69,2.86,4.09,8.64,4.09h23.52c2.92,0,4.44,1.23,4.44,3.79s-1.52,3.91-4.44,3.91h-24.17ZM681.23,263.21h-27.14l-4.73,7.12c-1.23,1.87-2.8,2.8-4.79,2.8-3.39,0-5.25-1.34-5.25-3.91,0-1.05.35-1.87,1.4-3.39l21.66-31.11c1.17-1.69,2.98-2.57,5.2-2.57s3.91.88,5.08,2.57l21.72,31.11c1.05,1.52,1.4,2.33,1.4,3.39,0,2.57-1.75,3.91-5.2,3.91-1.81,0-3.39-.93-4.61-2.8l-4.73-7.12ZM658.88,256.03h17.57l-8.81-13.19-8.76,13.19ZM709.49,258.07v11.03c0,2.69-1.63,4.03-4.96,4.03s-4.9-1.34-4.9-4.03v-33.57c0-2.04,1.34-3.09,3.91-3.09h27.49c12.61,0,18.97,3.56,18.97,10.8v3.68c0,6.95-6.36,10.39-18.97,10.39h-5.49l18.21,8c1.98.88,2.92,1.93,2.92,3.74,0,2.69-1.81,4.09-5.2,4.09-1.34,0-2.1-.23-3.74-1.05l-28.25-14.01ZM709.49,250.37h22.07c5.72,0,8.58-1.17,8.58-3.44v-3.33c0-2.28-2.86-3.44-8.58-3.44h-21.48c-.35,0-.58.18-.58.53v9.69ZM197.98,256.01c-.4-3-1.63-5.83-3.46-8.24-2.54-3.34-7.23-9.18-13.53-15.62,0,0-5.14-5.36-7.19-11.79,0,0-4.36,8.48-5.89,19.05-1.67-1.1-6.31-4.39-9.24-8.86,0,0-1.69,8.09-.81,17.69-2.04-.97-5.35-2.81-7.86-5.45,0,0-1.06,41.82,34.03,36.34,0,0,.01-.04.03-.12,1.9.3,3.93.49,6.11.55,0,0,.47-.93,1.01-2.53.11.04.22.07.34.11,0,0,8.11-8.9,6.46-21.14Z"/>
</svg>