<?xml version="1.0" encoding="UTF-8"?>
<svg id="Layer_1" data-name="Layer 1" xmlns="http://www.w3.org/2000/svg" viewBox="0 0 900 500">
  <defs>
    <style>
      .cls-1 {
        fill: #0c5ff2;
      }
    </style>
  </defs>
  <g id="Layer_2" data-name="Layer 2">
    <g id="Layer_1-2" data-name="Layer 1-2">
      <path class="cls-1" d="M379.44,231.25c-.43-.58-1.01-1.3-1.44-1.88l-.43-.43c-.87-1.01-1.88-2.02-2.88-2.88h0c-.43-.43-1.01-.72-1.73-.72s-1.44.29-1.88.87h0l-5.34,7.5h0c-.29.43-.43.87-.43,1.44,0,.72.29,1.3.72,1.73h0c1.3,1.15,2.31,2.45,3.17,3.89,1.44,2.45,2.45,5.19,2.74,8.08,0,.43.14,1.01.14,1.44v.29c0,10.24-8.37,18.61-18.61,18.61h0c-6.06,0-11.68-2.88-15.15-7.79l-20.92-29.43c-6.06-8.51-16.01-13.56-26.4-13.7-17.89,0-32.31,14.57-32.31,32.46,0,1.15,0,2.16.14,3.17v.14c.14,1.15.29,2.16.43,3.17v.14c1.44,6.78,4.9,12.84,10.1,17.45.43.58,1.15.87,1.88.87,1.01,0,1.73-.58,2.16-1.44h0l4.76-6.78c.29-.43.58-.87.58-1.44s-.29-1.15-.72-1.73h0c-3.75-3.61-5.91-8.65-5.77-13.85-.14-4.9,1.73-9.52,5.19-12.98,7.21-7.36,19.04-7.5,26.4-.43.87.87,1.59,1.73,2.16,2.6l21.2,29.86c10.39,14.57,30.58,17.89,45.15,7.5,14.57-10.39,17.89-30.58,7.5-45.15-.14-.14-.29-.29-.43-.58h0Z"/>
      <path class="cls-1" d="M361.12,220.86c0-1.3-1.01-2.45-2.31-2.45h-.14c-2.45-.29-4.9-.29-7.36-.14l-1.44.14c-9.09,1.01-17.31,5.91-22.65,13.41l-20.92,29.71c-3.17,4.9-8.65,7.93-14.42,8.08h-.14c-.72,0-1.3.43-1.73,1.01h0l-.14.14-5.77,8.08c-.87,1.01-.58,2.6.43,3.46.29.14.43.29.72.43h.14c3.17.29,6.35.43,9.52.29,9.09-1.01,17.45-5.91,22.79-13.41l20.77-29.43c3.32-4.47,8.37-7.36,13.99-7.79h.14c.87,0,1.73-.43,2.02-1.3l6.06-8.65c.29-.58.43-1.01.43-1.59h0Z"/>
      <path class="cls-1" d="M248.32,220.14h-7.79c-1.59,0-2.88,1.3-2.88,2.88v2.16c0,.58-.43,1.01-1.01,1.01-.29,0-.58-.14-.72-.29-5.19-4.62-11.83-7.07-18.61-7.07-18.03,0-31.59,14.14-31.59,32.74s13.27,32.31,31.59,32.31c8.51,0,16.3-3.46,20.48-9.09-.29,16.88-7.07,25.24-20.63,25.24-6.35,0-12.26-3.17-15.87-8.51-.72-1.15-2.31-1.59-3.61-1.01-1.88,1.01-4.62,2.45-6.49,3.46-.72.43-1.3,1.01-1.44,1.73s-.14,1.44.29,2.02c5.77,9.38,16.16,15.15,27.12,15,22.5,0,33.9-13.56,33.9-40.39v-49.33c0-1.59-1.15-2.74-2.74-2.88ZM218.32,270.48c-10.96,0-18.9-7.79-18.9-19.04-.29-10.24,7.79-18.9,18.03-19.18h.87c9.23,0,19.33,6.06,19.33,19.18,0,12.41-9.95,19.04-19.33,19.04Z"/>
      <path class="cls-1" d="M454.31,187.25h-7.79c-1.59,0-2.88,1.3-2.88,2.88v34.47c0,.58-.58,1.15-1.15,1.15-.29,0-.58-.14-.72-.29-4.47-4.18-11.25-6.49-18.61-6.49-18.17,0-31.3,13.7-31.3,32.46s13.41,32.46,31.45,32.46c6.78,0,13.41-2.31,18.61-6.78.43-.43,1.15-.43,1.59,0,.14.14.29.43.29.72v1.88c0,1.59,1.3,2.88,2.88,2.88h7.79c1.59,0,2.88-1.3,2.88-2.88v-89.58c-.14-1.59-1.44-2.88-3.03-2.88h0ZM443.49,251.15c0,13.27-9.95,19.33-19.18,19.33-10.67,0-18.75-8.37-18.75-19.33s7.93-18.9,18.75-18.9c9.52,0,19.18,6.49,19.18,18.9Z"/>
      <path class="cls-1" d="M473.35,187.25h7.93c1.59,0,2.88,1.3,2.88,2.88v89.58c0,1.59-1.3,2.88-2.88,2.88h-7.93c-1.59,0-2.88-1.3-2.88-2.88v-89.58c0-1.59,1.3-2.88,2.88-2.88Z"/>
      <path class="cls-1" d="M523.54,218.84c-18.46,0-31.88,13.56-31.88,32.31s13.41,32.6,31.88,32.6c12.12,0,22.21-5.34,27.55-14.57.72-1.44.29-3.17-1.01-3.89-.14,0-.29-.14-.43-.14-1.01-.29-1.88-.72-2.88-1.01-1.3-.43-2.45-.87-3.61-1.3-1.15-.58-2.6-.14-3.32.87-3.61,5.05-9.66,7.93-15.87,7.65-9.23,0-16.16-5.19-18.32-13.41-.14-.29,0-.58.14-.87.14-.29.58-.43.87-.43h45c1.59,0,2.88-1.15,2.88-2.74v-2.74c-.14-19.04-12.84-32.31-31.01-32.31h0ZM505.66,244.37c2.02-8.08,8.94-13.13,17.89-13.13s15.15,4.9,17.17,13.13c.14.58-.29,1.15-.87,1.3h-33.18c-.29,0-.72-.14-.87-.43-.14-.14-.29-.43-.14-.87h0Z"/>
      <path class="cls-1" d="M623.65,220.14h-7.79c-1.59,0-2.74,1.3-2.88,2.88v1.73c0,.43-.29.87-.58,1.01-.43.14-.87.14-1.15-.14-5.19-4.47-11.83-6.78-18.61-6.64-18.32,0-31.59,13.7-31.59,32.46s13.56,32.46,31.59,32.46c6.78,0,13.41-2.45,18.61-6.92.29-.29.72-.43,1.15-.14.43.14.58.58.58,1.01v2.02c0,1.59,1.3,2.88,2.88,2.88h7.79c1.59,0,2.88-1.3,2.88-2.88v-56.83c-.14-1.59-1.3-2.74-2.88-2.88ZM612.83,251.15c0,13.27-9.95,19.33-19.18,19.33-10.67,0-18.9-8.37-18.9-19.33-.43-10.1,7.5-18.61,17.6-18.9h1.3c9.52,0,19.18,6.49,19.18,18.9Z"/>
      <path class="cls-1" d="M669.81,218.84c-6.78-.14-13.41,2.45-18.46,6.92-.29.29-.72.43-1.15.14-.43-.14-.58-.58-.58-1.01v-2.02c0-1.59-1.3-2.88-2.88-2.88h-8.08c-1.59,0-2.88,1.3-2.88,2.88v86.11c0,1.59,1.3,2.88,2.88,2.88h7.93c1.59,0,2.88-1.3,2.88-2.88v-31.01c0-.43.29-.87.58-1.01.43-.14.87-.14,1.15.14,5.05,4.47,11.68,6.78,18.46,6.64,18.03,0,31.16-13.56,31.16-32.31s-12.98-32.6-31.01-32.6ZM687.26,251.73c0,11.11-7.65,18.9-18.75,18.9-9.38,0-18.9-6.49-18.9-18.9,0-13.41,9.81-19.47,18.9-19.47,10.96,0,18.75,8.08,18.75,19.47Z"/>
    </g>
  </g>
  <path class="cls-1" d="M714.28,215.28c0,3.58-2.84,6.48-6.42,6.48s-6.4-2.9-6.4-6.48,2.83-6.51,6.4-6.51,6.42,2.91,6.42,6.51ZM713.4,215.28c0-3.09-2.47-5.63-5.54-5.63s-5.54,2.54-5.54,5.63,2.44,5.6,5.54,5.6,5.54-2.51,5.54-5.6ZM708.71,216.22l1.6,2.34h-1.02l-1.57-2.28h-1.02v2.28h-.92v-6.46h2.44c1.43,0,2.06,1,2.06,2.06s-.46,1.86-1.54,2.08h-.01ZM706.68,212.94v2.48h1.49c.85,0,1.2-.62,1.2-1.23s-.35-1.25-1.17-1.25h-1.51Z"/>
</svg>