<svg width="346" height="56" viewBox="0 0 346 56" fill="none" xmlns="http://www.w3.org/2000/svg">
<path d="M12.5504 56H0.775391V0.5H12.5504L29.0504 41.9L45.6254 0.5H57.5504V56H45.7754V44.375C45.7754 34.625 45.9754 28.375 46.3754 25.625L34.6004 56H23.5004L11.8004 25.625C12.3004 28.675 12.5504 33.625 12.5504 40.475V56Z" fill="white"/>
<path d="M100.61 56H65.3604V0.5H100.61V11.75H77.5104V22.625H97.9854V33.275H77.5104V44.75H100.61V56Z" fill="white"/>
<path d="M118.951 56H106.801V0.5H128.251C135.001 0.5 140.201 2.075 143.851 5.225C147.551 8.325 149.401 12.75 149.401 18.5C149.401 25.65 146.326 30.8 140.176 33.95L149.926 56H136.651L128.326 36.575H118.951V56ZM118.951 11.3V25.925H128.176C130.826 25.925 132.876 25.275 134.326 23.975C135.826 22.675 136.576 20.85 136.576 18.5C136.576 16.15 135.851 14.375 134.401 13.175C133.001 11.925 130.951 11.3 128.251 11.3H118.951Z" fill="white"/>
<path d="M176.437 56H154.687V0.5H175.687C183.837 0.5 190.462 3.1 195.562 8.3C200.712 13.45 203.287 20.15 203.287 28.4C203.287 36.5 200.787 43.125 195.787 48.275C190.787 53.425 184.337 56 176.437 56ZM174.487 11.75H166.837V44.75H175.237C180.037 44.75 183.762 43.325 186.412 40.475C189.112 37.575 190.462 33.55 190.462 28.4C190.462 23.15 189.062 19.075 186.262 16.175C183.462 13.225 179.537 11.75 174.487 11.75Z" fill="white"/>
<path d="M243.242 56H207.992V0.5H243.242V11.75H220.142V22.625H240.617V33.275H220.142V44.75H243.242V56Z" fill="white"/>
<path d="M261.583 0.5V27.05L281.608 0.5H295.933L277.783 24.2L296.083 56H282.058L269.833 34.55L261.583 45.35V56H249.433V0.5H261.583Z" fill="white"/>
<path d="M306.431 56H293.756L313.556 0.5H325.406L345.131 56H332.231L328.331 44.3H310.406L306.431 56ZM317.906 22.25L313.931 34.1H324.881L320.906 22.25C320.056 19.65 319.556 17.85 319.406 16.85C319.206 18.15 318.706 19.95 317.906 22.25Z" fill="white"/>
</svg>
