<?xml version="1.0" encoding="UTF-8"?>
<svg id="Layer_1" data-name="Layer 1" xmlns="http://www.w3.org/2000/svg" viewBox="0 0 900 500">
  <defs>
    <style>
      .cls-1 {
        fill: #0058f5;
      }
    </style>
  </defs>
  <path class="cls-1" d="M305.27,267.01v-76.22h33.75c15.38,0,25.02,9.64,25.02,24.45s-9.64,24.11-25.02,24.11h-15.96v27.66h-17.79ZM337.07,225.12c7.58,0,11.36-4.02,11.36-9.99,0-5.62-3.79-9.64-11.36-9.64h-14v19.63h14ZM364.85,238.78c0-17.91,11.25-29.73,29.39-29.73s29.04,11.71,29.04,29.73-11.25,29.73-29.04,29.73-29.39-12.17-29.39-29.73ZM406.52,238.78c0-10.79-4.02-15.61-12.28-15.61s-12.28,4.82-12.28,15.61,4.02,15.84,12.28,15.84,12.28-5.05,12.28-15.84ZM460.47,227.64c-.46-4.59-2.75-7.35-9.18-7.35-5.51,0-8.15,2.07-8.15,4.71,0,2.98,3.21,4.36,7.92,5.62,5.4,1.38,12.05,2.64,17.68,5.28,5.28,2.53,8.95,6.31,8.95,14.12,0,11.02-7.35,18.48-24.79,18.48s-27.32-7.69-27.66-19.63h16.99c0,4.48,3.79,7.69,10.79,7.69,4.71,0,8.49-1.49,8.49-5.28,0-2.98-2.41-4.02-7.46-5.28-9.76-2.41-12.86-3.33-16.64-5.17-7.58-3.79-10.1-9.18-10.1-15.04,0-9.18,6.31-16.76,24.34-16.76,16.53,0,23.65,6.43,24.45,18.6h-15.61ZM480.9,267.01v-56.48h16.64v56.48h-16.64ZM497.55,195.14c0,4.51-3.66,8.17-8.17,8.17s-8.17-3.66-8.17-8.17,3.66-8.17,8.17-8.17,8.17,3.66,8.17,8.17ZM558.73,267.01l-.69-5.97c-3.67,5.28-11.82,8.61-21.58,8.61-21.01,0-34.78-17.91-34.78-40.87s12.28-40.52,38-40.52c19.06,0,32.49,10.79,33.63,26.06h-17.68c-.8-6.43-7-11.36-15.96-11.36-11.71,0-19.86,8.95-19.86,26.63,0,13.89,7,25.14,19.86,25.14,8.84,0,17.1-6.54,17.1-14.92h-15.5v-14.23h32.14v41.44h-14.69ZM593.16,243.02c.46,7.12,4.82,12.28,11.13,12.28,4.13,0,7.92-1.95,8.72-4.94h17.1c-3.44,11.59-12.86,18.14-25.02,18.14-19.06,0-28.58-10.33-28.58-30.76,0-17.45,10.1-28.7,27.55-28.7s26.75,10.68,26.75,31.57v2.41h-37.65ZM614.17,233.04c-.46-7.46-4.59-10.79-10.33-10.79s-9.76,3.67-10.33,10.79h20.66ZM669.84,267.01v-35.01c0-7.12-2.64-9.41-8.61-9.41-6.54,0-9.87,3.33-9.87,10.33v34.09h-16.64v-56.48h15.84v7.12c3.21-5.74,8.72-8.61,16.99-8.61,11.02,0,19.06,7,19.06,18.02v39.95h-16.76ZM693.5,221.54c-3.88,0-7-3.11-7-7s3.11-7.03,7-7.03,7.03,3.15,7.03,7.03-3.15,7-7.03,7ZM693.5,208.71c-3.22,0-5.86,2.6-5.86,5.82s2.64,5.82,5.86,5.82,5.82-2.6,5.82-5.82-2.6-5.82-5.82-5.82ZM694.79,217.4v-1.65c0-.62-.22-.84-.95-.84h-1.28v2.49h-1.43v-6.37h3.26c1.21,0,1.94.73,1.94,1.83,0,.81-.37,1.25-.88,1.47.51.22.73.51.73,1.25v1.83h-1.39ZM692.55,212.19v1.58h1.61c.62,0,.88-.29.88-.77,0-.51-.26-.81-.84-.81h-1.65ZM203.22,304.57c1.1,0,1.99-.12,2.68-.36,1.3-.46,1.95-1.33,1.95-2.59,0-.74-.32-1.31-.97-1.71-.65-.39-1.66-.74-3.04-1.04l-2.36-.53c-2.32-.52-3.93-1.1-4.82-1.71-1.5-1.03-2.26-2.64-2.26-4.83,0-2,.73-3.66,2.18-4.98,1.45-1.32,3.59-1.98,6.41-1.98,2.35,0,4.36.62,6.02,1.87,1.66,1.25,2.53,3.06,2.61,5.43h-4.48c-.08-1.34-.67-2.3-1.76-2.86-.73-.37-1.63-.56-2.71-.56-1.2,0-2.16.24-2.88.73-.72.48-1.08,1.16-1.08,2.03,0,.8.35,1.39,1.06,1.79.45.26,1.42.57,2.91.92l3.85.92c1.69.4,2.96.94,3.82,1.62,1.33,1.05,2,2.57,2,4.56s-.78,3.73-2.34,5.08c-1.56,1.35-3.76,2.02-6.61,2.02s-5.19-.66-6.86-1.99c-1.67-1.33-2.5-3.15-2.5-5.47h4.45c.14,1.02.42,1.78.83,2.29.76.92,2.05,1.38,3.89,1.38ZM228.91,293.38c1.39,1.75,2.09,3.81,2.09,6.19s-.7,4.5-2.09,6.22c-1.39,1.72-3.51,2.58-6.35,2.58s-4.95-.86-6.35-2.58c-1.39-1.72-2.09-3.79-2.09-6.22s.7-4.45,2.09-6.19c1.39-1.75,3.51-2.62,6.35-2.62s4.95.87,6.35,2.62ZM222.55,294.41c-1.26,0-2.23.45-2.92,1.34-.68.89-1.02,2.17-1.02,3.82s.34,2.93,1.02,3.83c.68.9,1.65,1.35,2.92,1.35s2.23-.45,2.91-1.35c.68-.9,1.01-2.18,1.01-3.83s-.34-2.93-1.01-3.82c-.68-.89-1.65-1.34-2.91-1.34ZM233.87,285.47h4.32v22.32h-4.32v-22.32ZM242.7,293.08c1.14-1.45,3.1-2.18,5.88-2.18,1.81,0,3.41.36,4.82,1.08,1.4.72,2.11,2.07,2.11,4.06v7.57c0,.53,0,1.16.03,1.91.03.57.12.95.26,1.15.14.2.35.37.64.5v.64h-4.69c-.13-.33-.22-.65-.27-.94-.05-.29-.09-.63-.12-1-.6.65-1.28,1.2-2.06,1.65-.93.54-1.98.8-3.15.8-1.49,0-2.73-.43-3.7-1.28-.97-.85-1.46-2.06-1.46-3.63,0-2.03.78-3.5,2.35-4.41.86-.49,2.12-.85,3.79-1.06l1.47-.18c.8-.1,1.37-.23,1.71-.38.62-.26.92-.67.92-1.23,0-.68-.23-1.14-.7-1.4s-1.16-.39-2.07-.39c-1.02,0-1.74.25-2.17.76-.3.37-.5.88-.61,1.51h-4.16c.09-1.44.49-2.63,1.21-3.56ZM245.91,304.68c.4.33.9.5,1.48.5.93,0,1.78-.27,2.57-.82.78-.55,1.19-1.54,1.22-2.98v-1.61c-.27.17-.55.31-.83.42-.28.11-.66.2-1.14.3l-.97.18c-.91.16-1.56.36-1.95.59-.67.39-1,1-1,1.83,0,.74.21,1.27.62,1.59ZM267.32,295.27c-1.74,0-2.9.57-3.5,1.7-.33.64-.5,1.62-.5,2.94v7.89h-4.35v-16.51h4.12v2.88c.67-1.1,1.25-1.85,1.74-2.26.81-.68,1.86-1.01,3.15-1.01.08,0,.15,0,.2,0,.06,0,.18.01.37.02v4.42c-.27-.03-.51-.05-.73-.06-.21-.01-.38-.02-.51-.02ZM294.97,298.04h-10.84v5.74h12.36v4.01h-16.92v-22.32h16.37v3.95h-11.81v4.74h10.84v3.88ZM307.23,294.49c-1.46,0-2.47.62-3.01,1.86-.28.66-.42,1.49-.42,2.51v8.93h-4.3v-16.48h4.16v2.41c.56-.85,1.08-1.46,1.57-1.83.89-.67,2.01-1,3.38-1,1.71,0,3.1.45,4.19,1.34,1.09.89,1.63,2.38,1.63,4.44v11.12h-4.42v-10.04c0-.87-.12-1.53-.35-2-.42-.85-1.23-1.27-2.42-1.27ZM332.23,302.95c-.11.98-.62,1.97-1.53,2.98-1.41,1.61-3.39,2.41-5.94,2.41-2.1,0-3.95-.68-5.56-2.03-1.61-1.35-2.41-3.55-2.41-6.6,0-2.86.72-5.05,2.17-6.57,1.45-1.52,3.33-2.29,5.64-2.29,1.37,0,2.61.26,3.71.77,1.1.51,2.01,1.33,2.73,2.44.65.98,1.07,2.12,1.26,3.41.11.76.16,1.85.14,3.27h-11.3c.06,1.66.58,2.82,1.56,3.48.6.41,1.31.62,2.15.62.89,0,1.61-.25,2.17-.76.3-.27.57-.65.8-1.14h4.41ZM327.96,297.89c-.07-1.14-.42-2.01-1.04-2.6-.62-.59-1.39-.89-2.31-.89-1,0-1.77.31-2.32.94-.55.63-.9,1.47-1.04,2.54h6.71ZM343.34,295.27c-1.74,0-2.9.57-3.5,1.7-.33.64-.5,1.62-.5,2.94v7.89h-4.35v-16.51h4.12v2.88c.67-1.1,1.25-1.85,1.74-2.26.81-.68,1.86-1.01,3.15-1.01.08,0,.15,0,.2,0,.06,0,.18.01.37.02v4.42c-.27-.03-.51-.05-.73-.06-.21-.01-.38-.02-.51-.02ZM351.46,310.69c.46.39,1.25.59,2.35.59,1.55,0,2.59-.52,3.12-1.56.34-.67.51-1.79.51-3.36v-1.06c-.41.71-.86,1.24-1.33,1.59-.86.66-1.97.98-3.35.98-2.12,0-3.81-.74-5.08-2.23-1.27-1.49-1.9-3.51-1.9-6.05s.61-4.52,1.83-6.19c1.22-1.67,2.95-2.51,5.19-2.51.83,0,1.55.13,2.17.38,1.05.43,1.9,1.23,2.54,2.39v-2.38h4.19v15.66c0,2.13-.36,3.74-1.08,4.82-1.23,1.86-3.59,2.79-7.09,2.79-2.11,0-3.83-.41-5.16-1.24-1.33-.83-2.07-2.06-2.21-3.71h4.69c.12.5.32.87.59,1.09ZM350.73,302.16c.59,1.39,1.64,2.09,3.15,2.09,1.01,0,1.86-.38,2.56-1.14.7-.76,1.04-1.98,1.04-3.64,0-1.56-.33-2.76-.99-3.57-.66-.82-1.55-1.23-2.66-1.23-1.51,0-2.56.71-3.13,2.14-.3.76-.45,1.69-.45,2.8,0,.96.16,1.81.48,2.56ZM372.14,303.47l3.41-12.18h4.59l-5.66,16.23c-1.09,3.13-1.95,5.07-2.59,5.82-.64.75-1.91,1.13-3.82,1.13-.38,0-.69,0-.92,0-.23,0-.58-.02-1.04-.05v-3.45l.55.03c.42.02.83,0,1.21-.05.38-.05.71-.17.97-.35.25-.17.49-.53.7-1.08.22-.55.31-.88.27-1l-6.06-17.23h4.8l3.6,12.18ZM391.3,293.08c1.14-1.45,3.1-2.18,5.88-2.18,1.81,0,3.41.36,4.82,1.08,1.4.72,2.1,2.07,2.1,4.06v7.57c0,.53,0,1.16.03,1.91.03.57.12.95.26,1.15s.35.37.64.5v.64h-4.69c-.13-.33-.22-.65-.27-.94-.05-.29-.09-.63-.12-1-.6.65-1.28,1.2-2.06,1.65-.93.54-1.98.8-3.15.8-1.49,0-2.73-.43-3.7-1.28-.97-.85-1.46-2.06-1.46-3.63,0-2.03.78-3.5,2.35-4.41.86-.49,2.12-.85,3.79-1.06l1.47-.18c.8-.1,1.37-.23,1.71-.38.62-.26.92-.67.92-1.23,0-.68-.23-1.14-.7-1.4-.47-.26-1.16-.39-2.07-.39-1.02,0-1.74.25-2.17.76-.3.37-.5.88-.61,1.51h-4.16c.09-1.44.49-2.63,1.21-3.56ZM394.51,304.68c.4.33.9.5,1.48.5.93,0,1.78-.27,2.57-.82.78-.55,1.19-1.54,1.22-2.98v-1.61c-.27.17-.55.31-.83.42-.28.11-.66.2-1.14.3l-.97.18c-.91.16-1.56.36-1.95.59-.67.39-1,1-1,1.83,0,.74.21,1.27.62,1.59ZM415.38,294.49c-1.46,0-2.47.62-3.01,1.86-.28.66-.42,1.49-.42,2.51v8.93h-4.3v-16.48h4.16v2.41c.56-.85,1.08-1.46,1.58-1.83.89-.67,2.01-1,3.38-1,1.71,0,3.1.45,4.19,1.34,1.09.89,1.63,2.38,1.63,4.44v11.12h-4.42v-10.04c0-.87-.12-1.53-.35-2-.42-.85-1.23-1.27-2.42-1.27ZM441.27,285.5v22.29h-4.19v-2.29c-.62.98-1.32,1.69-2.1,2.14-.79.44-1.77.67-2.94.67-1.93,0-3.55-.78-4.87-2.34-1.32-1.56-1.98-3.56-1.98-6,0-2.82.65-5.03,1.95-6.65,1.3-1.62,3.03-2.42,5.2-2.42,1,0,1.89.22,2.67.66.78.44,1.41,1.05,1.89,1.82v-7.87h4.38ZM429.64,299.65c0,1.52.3,2.74.91,3.65.6.92,1.5,1.38,2.73,1.38s2.15-.45,2.79-1.36c.64-.91.95-2.08.95-3.53,0-2.02-.51-3.46-1.53-4.33-.63-.52-1.35-.79-2.18-.79-1.26,0-2.19.48-2.78,1.43-.59.95-.89,2.14-.89,3.55ZM469.08,298.04h-10.84v5.74h12.36v4.01h-16.92v-22.32h16.37v3.95h-11.81v4.74h10.84v3.88ZM481.34,294.49c-1.46,0-2.47.62-3.01,1.86-.28.66-.42,1.49-.42,2.51v8.93h-4.3v-16.48h4.16v2.41c.56-.85,1.08-1.46,1.58-1.83.89-.67,2.01-1,3.38-1,1.71,0,3.1.45,4.19,1.34,1.09.89,1.63,2.38,1.63,4.44v11.12h-4.42v-10.04c0-.87-.12-1.53-.35-2-.42-.85-1.23-1.27-2.42-1.27ZM506.33,302.95c-.11.98-.62,1.97-1.53,2.98-1.41,1.61-3.39,2.41-5.94,2.41-2.1,0-3.95-.68-5.56-2.03-1.61-1.35-2.41-3.55-2.41-6.6,0-2.86.72-5.05,2.17-6.57,1.45-1.52,3.33-2.29,5.64-2.29,1.37,0,2.61.26,3.71.77,1.1.51,2.01,1.33,2.73,2.44.65.98,1.07,2.12,1.26,3.41.11.76.16,1.85.14,3.27h-11.3c.06,1.66.58,2.82,1.56,3.48.6.41,1.31.62,2.15.62.89,0,1.61-.25,2.17-.76.3-.27.57-.65.8-1.14h4.41ZM502.06,297.89c-.07-1.14-.42-2.01-1.04-2.6-.62-.59-1.39-.89-2.31-.89-1,0-1.77.31-2.32.94-.55.63-.9,1.47-1.04,2.54h6.71ZM517.44,295.27c-1.74,0-2.9.57-3.5,1.7-.33.64-.5,1.62-.5,2.94v7.89h-4.35v-16.51h4.12v2.88c.67-1.1,1.25-1.85,1.74-2.26.81-.68,1.86-1.01,3.15-1.01.08,0,.15,0,.2,0,.06,0,.18.01.37.02v4.42c-.27-.03-.52-.05-.73-.06-.21-.01-.38-.02-.51-.02ZM525.57,310.69c.46.39,1.25.59,2.35.59,1.55,0,2.59-.52,3.12-1.56.34-.67.52-1.79.52-3.36v-1.06c-.41.71-.86,1.24-1.33,1.59-.86.66-1.97.98-3.35.98-2.12,0-3.81-.74-5.08-2.23-1.27-1.49-1.9-3.51-1.9-6.05s.61-4.52,1.83-6.19c1.22-1.67,2.95-2.51,5.19-2.51.83,0,1.55.13,2.17.38,1.05.43,1.9,1.23,2.54,2.39v-2.38h4.19v15.66c0,2.13-.36,3.74-1.08,4.82-1.23,1.86-3.59,2.79-7.09,2.79-2.11,0-3.83-.41-5.16-1.24-1.33-.83-2.07-2.06-2.21-3.71h4.69c.12.5.32.87.59,1.09ZM524.84,302.16c.59,1.39,1.64,2.09,3.15,2.09,1.01,0,1.86-.38,2.56-1.14.7-.76,1.04-1.98,1.04-3.64,0-1.56-.33-2.76-.99-3.57-.66-.82-1.55-1.23-2.66-1.23-1.51,0-2.56.71-3.13,2.14-.3.76-.45,1.69-.45,2.8,0,.96.16,1.81.48,2.56ZM546.24,303.47l3.41-12.18h4.59l-5.66,16.23c-1.09,3.13-1.95,5.07-2.59,5.82-.64.75-1.91,1.13-3.82,1.13-.38,0-.69,0-.92,0-.23,0-.58-.02-1.04-.05v-3.45l.55.03c.42.02.83,0,1.21-.05.38-.05.71-.17.97-.35.25-.17.49-.53.7-1.08.22-.55.31-.88.27-1l-6.06-17.23h4.8l3.6,12.18ZM580.67,298.04h-10.84v5.74h12.36v4.01h-16.92v-22.32h16.37v3.95h-11.81v4.74h10.84v3.88ZM592.9,285.34v3.51c-.24-.03-.65-.05-1.22-.07-.57-.02-.96.11-1.18.38-.22.27-.33.56-.33.89v1.39h2.83v3.04h-2.83v13.31h-4.3v-13.31h-2.41v-3.04h2.36v-1.06c0-1.77.3-2.98.89-3.65.63-.99,2.14-1.48,4.53-1.48.27,0,.52,0,.74.02.22.02.52.04.91.07ZM602.91,285.34v3.51c-.24-.03-.65-.05-1.22-.07-.57-.02-.96.11-1.18.38-.22.27-.33.56-.33.89v1.39h2.83v3.04h-2.83v13.31h-4.3v-13.31h-2.41v-3.04h2.36v-1.06c0-1.77.3-2.98.89-3.65.63-.99,2.14-1.48,4.53-1.48.27,0,.52,0,.74.02.22.02.52.04.91.07ZM609.63,285.34v3.98h-4.38v-3.98h4.38ZM609.63,291.29v16.51h-4.38v-16.51h4.38ZM627.78,297.21h-4.42c-.08-.62-.29-1.17-.62-1.67-.48-.67-1.24-1-2.26-1-1.45,0-2.45.72-2.98,2.17-.28.77-.42,1.79-.42,3.06s.14,2.19.42,2.92c.51,1.37,1.48,2.06,2.91,2.06,1.01,0,1.73-.27,2.15-.82s.68-1.25.77-2.12h4.41c-.1,1.31-.58,2.55-1.42,3.73-1.35,1.89-3.36,2.83-6.01,2.83s-4.61-.79-5.86-2.36c-1.25-1.58-1.88-3.62-1.88-6.13,0-2.84.69-5.04,2.07-6.62,1.38-1.58,3.29-2.36,5.72-2.36,2.07,0,3.76.46,5.08,1.39,1.32.93,2.1,2.57,2.34,4.92ZM634.88,285.34v3.98h-4.38v-3.98h4.38ZM634.88,291.29v16.51h-4.38v-16.51h4.38ZM652.87,302.95c-.11.98-.62,1.97-1.53,2.98-1.41,1.61-3.39,2.41-5.94,2.41-2.1,0-3.95-.68-5.56-2.03-1.61-1.35-2.41-3.55-2.41-6.6,0-2.86.72-5.05,2.17-6.57,1.45-1.52,3.33-2.29,5.64-2.29,1.37,0,2.61.26,3.71.77,1.1.51,2.01,1.33,2.73,2.44.65.98,1.07,2.12,1.26,3.41.11.76.16,1.85.14,3.27h-11.3c.06,1.66.58,2.82,1.56,3.48.6.41,1.31.62,2.15.62.89,0,1.61-.25,2.17-.76.3-.27.57-.65.8-1.14h4.41ZM648.6,297.89c-.07-1.14-.42-2.01-1.04-2.6-.62-.59-1.39-.89-2.31-.89-1,0-1.77.31-2.32.94-.55.63-.9,1.47-1.04,2.54h6.71ZM663.45,294.49c-1.46,0-2.47.62-3.01,1.86-.28.66-.42,1.49-.42,2.51v8.93h-4.3v-16.48h4.16v2.41c.56-.85,1.08-1.46,1.58-1.83.89-.67,2.01-1,3.38-1,1.71,0,3.1.45,4.19,1.34,1.09.89,1.63,2.38,1.63,4.44v11.12h-4.42v-10.04c0-.87-.12-1.53-.35-2-.42-.85-1.23-1.27-2.42-1.27ZM688.6,297.21h-4.42c-.08-.62-.29-1.17-.62-1.67-.48-.67-1.24-1-2.26-1-1.45,0-2.45.72-2.98,2.17-.28.77-.42,1.79-.42,3.06s.14,2.19.42,2.92c.51,1.37,1.48,2.06,2.91,2.06,1.01,0,1.73-.27,2.15-.82s.68-1.25.77-2.12h4.41c-.1,1.31-.58,2.55-1.42,3.73-1.35,1.89-3.36,2.83-6.01,2.83s-4.61-.79-5.86-2.36c-1.25-1.58-1.88-3.62-1.88-6.13,0-2.84.69-5.04,2.07-6.62,1.38-1.58,3.29-2.36,5.72-2.36,2.07,0,3.76.46,5.08,1.39,1.32.93,2.1,2.57,2.34,4.92ZM697.97,303.47l3.41-12.18h4.59l-5.66,16.23c-1.09,3.13-1.95,5.07-2.59,5.82-.64.75-1.91,1.13-3.82,1.13-.38,0-.69,0-.92,0-.23,0-.58-.02-1.04-.05v-3.45l.55.03c.42.02.83,0,1.21-.05.38-.05.71-.17.97-.35.25-.17.49-.53.7-1.08.22-.55.31-.88.27-1l-6.06-17.23h4.8l3.6,12.18ZM228.08,185.45h-13.94c-.99,0-1.8.81-1.8,1.8v13.93c0,.99-.81,1.8-1.8,1.8h-13.94c-.99,0-1.8.81-1.8,1.8v13.94c0,.99.81,1.8,1.8,1.8h31.47c.99,0,1.8-.81,1.8-1.8v-31.47c0-.99-.81-1.8-1.8-1.8ZM246.11,271.43h13.94c.99,0,1.8-.81,1.8-1.8v-13.93c0-.99.81-1.8,1.8-1.8h13.94c.99,0,1.8-.81,1.8-1.8v-13.94c0-.99-.81-1.8-1.8-1.8h-31.47c-.99,0-1.8.81-1.8,1.8v31.47c0,.99.81,1.8,1.8,1.8ZM229.88,269.63v-31.47c0-.99-.81-1.8-1.8-1.8h-31.47c-.99,0-1.8.81-1.8,1.8v13.94c0,.99.81,1.8,1.8,1.8h13.94c.99,0,1.8.81,1.8,1.8v13.93c0,.99.81,1.8,1.8,1.8h13.94c.99,0,1.8-.81,1.8-1.8ZM244.31,187.25v31.47c0,.99.81,1.8,1.8,1.8h31.47c.99,0,1.8-.81,1.8-1.8v-13.94c0-.99-.81-1.8-1.8-1.8h-13.94c-.99,0-1.8-.81-1.8-1.8v-13.93c0-.99-.81-1.8-1.8-1.8h-13.94c-.99,0-1.8.81-1.8,1.8Z"/>
</svg>