<?xml version="1.0" encoding="UTF-8"?>
<svg id="Layer_1" data-name="Layer 1" xmlns="http://www.w3.org/2000/svg" viewBox="0 0 900 500">
  <defs>
    <style>
      .cls-1 {
        fill: #0c5ff2;
      }
    </style>
  </defs>
  <g id="Iib9m0">
    <g>
      <path class="cls-1" d="M701.59,213c-.51.82-1.09,1.6-1.52,2.46-4.08,8.22-1.83,6.56-10.9,6.2-4.57-.18-9.1-.62-13.66.22-9.02,1.67-16.35,9.02-17.77,17.99-.66,4.18,1.38,6.83,5.85,7.25,6.07.58,12.04-.51,18.01-1.45,1.59-.25,3.16-.86,4.99-.07-.6,2.71-2.2,4.99-3.25,7.5-.57,1.36-1.6,1.94-2.99,2.19-8.36,1.53-16.74,2.87-25.29,2.26-9.86-.7-13.83-6.49-11.09-16.11,5.65-19.85,20.77-30.77,42.48-30.55,5.06.05,10.12.28,15.13,1.13v.98Z"/>
      <path class="cls-1" d="M418.88,286.62c-3.2-1.63-3.14-4.16-2.03-7.06,2.8-7.34,11.2-10.75,17.97-6.99-2.01,1.52-4.2.66-6.16.78-4.17.25-7.15,2.03-8.76,5.94-1.38,3.36-.37,4.97,3.34,4.92,2.2-.03,4.78.23,5.4-2.8-.24-2.02-2.92-.41-3.24-2.61,2.29-1.04,4.57-.75,6.98-.23-.72,4.66-2.8,7.66-7.61,8.05h-5.89Z"/>
      <path class="cls-1" d="M485.63,286.62c-.25-3.33,2.14-2.48,3.97-2.52,2.67-.05,5.61.75,7.32-2.3-.72-2.23-2.67-1.68-4.09-2.13-3.66-1.16-4.16-3.06-1.55-6.05,2.32-2.66,6.99-3.28,11.94-1.43-2.97,2.87-8.09-.92-10.36,3.39.76,1.81,2.4,1.61,3.74,1.98,4.03,1.11,4.55,2.99,1.9,6.21-1.35,1.64-3.4,1.82-5.02,2.85h-7.85Z"/>
      <path class="cls-1" d="M655.46,286.62c-.4-2.98,1.6-2.43,3.43-2.48,2.75-.07,5.93.86,7.7-2.28-.83-2.35-2.81-1.74-4.24-2.25-3.49-1.23-4.1-3.52-1.25-6.13,3.31-3.03,7.31-2.81,12-1.75-3.22,3.42-8.33-.51-10.56,3.76.45,1.85,2.13,1.73,3.49,1.99,1.49.28,3.08.5,3.53,2.15.53,1.95-.7,3.38-1.96,4.73-1.18,1.25-2.97,1.3-4.28,2.26h-7.85Z"/>
      <path class="cls-1" d="M609.32,286.62c-3.09-1.7-3.04-4.23-1.95-7.11,2.6-6.87,9.55-9.97,17.37-7.41-1.39,2.23-3.51,1.19-5.16,1.28-4.73.27-7.71,2.09-9.17,5.93-1.22,3.21-.35,4.46,3.15,4.73,1.91.15,3.8-.91,5.86-.02-.75,2.98-3.8,1.18-5.19,2.59h-4.91Z"/>
      <g>
        <path class="cls-1" d="M317.38,156.09c1.71.98,1.34,2.31.67,3.75-6.01,12.87-12.11,25.71-17.93,38.67-1.37,3.05-3.56,2.84-6,2.84-24.51.01-49.03.03-73.54.05-8.19,0-7.63-.54-7.65,7.77-.02,9.3,0,18.6,0,28.24-4.91.59-9.36.49-13.7.06-1.06-1.55-.79-3.07-.79-4.49-.01-13.56,0-27.13.04-40.69.02-4.98.07-5.04,5.36-5.04,26.64-.02,53.28-.11,79.92.1,4.29.03,6.7-1.24,8-5.27,1.09-3.36,3.5-6.23,4.22-10.91-32.5-.28-64.71.08-97.25-.13-.47-5.24-.27-10.09-.13-14.95h118.78Z"/>
        <path class="cls-1" d="M288.95,223.53c-3.05,6.48-5.96,12.66-8.86,18.84-3.2,6.8-6.54,13.54-9.53,20.43-1.37,3.16-3.26,4.28-6.7,4.24-15.04-.18-30.08-.1-45.13-.07-5.44,0-5.48.05-5.49,5.38-.03,14.39-.01,28.78,0,43.17,0,1.27-.29,2.62.95,4.13,5.42-2.28,10.63-5.25,15.89-8.1,1.95-1.06,1.71-2.99,1.72-4.77.02-7.19,0-14.39.05-21.58.01-1.78-.29-3.6.54-5.53,3.74-1.01,7.66-.34,11.54-.43,1.86-.04,2.57.99,2.57,2.78-.02,11.77-.02,23.54.01,35.32,0,1.68-.67,2.75-2.13,3.51-14.8,7.66-29.59,15.35-44.39,23.01-.25.13-.62.02-1.19.02v-90.82c2.16-1.19,4.16-.76,6.07-.76,16.35-.03,32.7-.16,49.05.12,4.15.07,6.43-1.29,7.67-5.05,1.06-3.23,3.33-5.98,3.99-9.38-1.53-1.7-3.45-1.06-5.15-1.08-8.01-.07-16.03-.15-24.03.04-3.35.08-4.68-.97-4.53-4.45.23-5.22.14-10.46.02-15.69-.06-2.7.91-3.9,3.7-3.74,3.4.2,6.83-.25,10.1.33,1.27,1.62.9,3.34.79,4.89-.25,3.51,1.33,4.47,4.64,4.42,11.12-.15,22.24-.07,33.35-.06,1.3,0,2.63-.11,4.49.89Z"/>
      </g>
      <path class="cls-1" d="M572.12,256.3c-4.84,1.09-9.22.52-13.56.52-1.62,0-2.1-1.25-2.49-2.57-.88-2.97-1.91-5.91-2.71-8.9-.55-2.05-1.15-3.86-3.78-3.47-2.68.39-6.03-1.44-7.68,2.42-1.34,3.15-3,6.17-4.25,9.35-1,2.53-2.61,3.45-5.26,3.28-2.71-.17-5.44-.04-9.04-.04,1.57-3.4,2.76-6.01,3.98-8.61,5.1-10.94,10.27-21.85,15.27-32.85,1.16-2.54,2.53-3.71,5.5-3.63,8.16.23,16.34-.16,24.5.18,13.24.56,16.29,6.87,9.15,18.16-3.4,5.38-8.5,8.34-14.62,10.4,1.65,5.21,3.21,10.15,4.99,15.75ZM547.74,232.2c5.56.39,10.57.53,15.54-.03,2.99-.33,5.55-1.76,6.98-4.71,1.58-3.27.9-5.1-2.71-5.42-4.36-.39-8.78-.21-13.17-.28-1.29-.02-2.18.55-2.7,1.7-1.26,2.77-2.51,5.56-3.95,8.74Z"/>
      <path class="cls-1" d="M418.8,211.91c.72,15.06,1.4,29.52,2.11,44.38-4.7,1.02-9.16.58-13.5.41-1.45-2.94-.18-5.91-1.73-9.18-6.93,0-14.2-.03-21.47.02-1.87.01-2.66,1.72-3.76,2.86-7.09,7.34-7.93,7.63-18.55,6.02-.18-1.73,1.28-2.49,2.21-3.45,12.11-12.38,24.35-24.62,36.31-37.13,2.87-3,5.76-4.42,9.84-3.97,2.57.28,5.2.05,8.54.05ZM405.71,223.81c-4.63,4.86-8.45,8.87-12.84,13.47,5.01.42,8.95.77,12.98-.2.48-4.21.21-8.17-.14-13.27Z"/>
      <path class="cls-1" d="M633.83,256.32c-4.9,1.05-9.24.33-13.51.51-1.42-3.08-.3-6.2-1.76-9.35-6.85,0-13.85.05-20.84-.03-2.21-.03-3.32,1.54-4.22,2.91-4.59,6.96-11.18,7.49-18.58,6.15-.38-1.82,1.21-2.53,2.12-3.47,12.53-12.87,25.18-25.63,37.64-38.57,2.21-2.3,4.6-2.63,7.45-2.62,9.8.03,9.73-.02,10.12,9.84.45,11.41,1.04,22.81,1.58,34.64ZM618.67,237.35v-10.57c-3.58,2.9-8,6.49-13.09,10.61,5.08.29,9.05.45,13.09-.05Z"/>
      <path class="cls-1" d="M424.84,257.61c.93-4.32,2.68-6.76,3.74-9.46.91-2.33,2.88-1.69,4.62-1.5,6.19.67,12.39.86,18.61.55,1.47-.07,2.93-.12,4.34-.68,1.66-.67,2.87-1.83,2.9-3.6.03-1.99-1.83-2.01-3.21-2.32-3.98-.89-8.06-1.47-11.96-2.64-6.14-1.84-7.74-5.36-5.36-11.26,3.25-8.04,9.28-12.97,17.69-14.72,8.73-1.82,17.52-1.11,26.66-.09-.35,3.45-2.08,6.01-3.4,8.7-.93,1.9-2.72,1.5-4.33,1.28-5.53-.73-11.08-.92-16.64-.67-4.23.19-4.96.73-6.88,4.24.93,1.95,2.86,1.82,4.57,2.16,3.68.73,7.44,1.22,11.03,2.3,6.01,1.8,7.67,5.45,5.36,11.35-2.99,7.65-8.51,12.63-16.42,14.92-5.42,1.57-10.97,1.55-16.54,1.43-4.7-.1-9.41-.02-14.77-.02Z"/>
      <path class="cls-1" d="M382.56,211.87c-.41,3.29-2,5.27-2.78,7.55-.82,2.42-2.49,3.08-4.89,3.04-5.23-.1-10.47,0-15.7-.01-8.45-.02-8.8.26-11.14,9.36h22.75c-.15,3.75-1.97,6.31-3.25,9.02-.87,1.85-2.72,1.51-4.33,1.51-5.89.02-11.78.09-17.67-.03-2.29-.05-3.63.72-4.49,2.86-1.16,2.88-2.71,5.59-3.88,8.47-1,2.46-2.53,3.59-5.25,3.28-2.69-.3-5.46.26-8.48-.44.95-3.5,2.51-6.33,3.87-9.24,4.91-10.51,9.87-21,14.67-31.56,1.22-2.68,2.69-3.95,5.86-3.89,11.43.2,22.87.08,34.69.08Z"/>
      <path class="cls-1" d="M485.58,256.3c5.32-11.44,10.46-22.48,15.91-34.2h-16.86c.45-3.5,2.13-5.95,3.29-8.59.52-1.19,1.44-1.64,2.72-1.64,15.03.02,30.05.01,45.35.01-.33,3.38-2.04,5.81-3.15,8.44-.71,1.67-2.22,1.69-3.73,1.69-3.44-.01-6.89.23-10.3-.08-3.55-.32-5.19,1.22-6.55,4.35-3.78,8.69-8.1,17.14-11.83,25.85-1.61,3.75-3.81,5.36-7.8,4.78-2.07-.3-4.23.24-7.05-.62Z"/>
      <path class="cls-1" d="M342,275.77c-3.16,3.02-2.82,8.09-6.44,10.27-.38-.22-.75-.44-1.13-.65,1.82-4.06,3.52-8.19,5.52-12.17,1.21-2.41,3.46-2.34,4.67.07,1.29,2.59,2.31,5.31,3.6,8.33,3.18-3.02,2.91-7.97,6.82-9.91-.76,4.77-2.99,8.88-5.03,13.02-1.03,2.09-3.13,1.68-4.33-.72-1.3-2.6-2.39-5.31-3.69-8.24Z"/>
      <path class="cls-1" d="M388.22,285.5c1.97-4.36,3.88-8.57,5.77-12.79.48-1.08,1.38-1.25,2.41-1.24,2.44.03,4.9-.11,7.32.1,3.39.3,4.13,1.93,2.56,4.97-1.04,2.02-2.93,2.95-4.71,3.94-.78,1.76.62,3.19.47,4.88-2.29,1.46-3.16-.12-3.72-1.95-.47-1.52-.99-2.63-2.91-2.63-1.75,0-2.64.73-3.31,2.26-.59,1.36-.94,3.27-3.88,2.46ZM394.87,278.09c6.33,1.08,7.61.55,8.73-3.63-5.91-2.19-7.12-1.68-8.73,3.63Z"/>
      <path class="cls-1" d="M535.47,285.68c2-4.42,3.88-8.47,5.67-12.56.55-1.25,1.47-1.61,2.7-1.6,2.27.01,4.56-.13,6.82.04,3.87.29,4.73,2.2,2.69,5.5-1.09,1.76-2.92,2.49-4.5,3.45-.82,1.75.74,3.17.44,4.84-2.35,1.47-3.16-.16-3.68-2-.45-1.59-1.12-2.53-2.97-2.56-1.79-.02-2.59.88-3.26,2.34-.57,1.24-.85,2.97-3.91,2.54ZM551.36,274.71c-6.36-2.35-7.87-1.71-9.07,3.74,3.43-.04,7.2,1.28,9.07-3.74Z"/>
      <path class="cls-1" d="M517.76,277.08c2.59.88,4.82-.13,6.99,1.05-2,3.91-9.16-1.57-9.51,5.05,2.33,1.5,5.25-.28,7.98,1.96-4.25,1.44-7.98.77-12.08.61,1.13-4.73,3.48-8.64,5.33-12.74.34-.76.93-1.39,1.85-1.4,3.16-.04,6.35-.5,9.92.35-2.75,3.88-9.23-1.27-10.48,5.1Z"/>
      <path class="cls-1" d="M327.56,271.5c-3.34,4.32-9.84-.89-10.86,5.55,2.26,1.13,4.74-.31,6.87,1.24-2.15,3.7-9.23-1.84-9.63,5.06,2.45,1.24,5.26-.31,8.61,1.87-4.78,1.21-8.56.84-12.9.35,1.94-4.37,3.72-8.36,5.49-12.36.52-1.17,1.36-1.74,2.67-1.73,2.9.03,5.79.01,9.76.01Z"/>
      <path class="cls-1" d="M645.6,278.33c-2.43,3.5-8.92-1.67-9.79,4.81,2.25,1.66,5.33-.13,8.42,1.92-4.5,1.52-8.24.9-12.42.67,1.3-4.67,3.56-8.61,5.4-12.72.34-.77.91-1.41,1.83-1.42,3.13-.03,6.3-.55,9.88.53-2.99,3.48-9-1.21-10.4,4.7,2.17,1.65,4.94-.25,7.08,1.51Z"/>
      <path class="cls-1" d="M381.22,271.52c-3.08,4.41-9.61-1.02-10.65,5.48,2.25,1.25,4.75-.22,6.88,1.22-2.07,3.89-9.24-1.82-9.66,5.1,2.39,1.34,5.22-.28,8.41,1.78-4.39,1.57-8.11.72-12.29.77.93-4.95,3.55-8.86,5.38-13.06.44-1.01,1.4-1.28,2.44-1.28,2.9,0,5.8,0,9.49,0Z"/>
      <path class="cls-1" d="M583.4,272.42c-3.99,4.19-7.87,8.5-12.01,12.53-1.96,1.91-4.01,1.27-4.17-1.17-.25-3.99-1-8.04.2-13.18,3.96,3.61,1.4,7.95,3.15,11.4,4.86-2.36,6.74-8.64,12-10.52.28.31.55.61.83.92Z"/>
      <path class="cls-1" d="M448.47,285.59q.97-5.32-1.42-13.65c4.54-1.68,3.58,3.75,6.1,4.66,3.68-.82,5.65-5.38,11.06-4.91-2.16,1.63-3.59,2.81-5.12,3.84-3.39,2.28-6.93,4.35-8.04,8.77-.27,1.1-1.12,2.06-2.57,1.27Z"/>
      <path class="cls-1" d="M598.21,272.49c-2.4,4.53-3.76,9.67-7.57,13.38.97-5.38,3.14-10.09,5.61-14.64.65.42,1.3.84,1.96,1.26Z"/>
    </g>
  </g>
</svg>