<?xml version="1.0" encoding="UTF-8"?>
<svg id="Layer_1" data-name="Layer 1" xmlns="http://www.w3.org/2000/svg" viewBox="0 0 900 500">
  <defs>
    <style>
      .cls-1 {
        fill: #0058f5;
      }
    </style>
  </defs>
  <g id="WO2OXC">
    <g>
      <path class="cls-1" d="M450.43,287.23h-33.02c-46.16,3.51-90.49,16.96-132.82,34.7,7.26-7.55,17.76-13.35,27.44-17.38-12.54-33.48,10.28-73.3,44.86-81.23,42.57-9.76,77.21,18.32,81.68,60.19l11.85,3.72ZM430.48,282.25c-3.5-43.03-49.34-67.59-87.19-45.16-21.19,12.56-32.79,40.25-24.4,63.8,35.05-14.23,73.51-23.67,111.58-18.63Z"/>
      <path class="cls-1" d="M624.4,217.76c5.96.37,15.67,1.26,21.04,3.88,13.49,6.56,16.11,23.9,7.01,35.19-6.24,7.74-15.9,7.87-24.93,8.68l31.17,40.31-11.94-1.14-29.58-38.15-5.87-1.62v40.93h-8.73v-88.06c7.22.33,14.61-.45,21.82,0ZM611.3,256.21h25.56c4.99,0,11.88-9.03,11.86-14.27-.01-4.78-5.86-14.26-10.62-14.26h-26.81v28.53Z"/>
      <path class="cls-1" d="M587.6,305.82c-2.43-.47-8.11.84-9.77-.2-1.36-.85-10.17-24.11-12.54-27.56l-38.81-.17c-2.16,1.3-9.67,23.71-13.05,26.71-2.64,2.34-7.24.91-10.62,1.21l43.02-88.02,41.77,88.03ZM560.17,268.61l-14.34-31.02-14.34,31.02h28.68Z"/>
      <path class="cls-1" d="M282.9,265.33c26.37,28.02-11.04,56.47-33.85,36.77-5.42-4.68-13.56-15.15-1.43-16.05,5.96,12.62,25.23,20.48,33.06,5.36,11.94-23.04-42.09-31.38-34.17-61.28,4.82-18.17,34.92-17.54,42.15-2.07,1.5,3.22-1.86,7.11-4.7,7.11-3.86,0-13.78-17.68-25.66-6.96-14.93,13.49,17.32,29.39,24.6,37.12Z"/>
      <polygon class="cls-1" points="462.91 217.76 462.91 297.14 496.58 297.14 496.58 305.82 454.18 305.82 454.18 217.76 462.91 217.76"/>
      <path class="cls-1" d="M581.39,178.08c1.85-.05,1.83,4.42,2.09,5.95,1.22,7.03,1.82,14.26,2.87,21.32-2.75.47-2.5-.21-3.11-2.42-1.31-4.69-1.51-11.23-1.88-16.18l-10.59,18.57-9.98-18.59c-.97.04-2.33,13.48-2.94,15.75-.57,2.14.88,3.44-2.66,2.86l3.75-27.27,11.83,21.05,10.62-21.05Z"/>
      <path class="cls-1" d="M404.3,178.07h16.2c2.02,1.54-.02,2.25-1.84,2.48-2.21.28-11.46-.43-11.88,0v8.69c3.1.09,6.26-.14,9.37,0,1.68.07,5.19-1.03,4.36,1.85l-12.56,1.17c-7.87,15.12,11.93,9.1,12.56,11.25.83,2.88-2.68,1.78-4.36,1.85-3.94.16-7.93-.11-11.86,0v-27.29Z"/>
      <path class="cls-1" d="M627.51,178.07h16.21c-1.26,4.71-12.68,1.42-13.72,2.47v8.69c2.69.09,5.43-.13,8.13,0,1.68.08,5.19-1.03,4.36,1.85l-12.48.63v11.18c.49.48,17.45-1.29,12.47,2.47h-14.96s0-27.28,0-27.28Z"/>
      <path class="cls-1" d="M350.68,178.07l13.72.63c1.12,3.89-10.22.82-11.24,1.84v8.69c.44.44,16.07-1.2,11.22,2.47h-11.22c-.42.42.29,9.61,0,11.81-.29,2.26.42,2-2.5,1.84v-27.29Z"/>
      <rect class="cls-1" x="305.78" y="178.07" width="3.74" height="27.29"/>
      <path class="cls-1" d="M464.15,180.55h-5.61s0-2.49,0-2.49h14.33c.97,4.22-3.68,2.06-6.23,2.49v24.81h-2.49v-24.81Z"/>
      <path class="cls-1" d="M255.9,178.07v24.81c2.86.91,12.13-2.4,11.22,2.47h-13.71s0-27.28,0-27.28h2.49Z"/>
      <rect class="cls-1" x="511.54" y="178.07" width="2.49" height="27.29"/>
      <path class="cls-1" d="M366.89,236.37l6.25,24.8,7.46-22.31-1.22,24.79,13.69-22.32-6.21,24.8,16.19-18.6-11.2,22.32,21.19-13.63-17.46,18.58c8.62-2.02,17.45-7.95,26.2-8.05-6.77,2.12-20.59,16.55-27.44,12.39-1.01-.61-3.05-4.51-4.96-6.21-15.16-13.45-39.08-4.7-41.39,15.31l-15.35,2.7-11.86-2.47c5.71-.35,12.33-.59,17.93-1.4,1.39-.2,5.82-.45,5.75-2.32l-23.68-8.68,26.18,3.09-17.45-13.02,19.95,7.42-14.95-18.59,19.94,13.63-11.21-22.31,17.43,18.6c-.35-6.23-3.39-12.38-4.69-18.28-.27-1.25-1.26-4.35.94-4.04l9.99,19.84v-26.05Z"/>
    </g>
  </g>
</svg>