<?xml version="1.0" encoding="UTF-8"?>
<svg id="Layer_1" data-name="Layer 1" xmlns="http://www.w3.org/2000/svg" viewBox="0 0 900 500">
  <defs>
    <style>
      .cls-1 {
        fill: #0c5ff2;
      }
    </style>
  </defs>
  <g id="MlMrhf">
    <g>
      <path class="cls-1" d="M181.15,235.76c-9.34-9.45-18.69-18.91-28.03-28.36,27.02,0,54.03,0,81.05,0,.51,1.46.76,2.93.76,4.51-.03,24.85-.02,49.71-.03,74.56,0,.48-.15.96-.31,1.97-10.47-9.42-19.35-19.97-29.8-28.86l.11.13c3.41-.33,5.68,3.09,9.66,2.91-1.68-3.41-4.23-5.71-6.71-9.17,5.42,2.16,10.04,3.99,14.66,5.83-3.17-4.58-8.04-6.89-12.23-10.93,5.17-.18,9.61-1.45,14.29-1.62-4.26-3.18-9.63-2.9-14.47-5.13,2.66-2.94,6.63-3.77,9.71-7.07-5.1-.23-8.96,1.83-13.58,2.34,1.95-6.14,6.29-11.17,7.36-17.76-4.17,4.71-8.34,9.43-13.08,14.77-.47-4.4-.59-8.25-2.01-12.29-2.71,3.18-2.36,7.29-4.38,10.73-3.79-4.88-5.21-11.03-9.64-16.75.63,7.07,2.61,12.71,3.63,19-3.37-.9-5.1-4.17-8.3-4.9-.8,2.32,1.34,3.91,1.24,5.96l.11.13Z"/>
      <path class="cls-1" d="M150,267.66c7.77-1.82,15.66-.49,23.48-.77,1.42-.05,2.29.82,2.23,2.24-.29,7.82,1.05,15.7-.78,23.47h-22.86c-.69-.69-1.39-1.39-2.08-2.08,0-7.62,0-15.24,0-22.86Z"/>
      <path class="cls-1" d="M181.17,292.6c-1.76-3.61-.86-7.46-.9-11.19-.05-4.61-.45-9.26.44-14.56,7.39,0,14.74,0,22.08,0,1.17,0,2.21.55,2.2,1.71-.07,8.02,1.5,16.11-.95,24.04h-22.86Z"/>
      <path class="cls-1" d="M150,238.57c2.52-1.6,5.35-1.01,8.06-1.04,5.65-.07,11.3-.02,17.34-.02v24.77c-8.48-.22-16.95,1.24-25.4-.84v-22.86Z"/>
      <path class="cls-1" d="M150,210.51c7.11,7.47,14.23,14.93,21.55,22.62-7.07-.37-14.32.99-21.55-.8v-21.82Z"/>
      <path class="cls-1" d="M211.31,292.6c-1.48-1.15-1.92-2.63-1.89-4.51.11-5.7.04-11.4.04-18.61,8.02,8.33,15.77,15.27,22.63,23.12h-20.78Z"/>
      <path class="cls-1" d="M273.22,291.27c-.45-5.12-.47-9.87.01-15.14,4.9,2.42,10.6-.12,14.68,4.5,1.26,1.42,4.02.41,5.77-.88,1.29-.95,1.22-2.46.76-3.8-.79-2.28-2.79-2.23-4.73-2.22-7.26,0-14.52.04-21.79-.02-9.95-.08-15-7.91-10.18-16.47,1.8-3.19.26-5.14-.58-7.58-3.31-9.67,1.98-20.7,11.54-23.99,10.2-3.51,21.39,1.93,24.64,12,3.3,10.18-2.11,20.9-12.13,24.06-4.38,1.38-9.39.75-17.49-2.21-3.09,4.85-1.93,7.86,3.63,8.52,6.88.81,13.8-.17,20.71,0,1.89.04,3.79-.18,5.66.36,4.43,1.26,7.15,5.14,6.75,9.73-.43,4.88-3.42,7.85-8.39,8.08-2.43.11-4.76-.07-6.3,2.5-.7,1.17-2.22,1.58-3.69,1.5-2.89-.16-5.75.16-8.87,1.06ZM275.25,256.56c7.36.07,13.01-5.23,13.18-12.37.18-7.48-5.37-13.24-12.8-13.29-7.33-.05-13.47,5.85-13.43,12.91.04,6.91,5.94,12.68,13.05,12.74ZM279.43,280.07c-2.53,3.77-2.46,5.11.41,7.57.39-2.61.8-4.98-.41-7.57Z"/>
      <path class="cls-1" d="M459.02,255.61c-1.14,1.41-.2,3.06-1.41,4.23-2.11.38-4.29.64-6.69-.36v-48.87c2.14-1.29,4.46-.75,7.06-.4.97,6.38-.29,12.76.83,19.74,4.34-4.14,8.71-7.29,14.46-6.45,4.18.61,7.87,2.43,10.7,5.81,6,7.15,5.89,19.35-.34,26.34-6.36,7.14-14.09,7.17-24.59-.04ZM469.16,254.53c6.75.13,11.39-4.61,11.55-11.77.16-7.08-4.42-12.57-10.67-12.81-6.55-.25-11.57,4.72-11.74,11.64-.2,7.64,4.15,12.81,10.86,12.94Z"/>
      <path class="cls-1" d="M399.89,245.7h-25.07c.43,8.59,8.38,12.41,16.3,7.91,3.15-1.79,4.99-1.45,6.75,1.41-4.7,5.73-11.63,7.65-18.99,5.28-7.04-2.27-11.19-7.52-11.7-14.81-.64-9.18,3.23-16.26,10.37-18.99,11.01-4.21,23.48,3,22.34,19.19ZM392.3,240.9c-.32-6.04-3.3-9.46-8.12-9.75-5.05-.31-8.73,3.22-9.62,9.7,5.95.46,11.83.34,17.74.06Z"/>
      <path class="cls-1" d="M359.61,245.8h-25.35c1.44,10.1,8.54,12.11,19.92,6.13,1.41.7,2.54,1.71,3.29,3.11-4.52,5.73-11.5,7.66-18.96,5.25-6.98-2.25-11.3-7.79-11.74-14.82-.46-7.43,1.49-13.8,8.2-17.79,5.65-3.35,11.67-3.44,17.2.15,6.11,3.96,7.86,10.12,7.45,17.97ZM334.06,240.93c6.35.17,12.26.47,18.24-.17-1.2-6.55-4.07-9.54-8.81-9.62-4.92-.08-8.11,3.03-9.43,9.79Z"/>
      <path class="cls-1" d="M749.71,245.59h-24.54c1.06,10.24,9.52,12.75,19.6,6.39,1.56.49,2.49,1.69,3.38,3.1-.23.41-.37.95-.71,1.26-5.85,5.34-14,6.33-21.1,2.57-6.13-3.24-9.45-10.14-8.66-17.98.76-7.57,5.84-13.27,13.48-15.14,11.13-2.73,20.65,7.06,18.55,19.79ZM724.81,240.22c4.33,1.83,13.94,1.88,18.46.11-.88-5.83-3.77-9-8.5-9.29-5.03-.31-8.3,2.71-9.96,9.18Z"/>
      <path class="cls-1" d="M622.63,241.13c2.1-7.85-4.7-11.27-17.68-8-1.48-1.14-1.86-2.71-1.58-4.94,5.92-2.64,12.23-2.84,18.5-1.35,4.38,1.04,7.47,4.35,7.73,8.8.46,7.9.13,15.84.13,24.1-3.06.17-6.27,2.22-6.97-3.16-5.17,3.6-10.17,5.95-16.2,3.61-4.51-1.75-7.33-5.31-7.28-9.68.05-4.43,2.79-8,7.37-9.6,5.25-1.84,10.52-1.13,15.98.22ZM614.05,256.41c4.7-.09,8.69-3.19,9.53-7.3.45-2.19-.01-3.95-2.33-4.41-3-.6-5.95-1.64-9.17-.53-3.93,1.36-6.29,3.81-5.87,6.79.43,3.07,3.96,5.52,7.84,5.45Z"/>
      <path class="cls-1" d="M647.66,259.38c-2.72,1.03-4.54.77-6.61.39v-32.96c3.62-.85,6.86-1.36,7.33,4.19,2.89-1.95,4.83-4.14,7.75-5.01,7.03-2.08,14.5,1.98,15.01,9.18.57,8.05.13,16.16.13,24.09-2.15,1.29-4.01.86-6.64.5,0-5.37.03-10.84-.02-16.31-.02-2.05.21-4.11-.59-6.14-1.53-3.89-3.68-5.44-7.85-5.33-3.95.1-6.51,1.98-7.64,5.72-1.33,4.39-.8,8.91-.87,13.39-.04,2.74,0,5.47,0,8.29Z"/>
      <path class="cls-1" d="M415.35,259.96c-2.14.27-4.01.58-6.1-.31v-32.91c2.04-.81,3.91-.41,5.44-.43,2.02.85.94,3.1,2.56,4.2,2.26-1.8,4.29-3.84,7.21-4.68,7.48-2.16,14.84,2.5,15.18,10.26.34,7.74.07,15.52.07,23.12-2.16,1.68-4.2.75-6.94.93,0-6.62.12-12.95-.04-19.28-.14-5.79-2.98-8.76-7.97-8.78-4.37-.02-7.04,2.11-8,6.5-1.05,4.78-.39,9.65-.6,14.47-.1,2.2.45,4.48-.83,6.91Z"/>
      <path class="cls-1" d="M711.11,231.04c-.84,1.74-2.21,2.99-3.83,3.99-7.92-4.67-13.03-4.54-17.11.42-3.73,4.54-3.64,11.99.45,16.19,3.37,3.46,8.63,6.02,16.8-.05,1.78.42,2.82,1.76,3.8,3.17-5.5,7.51-16.63,8.62-24.28,2.45-7.86-6.34-8.73-18.29-1.99-25.88,6.36-7.15,19.61-8.36,26.15-.3Z"/>
      <path class="cls-1" d="M309.05,259.49c-2.62,1.02-4.49.78-6.74.43v-33.22c1.9-.69,3.88-.51,5.72-.22,1.85,1.75.18,4.25,1.96,6.21,2.81-3.52,5.6-7.08,11-7.14.89,2.17.51,4.48.26,6.75-10.17,4.05-12.16,7.05-12.2,18.3-.01,2.92,0,5.85,0,8.89Z"/>
      <path class="cls-1" d="M564.17,213.37c2.14-.75,3.97-.51,6.19-.15v46.05c-1.94,1.35-3.91.93-6.19.38v-46.29Z"/>
      <path class="cls-1" d="M545.45,213.37c2.13-.67,3.96-.68,6.1.01v46.07c-1.83,1.07-3.78.78-6.1.2v-46.28Z"/>
      <path class="cls-1" d="M517.39,232.68c-8.99,1.85-12.27,5.77-12.33,14.28-.03,4.12,0,8.24,0,12.27-6.39,1.68-6.96,1.31-6.98-4.64-.04-9.12-.01-18.24-.01-27.08,2.41-1.63,4.4-1.18,6.39-.81,1.23,1.75.05,3.83,1.28,6.13,2.95-3.61,5.83-7.26,11.32-7.24.88,2.16.33,4.48.32,7.07Z"/>
      <path class="cls-1" d="M532.85,226.73v32.75c-2.03.99-3.87.7-5.71.32-1.44-1.65-.98-3.63-1-5.48-.05-7.43-.05-14.85-.01-22.28.03-5.9.06-5.89,6.72-5.32Z"/>
      <path class="cls-1" d="M583.55,227.04c2.48-.86,4.3-.85,6.42-.15v32.58c-1.84,1.05-3.8.76-6.26.16-.55-10.79-.26-21.57-.17-32.59Z"/>
      <path class="cls-1" d="M199.32,262.2h-18.65v-18.63c5.78,5.78,12.46,12.45,18.65,18.63Z"/>
      <path class="cls-1" d="M532.83,213.57c.42,1.9.4,3.58.02,5.46-2.2,1-4.51.59-6.81.31-1-1.94-.54-3.79-.4-5.83,2.44-.8,4.84-.87,7.2.05Z"/>
      <path class="cls-1" d="M582.87,219.35c-.27-2.29-.5-4,.12-5.79,2.11-1.01,4.3-.59,6.52-.32,1.41,1.76.49,3.69.75,5.59-2.43,1.31-4.76.71-7.4.52Z"/>
      <path class="cls-1" d="M270.67,287.39c-2.35,1.19-3.87,1.18-6.21.12,2.28-1.12,3.81-1.02,6.21-.12Z"/>
      <path class="cls-1" d="M264.21,280.2c2.55-1.09,4.06-1.09,6.31-.08-2.2,1.17-3.73,1.07-6.31.08Z"/>
      <path class="cls-1" d="M204.78,259.58c.57-.39.4.5.21-.16-.05-.19-.29-.04-.1.29l-.11-.13Z"/>
      <path class="cls-1" d="M181.04,235.63c.59.36-.23.6.26.14.21-.2-.01-.39-.15-.01l-.11-.13Z"/>
    </g>
  </g>
</svg>