<?xml version="1.0" encoding="UTF-8"?>
<svg id="Layer_1" data-name="Layer 1" xmlns="http://www.w3.org/2000/svg" viewBox="0 0 900 500">
  <defs>
    <style>
      .cls-1 {
        fill: #0c5ff2;
      }
    </style>
  </defs>
  <g id="dsVrsK">
    <g>
      <path class="cls-1" d="M655.37,245.32c-.39.16-1.03.23-1.13.5-6.65,18.29-21.6,25.34-39.16,27.54-16.33,2.05-32.86.55-49.75.79.92-3.82,1.62-6.97,2.43-10.09,1.46-5.62.53-13.5,4.94-16.26,4.25-2.66,11.35-.8,17.21-.86,6.3-.06,12.61.17,18.89-.11,8.1-.35,13.72-5.49,13.64-12-.08-6.7-5.64-11.62-13.87-11.63-66.9-.07-133.81-.04-200.71-.03-4.76,0-9.01,1.09-9.07,6.89-.06,6.12,4.45,7.37,9.37,7.39,19.12.07,38.23.03,57.35.04,7.39,0,14.73.38,21.86,2.59,10.81,3.36,18.36,9.8,19.52,21.68,1.34,13.79-1.37,25.97-14.81,33.28-8.83,4.8-18.51,6.18-28.28,6.2-71.25.13-142.5.04-213.74.16-4.19,0-5.44-.99-5.42-5.32.19-31.92.14-63.83.04-95.75-.01-3.35.43-4.95,4.45-4.93,40.19.15,80.37.09,120.56.1.76,0,1.52.13,3.52.32-8.89,6.96-13.72,15.09-15.06,25.12-.49,3.66-3.27,2.16-5.03,2.16-23.02.11-46.05.2-69.07-.03-4.83-.05-6.56.86-6.67,6.23-.11,5.9,2.54,6.06,6.98,6.02,17.38-.16,34.76.26,52.13-.24,6.11-.18,7.5,1.81,6.91,7.29-.44,4.08-.33,8.26-.02,12.36.3,4.08-1.29,5.09-5.21,5.05-18.24-.19-36.5.27-54.73-.27-6.93-.2-5.63,3.7-5.85,7.7-.24,4.37-.04,6.92,5.91,6.9,59.95-.26,119.9-.15,179.86-.2,2.35,0,4.75-.32,7.05-.84,3.73-.86,5.23-3.48,5.15-7.22-.07-3.6-2.04-5.71-5.27-6.52-2.28-.57-4.71-.7-7.07-.71-20.42-.09-40.83-.03-61.25-.2-9.08-.08-17.74-2.28-24.97-7.94-15.92-12.46-12.62-40.21,5.79-49.36,4.06-2.02,8.32-3.59,12.89-4.32,1.92-.31,15.26-1.37,16.86-1.37,63.28.05,126.55.05,189.83,0,1.6,0,9.69.28,10.59.39,19.34,2.33,34.98,9.88,41.84,29.76.04.12.39.13.6.19v19.54Z"/>
      <path class="cls-1" d="M516.92,305.44c1.64-15.78,3.17-30.61,4.73-45.45.74-7.11,1.71-14.2,2.21-21.32.27-3.88,1.8-5.11,5.66-5.03,10.84.23,21.7.3,32.54-.02,5.04-.15,5.21,1.82,4.21,5.84-3.51,14.06-6.6,28.22-10.21,42.24-1.05,4.07.08,4.68,3.54,3.73,5.42-1.49,10.84-3.01,16.26-4.51,1.66-.46,3.58-1.39,4.89.14,1.1,1.29-.15,2.86-.71,4.21-14.94,36.23-29.89,72.46-44.87,108.68-.46,1.11-.8,2.61-2.86,2.28,3.66-30.39,7.2-60.79,11.08-91.16.74-5.79-.22-7.35-6.11-5.26-6.29,2.24-12.88,3.6-20.33,5.61Z"/>
    </g>
  </g>
</svg>