<?xml version="1.0" encoding="UTF-8"?>
<svg id="Layer_1" data-name="Layer 1" xmlns="http://www.w3.org/2000/svg" viewBox="0 0 900 500">
  <defs>
    <style>
      .cls-1 {
        fill: #0c5ff2;
      }
    </style>
  </defs>
  <g id="r6phyU">
    <g>
      <path class="cls-1" d="M612.99,236.45c0,9.16,0,18.32,0,27.48,0,.75-.07,1.48-.2,2.21-.16.95-.27,1.91-.37,2.86-.11,1.02-.37,2.01-.64,3-.19.72-.38,1.44-.58,2.15-.13.44-.27.88-.46,1.3-.43.95-.88,1.89-1.35,2.83-.22.45-.48.88-.75,1.3-1.02,1.57-2.17,3.05-3.34,4.52-.94,1.18-1.96,2.3-3.24,3.15-.39.26-.75.54-1.12.82-1.44,1.09-3.06,1.88-4.67,2.68-.94.47-1.88.93-2.87,1.29-1.41.51-2.85.91-4.28,1.33-.94.28-1.89.41-2.86.5-.89.09-1.77.2-2.63.42-.91.23-1.83.33-2.77.32-.91,0-1.82.07-2.73.12-2.11.12-4.21.11-6.31-.12-.12-.01-.24-.02-.36-.01-1.33.07-2.62-.15-3.91-.42-1.17-.24-2.35-.38-3.53-.57-.3-.05-.6-.11-.89-.19-.86-.23-1.72-.45-2.58-.7-.43-.12-.85-.27-1.26-.43-.84-.34-1.68-.69-2.52-1.04-1.59-.67-3.11-1.45-4.57-2.37-.51-.32-.97-.73-1.43-1.12-.69-.59-1.39-1.17-2.04-1.81-.66-.65-1.28-1.34-1.9-2.03-.55-.62-1.08-1.25-1.61-1.88-.08-.09-.16-.18-.22-.29-.85-1.43-1.71-2.86-2.37-4.4-.63-1.47-1.12-2.97-1.56-4.49-.26-.9-.41-1.84-.64-2.75-.32-1.23-.47-2.48-.51-3.75-.05-1.89-.09-3.77-.13-5.66-.15-7.37-.06-14.74-.07-22.12-.01-7.57,0-15.15,0-22.72,0-2.45,0-4.9.01-7.35,0-.24.04-.48.05-.72.04-.81.5-1.34,1.18-1.71.21-.11.46-.15.69-.2.12-.03.24,0,.36,0,4.68,0,9.36,0,14.04,0,.36,0,.74.02,1.08.12.69.21,1.24.6,1.32,1.4.03.32.06.64.06.96,0,12.98,0,25.96,0,38.94,0,5.18,0,10.37,0,15.55,0,2.39.57,4.65,1.56,6.82.71,1.55,1.67,2.94,2.81,4.2.52.57,1.14,1.02,1.79,1.44,1.15.73,2.4,1.26,3.68,1.7.32.11.67.17,1,.25.29.07.6.12.88.23.92.36,1.87.5,2.84.6,1.43.15,2.87.12,4.31.13,1.24.01,2.46-.12,3.68-.37,1.57-.33,3.11-.74,4.59-1.36,1.24-.52,2.37-1.23,3.36-2.14.85-.78,1.65-1.61,2.27-2.58.35-.54.69-1.1.95-1.68.8-1.79,1.3-3.66,1.59-5.6.37-2.49.37-5.01.37-7.51.02-14.73,0-29.45,0-44.18,0-1.61-.02-3.21-.02-4.82,0-.36.06-.72.13-1.07.08-.4.35-.67.74-.82.38-.15.78-.2,1.19-.2,1.93,0,3.85,0,5.78,0,2.94,0,5.88,0,8.81,0,.16,0,.32,0,.49,0,1.01-.05,1.5.69,1.59,1.34.06.46.11.92.11,1.38,0,9.28,0,18.56,0,27.85Z"/>
      <path class="cls-1" d="M450.64,262.61c0,8.34,0,16.67,0,25.01,0,1.31-.03,2.61-.06,3.92,0,.2,0,.4-.04.6-.17.94-.95,1.61-1.93,1.58-5.02-.16-10.05-.04-15.07-.08-.86,0-1.36-.4-1.53-1.24-.14-.69-.17-1.39-.17-2.1,0-4.3.01-8.6.01-12.9,0-12.48,0-24.95,0-37.43,0-.7-.03-1.41-.02-2.11.02-1.23-.18-2.44-.45-3.63-.25-1.07-.49-2.15-.76-3.22-.21-.84-.55-1.64-.99-2.38-.83-1.37-1.87-2.55-3.13-3.57-1.21-.98-2.56-1.69-3.97-2.3-.09-.04-.19-.08-.28-.11-1.32-.32-2.63-.64-3.95-.94-.37-.08-.76-.1-1.15-.13-1.43-.1-2.87-.28-4.31-.16-1.79.15-3.59.29-5.32.85-.27.09-.55.15-.82.21-1.76.42-3.34,1.2-4.75,2.33-.17.14-.35.28-.52.42-1.57,1.25-2.67,2.82-3.47,4.64-.94,2.14-1.37,4.4-1.71,6.69-.09.63-.06,1.28-.06,1.93,0,16.73,0,33.47,0,50.2,0,.56,0,1.13,0,1.69-.02.58-.04,1.16-.09,1.74-.07.83-.7,1.44-1.54,1.52-.14.01-.28,0-.43,0-4.96,0-9.93,0-14.89,0-.43,0-.84-.06-1.23-.26-.29-.15-.49-.36-.54-.68-.04-.24-.09-.47-.1-.71-.02-.62-.02-1.25-.02-1.87,0-17.5,0-35,0-52.49,0-.98.04-1.97.07-2.95.01-.32.07-.64.1-.96.02-.18.07-.36.06-.54-.03-.85.13-1.68.28-2.51.17-.91.35-1.81.55-2.71.11-.51.24-1.02.43-1.5.55-1.45,1.1-2.89,1.71-4.31.34-.79.79-1.54,1.24-2.28,1.22-1.98,2.66-3.79,4.27-5.47.87-.91,1.85-1.68,2.9-2.38.45-.3.9-.62,1.34-.94,1.04-.74,2.12-1.41,3.3-1.91,1.51-.63,3.01-1.28,4.52-1.92.17-.07.34-.14.51-.19,1.33-.34,2.66-.72,4-.99,1.68-.34,3.38-.65,5.08-.87,1.38-.18,2.77-.33,4.18-.3,1.54.04,3.08.02,4.62,0,1.95-.02,3.88.18,5.79.55.95.19,1.92.3,2.88.44,1.22.18,2.41.53,3.6.86,1.15.32,2.3.64,3.42,1.04,1.23.45,2.43.97,3.53,1.72,1.02.69,2.11,1.28,3.18,1.88.54.3,1.02.66,1.45,1.09.75.76,1.51,1.52,2.25,2.29.45.46.89.93,1.31,1.42.36.43.7.88,1.02,1.34.52.74,1.06,1.48,1.49,2.27.53.95.96,1.94,1.43,2.92.63,1.33,1.02,2.75,1.43,4.15.18.61.25,1.26.37,1.89.26,1.36.53,2.72.79,4.08.06.31.08.64.09.96.13,4.8.1,9.6.1,14.4,0,4.8,0,9.6,0,14.4h0Z"/>
      <path class="cls-1" d="M356.2,236.92c0,8.68,0,17.36,0,26.04,0,1.91-.08,3.81-.5,5.69-.2.9-.29,1.82-.45,2.73-.07.41-.19.82-.31,1.22-.14.5-.31,1-.46,1.5-.48,1.6-1.13,3.13-1.91,4.61-.93,1.78-2.14,3.36-3.46,4.86-.82.94-1.67,1.85-2.55,2.75-.41.41-.89.75-1.35,1.11-1.55,1.22-3.24,2.21-5.02,3.04-1.61.75-3.26,1.41-4.9,2.1-.33.14-.69.23-1.04.33-.87.25-1.75.51-2.63.73-.57.14-1.15.2-1.74.27-.84.1-1.7.11-2.52.33-.43.12-.87.21-1.3.28-.34.06-.68.11-1.02.1-1.38-.02-2.75.1-4.13.17-1.9.09-3.81.07-5.71-.11-.48-.05-.97-.05-1.46-.04-.77,0-1.53-.09-2.29-.27-1.04-.25-2.1-.42-3.17-.49-.68-.05-1.35-.25-2.01-.42-.82-.21-1.64-.44-2.44-.72-1.16-.4-2.31-.85-3.47-1.28-1.14-.43-2.2-1.02-3.26-1.61-1.22-.68-2.39-1.44-3.4-2.41-1.01-.98-2.05-1.94-3.04-2.95-1.03-1.05-1.93-2.21-2.74-3.45-.83-1.27-1.48-2.62-2.13-3.98-.38-.8-.71-1.62-.89-2.48-.03-.16-.09-.31-.15-.46-.62-1.37-.81-2.85-1.13-4.3-.09-.39-.18-.78-.24-1.18-.22-1.53-.37-3.07-.37-4.61,0-17.6,0-35.2,0-52.79,0-.96,0-1.93.03-2.89.01-.36.06-.72.17-1.06.25-.81,1.02-1.35,1.87-1.36,4.8,0,9.6,0,14.41,0,.26,0,.53.03.78.1.6.17,1.03.56,1.22,1.16.16.5.22,1.02.22,1.54,0,11.19,0,22.38,0,33.57,0,6.69,0,13.38,0,20.07,0,1.33.11,2.65.38,3.95.08.41.28.8.37,1.21.32,1.48.99,2.79,1.86,4.02.35.49.67,1,1.02,1.49.58.82,1.32,1.47,2.17,2,1.1.68,2.2,1.36,3.43,1.8.55.2,1.1.39,1.69.47.22.03.44.08.65.16,1.6.58,3.26.79,4.95.8,1.03,0,2.07.02,3.1,0,1.09-.03,2.18-.18,3.24-.43.59-.14,1.18-.28,1.76-.44,1.55-.42,3.05-.97,4.4-1.84,1.52-.99,2.8-2.23,3.81-3.74,1.14-1.71,1.78-3.59,2.18-5.57.24-1.2.44-2.41.59-3.62.09-.7.13-1.4.13-2.1,0-17.38,0-34.75,0-52.13,0-.28-.01-.56,0-.84.02-.24.07-.47.12-.71.09-.42.37-.66.78-.76.29-.07.6-.12.9-.12,5,0,10.01,0,15.01,0,.48,0,.91.12,1.32.38.37.24.55.58.58,1,.02.24,0,.48,0,.72,0,9.64,0,19.29,0,28.93Z"/>
      <path class="cls-1" d="M634.14,262.82c0-9.16,0-18.32,0-27.48,0-.64,0-1.29.04-1.93.02-.38.09-.76.13-1.14.13-1.48.5-2.92.85-4.36.31-1.29.79-2.53,1.23-3.77.24-.7.59-1.36.94-2.02.55-1.03,1.14-2.03,1.7-3.06.47-.88,1.14-1.61,1.74-2.39,1.02-1.33,2.24-2.49,3.5-3.59.91-.79,1.93-1.46,2.93-2.14,1.42-.97,2.94-1.77,4.53-2.44,1.15-.49,2.3-1.01,3.5-1.37,1.64-.5,3.3-.96,5-1.25,1-.17,1.99-.35,2.99-.52.56-.09,1.12-.15,1.69-.21.68-.08,1.37-.15,2.05-.21.18-.02.36-.02.55-.02,2.35,0,4.7-.02,7.05.01.97.02,1.94.12,2.9.26,1.64.24,3.27.53,4.91.8.2.03.4.08.59.12,1.14.28,2.29.52,3.41.85.97.28,1.91.66,2.86,1,.38.14.75.3,1.13.45,1.34.53,2.6,1.22,3.79,2.02.92.62,1.84,1.24,2.73,1.91,1.87,1.4,3.52,3.02,4.69,5.07.23.4.5.78.75,1.17,1.41,2.11,2.43,4.39,3.14,6.82.28.96.6,1.92.83,2.89.33,1.37.45,2.77.6,4.17.12,1.1.25,2.19.37,3.29.04.38.08.76.08,1.14,0,18.04,0,36.08,0,54.12,0,.38-.05.76-.13,1.13-.14.63-.58,1.05-1.09,1.39-.11.07-.27.09-.4.1-.22.02-.45,0-.67,0-4.9,0-9.81,0-14.71,0-.28,0-.57,0-.85-.05-.35-.05-.56-.24-.63-.62-.16-.85-.22-1.71-.22-2.57,0-15.11.01-30.21.02-45.32,0-.76.04-1.53.03-2.29-.01-1.51,0-3.01-.08-4.52-.08-1.54-.29-3.07-.62-4.59-.11-.51-.23-1.02-.32-1.53-.19-1.04-.59-2-1.04-2.95-.22-.47-.49-.93-.81-1.34-1.02-1.33-2.17-2.55-3.56-3.51-1.25-.87-2.6-1.54-4.1-1.89-1.06-.24-2.12-.51-3.19-.73-.43-.09-.88-.13-1.32-.16-.99-.07-1.98-.16-2.97-.16-1.01,0-2.02.11-3.03.18-1.22.08-2.4.34-3.56.72-.38.13-.79.18-1.18.28-.87.23-1.66.64-2.45,1.04-.99.51-1.93,1.1-2.76,1.85-1.26,1.14-2.17,2.53-2.86,4.07-.04.09-.07.19-.12.28-.8,1.4-1.13,2.96-1.49,4.5-.07.31-.08.64-.12.95-.2,1.84-.24,3.68-.24,5.53.01,16.77,0,33.55,0,50.32,0,.36-.02.72-.08,1.08-.13.71-.9,1.37-1.62,1.43-.16.01-.32,0-.49,0-4.94,0-9.89,0-14.83,0-.26,0-.53,0-.79-.04-.4-.05-.68-.27-.78-.66-.07-.27-.12-.55-.13-.83-.02-.76,0-1.53,0-2.29,0-9,0-18,0-27h0Z"/>
      <path class="cls-1" d="M229.24,295.43c-1.05.06-2.06-.01-3.07-.07-1.25-.07-2.5-.19-3.75-.28-1.29-.09-2.59-.11-3.88-.24-.96-.09-1.92-.25-2.86-.51-.85-.24-1.74-.38-2.6-.59-1.43-.36-2.87-.7-4.27-1.14-1-.31-1.96-.75-2.92-1.19-1.42-.64-2.82-1.31-4.21-2.01-.95-.49-1.88-1.03-2.78-1.6-.56-.36-1.05-.82-1.56-1.25-.97-.82-1.96-1.62-2.9-2.47-.49-.44-.93-.95-1.35-1.47-.61-.75-.55-1.95.1-2.67,1.38-1.53,2.8-3.02,4.14-4.58,1.37-1.59,2.86-3.07,4.28-4.61.29-.31.59-.61.9-.9.36-.33.77-.34,1.14-.03.26.22.52.44.77.68.81.79,1.7,1.48,2.63,2.13.35.24.69.49,1.02.75,1.65,1.28,3.43,2.35,5.38,3.13.73.29,1.48.54,2.22.81.06.02.12.02.18.05,1.56.69,3.26.94,4.88,1.44.89.27,1.82.37,2.76.39.97.02,1.94.11,2.91.16,1.92.09,3.85.15,5.76-.1.34-.04.69-.08,1.03-.08,1.52.04,2.97-.35,4.4-.77.99-.29,1.96-.65,2.89-1.09,1.75-.83,3.24-1.98,4.29-3.62,1.06-1.65,1.39-3.45,1.02-5.37-.03-.16-.1-.3-.16-.45-.08-.2-.2-.4-.27-.61-.47-1.43-1.47-2.47-2.56-3.45-.83-.76-1.77-1.33-2.8-1.77-1-.43-1.98-.92-2.98-1.35-.59-.25-1.22-.44-1.82-.68-1.09-.44-2.23-.73-3.33-1.11-1.09-.37-2.19-.72-3.3-1.01-.58-.15-1.14-.41-1.71-.62-.13-.05-.26-.11-.4-.13-1.18-.21-2.29-.66-3.43-.99-1.32-.39-2.6-.89-3.89-1.34-.38-.13-.76-.29-1.13-.44-.54-.22-1.08-.44-1.63-.66-1.17-.46-2.35-.88-3.47-1.44-.76-.38-1.52-.76-2.25-1.18-1.04-.59-2.08-1.17-3.07-1.83-1.49-1-2.97-2.02-4.25-3.3-.51-.51-1.01-1.04-1.51-1.56-.1-.1-.18-.22-.26-.33-.55-.84-1.17-1.65-1.63-2.54-.53-1.03-1.24-1.98-1.61-3.09-.05-.15-.12-.3-.2-.44-.36-.64-.58-1.32-.73-2.03-.2-.94-.43-1.88-.64-2.82-.04-.18-.06-.36-.07-.54-.03-1.61-.06-3.21-.07-4.82,0-.84.04-1.69.06-2.53.02-.79.27-1.54.45-2.3.11-.45.26-.89.35-1.34.23-1.08.76-2.03,1.25-2.99.52-1.02,1.09-2.02,1.72-2.98.94-1.42,2.04-2.7,3.43-3.71.85-.62,1.67-1.28,2.52-1.89,1.04-.74,2.18-1.31,3.35-1.81,1.43-.61,2.87-1.2,4.35-1.68,1.35-.44,2.73-.74,4.1-1.09,1.02-.26,2.07-.36,3.11-.55.18-.03.36-.02.54-.04.34-.03.69-.05,1.02-.11.9-.16,1.82-.13,2.73-.16.89-.03,1.78-.07,2.66-.09.34,0,.68.03,1.02.04.73.02,1.46.03,2.19.07.62.03,1.25.1,1.87.13.75.04,1.5.12,2.24.1,1.53-.03,3.02.2,4.51.52.99.21,1.98.39,2.97.6.65.14,1.29.33,1.94.5.02,0,.04.02.06.02,1.94.34,3.68,1.19,5.45,1.98,1.42.64,2.78,1.4,4.1,2.22.49.31.93.71,1.36,1.1.84.76,1.65,1.55,2.47,2.32.78.74,1.43,1.58,2.09,2.42.48.61.43,1.16-.13,1.72-1.67,1.7-3.35,3.38-5.02,5.08-.76.78-1.52,1.56-2.28,2.34-.44.45-.88.88-1.34,1.31-.14.14-.32.24-.49.35-.67.41-1.28.36-1.91-.11-1.1-.82-2.2-1.64-3.31-2.44-.39-.28-.82-.51-1.25-.74-.87-.47-1.73-.97-2.64-1.35-1.3-.55-2.59-1.14-3.98-1.45-.1-.02-.2-.05-.29-.09-1.2-.47-2.46-.65-3.72-.85-.42-.07-.84-.15-1.26-.21-1-.16-2-.26-3.02-.28-1.56-.02-3.12.06-4.66.34-.95.17-1.91.32-2.87.51-.74.14-1.44.43-2.1.77-.86.44-1.7.93-2.54,1.41-.65.37-1.08.96-1.49,1.56-.19.28-.36.58-.51.89-.37.72-.62,1.48-.58,2.31.02.46.02.93,0,1.39-.08,1.42.44,2.63,1.28,3.74,1.23,1.63,2.86,2.76,4.66,3.68,2.33,1.19,4.79,2.05,7.27,2.87,1.53.51,3.1.93,4.64,1.41,1.33.42,2.65.86,3.98,1.29.33.11.66.18.99.29,1.13.36,2.27.71,3.4,1.11,1.51.53,3,1.09,4.5,1.64,1.66.61,3.21,1.44,4.78,2.22,1.23.61,2.42,1.3,3.51,2.13.77.59,1.56,1.15,2.32,1.75.7.55,1.3,1.21,1.83,1.92.57.78,1.13,1.57,1.69,2.36,1.01,1.42,1.74,2.97,2.29,4.63.38,1.15.75,2.29.98,3.47.14.73.29,1.46.42,2.19.06.33.09.68.1,1.02,0,1.57.01,3.13,0,4.7,0,.4-.05.8-.1,1.2-.06.48-.16.95-.21,1.43-.12,1.06-.42,2.08-.82,3.07-.26.63-.5,1.27-.75,1.91-.49,1.26-1.08,2.46-1.92,3.53-.56.71-1.09,1.45-1.62,2.18-1.05,1.46-2.41,2.59-3.87,3.62-.84.59-1.69,1.18-2.61,1.66-.66.35-1.28.77-1.94,1.11-1.5.77-3.1,1.26-4.67,1.86-1.27.48-2.58.81-3.92,1.04-.9.15-1.77.41-2.66.6-1.05.22-2.12.34-3.19.43-1.23.1-2.46.23-3.69.33-.4.03-.81.03-1.21.03-.47,0-.93,0-1.36,0Z"/>
      <path class="cls-1" d="M494.41,264.23c0,7.79,0,15.59,0,23.38,0,1.41-.03,2.81-.06,4.22-.03,1.18-.68,1.81-1.86,1.82-5.04,0-10.09,0-15.13,0-.97,0-1.51-.44-1.64-1.41-.07-.52-.1-1.04-.1-1.56,0-6.35,0-12.69,0-19.04,0-11.13,0-22.26,0-33.38,0-1.25.04-2.49.2-3.72.06-.47,0-.96.02-1.44.02-.38.05-.76.12-1.13.28-1.48.57-2.95.87-4.43.05-.24.13-.46.2-.69.82-2.69,2.04-5.19,3.55-7.56,1.16-1.82,2.46-3.54,4.03-5.04.57-.54,1.18-1.04,1.79-1.53,2.4-1.9,4.99-3.5,7.84-4.66.75-.3,1.52-.57,2.29-.79,1.26-.37,2.52-.74,3.8-1.04,1.26-.29,2.55-.45,3.81-.72,1.43-.3,2.9-.33,4.34-.54.22-.03.44-.03.67-.03,3.34,0,6.69,0,10.03,0,.63,0,1.26.05,1.88.12,1.13.13,1.93.77,2.49,1.72.19.32.2.69.21,1.05,0,1,.03,2.01.02,3.01-.01,2.41-.03,4.82-.07,7.23,0,.5-.05,1.01-.17,1.49-.19.84-1.1,1.66-1.97,1.75-.68.07-1.37.05-2.06.06-.28,0-.57-.04-.85-.04-1.72,0-3.44-.02-5.17.02-1.17.03-2.34.15-3.51.24-.24.02-.48.05-.73.07-.95.05-1.89.16-2.81.46-.98.32-2.01.44-2.97.85-1.24.52-2.37,1.21-3.42,2.04-.78.62-1.52,1.26-2.13,2.05-1.09,1.42-1.93,2.96-2.37,4.7-.18.72-.36,1.44-.55,2.16-.23.9-.37,1.81-.45,2.73-.15,1.84-.16,3.69-.16,5.54,0,7.35,0,14.7,0,22.06h0Z"/>
    </g>
  </g>
</svg>