<?xml version="1.0" encoding="UTF-8"?>
<svg id="Layer_1" data-name="Layer 1" xmlns="http://www.w3.org/2000/svg" viewBox="0 0 900 500">
  <defs>
    <style>
      .cls-1 {
        fill: #0c5ff2;
      }
    </style>
  </defs>
  <g id="Lv1SCq">
    <g>
      <path class="cls-1" d="M229.05,227.26c0-5.45.01-10.91-.01-16.36,0-.87.31-1.84-.39-2.58-.41-.44.04-.39.21-.54.45-.41,1-.38,1.55-.38,9.69-.01,19.39-.27,29.07.03,7.75.24,13.83,3.9,17.37,10.9,1.55,3.07,2,6.47,1.53,10.05-.33,2.5-.35,4.96-1.71,7.23-2.32,3.86-5.85,6.41-9.65,8.49-5.17,2.84-10.55,5.29-15.84,7.91-4.17,2.07-8.46,3.88-12.49,6.27-3.57,2.12-7.52,3.61-11.31,5.35-2.03.93-4.05,1.93-6.15,2.68-3.86,1.38-7.3,3.6-11.04,5.23-3.58,1.56-6.98,3.51-10.56,5.06-3.79,1.63-7.37,3.62-10.9,5.7-.73.43-.91,0-1.08-.4-1.15-2.6-2.68-5.03-3.46-7.82-.68-2.46-1.67-4.82-2.28-7.33-1.26-5.19-1.87-10.44-2.02-15.76-.22-7.74,1.18-15.22,3.43-22.62,1.35-4.45,3.28-8.57,5.35-12.71,5.23-10.49,13.15-18.55,22.34-25.59,4.36-3.33,9.28-5.7,14.11-8.18,2.78-1.42,6.01-1.97,9.01-2.99,5.33-1.81,10.97-1.83,16.45-2.77,2.47-.42,5.05-.17,7.61.12,3.46.38,6.87.89,10.29,1.51,2.93.53,5.81,1.18,8.62,2.17,5.27,1.86,10.38,4.01,15.23,6.84,6.66,3.88,12.27,8.9,17.36,14.59,1.27,1.42,2.73,2.67,3.77,4.32,1.55,2.47,3.23,4.85,4.83,7.29.29.45.57.87.94,1.28.97,1.06.36,2.79-.99,3.28-1,.36-2.06.58-2.88,1.4-.96.95-1.48,1.11-2.23-.53-1.7-3.72-4.4-6.85-6.91-10.08-1.4-1.8-2.93-3.53-4.56-5.13-5.14-5.05-10.89-9.29-17.36-12.52-6.15-3.08-12.67-5.06-19.43-6.38-4.81-.94-9.68-.97-14.48-.65-12.54.83-24.04,4.52-34.55,11.78-8.1,5.6-14.62,12.39-19.53,20.72-3.8,6.46-6.36,13.43-7.81,20.87-1.21,6.24-1.03,12.47-.86,18.7.12,4.24,1.05,8.48,2.23,12.61,1.08,3.78,1.02,3.74,4.59,2.06,5.67-2.67,11.49-5.06,17.05-7.94,7.34-3.8,14.91-7.12,22.23-10.96,3.45-1.81,7.09-3.36,10.67-4.95,4.15-1.84,8.34-3.59,12.39-5.63,1.97-.99,4-1.87,5.86-3.21,1.21-.87,2.89-1.25,4.26-2.23,3.3-2.35,4.05-5.81,3.51-9.23-.78-4.83-3.59-8.47-8.72-9.69-1.28-.31-2.62-.49-3.94-.5-6.15-.06-12.31,0-18.46-.08-1.56-.02-2.19.41-2.05,2.06.66,7.5.01,15.01.2,22.51.05,1.89-.3,3.19-2.57,3.59-1.33.23-2.71.73-3.87,1.73-1.06.92-1.87.41-1.88-1,0-5.88,0-11.75,0-17.63h-.09Z"/>
      <path class="cls-1" d="M289.37,249.08c1.51,2.98,2.85,5.88,3.14,9.14.89,10.07-2.14,18.68-10.06,25.18-4.06,3.33-8.92,5.57-14.25,5.66-12.43.22-24.86.05-37.29.1-1.65,0-2.01-.58-1.98-2.13.09-5.21.02-10.42-.01-15.63,0-.63.02-1.04.76-1.39,2.22-1.06,4.37-2.28,6.55-3.43.89-.47,1.37-.3,1.35.81-.05,2.97-.05,5.94-.13,8.9-.02.83-.02,1.67-.42,2.48-.25.51-.29,1.22.26,1.67.53.43,1.13.44,1.63-.09.69-.74,1.34.06,2.01.05,8.65-.05,17.32.27,25.96-.13,7.2-.33,14.23-5.97,16.39-13.53,1.82-6.37.83-12.18-3.9-17.13-.71-.74-1.77-1.01-2.28-2.01-.49-.95-.49-1.44.64-1.9,5.38-2.2,10.5-4.94,15.52-7.82,4.57-2.62,9.49-4.48,14.16-6.87,4.54-2.32,9.42-3.94,13.75-6.69,1.43-.91,2.74-.27,3.16,1.34.82,3.15,1.68,6.28,2.65,9.38.46,1.47.45,2.99.54,4.44.24,4.02,1.08,7.99.83,12.05-.29,4.72-.93,9.38-1.8,14.03-1.31,6.97-3.88,13.46-7.41,19.57-4.59,7.95-10.02,15.27-17.17,21.17-4.41,3.65-9.16,6.7-14.39,9.2-5.19,2.48-10.53,4.21-16.02,5.79-3.21.93-6.5.86-9.66,1.67-2.63.68-5.24,1.24-7.99,1.06-4.12-.27-8.18-.95-12.25-1.58-2.84-.44-5.62-1.13-8.38-1.88-2.19-.6-4.37-1.31-6.48-2.15-4.33-1.72-8.41-3.94-12.39-6.33-4.33-2.6-8.22-5.74-11.7-9.4-1.84-1.94-3.89-3.68-5.65-5.68-1.78-2.02-3.4-4.18-4.92-6.39-.83-1.2-.15-2.44,1.32-2.61.77-.09,1.38-.38,2-.78,1.87-1.18,2.88-.99,4.14.78,4.42,6.21,9.94,11.39,15.85,16.13,2.26,1.82,5.08,2.93,7.61,4.44,4.25,2.54,8.92,4.11,13.62,5.45,4.67,1.33,9.47,2.18,14.41,1.93,4.13-.21,8.31.05,12.41-.39,5.01-.53,9.94-1.73,14.57-3.76,6.68-2.94,13.13-6.36,18.76-11.05,3.47-2.9,6.6-6.12,9.39-9.75,2.57-3.34,5.12-6.69,6.96-10.44,3.08-6.3,5.81-12.8,6.7-19.81.6-4.7,1.19-9.45.77-14.22-.31-3.46-.76-6.9-1.12-10.36-.14-1.3-.59-1.52-1.8-.9-5.33,2.7-10.69,5.35-16.08,7.94-4.06,1.95-8,4.14-12.26,5.85Z"/>
      <path class="cls-1" d="M365.35,230.8c0-8.66.02-17.32-.03-25.98,0-1.2.38-1.6,1.55-1.6,6.52.02,13.04-.12,19.55.04,2.76.07,5.43.88,7.85,2.39,2.37,1.48,3.44,3.72,3.85,6.27.62,3.92,1.71,7.9.58,11.83-.8,2.77.36,4.34,2.19,6.09,1.84,1.76,2.26,4.37,2.72,6.76.76,3.88.6,7.89-.13,11.69-.42,2.18-.81,4.71-2.92,6.48-1.93,1.61-3.73,3.06-6.31,3.61-5.72,1.22-11.49.89-17.25.94-2.92.03-5.85.04-8.77.07-2.24.02-3.09-.89-3.15-3.15-.22-8.48-.03-16.96.26-25.44ZM383.13,233.17c-3.06,0-5.68,0-8.3,0-1.97,0-2.54.53-2.07,2.35.31,1.2.29,2.38.3,3.57.04,3.57.08,7.15,0,10.72-.03,1.23.33,1.55,1.54,1.53,4.69-.07,9.38-.08,14.07-.02,2.03.03,3.9-.44,5.76-1.15.51-.2.81-.46.84-1.03.12-2.72,1.13-5.3,1.11-8.07,0-1.4-.83-2.49-.84-3.83-.02-2.28-.89-3.25-3.21-3.75-3.19-.69-6.43-.09-9.2-.33ZM373.04,218.05s-.05,0-.07,0c0,1.87.04,3.75-.02,5.62-.03,1.06.28,1.5,1.45,1.49,4.26,0,8.52.09,12.77.18.84.02,1.75-.34,2.52.08,1.12.63,1.48.1,1.49-.87.03-2.98.12-5.97-.07-8.94-.15-2.38-1.41-3.99-2.87-4.21-4.46-.69-8.96-.35-13.44-.49-1.22-.04-1.87.51-1.79,1.88.1,1.75.02,3.51.02,5.26Z"/>
      <path class="cls-1" d="M410.24,231.33c0-8.24,0-16.48,0-24.72,0-2.66.65-3.38,3.27-3.39,6.95-.03,13.9-.13,20.84.09,3.76.12,7.51.88,10.77,2.95,1.28.81,1.76,2.38,2.43,3.72.77,1.54.89,3.27,1.03,4.88.36,4.11.5,8.26-.28,12.34-.74,3.88-3.33,6.44-6.62,8.36-.86.5-1.17.68-.59,1.85,1.18,2.37,2.7,4.62,3.3,7.27.12.54.64.98.94,1.5,1.61,2.81,3.5,5.5,3.8,8.87.02.22.2.43.32.64.49.83,1.74,1.74.8,2.61-.88.8-2.23,1.43-3.65.81-.16-.07-.38-.13-.53-.07-3.42,1.17-3.8-1.86-4.73-3.65-2.68-5.14-4.78-10.54-7.3-15.77-1.21-2.52-2.55-2.5-4.53-2.49-3.35,0-6.7.02-10.06-.04-1.12-.02-1.4.31-1.38,1.47.1,6.23.09,12.47.1,18.7,0,1.66-1.44,1.83-2.54,2.04-1.18.22-2.45.21-3.64.01-1.57-.25-1.82-1.58-1.82-2.9-.01-7.76,0-15.51,0-23.27,0-.61,0-1.21,0-1.82.03,0,.05,0,.08,0ZM418.07,220.06s.08,0,.12,0c0,1.88-.01,3.75,0,5.63.02,3.67.03,3.74,3.62,3.7,5.1-.06,10.22.37,15.3-.32,1.83-.25,3.8-1.84,3.96-3.18.43-3.6.33-7.19.17-10.8-.09-2.09-1.17-3.46-3.23-3.66-1.75-.17-3.47-.48-5.25-.49-4.44-.03-8.88.33-13.31-.19-1.07-.13-1.4.34-1.39,1.33.03,2.66.01,5.32.01,7.98Z"/>
      <path class="cls-1" d="M643.25,221.22c0,3.74-.16,7.41.04,11.06.36,6.72.04,13.43.16,20.15.02,1.33-.02,2.66-.04,3.99-.03,1.89-.9,2.93-2.82,2.85-1.07-.05-2.02.63-3.25-.03-2.08-1.11-1.71-2.76-1.68-4.51.26-14.28.21-28.56.12-42.83-.01-2.28-.2-4.59.34-6.86.27-1.16,1.08-1.76,2.12-1.74,1.29.03,2.75-.77,3.81.82,2.58,3.87,4.91,7.86,7.15,11.93,1.38,2.51,2.74,5.06,4.55,7.3.75.93.71,2.1,1.31,3.1,2.59,4.26,5.05,8.6,7.51,12.93.32.56.69.93,1.54,1.24,0-1.65,0-3.19,0-4.73,0-9.39-.14-18.77.05-28.16.11-5.68.26-4.41,4.66-4.53,2.78-.08,3.02.17,3.02,2.86-.01,16.96-.06,33.92-.07,50.88,0,1.64-.61,2.4-2.36,2.43-2.96.05-4.59-1-6.12-4.06-1.66-3.33-3.12-6.82-5.22-9.87-1.62-2.35-2.74-4.9-4.17-7.31-3.11-5.23-6.44-10.32-9.25-15.73-.24-.46-.45-1-1.39-1.19Z"/>
      <path class="cls-1" d="M626.42,236.73c0,5.33-.02,10.66.01,15.99.01,1.81-.6,3.56-.36,5.39.09.73-.4,1.1-1.12,1.14-.85.05-1.7.1-2.55.13-3.24.12-3.71-.25-3.74-3.55-.06-5.39-.08-10.78.03-16.17.11-4.95-.14-3.93-3.82-3.98-5.05-.07-10.11-.04-15.17-.02-2.83.01-2.87.16-2.6,3,.16,1.68.02,3.39.03,5.08.01,4.48.02,8.97.06,13.45,0,.74-.12,1.11-.91,1.47-1.63.76-3.29.79-4.99.71-1.55-.07-2.13-1.16-2-2.49.61-6.59.19-13.19.27-19.78.09-7.2-.28-14.41.03-21.6.17-3.9,1.85-7.54,5.21-9.99,1.63-1.2,3.76-1.31,5.66-1.74,4.59-1.03,9.32-.98,13.95-.24,3.14.5,6.35,1.08,8.68,3.75,1.82,2.09,2.61,4.62,2.88,7.16.79,7.4.46,14.84.46,22.27ZM607.73,227.73s0-.03,0-.04c2.92,0,5.85-.04,8.77.02,1.44.03,2.14-.48,2.11-1.99-.08-3.51-.07-7.02-.14-10.52-.03-1.6-1.43-3.36-2.97-3.73-4.06-.98-8.23-1.38-12.3-.56-4.44.89-6.02.67-6.07,6.92-.02,2.54.07,5.09-.06,7.63-.09,1.73.51,2.37,2.26,2.31,2.8-.1,5.6-.03,8.4-.03Z"/>
      <path class="cls-1" d="M700.56,203.18c5.79,0,11.57.05,17.36-.03,1.7-.02,2.39.58,2.21,2.21-.13,1.18-.07,2.37-.23,3.57-.29,2.14-1.63,2.42-3.26,2.43-3.84.03-7.67.03-11.51-.03-1.32-.02-1.92.39-1.79,1.78.61,6.52.22,13.07.29,19.6.09,8.05-.05,16.11.03,24.16.01,1.25-.51,1.79-1.47,2.01-1.22.28-2.49.45-3.75.49-2.13.07-2.9-.63-2.89-2.7.03-9.14.12-18.28.18-27.43.04-5.45.03-10.9.12-16.34.02-1.24-.44-1.55-1.59-1.53-3.84.05-7.67.03-11.51,0-2.68-.02-3.5-.93-3.35-3.57.02-.3.01-.61.01-.91.04-3.51.15-3.65,3.8-3.67,5.79-.03,11.57,0,17.36,0v-.02Z"/>
      <path class="cls-1" d="M480.48,225.46c0-6.78.03-13.55-.02-20.33,0-1.32.51-1.88,1.77-1.88.06,0,.12,0,.18,0,6.24.02,6.19-.53,6.17,5.98-.04,12.17.03,24.34.04,36.51,0,.3.04.63-.06.9-.86,2.15.78,2.78,2.18,3.44,3.39,1.59,7.07,1.34,10.68,1.41,4.87.1,9.74.1,14.61.05,1.44-.01,2,.47,1.85,1.9-.09.84-.02,1.69-.01,2.54,0,2.48-.68,3.39-3.15,3.34-7.36-.14-14.73.33-22.08-.34-5.2-.48-9.06-3.16-10.89-7.85-.78-2-1.42-4.36-1.36-6.78.17-6.29.06-12.59.06-18.89,0,0,.01,0,.02,0Z"/>
      <path class="cls-1" d="M531.35,226.35c0,7.02,0,14.05,0,21.07,0,1.52.66,2.28,2.18,2.82,4.21,1.5,8.53,1.32,12.87,1.29,4.14-.03,8.28.04,12.42-.03,1.01-.02,1.32.37,1.58,1.24.61,2,.07,3.94-.23,5.88-.13.82-1.02.7-1.68.7-5.84,0-11.69-.06-17.53.04-3.17.05-6.23-.51-9.29-1.14-2.39-.49-3.61-2.61-5.19-4.15-2.64-2.57-2.88-6.02-2.91-9.39-.14-13.01-.15-26.03-.28-39.04-.02-1.84.67-2.47,2.44-2.46,6.9.06,5.5-.55,5.59,5.36.09,5.93.02,11.87.02,17.8h.03Z"/>
      <path class="cls-1" d="M577.57,231.66c0,8.11-.03,16.22.02,24.32.01,1.84-.45,2.95-2.57,3.14-1,.09-2.03.37-3.03.23-1.34-.18-2.36-.84-2.36-2.43,0-16.12,0-32.23.02-48.35,0-1.3-.13-2.61.39-3.91.37-.93.93-1.31,1.81-1.39.6-.06,1.22-.01,1.83-.01,3.51,0,3.88.34,3.89,3.88.02,8.17,0,16.34,0,24.51Z"/>
      <path class="cls-1" d="M468.52,231.44c0,8.12.01,16.23,0,24.35,0,2.94-.86,3.48-3.83,3.64-3.35.18-3.59-.86-3.58-3.83.05-15.75.02-31.5.02-47.25,0-.75.15-1.52.01-2.25-.38-1.97.6-2.69,2.37-2.77,1.27-.05,2.55-.06,3.83-.08.77-.01,1.01.46,1.13,1.14.24,1.31.31,2.63.31,3.96,0,7.69,0,15.38,0,23.07-.08,0-.16,0-.24,0Z"/>
      <path class="cls-1" d="M464.38,269.08c2.43-.08,5.31-.02,8.11.94,2.63.9,3.8,2.24,4.01,4.99.19,2.48.15,4.9-1.03,7.24-.55,1.1-1.48,1.62-2.33,2.32-.55.46-.93.78-.23,1.57,1.79,2.01,2.35,4.71,3.75,6.97.43.7.52,1.89-.1,2.37-.74.58-1.76.09-2.47-.57-1.69-1.57-2.26-3.75-3.13-5.76-.4-.93-.79-1.86-1.23-2.77-.35-.72-.92-1.03-1.78-.97-1.4.1-2.8.31-4.21.05-1.28-.23-1.53.46-1.48,1.58.09,1.87.05,3.75.06,5.63,0,.96-.14,2.05-.89,2.53-1.57,1.01-2.95.17-3.06-1.76-.1-1.75-.05-3.51-.06-5.27-.04-6.04-.06-12.07-.12-18.11,0-.89.51-.99,1.15-1,1.52-.02,3.05,0,5.04,0ZM466.71,281.49c.91,0,1.82.02,2.73,0,2.93-.06,3.36-.49,3.36-3.33,0-.91-.05-1.82.02-2.72.12-1.71-.7-2.45-2.36-2.44-1.34.01-2.67-.01-4.01.02q-4.02.08-4.13,4.02-.13,4.53,4.39,4.46Z"/>
      <path class="cls-1" d="M435.55,284.52c0-2.96-.13-5.94.03-8.89.2-3.56,1.95-5.57,5.2-5.83,1.81-.14,3.58-.48,5.43-.37,3.71.21,7.13,3.39,6.93,7.33-.27,5.37-.05,10.77-.08,16.15,0,1.3-.23,2.57-1.92,2.73-.79.08-1.3-.05-1.46-1.08-.42-2.66-.21-5.32-.22-7.97,0-1.43-.31-2.09-1.93-1.98-2.12.14-4.26.05-6.39,0-1.23-.03-1.73.4-1.69,1.7.09,2.79.07,5.58.03,8.36-.02,1.01-.89,1.03-1.62.99-1.04-.07-2.34.2-2.34-1.51,0-3.21,0-6.41,0-9.62h.01ZM444.32,280.55s0-.04,0-.07c1.34,0,2.67,0,4.01,0,.48,0,1.09.04,1.05-.66-.11-1.87-.18-3.75-.63-5.59-.14-.59-.51-.64-.95-.85-1.74-.85-3.57-.41-5.36-.5-1.53-.07-2.43.78-2.75,2.11-.32,1.32-.36,2.71-.53,4.07-.15,1.16.54,1.48,1.51,1.49,1.21.01,2.43,0,3.64,0Z"/>
      <path class="cls-1" d="M389.08,282.26c0-2.39.03-4.09,0-5.78-.1-4.98,2.65-6.5,6.85-6.96,2.57-.28,5.19-.15,7.77.31,2.25.41,4.09,2.25,4.4,4.87.43,3.74.33,7.5.11,11.25-.06.96-.13,1.93-.11,2.89.06,3.61-1.18,5.6-4.7,6.17-3.43.55-7,.82-10.39-.36-2.15-.75-3.35-2.36-3.63-4.73-.33-2.78-.19-5.57-.29-7.65ZM393.09,282.26s0,0,.01,0c0,2.3-.03,4.6.01,6.9.03,1.53,1.2,2.78,2.69,2.82,2.01.05,4.02.05,6.02-.04,1.4-.06,2.52-.78,2.55-2.25.12-4.71.15-9.43.11-14.15-.01-1.47-.83-2.39-2.49-2.52-2.26-.18-4.5-.12-6.74.05-1.52.11-2.21.94-2.18,2.47.05,2.24.01,4.48.01,6.72Z"/>
      <path class="cls-1" d="M374.59,295.29c-1.08-.07-2.63-.07-4.2-.3-2.78-.41-5.16-3.92-4.71-6.88.08-.55.24-1.27,1.08-1.17.77.09,1.76-.48,2.25.6.25.54.55,1.13.57,1.7.05,2.15,1.69,2.73,3.25,3.07,2.35.51,4.66-.24,6.92-.84,1.15-.31,1.66-2.61,1.23-4.56-.35-1.58-1.74-2.4-4.44-2.52-1.22-.05-2.44,0-3.65,0-4.18,0-7.09-2.87-7.25-7.02-.18-4.97,1.34-7.02,7.39-7.93,2.44-.37,4.73.15,7.07.46,2.46.33,3.95,2.01,4.21,4.51.03.24-.02.51.07.71.36.75.66,1.69-.01,2.16-.77.55-1.91.33-2.81.09-1-.27-.62-1.42-.67-2.06-.11-1.59-1.1-1.96-2.32-2.15-2.48-.38-4.98-.23-7.47-.04-.33.03-.73.16-.96.39-.71.72-.71,5.32-.04,6.11.5.59,1.14.72,1.91.75,2.39.08,4.78.2,7.13.71,5.63,1.21,5.77,4.23,5.33,8.85-.37,3.85-2.51,5.26-6.47,5.39-.97.03-1.95,0-3.41,0Z"/>
      <path class="cls-1" d="M413.56,281.47c-.22-2.47.38-5.49-.35-8.48-.27-1.09.2-2.13.43-3.17.22-1,1.15-.67,1.83-.73.65-.06,1.23.09,1.37.86.14.76.37,1.52.38,2.28.03,4.67.01,9.33.01,14,0,.12,0,.24,0,.36-.47,4.42.36,5.3,4.84,5.42,2.66.07,5.33-.32,7.98.34.95.24,1.02.9,1.08,1.61.06.71-.33,1.24-1.03,1.26-3.99.12-8.03.55-11.96-.29-3.08-.66-4.54-2.86-4.57-6.01-.02-2.3,0-4.61,0-7.44Z"/>
    </g>
  </g>
</svg>