<?xml version="1.0" encoding="UTF-8"?>
<svg id="Layer_1" data-name="Layer 1" xmlns="http://www.w3.org/2000/svg" viewBox="0 0 900 500">
  <defs>
    <style>
      .cls-1 {
        fill: #0c5ff2;
      }
    </style>
  </defs>
  <path class="cls-1" d="M157.31,227.39c6.63-2.4,13.47-4.15,20.2-6.25.98-.31,1.95-.66,2.91-1.02.76-.28,1.08-.1,1.26.74.94,4.34,1.96,8.67,2.94,13.01.3,1.32.51,2.65.99,3.93.34.93-.27,1.5-1.01,1.94-1.86,1.1-3.82,2.07-5.57,3.32-2.81,2-5.94,3.49-8.7,5.55-.9.67-1.42.44-1.95-.58-3.28-6.36-6.64-12.69-9.98-19.02-.24-.46-.62-.83-1.1-1.06v-.57Z"/>
  <path class="cls-1" d="M174.01,254.01c1.02.01,1.5.9,2.24,1.36,2.49,1.55,4.95,3.14,7.49,4.6,2.22,1.28,2.23,1.21,1.62,3.73-1.24,5.06-2.5,10.12-3.64,15.2-.26,1.18-.68,1.33-1.72,1-3.76-1.21-7.52-2.39-11.3-3.53-2.91-.88-5.84-1.69-8.75-2.56-.9-.27-1.77-.66-2.65-.99,0-.28,0-.57,0-.85.7.13,1.06-.31,1.26-.86,1.72-4.6,4.74-8.53,6.83-12.94.46-.97.95-1.93,1.43-2.89.29.3.62.76,1.04.35,1.33-1.29,2.98-.91,4.55-.95.63-.02,1.25.02,1.58-.66Z"/>
  <path class="cls-1" d="M631.91,227.16c1.15.14,3.03-.67,3.96.33.84.9.23,2.71.23,4.12.02,12.68-.01,25.37.03,38.05,0,2.13-.73,4.11-.94,6.18-.34,3.28-2.16,5.85-4.12,8.33-1.1,1.39-2.64,2.38-4.2,3.17-3.85,1.95-7.92,3.1-12.28,3.42-2.71.2-5.42.36-8.11.18-4.48-.29-9.02-.65-12.92-3.25-3.36-2.24-5.97-5.09-6.84-9.17-.35-1.65-.28-1.72,1.34-1.73,1.96-.01,3.91,0,5.87-.05.94-.02,1.41.24,1.9,1.21,1.29,2.56,3.35,4.41,6.3,5.08,1.15.26,2.28.71,3.44.83,4.68.49,9.34.38,13.74-1.47,4.24-1.79,7.05-4.73,7.42-9.62.18-2.34.47-4.67.46-7.02,0-.36.1-.83-.37-.96-.42-.12-.73.2-.94.52-1.86,2.85-4.81,4.18-7.74,5.63-3.73,1.86-7.66,1.31-11.54,1.3-6.73,0-12.23-2.85-16.72-7.65-2.48-2.64-3.89-5.88-4.76-9.4-.67-2.7-.34-5.35-.34-8.06,0-3.61,1.01-6.82,2.71-9.86,2.45-4.4,6.24-7.33,10.94-9.13,4.52-1.72,9.22-2.35,14.02-1.87,4.02.41,7.81,1.63,11.19,3.89.81.54,1.49,1.28,2.21,1.94.29.26.62.59.97.31.24-.2.54-.57.33-.97-.63-1.2.53-2.43-.12-3.68-.26-.51.47-.58.88-.58,1.24-.02,2.48,0,4.03,0ZM610.24,264.87c1.43-.06,2.87.16,4.28-.17,6.24-1.47,10.62-4.97,12.12-11.36.77-3.28.47-6.65-.54-9.79-2.42-7.54-10.02-10.71-17.47-9.96-.9.09-1.72.45-2.57.56-2.57.33-4.71,1.46-6.67,3.02-3.25,2.6-4.83,6.03-5.45,10.1-.75,4.97.66,9.29,3.89,12.89,3.22,3.59,7.56,5,12.42,4.72Z"/>
  <path class="cls-1" d="M481.08,243.29c0-8.47.01-16.94,0-25.41,0-2.17-.08-4.35-.18-6.52-.04-.82.26-1.05,1.05-1.03,2.24.04,4.49.05,6.73-.01.93-.02,1.12.36,1.12,1.18-.02,5.96.02,11.92-.05,17.89-.01,1.01-.3,2.03-.23,3.07.02.29-.19.72.28.83.36.08.64-.18.84-.45,1.23-1.71,2.91-2.88,4.73-3.86,2.11-1.15,4.35-1.83,6.75-2.25,1.79-.32,3.55-.36,5.33-.5,2.88-.23,5.65.33,8.33,1.17,3.55,1.11,6.98,2.7,9.62,5.32,2.91,2.88,4.73,6.48,5.7,10.52.48,1.99.99,4.02.99,5.99.01,8.42-2.79,15.59-10.35,20.25-3.76,2.32-7.81,3.63-12.3,4-5.32.44-10.18-.67-14.82-3.05-1.49-.77-2.61-2.03-3.86-3.11-.31-.27-.54-.56-.94-.43-.52.16-.27.64-.27.97-.02,1.04-.06,2.09.06,3.12.09.74-.09,1.03-.83,1.02-2.24-.01-4.49-.03-6.73,0-1,.01-.99-.57-.99-1.3.01-9.13,0-18.26,0-27.4.01,0,.02,0,.03,0ZM489.5,249.01c.02,2.89.1,5.22,1.09,7.57,2,4.76,5.44,7.66,10.32,9.08,2.2.64,4.43.26,6.65.32,6.22.17,11.94-3.9,13.93-9.74.9-2.65,1.35-5.35,1.01-8.23-.29-2.57-.86-5-2.17-7.17-3.22-5.31-8.35-7.4-14.31-7.43-4.79-.03-9.22,1.28-12.59,5.02-1.3,1.44-2.49,3.04-3.22,4.73-.83,1.91-.97,4.16-.73,5.85Z"/>
  <path class="cls-1" d="M417.19,252.06c-6.49,0-12.98,0-19.47,0-.73,0-1.19-.1-1.03,1.08.42,2.97,1.62,5.51,3.68,7.6,2.3,2.35,5.08,4.04,8.27,4.95,6.34,1.82,15.73-.24,19.06-6.69.29-.56.78-.76,1.42-.75,2.29.04,4.58.08,6.87.06,1,0,.97.45.7,1.15-1.2,3.06-3.12,5.59-5.62,7.72-4.23,3.6-9.12,5.5-14.69,5.97-4.23.35-8.35.21-12.4-1.12-5.35-1.76-9.86-4.59-12.85-9.53-2.98-4.93-4.15-10.29-3.52-15.91.48-4.26,2.02-8.23,4.53-11.87,1.16-1.68,2.65-2.78,4.13-4.01,1.61-1.33,3.53-2.04,5.42-2.88,2.31-1.03,4.75-1.75,7.16-1.95,1.77-.15,3.66-.68,5.53-.03.73.25,1.62.18,2.41.09,3.14-.38,6.04.82,8.74,1.9,3.02,1.21,5.58,3.46,7.72,6.04,1.99,2.4,3.25,5.19,4.19,8.05.86,2.63.98,5.47,1.08,8.26.07,1.94.03,1.91-1.86,1.9-5.73-.02-11.45,0-17.18,0-.76,0-1.53,0-2.29,0v-.02ZM413.13,245.52s0-.06,0-.09c2.53,0,5.06-.01,7.58,0,2.53.02,5.05.02,7.58.11.9.03,1.27-.23,1.06-1.09-1.15-4.56-3.74-8.01-8.11-9.94-3.54-1.56-7.27-1.9-11.14-1.48-6.63.72-11.19,5.43-13.01,11.15-.27.84-.17,1.38,1.03,1.36,5-.06,10.01-.03,15.02-.03Z"/>
  <path class="cls-1" d="M308.5,273.43c-7.17-.22-13.76-2.08-18.9-7.32-3.71-3.78-5.52-8.5-6.34-13.71-.58-3.71-.24-7.34,1-10.73,2.5-6.87,6.93-12.09,14.31-14.29,1.63-.49,3.25-1.02,4.86-1.59.44-.16.68.2,1.07.18,1.27-.06,2.56-.22,3.81-.24,5.06-.05,10.09.41,14.57,3.06,5.15,3.05,8.49,7.46,10.02,13.26.77,2.92,1.2,5.84,1.13,8.85-.02.99-.07,1.69-1.39,1.23-.51-.18-1.13-.06-1.71-.06-12.35,0-24.71,0-37.06-.03-1.14,0-1.5.28-1.39,1.43.24,2.39,1.26,4.38,2.8,6.2,2.06,2.43,4.5,4.27,7.49,5.48,2.57,1.04,5.21,1.28,7.9,1.07,4.13-.33,7.88-1.62,10.81-4.69.46-.48,1.02-.95,1.25-1.53.66-1.68,1.84-1.94,3.48-1.77,1.7.18,3.43.04,5.15.07,1.39.02,1.58.28.99,1.46-1.72,3.43-3.97,6.46-7.21,8.63-3.96,2.65-8.19,4.57-13.1,4.77-1.16.05-2.34.21-3.53.26ZM308.84,245.53s0-.02,0-.03c4.53,0,9.06-.05,13.58.02,2.78.04,2.77.11,1.95-2.55-.05-.18-.06-.37-.12-.54-1.25-3.52-3.52-6.29-6.94-7.79-3.6-1.57-7.41-2.06-11.43-1.62-5.66.62-11.73,5.17-13.17,10.92-.38,1.5-.33,1.59,1.26,1.6,4.96,0,9.91,0,14.87,0Z"/>
  <path class="cls-1" d="M653.3,233.49c.94-.98,1.6-1.65,2.24-2.34,2.64-2.85,6.1-4.12,9.78-4.88,2.4-.49,4.85-.7,7.31-.58,4.49.22,8.83,1.21,12.45,3.89,2.6,1.93,3.95,4.88,4.59,8.06.49,2.45.5,4.95.5,7.44.01,8.47.03,16.93.02,25.4,0,1,.16,1.96-1.65,1.6-1.93-.38-3.99-.13-5.99-.08-.91.03-1.23-.2-1.19-1.17.38-7.7.21-15.42.1-23.12-.03-2.36.08-4.74-.53-7.15-.9-3.55-3.03-5.69-6.35-6.67-3.89-1.15-7.91-1.32-11.86-.22-4.55,1.26-7.52,4.28-9.16,8.64-.35.92-.24,1.85-.24,2.77-.02,8.42-.04,16.84.01,25.26,0,1.3-.33,1.76-1.68,1.69-2.09-.11-4.2-.05-6.3.02-.94.03-1.23-.26-1.23-1.2.02-19.82.02-39.64,0-59.46,0-.8.22-1.05,1.03-1.03,2.34.05,4.68.07,7.01,0,1-.03,1.15.35,1.15,1.22-.03,6.81-.02,13.62-.02,20.44,0,.37,0,.74,0,1.5Z"/>
  <path class="cls-1" d="M361.16,262.14c1.23-1.14,1.52-2.79,2.08-4.23,1.21-3.1,2.77-6.03,4-9.11,1.25-3.12,2.9-6.08,3.87-9.33.26-.87.93-1.62,1.29-2.47,1.24-2.88,2.46-5.76,3.63-8.67.3-.76.75-1.2,1.54-1.21,2.66-.03,5.32-.06,7.97.23.86.09.45.53.3.85-1.2,2.56-2.45,5.11-3.64,7.68-1.67,3.59-3.3,7.2-4.95,10.8-.93,2.03-1.89,4.05-2.82,6.08-1.72,3.76-3.44,7.52-5.15,11.28-.91,2-1.75,4.04-2.71,6.02-.9,1.87-1.34,1.97-3.37,1.83-1.85-.12-3.72-.05-5.58,0-1.01.03-1.51-.39-1.92-1.29-3-6.62-6.07-13.21-9.1-19.81-2.79-6.08-5.56-12.17-8.37-18.24-.68-1.47-1.43-2.91-2.17-4.35-.37-.71-.4-1.08.62-1.06,2.38.04,4.77,0,7.15-.02,1.29-.01,2.03.49,2.57,1.76,2.16,5.14,4.45,10.22,6.7,15.33,2.15,4.87,4.3,9.75,6.46,14.61.49,1.1.79,2.28,1.58,3.33Z"/>
  <path class="cls-1" d="M702.56,249.25c0-4.64-.03-9.27.03-13.91.01-1.07-.3-1.41-1.36-1.37-2.24.07-4.48-.03-6.71.23-.86.1-1.18-.18-1.14-1.08.07-1.61.06-3.22,0-4.82-.03-.77.19-1.13,1.01-1.12,2.24.03,4.48-.22,6.71.13,1.05.17,1.49-.09,1.48-1.21-.04-3.78.02-7.57-.04-11.35-.01-.97.26-1.37,1.26-1.35,2.24.03,4.48,0,6.72-.04.93-.01,1.22.4,1.21,1.3-.04,3.74.03,7.47-.04,11.21-.02,1.09.32,1.34,1.38,1.31,3.29-.08,6.58,0,9.87-.09,1.21-.03,1.63.53,1.64,1.57.02,1.37,0,2.74,0,4.11,0,1.01-.46,1.5-1.49,1.41-3.23-.28-6.47-.11-9.71-.25-1.21-.05-1.73.15-1.72,1.57.08,8.7.12,17.41-.02,26.11-.04,2.3,2.24,4.53,4.45,4.37,2.55-.18,5.12.32,7.66-.27.67-.16.81.32.81.84,0,1.7.05,3.41,0,5.11-.03.77-.33,1.35-1.35,1.45-3.56.35-7.11.35-10.68.35-1.63,0-2.98-.46-4.4-1.06-3.42-1.44-4.73-4.24-5.32-7.62-.23-1.35-.28-2.7-.28-4.06,0-3.83,0-7.66,0-11.49Z"/>
  <path class="cls-1" d="M541.45,271.98c-1.15,0-2.29-.02-3.43,0-1.04.02-1.41-.55-1.14-1.43.46-1.49.28-2.99.28-4.49,0-12.53-.02-25.07-.07-37.6,0-.96.26-1.36,1.29-1.34,2.19.05,4.39.03,6.58,0,.73-.01.8.13.74.91-.12,1.71.09,3.45.09,5.17,0,.4.03.8.34.94.35.15.55-.29.76-.52,1.55-1.71,3.03-3.49,4.91-4.9,2.72-2.05,5.86-2.74,9.17-3.06,1.5-.14,2.92-.04,4.4.23,1.03.19,1.12.76,1.14,1.36.08,2.44.06,4.87.05,7.31,0,.55-.36.87-.93.81-.79-.08-1.65-.05-2.36-.34-2.8-1.15-5.46-.25-8.13.43-3.32.85-5.61,2.84-7.34,5.86-1.39,2.42-1.84,4.92-1.88,7.5-.12,7.28-.05,14.57,0,21.85,0,1.06-.27,1.42-1.33,1.33-1.04-.09-2.1-.02-3.15-.02Z"/>
  <path class="cls-1" d="M445.72,249.43c0-7,.01-14.01-.02-21.01,0-.92.34-1.31,1.23-1.31,2.05,0,4.1.02,6.16.01.78,0,1.33.23,1.26,1.13-.15,1.87.33,3.76-.26,5.62-.09.27-.21.68.26.82.47.14.66-.21.89-.53,1.29-1.79,2.6-3.56,4.41-4.89,2.43-1.79,5-3.1,8.15-3.38,1.95-.17,3.83-.16,5.75.06,1.09.12,1.72.4,1.66,1.71-.11,2.17-.06,4.35,0,6.53.03.94-.1,1.27-1.18.99-3.14-.82-6.38-.74-9.52-.31-2.78.39-5.14,1.99-6.91,4.24-2.29,2.91-3.33,6.21-3.28,9.93.09,7.24.01,14.47.04,21.71,0,.85-.21,1.16-1.12,1.14-1.91-.05-3.82-.02-5.72.05-1.31.05-1.85-.36-1.84-1.77.06-6.91.03-13.82.03-20.73Z"/>
  <path class="cls-1" d="M212.31,206.68c-.2,1.2-1.04,2.13-1.68,3.03-2.74,3.86-5.1,7.94-7.58,11.95-.64,1.04-1.18,1.48-2.66,1.03-3.12-.95-6.39-1.39-9.58-2.14-2.2-.51-4.37-1.14-6.62-1.45-.74-.1-1.7-.44-1.27-1.67,2.13-6.09,4.11-12.23,5.87-18.44.24-.84.38-1.71.62-2.56.42-1.49,1-1.78,2.4-1.08,2.59,1.29,5.14,2.65,7.69,3.99,3.99,2.1,7.97,4.23,11.96,6.33.43.22.91.36.85.99Z"/>
  <path class="cls-1" d="M236.45,195.28c.58,0,.91.07,1.09.79.81,3.23,1.68,6.44,2.63,9.63.96,3.24,2.08,6.43,3.04,9.67.21.69.53,1.29.85,1.9.38.74.36,1.05-.6,1.37-3.33,1.09-6.74,1.79-10.15,2.5-2.53.53-5.07,1.08-7.56,1.76-.63.17-.77.07-1.05-.39-2.2-3.53-4.42-7.06-6.65-10.57-.94-1.48-1.88-2.95-2.9-4.37-.69-.96-.78-1.38.54-2.02,6.14-3.01,12.2-6.19,18.27-9.34.81-.42,1.6-.81,2.5-.94Z"/>
  <path class="cls-1" d="M246.41,220.07c.65.25,1.66.32,2.55.67,3.53,1.42,7.29,2.09,10.89,3.27,2.93.96,5.86,1.9,8.79,2.86.91.3.82,1.02.5,1.61-2.37,4.46-4.86,8.87-7.17,13.36-1.04,2.04-2.12,4.05-3.21,6.06-.89,1.62-.82,1.49-2.28.49-2.23-1.53-4.58-2.87-6.89-4.29-2.38-1.46-4.77-2.9-7.14-4.37-.96-.6-1.35-1.3-.93-2.55,1.47-4.4,2.08-9.02,3.16-13.52.24-1,.54-1.97.79-2.97.09-.37.11-.78.95-.63Z"/>
  <path class="cls-1" d="M201.44,277.59c.72-.07,1.05.38,1.37.88,3.03,4.75,6.05,9.51,9.1,14.25.6.94.52,1.28-.64,1.8-3.37,1.54-6.63,3.31-9.9,5.05-3.23,1.71-6.55,3.24-9.68,5.12-.78.47-1.41.45-1.74-.62-1.12-3.72-2.22-7.44-3.47-11.12-1.13-3.31-1.85-6.76-3.27-9.97-.44-1,.18-1.36,1.02-1.55,3.12-.69,6.24-1.38,9.36-2.06,2.3-.51,4.6-1.02,6.9-1.53.32-.07.63-.17.95-.26Z"/>
  <path class="cls-1" d="M225.7,277.61c1.92.78,4.01.91,6.01,1.42,3.53.9,7.11,1.56,10.67,2.35,1.67.37,1.8.62,1.3,2.18-1.88,5.84-3.7,11.69-5.69,17.49-.33.96-.09,1.93-.6,2.92-.68,1.35-1.39,1-2.25.55-3.07-1.59-6.11-3.24-9.18-4.83-3.44-1.78-6.89-3.55-10.38-5.23-.89-.43-.88-.86-.45-1.52,1.16-1.79,2.34-3.55,3.49-5.35,1.96-3.07,3.91-6.15,5.82-9.25.32-.51.63-.8,1.26-.73Z"/>
  <path class="cls-1" d="M259.6,254c3.08,5.46,6.12,10.95,8.85,16.6.38.78,1.47,1.48.96,2.34-.5.85-1.78.67-2.71.97-2.18.7-4.35,1.48-6.52,2.12-1.74.51-3.52,1.04-5.3,1.51-2.5.66-4.95,1.49-7.42,2.25-1.11.35-1.91.2-2.15-1.13-.78-4.5-2.13-8.87-3.08-13.33-.19-.87-.29-1.75-.61-2.61-.36-.95.22-1.58,1.02-2.07,3.53-2.16,7.04-4.33,10.56-6.5.11.15.2.41.32.42,1.83.18,3.67.16,5.51.02.29-.02.45-.31.56-.58Z"/>
  <path class="cls-1" d="M570.63,249.6c0-6.86,0-13.71,0-20.57,0-1.86.02-1.86,1.87-1.88,1.96-.01,3.91,0,5.87-.01.51,0,.79,0,.87.72.09.84.19,1.6-.06,2.45-.34,1.2.26,2.4.26,3.62-.01,12.15-.02,24.3.03,36.46,0,1.24-.31,1.64-1.58,1.58-2-.09-4.01-.05-6.01.03-1,.04-1.3-.26-1.3-1.27.04-7.04.02-14.09.02-21.13,0,0,.02,0,.02,0Z"/>
  <path class="cls-1" d="M579.42,215.08c0,1.13-.05,2.27.02,3.4.05.91-.23,1.26-1.19,1.24-2.19-.04-4.38-.01-6.57.04-.79.02-1.1-.22-1.09-1.04.04-2.36.02-4.72-.01-7.08-.01-.92.26-1.35,1.31-1.31,2.14.08,4.29.07,6.43,0,.96-.03,1.23.29,1.16,1.22-.09,1.17-.02,2.36-.02,3.54,0,0-.02,0-.02,0Z"/>
  <path class="cls-1" d="M733.01,217.9c0-1.13-.03-2.27.02-3.4.02-.47.19-.96.79-1.04.52-.07.72.34.99.67,1.09,1.34,1.26,3.11,2.19,4.53.19.29.15.8.7.75.41-.04.5-.41.64-.69.76-1.42,1.52-2.83,2.23-4.27.25-.5.55-1.01,1.07-1.03.66-.03.72.65.82,1.14.42,2.1.11,4.23.17,6.34.01.43-.32.52-.7.51-.4-.02-.43-.31-.43-.6.01-1.28.04-2.55.05-3.83,0-.32.06-.76-.34-.84-.38-.07-.52.34-.66.64-.55,1.15-1.07,2.31-1.64,3.45-.27.53-.51,1.17-1.28,1.17-.74,0-.67-.71-.88-1.13-.43-.84-.76-1.73-1.17-2.57-.21-.42-.54-.88-1.06-.73-.45.13-.21.66-.22,1-.04.85.01,1.7-.05,2.55-.03.41-.18.85-.76.86-.74,0-.49-.57-.5-.93-.04-.85-.01-1.7-.01-2.55.02,0,.04,0,.05,0Z"/>
  <path class="cls-1" d="M174.01,254.01c-.33.68-.96.64-1.58.66-1.57.05-3.22-.34-4.55.95-.42.41-.76-.05-1.04-.35.29-1.38,1.51-2.28,1.89-3.64.18-.66.82-.47,1.27-.19,1.35.84,2.68,1.71,4.02,2.57Z"/>
  <path class="cls-1" d="M724.55,213.68c2.69.41,5.17-.59,7.73.08-.5.89-1.25.9-1.95.83-1.17-.11-1.47.35-1.39,1.46.1,1.55.03,3.11,0,4.67,0,.42.16,1.04-.64.98-.66-.05-.53-.56-.53-.96-.02-1.56-.09-3.12.01-4.67.07-1.15-.23-1.64-1.46-1.46-.61.09-1.35.22-1.77-.93Z"/>
  <path class="cls-1" d="M259.6,254c-.11.27-.27.56-.56.58-1.84.14-3.68.15-5.51-.02-.12-.01-.22-.27-.32-.42,1.25-.86,2.5-1.72,3.74-2.6.68-.49,1.22-.47,1.61.33.35.71.7,1.42,1.05,2.13Z"/>
</svg>