<?xml version="1.0" encoding="UTF-8"?>
<svg id="Layer_1" data-name="Layer 1" xmlns="http://www.w3.org/2000/svg" viewBox="0 0 900 500">
  <defs>
    <style>
      .cls-1 {
        fill: #0058f5;
      }
    </style>
  </defs>
  <g id="s2c0mG">
    <g>
      <path class="cls-1" d="M222.72,184.14c3.51-15.35,16.2-20.02,30.92-17.7,15.37,2.42,19.56,15.55,18.12,29.46h-21.79c-.5-3.38,1.09-9.6-.85-12.27-3.13-4.31-5.13,3.31-5.4,5.59-1.26,10.61-1.04,33.41-.14,44.28.82,9.91,7.3,7.56,7.3,2.68v-14.93h-3.63v-17.2h24.52v51.59h-15.44v-5.43c-7.78,9.12-22.15,10.39-29.82.3l-3.78-10.26v-56.11Z"/>
      <path class="cls-1" d="M595.96,334.38h-3.63c-3.15-3.61-3.16-9.71-9.08-8.15v8.15s-3.63,0-3.63,0v-22.63c4.39-.14,13.27-.81,15.04,4.48,2.05,6.15-3.05,8.56-3.06,9.55s5.16,6.13,4.37,8.61ZM590.39,321.59l-.72-4.92-6.42-.4c-.84,6.39,1.4,7.73,7.14,5.31Z"/>
      <path class="cls-1" d="M491.53,334.38c-1.33-3.05-1.55-21.19-.06-22.23l11.87-.39-.86,4.12-7.34.92v4.01c.9.91,11.72-2.57,5.79,4.39l-5.78.12v4.53c.86.88,12.23-2.5,8.18,4.52h-11.81Z"/>
      <path class="cls-1" d="M524.22,334.38l-.78-21.14c8.06-5.69,21.77,3.45,4.41,3.04v4.53s7.27,0,7.27,0l-.11,3.05c-.83,2.47-5.31,1.56-7.15.56v5.43s7.64-.02,7.64-.02l.52,4.54h-11.81Z"/>
      <path class="cls-1" d="M546.01,334.38c-10.99-5.87-9.36-22.66,4.08-22.7,3.03,0,6.76.55,7.66,4.03l-2.19,2.17c-12.94-9.79-17.44,13.93-4.88,12.41,2.5-.3,4.27-2.82,7.13-1.33.62,3.56-2.27,3.85-4.54,5.42h-7.26Z"/>
      <path class="cls-1" d="M615.03,334.38c-12.21-4.71-10.45-22.64,3.18-22.7,3.03-.01,6.76.54,7.66,4.03l-2.19,2.17c-10.8-8.98-18.19,10.19-6.63,12.27,3.63.65,5.42-2.72,8.89-1.19.62,3.56-2.27,3.85-4.54,5.42h-6.36Z"/>
      <path class="cls-1" d="M507.87,334.38c-1.33-3.04-1.55-21.21-.06-22.23l3.69-.4v18.1h8.18s0,4.53,0,4.53h-11.81Z"/>
      <polygon class="cls-1" points="566.9 334.38 566.91 316.27 561.45 316.28 561.45 311.75 575.98 311.75 575.13 315.88 570.53 316.27 570.53 334.38 566.9 334.38"/>
      <polygon class="cls-1" points="599.59 334.38 599.6 311.75 602.77 311.75 603.23 334.38 599.59 334.38"/>
      <path class="cls-1" d="M512.41,240.24l.63-1.63c-2.85-1.02-.82-5.62,1.18-7.4l-4.53-1.85c2.78-4.09-1.79-5.49-1.8-5.86-.01-.34,2.95-2.96-.46-5.88-2.3,4.71-5.49,4.61-4.52,10.4.16.94,1.61,1.81,1.29,2.23-.11.15-1.31-.1-1.5.22-.21.35.55,1.11.36,1.44-.22.37-2.34-.24-1.53,1.98l2.72,1.82-5.45.02,3.63,4.51-4.53-1.8.37,5.46,4.16,1.77-6.34-.91-.93,3.62,3.64,1.81-5.41.91-3.65-8.14c-2.26,3.67-1.4,7.92-4.54,10.85.27-5.65-4.09-12.86-4.52-17.76-.39-4.37.17-11.89,2.19-15.78,1.23-2.37,3.64-3.94,4.14-6.72l-3.63-.47c.82-2.92,1.27-4.84.08-7.79-.37-.92.47-1.56-1.46-1.28l-31.31,30.36,3.63,2.73-2.76,6.39c-.19,1.64,1.8,1.02,2.38,3.04.71,2.51.69,7.47-3.25,6.37,1.27-2.86,1.14-5.4-2.3-5.37.13-4.32-.53-6.18-3.61-9.09-.32,1.72-2.88,3.53-2.98,3.77-.5,1.21,3.01,3.53-4.74,3.45l2.72-2.7-2.7-.44.92-1.75-1.84-.53,1.8-1.79-3.62-.93,2.1-.88.61-1.82-1.73-.4.89-2.66-2.79-2.85,1.83-.88c-4.32-3.63.99-11.54-7.26-6.78,2.86,2.83.5,3.51-.5,6.34-.33.93.38,1.89.33,2.24-.16.99-3.6.66-1.65,4.08-2.27-1.54-3.07-7.04-3.37-9.75-4.1-35.84,27.22-63.68,62.4-54.04,24.81,6.8,38.67,30.58,35.02,55.7-.39,2.68-4.02,17.03-7.77,14.43ZM512.4,208.57c3.52-20.44-14.79-34.37-33.58-25.33.89,2.15,5.05-.63,6.87-.84,12.91-1.47,22.19,5.67,25.59,17.79l1.12,8.38Z"/>
      <path class="cls-1" d="M652.72,166.94c3.93.28,10.91,1.21,14.38,2.86,12.47,5.95,14.08,34.19,1.52,41.03,13.14,9.11,6.47,30.88,8.17,44.81h-20.89c-2.47-5.62,1.03-33.83-2.4-36.28-1.14-.81-3.44-.82-4.87-.83v37.11h-20.89v-88.7c8.16.43,16.87-.58,24.97,0ZM648.63,203.14c8.24,1.46,6.96-9.22,6.41-14.99-.44-4.64-1.67-5.24-6.41-4.93v19.91Z"/>
      <path class="cls-1" d="M286.61,251.69c-2.89-2.89-5.33-8.72-5.78-12.79-1.38-12.44-1.19-40.8-.03-53.44,2.38-26.05,45.88-27.49,48.97,1.96,1.1,10.49,1.36,47.15-1.66,56.05-5.29,15.61-31.14,18.56-41.49,8.23ZM307.05,240.12c.79-1.5.96-3.13,1.08-4.81,1.2-16.37-.62-34.74-.48-51.19-3.74-3.03-5.46-1.01-5.91,3.16-1.29,11.96-.94,35.76-.04,48.02.12,1.67.29,3.31,1.08,4.81h4.28Z"/>
      <path class="cls-1" d="M621.39,255.64h-21.79l-1.43-18.12h-6.75s-.9,18.12-.9,18.12h-21.79l9.93-88.3,33.26.46,9.48,87.85ZM597.77,219.43l-1.82-26.69-1.8-7.7-1.83,34.39h5.45Z"/>
      <path class="cls-1" d="M416.15,195h-19.07c-.6-4.14,2.09-11.26-3.16-12.67-8.18,11.2,8.56,19.38,14.93,26.72,8.68,9.99,11.37,25.26,5.93,37.54-7.05,15.92-38.86,15.11-43.65-4.47-.93-3.8-2.29-12.54.06-15.44h18.16c3.78,3.79-1.85,12.6,4.52,14.48,8.56-12.67-8.95-21.73-15.85-30.33-7.71-9.62-9.3-21.25-4.82-32.82,5.01-12.93,23.62-15.28,34.48-8.52,8.45,5.26,8.67,16.63,8.45,25.52Z"/>
      <polygon class="cls-1" points="546.01 238.44 565.99 238.44 564.18 255.64 524.22 255.64 524.22 168.3 525.58 166.94 544.65 166.94 546.01 168.3 546.01 238.44"/>
      <path class="cls-1" d="M420.69,333.47c-.2-1.31,1.6-1.27,2.54-1.53,9.45-2.63,19.25-3.07,28.23-8.07,16.81-9.36-10.85-11.88-9.01-21.6.9-4.76,17.41-7.37,16.39-14.42-.46-3.19-4.59-4.7-3.29-9.64.54-2.06,7.47-6.16,9.63-4.92-14.56,7.84,2.14,12.47,1.63,17.96-.4,4.31-10.85,5.7-8.75,12.63,1.35,4.46,22.09,10.67,25.91,15.38,5,6.17-9.51,14.22-13.79,14.22h-49.49Z"/>
      <path class="cls-1" d="M313.54,290.03c2.35.25,1.45,0,1.84-1.33.93-3.15,4.92-20.89,6.29-21.79s5.9-.85,6.87.46l6.33,22.64,6.94-23.41,8.96-.12-10.8,37.48-8.74-.35-6.34-20.84-6.34,20.84-8.68.47-11.4-34.86.51-2.32c2.62-.59,7.39-1.36,9.05,1.01,2.35,3.35,4.12,17.39,5.52,22.11Z"/>
      <path class="cls-1" d="M496.52,266.5c3.87.68,8.24,5.13,9.14,8.98,2.31,9.84-5.1,12.79-4.91,14.83.25,2.69,8.12,12.24,6.22,14.19-2.73-.24-6.43.8-8.7-.83-2.06-1.49-5.24-11.24-5.98-11.69-1.14-.7-4.58.14-6.22-.15l-.85,12.28-8.23.4v-38.01c5.88.73,13.96-.99,19.52,0ZM495.84,282.57c1.7-1.67,1.08-5.09-.68-6.58l-9.09-.45v8.15c2.53-.18,7.95.66,9.77-1.13Z"/>
      <path class="cls-1" d="M365.96,272.14c26.91-4.94,27.46,33.85,4.37,33.3-20.33-.48-21.41-30.17-4.37-33.3ZM368.7,279.36c-9.35,1.8-8.69,16.49-.17,17.85,14.28,2.28,13.63-20.44.17-17.85Z"/>
      <path class="cls-1" d="M612.76,271.93c6.89.97,11.99,7.48,9.85,14.33-.82,2.64-3.89,4.29-3.93,6.01l5.43,12.24c-9.56,1.97-9.45-4.57-13.32-10.89l-4.84.03c.39,7.28,1.18,14.51-8.17,9.51v-29.87l1.36-1.36c4.29.42,9.48-.58,13.62,0ZM613.9,286.19c4.64-4.57-5.59-9.04-7.54-6.16l-.41,7.29c2.15-.06,6.38.41,7.95-1.13Z"/>
      <path class="cls-1" d="M589.15,271.93l1.22,1.5.15,5.75-11.83.52v4.92s9.87.12,9.87.12l.23,6.58-10.09.52v5.44s11.87.39,11.87.39c1.51,1.06,1.33,5.81-.51,6.85h-18.16l-1.36-1.36v-29.87l1.36-1.36h17.25Z"/>
      <path class="cls-1" d="M547.84,296.37c2.39.27,1.43-.04,1.82-1.33,1.06-3.51,5.55-20.74,6.78-22.22,1.47-1.76,5.6-.61,7.73-.89l-10.86,32.16c-2.85.54-8.16,1.42-9.95-1.02l-10.93-29.8c1.69-2.15,6.49-1.96,8.19-.05,2.9,3.27,5.33,18.31,7.21,23.14Z"/>
      <path class="cls-1" d="M439.31,271.93l1.22,1.5.15,5.75-12.32.84-.4,5.49c16.22-2.64,16.24,10.77,0,8.14v10.87s-7.26,0-7.26,0v-31.23l1.36-1.36h17.25Z"/>
      <path class="cls-1" d="M401.62,297.27h11.81s0,7.24,0,7.24h-18.62l-1.36-1.36v-29.87c1.81-2.11,6.36-2.11,8.17,0v23.98Z"/>
      <path class="cls-1" d="M518.77,273.29c.61-1.95,7.01-2.1,8.17,0v29.87c-1.81,2.11-6.36,2.11-8.17,0v-29.87Z"/>
    </g>
  </g>
</svg>