<?xml version="1.0" encoding="UTF-8"?>
<svg id="Layer_1" data-name="Layer 1" xmlns="http://www.w3.org/2000/svg" viewBox="0 0 318.04 148.5">
  <defs>
    <style>
      .cls-1 {
        fill: #0058f4;
      }
    </style>
  </defs>
  <g>
    <path class="cls-1" d="M59.47,1.41l-20.97,34.63L17.67,1.41H3.59l27.89,46.18v24.85h13.18v-25.06L72.47,1.41h-13Z"/>
    <path class="cls-1" d="M146.43,13.65V1.41h-57.34v78.56h40.13c-.04-.15-.07-.29-.07-.43-.33-1.7-.47-3.48-.47-5.29,0-2.25.25-4.42.69-6.52h-25.72v-21.66h37.92v-11.99h-37.92V13.65h42.77Z"/>
    <path class="cls-1" d="M64.07,126.98c-6.08,6.12-13.08,8.87-21.41,8.87-16.52,0-28.14-11.19-28.14-27.27s11.63-27.27,28.03-27.27c5.54,0,10.97,1.12,15.97,3.98v10.54h-12.24l10.87,13.65h14.99v-30.97c-7.39-5.94-17.46-9.24-27.49-9.78-.98-.04-1.92-.07-2.86-.07-3.59,0-7.06.36-10.32,1.09C12.82,73.81,0,88.85,0,108.59c0,23.18,17.71,39.91,42.01,39.91,12.97,0,23.83-4.31,31.15-12.64l-9.09-8.87Z"/>
    <path class="cls-1" d="M103.66,133.61v-20.43h37.92v-11.99h-37.92v-21.66h25.5c-.33-1.7-.47-3.48-.47-5.29,0-2.25.25-4.42.69-6.52.04-.15.07-.29.11-.43h-40.38v78.52h57.34v-12.21h-42.77Z"/>
    <g>
      <path class="cls-1" d="M238.9,70.45L207.1,0h-13.73l-21.15,46.98c4.96,2.39,9.2,6.12,12.17,10.68h34.52l6.34,14.74,1.16,2.64h9.56c1.81,0,3.12-1.41,3.19-3.04.07-.51-.04-1.05-.25-1.56ZM186.09,46.72l14.05-32.78,14.13,32.78h-28.18Z"/>
      <path class="cls-1" d="M239.16,72c-.29-1.2-1.38-2.17-2.79-2.17h-10l-1.12,2.57-6.41,14.81h-32.42c-2.72,5.79-7.24,10.58-12.89,13.65l19.81,44.01h13.73l31.98-70.84c.29-.69.33-1.38.11-2.03ZM200.11,130.93l-14.05-32.78h28.18l-14.13,32.78Z"/>
    </g>
    <g>
      <path class="cls-1" d="M302.07,50.38c10.21-3.95,15.97-12.31,15.97-23.69,0-16.62-12.21-26.69-31.91-26.69h-30.9v75.05h13.94v-21.88h16.95c.94,0,1.92,0,2.86-.11l13.55,19.38,1.81,2.61h9.53c2.28,0,3.66-2.61,2.32-4.49l-14.13-20.17ZM285.48,41.69h-16.3V11.81h16.3c12.21,0,18.54,5.47,18.54,14.89s-6.34,14.99-18.54,14.99Z"/>
      <path class="cls-1" d="M302.07,94.5l14.45-20.61c.8-1.12.54-2.5-.33-3.33-.43-.43-1.05-.72-1.77-.72h-10.07l-1.81,2.61-13.55,19.38c-.94-.11-1.92-.11-2.86-.11h-16.95v-21.88h-13.94v75.05h30.9c19.7,0,31.91-10.07,31.91-26.69,0-11.34-5.76-19.7-15.97-23.69ZM285.48,133.11h-16.3v-29.92h16.3c12.21,0,18.54,5.58,18.54,14.99s-6.34,14.92-18.54,14.92Z"/>
    </g>
  </g>
  <g>
    <path class="cls-1" d="M159.02,48.99c-13.95,0-25.26,11.31-25.26,25.26,0,13.95,11.31,25.26,25.26,25.26,13.95,0,25.26-11.31,25.26-25.26,0-13.95-11.31-25.26-25.26-25.26ZM153.57,80.53c-3.79,0-6.58-2.67-6.58-6.28,0-3.61,2.79-6.28,6.58-6.28,3.79,0,6.58,2.65,6.58,6.28s-2.79,6.28-6.58,6.28ZM171.06,70.04h-6.65v3.72h5.9s0,1.92,0,1.92h-5.9v4.68s-2.27,0-2.27,0v-12.22s8.92,0,8.92,0v1.9Z"/>
    <path class="cls-1" d="M153.57,69.95c-2.46,0-4.29,1.8-4.29,4.29,0,2.5,1.83,4.29,4.29,4.29,2.46,0,4.29-1.8,4.29-4.29,0-2.5-1.83-4.29-4.29-4.29Z"/>
  </g>
</svg>